<?xml version="1.0" encoding="UTF-8"?>
<svg id="Calque_1" xmlns="http://www.w3.org/2000/svg" version="1.1" viewBox="0 0 482.55 328.34">
  <!-- Generator: Adobe Illustrator 29.1.0, SVG Export Plug-In . SVG Version: 2.1.0 Build 142)  -->
  <defs>
    <style>
      .st0 {
        fill: #100083;
      }

      .st1 {
        fill: #ff3800;
      }
    </style>
  </defs>
  <circle class="st0" cx="170.57" cy="167.14" r="17.29"/>
  <path class="st0" d="M380.28,197.96c-13.58,12.35-25.69,20.26-45.45,20.26-29.64,0-50.14-24.7-50.14-54.35v-.49c0-29.64,20.99-53.85,50.14-53.85,17.29,0,30.87,7.41,44.21,19.51l24.21-27.91c-16.05-15.81-35.57-26.66-68.18-26.66-17.6,0-33.43,4.42-46.73,12.12-3.88-5.41-10.23-8.92-17.41-8.92-11.84,0-21.44,9.6-21.44,21.46,0,6.64,3.03,12.59,7.77,16.54.21.17.43.35.64.52.03.02.07.03.1.07v.02c3.79,3.18,6.19,7.93,6.19,13.27,0,9.55-7.74,17.29-17.29,17.29-.16,0-.3,0-.45-.02,0,.02-.02.02,0,.03-9.34.23-16.84,7.88-16.84,17.27s7.27,16.82,16.4,17.29h.43c.28,0,.56.02.82.02,9.13.47,16.4,8.02,16.4,17.27,0,5.15-2.24,9.77-5.81,12.92.02.03.05.07.07.1,0,0,0,0,0,.01-5.14,3.92-8.47,10.09-8.47,17.05,0,11.85,9.61,21.46,21.46,21.46,7.13,0,13.42-3.49,17.33-8.84,0,0,0,0,0,0,13.08,7.56,28.49,11.86,45.32,11.86,33.34,0,53.1-11.84,70.89-30.87l-24.21-24.45Z"/>
  <circle class="st1" cx="179.31" cy="93.83" r="7.42"/>
  <circle class="st1" cx="141.83" cy="128.92" r="10.63"/>
  <circle class="st1" cx="85.48" cy="167.39" r="7.42"/>
  <circle class="st0" cx="108.09" cy="131.3" r="7.42"/>
  <circle class="st0" cx="220.41" cy="93.83" r="11.61"/>
  <circle class="st0" cx="124.77" cy="166.92" r="11.93"/>
  <circle class="st0" cx="210.28" cy="165.8" r="7.42"/>
  <circle class="st0" cx="142.44" cy="92.04" r="10.32"/>
  <circle class="st0" cx="180.41" cy="241.35" r="7.42"/>
  <circle class="st0" cx="219.52" cy="242.25" r="11.61"/>
  <circle class="st1" cx="145.95" cy="241.75" r="7.42"/>
  <circle class="st0" cx="189.05" cy="126.39" r="16.43"/>
  <circle class="st0" cx="140.72" cy="205.24" r="11.54"/>
  <circle class="st0" cx="108.09" cy="205.69" r="7.42"/>
  <circle class="st0" cx="179.31" cy="205.69" r="11.32"/>
  <path class="st0" d="M236.72,202.99c0,3.03-.77,5.86-2.14,8.33-2.94,5.34-8.63,8.96-15.15,8.96-9.55,0-17.29-7.74-17.29-17.29s7.74-17.29,17.29-17.29c4.56,0,8.73,1.77,11.81,4.68,3.37,3.15,5.48,7.64,5.48,12.61Z"/>
  <path class="st0" d="M229.8,132.04c-.24.37-.54.71-.85,1.03-2.9,2.9-7.6,2.9-10.49,0-2.9-2.89-2.9-7.58,0-10.49,2.89-2.9,7.58-2.9,10.49,0,.59.61,1.06,1.27,1.41,2,1.18,2.37.99,5.25-.56,7.46Z"/>
</svg>