<svg width="1116" height="1648" viewBox="0 0 1116 1648" fill="none" xmlns="http://www.w3.org/2000/svg">
<g opacity="0.08">
<path d="M754.789 928.821C754.789 829.518 674.081 749.031 574.553 749.031L574.553 928.821L754.789 928.821Z" fill="#F1F1F0"/>
<path d="M574.531 1108.61L574.531 928.82L754.767 928.82L754.767 1108.61L574.531 1108.61Z" fill="white" fill-opacity="0.08"/>
<path d="M754.789 1108.61L754.789 928.82L574.531 1108.61L754.789 1108.61Z" fill="#100083" fill-opacity="0.2"/>
<path d="M754.789 1288.42L754.789 1108.63L574.531 1108.63C574.531 1207.91 655.239 1288.42 754.789 1288.42Z" fill="#100083"/>
<path d="M754.789 1648L754.789 1468.21L574.531 1468.21C574.531 1567.49 655.239 1648 754.789 1648Z" fill="#100083" fill-opacity="0.2"/>
<path d="M754.985 1469.43L754.985 1289.64C655.436 1289.64 574.749 1370.12 574.749 1469.43L754.985 1469.43Z" fill="#100083" fill-opacity="0.08"/>
<path d="M754.789 1581.13L754.789 1468.21L641.589 1468.21C641.568 1530.57 692.251 1581.13 754.789 1581.13Z" fill="#F1F1F0"/>
<path d="M754.789 1468.21L754.789 1355.29C692.273 1355.29 641.589 1405.85 641.589 1468.21L754.789 1468.21Z" fill="#100083"/>
<path d="M935.026 928.82C935.026 829.517 1015.71 749.031 1115.26 749.03L1115.26 928.82L935.026 928.82Z" fill="#100083"/>
<path d="M935.026 928.82L1115.26 928.82L1115.26 1108.61C1015.71 1108.61 935.026 1028.12 935.026 928.82Z" fill="white" fill-opacity="0.2"/>
<path d="M1011.11 928.82C1011.11 871.444 1057.74 824.921 1115.26 824.921L1115.26 928.82L1011.11 928.82Z" fill="#F1F1F0"/>
<path d="M1011.1 928.82L1115.26 928.82L1115.26 1032.72C1057.74 1032.72 1011.1 986.197 1011.1 928.82Z" fill="#F9FBFC"/>
<path d="M935.026 1108.61C1034.58 1108.61 1115.26 1189.1 1115.26 1288.4C1015.71 1288.42 935.026 1207.91 935.026 1108.61Z" fill="white"/>
<path d="M935.026 1648L935.026 1468.21L1115.26 1468.21L1115.26 1648L935.026 1648Z" fill="white" fill-opacity="0.08"/>
<path d="M935.026 1468.21C935.026 1368.91 1015.71 1288.42 1115.26 1288.42L1115.26 1468.21L935.026 1468.21Z" fill="#100083"/>
<path d="M754.79 928.82C854.34 928.82 935.026 1009.31 935.026 1108.61C835.477 1108.61 754.79 1028.12 754.79 928.82Z" fill="#100083"/>
<path d="M754.789 1288.42C754.789 1189.12 835.476 1108.63 935.025 1108.63C935.025 1207.91 854.317 1288.42 754.789 1288.42Z" fill="#100083" fill-opacity="0.2"/>
<path d="M754.79 1468.21L754.79 1288.42L935.026 1288.42L935.026 1468.21L754.79 1468.21Z" fill="#F9FBFC"/>
<path d="M754.789 1423.26C754.789 1398.45 774.971 1378.32 799.848 1378.32C824.725 1378.32 844.907 1398.45 844.907 1423.26C844.907 1448.08 824.725 1468.21 799.848 1468.21C774.95 1468.21 754.789 1448.08 754.789 1423.26Z" fill="#100083" fill-opacity="0.2"/>
<path d="M789.184 1423.26C789.184 1417.39 793.964 1412.63 799.848 1412.63C805.732 1412.63 810.513 1417.39 810.513 1423.26C810.513 1429.13 805.732 1433.9 799.848 1433.9C793.943 1433.9 789.184 1429.13 789.184 1423.26Z" fill="#F9FBFC"/>
<path d="M754.79 1333.37C754.79 1308.55 774.972 1288.42 799.849 1288.42C824.726 1288.42 844.908 1308.55 844.908 1333.37C844.908 1358.18 824.726 1378.32 799.849 1378.32C774.951 1378.32 754.79 1358.18 754.79 1333.37Z" fill="white"/>
<path d="M789.184 1333.37C789.184 1327.5 793.965 1322.73 799.848 1322.73C805.732 1322.73 810.513 1327.5 810.513 1333.37C810.513 1339.24 805.732 1344.01 799.848 1344.01C793.943 1344.01 789.184 1339.24 789.184 1333.37Z" fill="#100083" fill-opacity="0.2"/>
<path d="M844.908 1423.26C844.908 1398.45 865.09 1378.32 889.967 1378.32C914.843 1378.32 935.026 1398.45 935.026 1423.26C935.026 1448.08 914.843 1468.21 889.967 1468.21C865.068 1468.21 844.908 1448.08 844.908 1423.26Z" fill="white"/>
<path d="M879.302 1423.26C879.302 1417.39 884.083 1412.62 889.967 1412.62C895.851 1412.62 900.631 1417.39 900.631 1423.26C900.631 1429.13 895.851 1433.9 889.967 1433.9C884.083 1433.9 879.302 1429.13 879.302 1423.26Z" fill="#100083" fill-opacity="0.2"/>
<path d="M844.908 1333.37C844.908 1308.55 865.09 1288.42 889.967 1288.42C914.843 1288.42 935.026 1308.55 935.026 1333.37C935.026 1358.18 914.844 1378.32 889.967 1378.32C865.069 1378.32 844.908 1358.18 844.908 1333.37Z" fill="#100083"/>
<path d="M879.302 1333.37C879.302 1327.5 884.083 1322.73 889.967 1322.73C895.851 1322.73 900.632 1327.5 900.632 1333.37C900.632 1339.24 895.851 1344.01 889.967 1344.01C884.083 1344.01 879.302 1339.24 879.302 1333.37Z" fill="#E9E5D9"/>
<path d="M754.789 1648L754.789 1468.21L935.025 1468.21L935.025 1648L754.789 1648Z" fill="#100083"/>
<path d="M806.51 1596.39L806.51 1519.8L883.282 1519.8L883.282 1596.39L806.51 1596.39Z" fill="white"/>
<path d="M999.77 1492.92C999.77 1495.21 998.839 1497.45 997.217 1499.07C995.595 1500.69 993.345 1501.61 991.052 1501.61C988.759 1501.61 986.509 1500.69 984.887 1499.07C983.265 1497.45 982.334 1495.21 982.334 1492.92C982.334 1490.63 983.265 1488.39 984.887 1486.77C986.509 1485.15 988.759 1484.22 991.052 1484.22C993.345 1484.22 995.595 1485.15 997.217 1486.77C998.839 1488.39 999.77 1490.63 999.77 1492.92Z" fill="white"/>
<path d="M999.77 1582.7L999.77 1582.75C999.77 1587.56 995.854 1591.47 991.03 1591.47C986.206 1591.47 982.291 1587.56 982.291 1582.75L982.291 1582.7C982.291 1577.89 986.206 1573.99 991.03 1573.99C995.854 1574.01 999.77 1577.89 999.77 1582.7Z" fill="white"/>
<path d="M999.77 1537.8L999.77 1537.84C999.77 1542.66 995.854 1546.56 991.03 1546.56C986.206 1546.56 982.291 1542.66 982.291 1537.84L982.291 1537.8C982.291 1532.99 986.206 1529.08 991.03 1529.08C995.854 1529.1 999.77 1532.99 999.77 1537.8Z" fill="white"/>
<path d="M999.77 1627.63C999.77 1629.92 998.839 1632.16 997.217 1633.78C995.595 1635.4 993.345 1636.33 991.052 1636.33C988.759 1636.33 986.509 1635.4 984.887 1633.78C983.265 1632.16 982.334 1629.92 982.334 1627.63C982.334 1625.34 983.265 1623.1 984.887 1621.48C986.509 1619.86 988.759 1618.94 991.052 1618.94C993.345 1618.94 995.595 1619.86 997.217 1621.48C998.839 1623.1 999.77 1625.34 999.77 1627.63Z" fill="white"/>
<path d="M963.905 1492.92C963.905 1495.21 962.974 1497.45 961.352 1499.07C959.73 1500.69 957.48 1501.61 955.187 1501.61C952.894 1501.61 950.644 1500.69 949.022 1499.07C947.4 1497.45 946.469 1495.21 946.469 1492.92C946.469 1490.63 947.4 1488.39 949.022 1486.77C950.644 1485.15 952.894 1484.22 955.187 1484.22C957.48 1484.22 959.73 1485.15 961.352 1486.77C962.974 1488.39 963.905 1490.63 963.905 1492.92Z" fill="white"/>
<path d="M963.904 1582.7L963.904 1582.75C963.904 1587.56 959.989 1591.47 955.165 1591.47C950.341 1591.47 946.426 1587.56 946.426 1582.75L946.426 1582.7C946.426 1577.89 950.341 1573.99 955.165 1573.99C960.011 1574.01 963.904 1577.89 963.904 1582.7Z" fill="white"/>
<path d="M963.904 1537.8L963.904 1537.84C963.904 1542.66 959.989 1546.56 955.165 1546.56C950.341 1546.56 946.426 1542.66 946.426 1537.84L946.426 1537.8C946.426 1532.99 950.341 1529.08 955.165 1529.08C960.011 1529.1 963.904 1532.99 963.904 1537.8Z" fill="white"/>
<path d="M963.905 1627.63C963.905 1629.92 962.974 1632.16 961.352 1633.78C959.73 1635.4 957.48 1636.33 955.187 1636.33C952.894 1636.33 950.644 1635.4 949.022 1633.78C947.4 1632.16 946.469 1629.92 946.469 1627.63C946.469 1625.34 947.4 1623.1 949.022 1621.48C950.644 1619.86 952.894 1618.94 955.187 1618.94C957.48 1618.94 959.73 1619.86 961.352 1621.48C962.974 1623.1 963.905 1625.34 963.905 1627.63Z" fill="white"/>
<path d="M1035.64 1492.92C1035.64 1495.21 1034.71 1497.45 1033.08 1499.07C1031.46 1500.69 1029.21 1501.61 1026.92 1501.61C1024.62 1501.61 1022.37 1500.69 1020.75 1499.07C1019.13 1497.45 1018.2 1495.21 1018.2 1492.92C1018.2 1490.63 1019.13 1488.39 1020.75 1486.77C1022.37 1485.15 1024.62 1484.22 1026.92 1484.22C1029.21 1484.22 1031.46 1485.15 1033.08 1486.77C1034.71 1488.39 1035.64 1490.63 1035.64 1492.92Z" fill="white"/>
<path d="M1035.64 1582.7L1035.64 1582.75C1035.64 1587.56 1031.72 1591.47 1026.9 1591.47C1022.07 1591.47 1018.16 1587.56 1018.16 1582.75L1018.16 1582.7C1018.16 1577.89 1022.07 1573.99 1026.9 1573.99C1031.72 1574.01 1035.64 1577.89 1035.64 1582.7Z" fill="white"/>
<path d="M1035.64 1537.8L1035.64 1537.84C1035.64 1542.66 1031.72 1546.56 1026.9 1546.56C1022.07 1546.56 1018.16 1542.66 1018.16 1537.84L1018.16 1537.8C1018.16 1532.99 1022.07 1529.08 1026.9 1529.08C1031.72 1529.1 1035.64 1532.99 1035.64 1537.8Z" fill="white"/>
<path d="M1035.64 1627.63C1035.64 1629.92 1034.71 1632.16 1033.08 1633.78C1031.46 1635.4 1029.21 1636.33 1026.92 1636.33C1024.62 1636.33 1022.37 1635.4 1020.75 1633.78C1019.13 1632.16 1018.2 1629.92 1018.2 1627.63C1018.2 1625.34 1019.13 1623.1 1020.75 1621.48C1022.37 1619.86 1024.62 1618.93 1026.92 1618.93C1029.21 1618.93 1031.46 1619.86 1033.08 1621.48C1034.71 1623.1 1035.64 1625.34 1035.64 1627.63Z" fill="white"/>
<path d="M1071.5 1492.92C1071.5 1495.21 1070.57 1497.45 1068.95 1499.07C1067.33 1500.69 1065.08 1501.61 1062.78 1501.61C1060.49 1501.61 1058.24 1500.69 1056.62 1499.07C1055 1497.45 1054.07 1495.21 1054.07 1492.92C1054.07 1490.63 1055 1488.39 1056.62 1486.77C1058.24 1485.15 1060.49 1484.22 1062.78 1484.22C1065.08 1484.22 1067.33 1485.15 1068.95 1486.77C1070.57 1488.39 1071.5 1490.63 1071.5 1492.92Z" fill="white"/>
<path d="M1071.5 1582.7L1071.5 1582.75C1071.5 1587.56 1067.59 1591.47 1062.76 1591.47C1057.94 1591.47 1054.02 1587.56 1054.02 1582.75L1054.02 1582.7C1054.02 1577.89 1057.94 1573.99 1062.76 1573.99C1067.59 1574.01 1071.5 1577.89 1071.5 1582.7Z" fill="white"/>
<path d="M1071.5 1537.8L1071.5 1537.84C1071.5 1542.66 1067.59 1546.56 1062.76 1546.56C1057.94 1546.56 1054.02 1542.66 1054.02 1537.84L1054.02 1537.8C1054.02 1532.99 1057.94 1529.08 1062.76 1529.08C1067.59 1529.1 1071.5 1532.99 1071.5 1537.8Z" fill="white"/>
<path d="M1071.5 1627.63C1071.5 1629.92 1070.57 1632.16 1068.95 1633.78C1067.33 1635.4 1065.08 1636.33 1062.78 1636.33C1060.49 1636.33 1058.24 1635.4 1056.62 1633.78C1055 1632.16 1054.07 1629.92 1054.07 1627.63C1054.07 1625.34 1055 1623.1 1056.62 1621.48C1058.24 1619.86 1060.49 1618.94 1062.78 1618.94C1065.08 1618.94 1067.33 1619.86 1068.95 1621.48C1070.57 1623.1 1071.5 1625.34 1071.5 1627.63Z" fill="white"/>
<path d="M1107.37 1492.92C1107.37 1495.21 1106.44 1497.45 1104.81 1499.07C1103.19 1500.69 1100.94 1501.61 1098.65 1501.61C1096.36 1501.61 1094.11 1500.69 1092.48 1499.07C1090.86 1497.45 1089.93 1495.21 1089.93 1492.92C1089.93 1490.63 1090.86 1488.39 1092.48 1486.77C1094.11 1485.15 1096.36 1484.22 1098.65 1484.22C1100.94 1484.22 1103.19 1485.15 1104.81 1486.77C1106.44 1488.39 1107.37 1490.63 1107.37 1492.92Z" fill="white"/>
<path d="M1107.37 1582.7L1107.37 1582.75C1107.37 1587.56 1103.45 1591.47 1098.63 1591.47C1093.8 1591.47 1089.89 1587.56 1089.89 1582.75L1089.89 1582.7C1089.89 1577.89 1093.8 1573.99 1098.63 1573.99C1103.45 1574.01 1107.37 1577.89 1107.37 1582.7Z" fill="white"/>
<path d="M1107.37 1537.8L1107.37 1537.84C1107.37 1542.66 1103.45 1546.56 1098.63 1546.56C1093.8 1546.56 1089.89 1542.66 1089.89 1537.84L1089.89 1537.8C1089.89 1532.99 1093.8 1529.08 1098.63 1529.08C1103.45 1529.1 1107.37 1532.99 1107.37 1537.8Z" fill="white"/>
<path d="M1107.37 1627.63C1107.37 1629.92 1106.44 1632.16 1104.81 1633.78C1103.19 1635.4 1100.94 1636.33 1098.65 1636.33C1096.36 1636.33 1094.11 1635.4 1092.48 1633.78C1090.86 1632.16 1089.93 1629.92 1089.93 1627.63C1089.93 1625.34 1090.86 1623.1 1092.48 1621.48C1094.11 1619.86 1096.36 1618.94 1098.65 1618.94C1100.94 1618.94 1103.19 1619.86 1104.81 1621.48C1106.44 1623.1 1107.37 1625.34 1107.37 1627.63Z" fill="white"/>
<path d="M459.19 951.24C459.19 953.528 458.26 955.772 456.637 957.39C455.015 959.008 452.765 959.936 450.472 959.936C448.179 959.936 445.929 959.008 444.307 957.39C442.685 955.772 441.754 953.528 441.754 951.24C441.754 948.953 442.685 946.709 444.307 945.09C445.929 943.472 448.179 942.544 450.472 942.544C452.765 942.544 455.015 943.472 456.637 945.09C458.26 946.709 459.19 948.953 459.19 951.24Z" fill="white" fill-opacity="0.2"/>
<path d="M459.189 1041.03L459.189 1041.07C459.189 1045.88 455.274 1049.79 450.45 1049.79C445.626 1049.79 441.711 1045.88 441.711 1041.07L441.711 1041.03C441.711 1036.22 445.626 1032.31 450.45 1032.31C455.274 1032.33 459.189 1036.24 459.189 1041.03Z" fill="white" fill-opacity="0.2"/>
<path d="M459.189 996.123L459.189 996.166C459.189 1000.98 455.274 1004.88 450.45 1004.88C445.626 1004.88 441.711 1000.98 441.711 996.166L441.711 996.123C441.711 991.311 445.626 987.405 450.45 987.405C455.274 987.427 459.189 991.311 459.189 996.123Z" fill="white" fill-opacity="0.2"/>
<path d="M459.189 1085.97C459.189 1088.26 458.259 1090.51 456.637 1092.12C455.014 1093.74 452.765 1094.67 450.472 1094.67C448.179 1094.67 445.929 1093.74 444.306 1092.12C442.684 1090.51 441.754 1088.26 441.754 1085.97C441.754 1083.69 442.684 1081.44 444.306 1079.82C445.929 1078.21 448.179 1077.28 450.472 1077.28C452.765 1077.28 455.014 1078.21 456.637 1079.82C458.259 1081.42 459.189 1083.67 459.189 1085.97Z" fill="white" fill-opacity="0.2"/>
<path d="M495.055 951.24C495.055 953.528 494.125 955.772 492.503 957.39C490.88 959.008 488.631 959.936 486.338 959.936C484.045 959.936 481.795 959.008 480.173 957.39C478.55 955.772 477.62 953.528 477.62 951.24C477.62 948.953 478.55 946.709 480.173 945.09C481.795 943.472 484.045 942.544 486.338 942.544C488.631 942.544 490.88 943.472 492.503 945.09C494.125 946.709 495.055 948.953 495.055 951.24Z" fill="white" fill-opacity="0.2"/>
<path d="M495.055 1041.03L495.055 1041.07C495.055 1045.88 491.14 1049.79 486.316 1049.79C481.492 1049.79 477.577 1045.88 477.577 1041.07L477.577 1041.03C477.577 1036.22 481.492 1032.31 486.316 1032.31C491.14 1032.33 495.055 1036.24 495.055 1041.03Z" fill="white" fill-opacity="0.2"/>
<path d="M495.055 996.123L495.055 996.166C495.055 1000.98 491.14 1004.88 486.316 1004.88C481.492 1004.88 477.577 1000.98 477.577 996.166L477.577 996.123C477.577 991.311 481.492 987.405 486.316 987.405C491.14 987.427 495.055 991.311 495.055 996.123Z" fill="white" fill-opacity="0.2"/>
<path d="M495.055 1085.97C495.055 1088.26 494.125 1090.51 492.503 1092.12C490.88 1093.74 488.63 1094.67 486.338 1094.67C484.045 1094.67 481.795 1093.74 480.172 1092.12C478.55 1090.51 477.62 1088.26 477.62 1085.97C477.62 1083.69 478.55 1081.44 480.172 1079.82C481.795 1078.21 484.045 1077.28 486.338 1077.28C488.63 1077.28 490.88 1078.21 492.503 1079.82C494.125 1081.42 495.055 1083.67 495.055 1085.97Z" fill="white" fill-opacity="0.2"/>
<path d="M530.921 951.24C530.921 953.528 529.991 955.772 528.369 957.39C526.746 959.008 524.496 959.936 522.203 959.936C519.911 959.936 517.661 959.008 516.038 957.39C514.416 955.772 513.486 953.528 513.486 951.24C513.486 948.953 514.416 946.709 516.038 945.09C517.661 943.472 519.91 942.544 522.203 942.544C524.496 942.544 526.746 943.472 528.369 945.09C529.991 946.709 530.921 948.953 530.921 951.24Z" fill="white" fill-opacity="0.2"/>
<path d="M530.921 1041.03L530.921 1041.07C530.921 1045.88 527.006 1049.79 522.182 1049.79C517.358 1049.79 513.442 1045.88 513.442 1041.07L513.442 1041.03C513.442 1036.22 517.358 1032.31 522.182 1032.31C527.006 1032.33 530.921 1036.24 530.921 1041.03Z" fill="white" fill-opacity="0.2"/>
<path d="M530.921 996.123L530.921 996.166C530.921 1000.98 527.006 1004.88 522.182 1004.88C517.358 1004.88 513.442 1000.98 513.442 996.166L513.442 996.123C513.442 991.311 517.358 987.405 522.182 987.405C527.006 987.427 530.921 991.311 530.921 996.123Z" fill="white" fill-opacity="0.2"/>
<path d="M530.921 1085.97C530.921 1088.26 529.991 1090.51 528.368 1092.12C526.746 1093.74 524.496 1094.67 522.203 1094.67C519.91 1094.67 517.661 1093.74 516.038 1092.12C514.416 1090.51 513.486 1088.26 513.486 1085.97C513.486 1083.69 514.416 1081.44 516.038 1079.82C517.661 1078.21 519.91 1077.28 522.203 1077.28C524.496 1077.28 526.746 1078.21 528.368 1079.82C529.991 1081.42 530.921 1083.67 530.921 1085.97Z" fill="white" fill-opacity="0.2"/>
<path d="M566.786 951.24C566.786 953.527 565.856 955.771 564.234 957.39C562.612 959.008 560.362 959.936 558.069 959.936C555.776 959.936 553.526 959.008 551.904 957.39C550.281 955.771 549.351 953.527 549.351 951.24C549.351 948.953 550.281 946.709 551.904 945.09C553.526 943.472 555.776 942.544 558.069 942.544C560.362 942.544 562.612 943.472 564.234 945.09C565.856 946.709 566.786 948.953 566.786 951.24Z" fill="white" fill-opacity="0.2"/>
<path d="M566.786 1041.03L566.786 1041.07C566.786 1045.88 562.871 1049.79 558.047 1049.79C553.223 1049.79 549.308 1045.88 549.308 1041.07L549.308 1041.03C549.308 1036.22 553.223 1032.31 558.047 1032.31C562.871 1032.33 566.786 1036.24 566.786 1041.03Z" fill="white" fill-opacity="0.2"/>
<path d="M566.786 996.123L566.786 996.166C566.786 1000.98 562.871 1004.88 558.047 1004.88C553.223 1004.88 549.308 1000.98 549.308 996.166L549.308 996.123C549.308 991.311 553.223 987.405 558.047 987.405C562.871 987.427 566.786 991.311 566.786 996.123Z" fill="white" fill-opacity="0.2"/>
<path d="M566.786 1085.97C566.786 1088.26 565.856 1090.51 564.234 1092.12C562.611 1093.74 560.361 1094.67 558.068 1094.67C555.775 1094.67 553.526 1093.74 551.903 1092.12C550.281 1090.51 549.351 1088.26 549.351 1085.97C549.351 1083.69 550.281 1081.44 551.903 1079.82C553.526 1078.21 555.775 1077.28 558.068 1077.28C560.361 1077.28 562.611 1078.21 564.234 1079.82C565.856 1081.42 566.786 1083.67 566.786 1085.97Z" fill="white" fill-opacity="0.2"/>
</g>
<g opacity="0.04">
<path d="M371.94 742.1C371.94 844.562 455.216 927.609 557.91 927.609L557.91 742.1L371.94 742.1Z" fill="#F1F1F0"/>
<path d="M557.932 556.592L557.932 742.101L371.962 742.101L371.962 556.592L557.932 556.592Z" fill="white" fill-opacity="0.08"/>
<path d="M371.94 556.592L371.94 742.101L557.932 556.592L371.94 556.592Z" fill="#100083" fill-opacity="0.2"/>
<path d="M371.94 371.061L371.94 556.57L557.932 556.57C557.932 454.13 474.656 371.061 371.94 371.061Z" fill="#100083"/>
<path d="M371.94 0.0433168L371.94 185.552L557.932 185.552C557.932 83.1125 474.656 0.0433124 371.94 0.0433168Z" fill="#100083" fill-opacity="0.2"/>
<path d="M371.737 184.297L371.737 369.805C474.453 369.805 557.707 286.758 557.707 184.297L371.737 184.297Z" fill="#100083" fill-opacity="0.08"/>
<path d="M371.939 69.0413L371.939 185.552L488.74 185.552C488.762 121.207 436.466 69.0413 371.939 69.0413Z" fill="#F1F1F0"/>
<path d="M371.939 185.552L371.939 302.063C436.444 302.063 488.74 249.897 488.74 185.552L371.939 185.552Z" fill="#100083"/>
<path d="M185.97 742.1C185.97 844.562 102.716 927.609 -0.000183031 927.609L-0.000191182 742.1L185.97 742.1Z" fill="#100083"/>
<path d="M185.97 742.101L-6.09605e-05 742.101L-6.91119e-05 556.592C102.716 556.592 185.97 639.639 185.97 742.101Z" fill="white" fill-opacity="0.2"/>
<path d="M107.47 742.101C107.47 801.302 59.3486 849.305 -0.000141289 849.305L-0.000146 742.101L107.47 742.101Z" fill="#F1F1F0"/>
<path d="M107.47 742.101L-0.000141289 742.101L-0.000146 634.897C59.3486 634.897 107.47 682.899 107.47 742.101Z" fill="#F9FBFC"/>
<path d="M185.97 556.592C83.2534 556.592 -6.46097e-05 473.545 -6.91119e-05 371.083C102.716 371.061 185.97 454.13 185.97 556.592Z" fill="white"/>
<path d="M185.97 0.0433044L185.97 185.552L-0.00012207 185.552L-0.000130222 0.0433125L185.97 0.0433044Z" fill="white" fill-opacity="0.08"/>
<path d="M185.97 185.553C185.97 288.014 102.716 371.061 -6.09605e-05 371.061L-6.91119e-05 185.553L185.97 185.553Z" fill="#100083"/>
<path d="M371.94 742.101C269.224 742.101 185.97 659.054 185.97 556.592C288.687 556.592 371.94 639.639 371.94 742.101Z" fill="#100083"/>
<path d="M371.94 371.06C371.94 473.522 288.687 556.569 185.97 556.569C185.97 454.129 269.246 371.06 371.94 371.06Z" fill="#100083" fill-opacity="0.2"/>
<path d="M371.94 185.552L371.94 371.061L185.97 371.061L185.97 185.552L371.94 185.552Z" fill="#F9FBFC"/>
<path d="M371.94 231.929C371.94 257.534 351.116 278.307 325.448 278.307C299.78 278.307 278.955 257.534 278.955 231.929C278.955 206.325 299.78 185.552 325.448 185.552C351.138 185.552 371.94 206.325 371.94 231.929Z" fill="#100083" fill-opacity="0.2"/>
<path d="M336.451 231.929C336.451 237.985 331.518 242.906 325.447 242.906C319.376 242.906 314.443 237.985 314.443 231.929C314.443 225.873 319.376 220.953 325.447 220.953C331.541 220.953 336.451 225.873 336.451 231.929Z" fill="#F9FBFC"/>
<path d="M371.94 324.684C371.94 350.288 351.116 371.061 325.448 371.061C299.78 371.061 278.955 350.288 278.955 324.684C278.955 299.079 299.78 278.306 325.448 278.306C351.138 278.306 371.94 299.079 371.94 324.684Z" fill="white"/>
<path d="M336.451 324.684C336.451 330.74 331.518 335.66 325.447 335.66C319.376 335.66 314.443 330.74 314.443 324.684C314.443 318.628 319.376 313.707 325.447 313.707C331.541 313.707 336.451 318.628 336.451 324.684Z" fill="#100083" fill-opacity="0.2"/>
<path d="M278.954 231.929C278.954 257.533 258.13 278.306 232.462 278.306C206.794 278.306 185.97 257.533 185.97 231.929C185.97 206.325 206.794 185.552 232.462 185.552C258.152 185.552 278.954 206.325 278.954 231.929Z" fill="white"/>
<path d="M243.466 231.93C243.466 237.986 238.534 242.906 232.463 242.906C226.392 242.906 221.459 237.986 221.459 231.93C221.459 225.874 226.392 220.953 232.463 220.953C238.534 220.953 243.466 225.874 243.466 231.93Z" fill="#100083" fill-opacity="0.2"/>
<path d="M278.954 324.684C278.954 350.288 258.13 371.061 232.462 371.061C206.794 371.061 185.97 350.288 185.97 324.684C185.97 299.08 206.794 278.307 232.462 278.307C258.152 278.307 278.954 299.08 278.954 324.684Z" fill="#100083"/>
<path d="M243.466 324.684C243.466 330.74 238.534 335.66 232.463 335.66C226.392 335.66 221.459 330.74 221.459 324.684C221.459 318.628 226.392 313.707 232.463 313.707C238.534 313.707 243.466 318.628 243.466 324.684Z" fill="#E9E5D9"/>
<path d="M371.94 0.0433044L371.94 185.552L185.97 185.552L185.97 0.0433125L371.94 0.0433044Z" fill="#100083"/>
<path d="M318.573 53.3005L318.573 132.318L239.36 132.318L239.36 53.3005L318.573 53.3005Z" fill="white"/>
<path d="M119.166 160.059C119.166 157.699 120.126 155.383 121.8 153.713C123.474 152.044 125.795 151.086 128.161 151.086C130.527 151.086 132.848 152.044 134.522 153.713C136.196 155.383 137.156 157.699 137.156 160.059C137.156 162.419 136.196 164.734 134.522 166.404C132.848 168.074 130.527 169.031 128.161 169.031C125.795 169.031 123.474 168.074 121.8 166.404C120.126 164.734 119.166 162.419 119.166 160.059Z" fill="white"/>
<path d="M119.167 67.4162L119.167 67.3717C119.167 62.4067 123.206 58.3768 128.184 58.3768C133.161 58.3768 137.201 62.4067 137.201 67.3717L137.201 67.4162C137.201 72.3812 133.161 76.4111 128.184 76.4111C123.206 76.3889 119.167 72.3812 119.167 67.4162Z" fill="white"/>
<path d="M119.167 113.749L119.167 113.704C119.167 108.739 123.206 104.71 128.184 104.71C133.161 104.71 137.201 108.739 137.201 113.704L137.201 113.749C137.201 118.714 133.161 122.744 128.184 122.744C123.206 122.722 119.167 118.714 119.167 113.749Z" fill="white"/>
<path d="M119.166 21.0611C119.166 18.701 120.126 16.3855 121.8 14.7157C123.474 13.0458 125.795 12.0884 128.161 12.0884C130.527 12.0884 132.848 13.0458 134.522 14.7157C136.196 16.3855 137.156 18.701 137.156 21.0611C137.156 23.4211 136.196 25.7366 134.522 27.4065C132.848 29.0763 130.527 30.0337 128.161 30.0337C125.795 30.0337 123.474 29.0763 121.8 27.4065C120.126 25.7366 119.166 23.4211 119.166 21.0611Z" fill="white"/>
<path d="M156.173 160.059C156.173 157.699 157.132 155.383 158.806 153.713C160.48 152.044 162.802 151.086 165.168 151.086C167.534 151.086 169.855 152.044 171.529 153.713C173.203 155.383 174.163 157.699 174.163 160.059C174.163 162.419 173.203 164.734 171.529 166.404C169.855 168.074 167.534 169.031 165.168 169.031C162.802 169.031 160.48 168.074 158.806 166.404C157.132 164.734 156.173 162.419 156.173 160.059Z" fill="white"/>
<path d="M156.173 67.4162L156.173 67.3717C156.173 62.4067 160.213 58.3768 165.19 58.3768C170.167 58.3768 174.207 62.4067 174.207 67.3717L174.207 67.4162C174.207 72.3812 170.167 76.4111 165.19 76.4111C160.19 76.3889 156.173 72.3812 156.173 67.4162Z" fill="white"/>
<path d="M156.173 113.749L156.173 113.704C156.173 108.739 160.213 104.71 165.19 104.71C170.167 104.71 174.207 108.739 174.207 113.704L174.207 113.749C174.207 118.714 170.167 122.744 165.19 122.744C160.19 122.722 156.173 118.714 156.173 113.749Z" fill="white"/>
<path d="M156.173 21.0611C156.173 18.701 157.132 16.3855 158.806 14.7157C160.48 13.0458 162.802 12.0884 165.168 12.0884C167.534 12.0884 169.855 13.0458 171.529 14.7157C173.203 16.3855 174.163 18.701 174.163 21.0611C174.163 23.4211 173.203 25.7366 171.529 27.4065C169.855 29.0763 167.534 30.0337 165.168 30.0337C162.802 30.0337 160.48 29.0763 158.806 27.4065C157.132 25.7366 156.173 23.4211 156.173 21.0611Z" fill="white"/>
<path d="M82.16 160.059C82.16 157.699 83.1197 155.383 84.7937 153.713C86.4677 152.044 88.789 151.086 91.1549 151.086C93.5208 151.086 95.8421 152.044 97.5161 153.713C99.1901 155.383 100.15 157.699 100.15 160.059C100.15 162.419 99.1901 164.734 97.5161 166.404C95.8421 168.074 93.5208 169.031 91.1549 169.031C88.789 169.031 86.4677 168.074 84.7937 166.404C83.1197 164.734 82.16 162.419 82.16 160.059Z" fill="white"/>
<path d="M82.16 67.4162L82.16 67.3717C82.16 62.4067 86.2 58.3768 91.1773 58.3768C96.1546 58.3768 100.195 62.4067 100.195 67.3717L100.195 67.4162C100.195 72.3812 96.1547 76.4111 91.1773 76.4111C86.2 76.3889 82.16 72.3812 82.16 67.4162Z" fill="white"/>
<path d="M82.16 113.749L82.16 113.704C82.16 108.739 86.2 104.71 91.1773 104.71C96.1546 104.71 100.195 108.739 100.195 113.704L100.195 113.749C100.195 118.714 96.1547 122.744 91.1773 122.744C86.2 122.722 82.16 118.714 82.16 113.749Z" fill="white"/>
<path d="M82.1595 21.0615C82.1595 18.7015 83.1192 16.386 84.7932 14.7162C86.4672 13.0463 88.7885 12.0889 91.1544 12.0889C93.5203 12.0889 95.8416 13.0463 97.5156 14.7162C99.1896 16.386 100.149 18.7015 100.149 21.0615C100.149 23.4216 99.1896 25.7371 97.5156 27.407C95.8416 29.0768 93.5203 30.0342 91.1544 30.0342C88.7885 30.0342 86.4672 29.0768 84.7932 27.407C83.1192 25.7371 82.1595 23.4216 82.1595 21.0615Z" fill="white"/>
<path d="M45.154 160.059C45.154 157.699 46.1137 155.383 47.7877 153.713C49.4617 152.044 51.783 151.086 54.1489 151.086C56.5148 151.086 58.8361 152.044 60.5101 153.713C62.1841 155.383 63.1439 157.699 63.1439 160.059C63.1439 162.419 62.1841 164.734 60.5101 166.404C58.8361 168.074 56.5148 169.031 54.1489 169.031C51.783 169.031 49.4617 168.074 47.7877 166.404C46.1137 164.734 45.154 162.419 45.154 160.059Z" fill="white"/>
<path d="M45.1537 67.4162L45.1537 67.3717C45.1537 62.4067 49.1936 58.3768 54.171 58.3768C59.1483 58.3768 63.1882 62.4067 63.1882 67.3717L63.1882 67.4162C63.1882 72.3812 59.1483 76.4111 54.171 76.4111C49.1936 76.3889 45.1537 72.3812 45.1537 67.4162Z" fill="white"/>
<path d="M45.1537 113.749L45.1537 113.704C45.1537 108.739 49.1935 104.71 54.1709 104.71C59.1482 104.71 63.1882 108.739 63.1882 113.704L63.1882 113.749C63.1882 118.714 59.1482 122.744 54.1709 122.744C49.1935 122.722 45.1537 118.714 45.1537 113.749Z" fill="white"/>
<path d="M45.154 21.0615C45.154 18.7015 46.1138 16.386 47.7878 14.7162C49.4618 13.0463 51.7831 12.0889 54.149 12.0889C56.5149 12.0889 58.8362 13.0463 60.5102 14.7162C62.1842 16.386 63.1439 18.7015 63.1439 21.0615C63.1439 23.4216 62.1842 25.7371 60.5102 27.407C58.8362 29.0768 56.5149 30.0342 54.149 30.0342C51.7831 30.0342 49.4618 29.0768 47.7878 27.407C46.1138 25.7371 45.154 23.4216 45.154 21.0615Z" fill="white"/>
<path d="M8.14721 160.059C8.14721 157.699 9.10702 155.383 10.781 153.713C12.455 152.044 14.7762 151.086 17.1421 151.086C19.5081 151.086 21.8294 152.044 23.5033 153.713C25.1773 155.383 26.1371 157.699 26.1371 160.059C26.1371 162.419 25.1773 164.734 23.5033 166.404C21.8294 168.074 19.5081 169.031 17.1421 169.031C14.7762 169.031 12.455 168.074 10.781 166.404C9.10702 164.734 8.14721 162.419 8.14721 160.059Z" fill="white"/>
<path d="M8.14684 67.4162L8.14684 67.3717C8.14684 62.4067 12.1868 58.3768 17.1641 58.3768C22.1415 58.3768 26.1814 62.4067 26.1814 67.3717L26.1814 67.4162C26.1814 72.3812 22.1415 76.4111 17.1641 76.4111C12.1868 76.3889 8.14684 72.3812 8.14684 67.4162Z" fill="white"/>
<path d="M8.14684 113.749L8.14684 113.704C8.14684 108.739 12.1868 104.71 17.1641 104.71C22.1415 104.71 26.1814 108.739 26.1814 113.704L26.1814 113.749C26.1814 118.714 22.1415 122.744 17.1641 122.744C12.1868 122.722 8.14684 118.714 8.14684 113.749Z" fill="white"/>
<path d="M8.14721 21.0615C8.14721 18.7015 9.10702 16.386 10.781 14.7162C12.455 13.0463 14.7762 12.0889 17.1421 12.0889C19.5081 12.0889 21.8294 13.0463 23.5033 14.7162C25.1773 16.386 26.1371 18.7015 26.1371 21.0615C26.1371 23.4216 25.1773 25.7371 23.5033 27.407C21.8294 29.0768 19.5081 30.0342 17.1421 30.0342C14.7762 30.0342 12.455 29.0768 10.781 27.407C9.10702 25.7371 8.14721 23.4216 8.14721 21.0615Z" fill="white"/>
<path d="M676.942 718.968C676.942 716.608 677.902 714.292 679.576 712.622C681.25 710.953 683.571 709.995 685.937 709.995C688.303 709.995 690.624 710.953 692.298 712.622C693.972 714.292 694.932 716.608 694.932 718.968C694.932 721.328 693.972 723.643 692.298 725.313C690.624 726.983 688.303 727.94 685.937 727.94C683.571 727.94 681.25 726.983 679.576 725.313C677.902 723.643 676.942 721.328 676.942 718.968Z" fill="white" fill-opacity="0.2"/>
<path d="M676.942 626.324L676.942 626.28C676.942 621.315 680.982 617.285 685.959 617.285C690.936 617.285 694.976 621.315 694.976 626.28L694.976 626.324C694.976 631.289 690.936 635.319 685.959 635.319C680.982 635.297 676.942 631.267 676.942 626.324Z" fill="white" fill-opacity="0.2"/>
<path d="M676.942 672.657L676.942 672.613C676.942 667.648 680.982 663.618 685.959 663.618C690.936 663.618 694.976 667.648 694.976 672.613L694.976 672.657C694.976 677.622 690.936 681.652 685.959 681.652C680.982 681.63 676.942 677.622 676.942 672.657Z" fill="white" fill-opacity="0.2"/>
<path d="M676.942 579.948C676.942 577.587 677.902 575.272 679.576 573.602C681.25 571.932 683.571 570.975 685.937 570.975C688.303 570.975 690.624 571.932 692.298 573.602C693.972 575.272 694.932 577.587 694.932 579.948C694.932 582.308 693.972 584.623 692.298 586.293C690.624 587.963 688.303 588.92 685.937 588.92C683.571 588.92 681.25 587.963 679.576 586.293C677.902 584.645 676.942 582.33 676.942 579.948Z" fill="white" fill-opacity="0.2"/>
<path d="M639.935 718.968C639.935 716.608 640.895 714.292 642.569 712.622C644.243 710.953 646.564 709.995 648.93 709.995C651.296 709.995 653.617 710.953 655.291 712.622C656.965 714.292 657.925 716.608 657.925 718.968C657.925 721.328 656.965 723.643 655.291 725.313C653.617 726.983 651.296 727.94 648.93 727.94C646.564 727.94 644.243 726.983 642.569 725.313C640.895 723.643 639.935 721.328 639.935 718.968Z" fill="white" fill-opacity="0.2"/>
<path d="M639.936 626.324L639.936 626.28C639.936 621.315 643.976 617.285 648.953 617.285C653.93 617.285 657.97 621.315 657.97 626.28L657.97 626.324C657.97 631.289 653.93 635.319 648.953 635.319C643.976 635.297 639.936 631.267 639.936 626.324Z" fill="white" fill-opacity="0.2"/>
<path d="M639.936 672.657L639.936 672.613C639.936 667.648 643.976 663.618 648.953 663.618C653.93 663.618 657.97 667.648 657.97 672.613L657.97 672.657C657.97 677.622 653.93 681.652 648.953 681.652C643.976 681.63 639.936 677.622 639.936 672.657Z" fill="white" fill-opacity="0.2"/>
<path d="M639.935 579.948C639.935 577.587 640.895 575.272 642.569 573.602C644.243 571.932 646.564 570.975 648.93 570.975C651.296 570.975 653.617 571.932 655.291 573.602C656.965 575.272 657.925 577.587 657.925 579.948C657.925 582.308 656.965 584.623 655.291 586.293C653.617 587.963 651.296 588.92 648.93 588.92C646.564 588.92 644.243 587.963 642.569 586.293C640.895 584.645 639.935 582.33 639.935 579.948Z" fill="white" fill-opacity="0.2"/>
<path d="M602.929 718.967C602.929 716.607 603.889 714.291 605.563 712.622C607.237 710.952 609.558 709.994 611.924 709.994C614.29 709.994 616.611 710.952 618.285 712.622C619.959 714.291 620.919 716.607 620.919 718.967C620.919 721.327 619.959 723.643 618.285 725.312C616.611 726.982 614.29 727.94 611.924 727.94C609.558 727.94 607.237 726.982 605.563 725.312C603.889 723.643 602.929 721.327 602.929 718.967Z" fill="white" fill-opacity="0.2"/>
<path d="M602.929 626.324L602.929 626.28C602.929 621.315 606.969 617.285 611.946 617.285C616.924 617.285 620.964 621.315 620.964 626.28L620.964 626.324C620.964 631.289 616.924 635.319 611.946 635.319C606.969 635.297 602.929 631.267 602.929 626.324Z" fill="white" fill-opacity="0.2"/>
<path d="M602.929 672.657L602.929 672.613C602.929 667.648 606.969 663.618 611.946 663.618C616.924 663.618 620.964 667.648 620.964 672.613L620.964 672.657C620.964 677.622 616.924 681.652 611.946 681.652C606.969 681.63 602.929 677.622 602.929 672.657Z" fill="white" fill-opacity="0.2"/>
<path d="M602.929 579.948C602.929 577.587 603.889 575.272 605.563 573.602C607.237 571.932 609.558 570.975 611.924 570.975C614.29 570.975 616.611 571.932 618.285 573.602C619.959 575.272 620.919 577.587 620.919 579.948C620.919 582.308 619.959 584.623 618.285 586.293C616.611 587.963 614.29 588.92 611.924 588.92C609.558 588.92 607.237 587.963 605.563 586.293C603.889 584.645 602.929 582.33 602.929 579.948Z" fill="white" fill-opacity="0.2"/>
<path d="M565.923 718.967C565.923 716.607 566.883 714.291 568.557 712.622C570.231 710.952 572.552 709.994 574.918 709.994C577.284 709.994 579.605 710.952 581.279 712.622C582.953 714.291 583.913 716.607 583.913 718.967C583.913 721.327 582.953 723.643 581.279 725.312C579.605 726.982 577.284 727.94 574.918 727.94C572.552 727.94 570.231 726.982 568.557 725.312C566.883 723.643 565.923 721.327 565.923 718.967Z" fill="white" fill-opacity="0.2"/>
<path d="M565.923 626.324L565.923 626.28C565.923 621.315 569.963 617.285 574.94 617.285C579.917 617.285 583.957 621.315 583.957 626.28L583.957 626.324C583.957 631.289 579.917 635.319 574.94 635.319C569.963 635.297 565.923 631.267 565.923 626.324Z" fill="white" fill-opacity="0.2"/>
<path d="M565.923 672.657L565.923 672.613C565.923 667.648 569.963 663.618 574.94 663.618C579.917 663.618 583.957 667.648 583.957 672.613L583.957 672.657C583.957 677.622 579.917 681.652 574.94 681.652C569.963 681.63 565.923 677.622 565.923 672.657Z" fill="white" fill-opacity="0.2"/>
<path d="M565.923 579.948C565.923 577.587 566.883 575.272 568.557 573.602C570.231 571.932 572.552 570.975 574.918 570.975C577.284 570.975 579.605 571.932 581.279 573.602C582.953 575.272 583.913 577.587 583.913 579.948C583.913 582.308 582.953 584.623 581.279 586.293C579.605 587.963 577.284 588.92 574.918 588.92C572.552 588.92 570.231 587.963 568.557 586.293C566.883 584.645 565.923 582.33 565.923 579.948Z" fill="white" fill-opacity="0.2"/>
</g>
</svg>
