<svg width="808" height="545" viewBox="0 0 808 545" fill="none" xmlns="http://www.w3.org/2000/svg">
<g opacity="0.08">
<path d="M455.06 368.846C406.406 368.846 366.971 329.406 366.971 280.769L455.06 280.769L455.06 368.846Z" fill="#F1F1F0"/>
<path d="M543.15 280.758L455.06 280.758L455.06 368.835L543.15 368.835L543.15 280.758Z" fill="white" fill-opacity="0.4"/>
<path d="M543.15 368.846L455.06 368.846L543.15 280.758L543.15 368.846Z" fill="#100083" fill-opacity="0.4"/>
<path d="M631.249 368.846L543.16 368.846L543.16 280.759C591.804 280.759 631.249 320.199 631.249 368.846Z" fill="#100083"/>
<path d="M807.428 368.846L719.339 368.846L719.339 280.758C767.982 280.758 807.428 320.198 807.428 368.846Z" fill="#100083" fill-opacity="0.4"/>
<path d="M719.935 368.942L631.846 368.942C631.846 320.295 671.281 280.865 719.935 280.865L719.935 368.942Z" fill="#100083" fill-opacity="0.4"/>
<path d="M774.664 368.846L719.339 368.846L719.339 313.528C749.893 313.518 774.664 338.285 774.664 368.846Z" fill="#F1F1F0"/>
<path d="M719.339 368.846L664.013 368.846C664.013 338.296 688.785 313.528 719.339 313.528L719.339 368.846Z" fill="#100083"/>
<path d="M455.06 456.923C406.406 456.923 366.971 496.352 366.971 545L455.06 545L455.06 456.923Z" fill="#100083"/>
<path d="M455.06 456.923L455.06 545L543.15 545C543.15 496.353 503.715 456.923 455.06 456.923Z" fill="white" fill-opacity="0.4"/>
<path d="M455.06 494.101C426.948 494.101 404.154 516.892 404.154 545L455.06 545L455.06 494.101Z" fill="#F1F1F0"/>
<path d="M455.06 494.101L455.06 545L505.966 545C505.966 516.892 483.172 494.101 455.06 494.101Z" fill="#F9FBFC"/>
<path d="M543.15 456.923C543.15 505.571 582.585 545 631.239 545C631.25 496.353 591.804 456.923 543.15 456.923Z" fill="white"/>
<path d="M807.428 456.923L719.339 456.923L719.339 545L807.428 545L807.428 456.923Z" fill="white" fill-opacity="0.4"/>
<path d="M719.339 456.923C670.684 456.923 631.249 496.353 631.249 545L719.339 545L719.339 456.923Z" fill="#100083"/>
<path d="M455.06 368.846C455.06 417.494 494.495 456.923 543.15 456.923C543.15 408.276 503.715 368.846 455.06 368.846Z" fill="#100083"/>
<path d="M631.249 368.846C582.595 368.846 543.16 408.275 543.16 456.923C591.804 456.923 631.249 417.483 631.249 368.846Z" fill="#100083" fill-opacity="0.4"/>
<path d="M719.339 368.846L631.25 368.846L631.249 456.923L719.339 456.923L719.339 368.846Z" fill="#F9FBFC"/>
<path d="M697.316 368.846C685.158 368.846 675.294 378.709 675.294 390.865C675.294 403.022 685.158 412.884 697.316 412.884C709.475 412.884 719.339 403.022 719.339 390.865C719.339 378.698 709.475 368.846 697.316 368.846Z" fill="#100083" fill-opacity="0.4"/>
<path d="M697.316 385.654C694.441 385.654 692.104 387.99 692.104 390.865C692.104 393.741 694.441 396.077 697.316 396.077C700.192 396.077 702.529 393.741 702.529 390.865C702.529 387.979 700.192 385.654 697.316 385.654Z" fill="#F9FBFC"/>
<path d="M653.272 368.846C641.114 368.846 631.25 378.709 631.25 390.865C631.25 403.022 641.114 412.885 653.272 412.885C665.43 412.885 675.294 403.022 675.294 390.865C675.294 378.698 665.43 368.846 653.272 368.846Z" fill="white"/>
<path d="M653.272 385.654C650.396 385.654 648.06 387.99 648.06 390.865C648.06 393.741 650.396 396.077 653.272 396.077C656.147 396.077 658.484 393.741 658.484 390.865C658.484 387.979 656.147 385.654 653.272 385.654Z" fill="#100083" fill-opacity="0.4"/>
<path d="M697.316 412.885C685.158 412.885 675.294 422.747 675.294 434.904C675.294 447.06 685.158 456.923 697.316 456.923C709.475 456.923 719.339 447.06 719.339 434.904C719.339 422.737 709.475 412.885 697.316 412.885Z" fill="white"/>
<path d="M697.316 429.692C694.44 429.692 692.104 432.029 692.104 434.904C692.104 437.779 694.44 440.115 697.316 440.115C700.192 440.115 702.528 437.779 702.528 434.904C702.528 432.029 700.192 429.692 697.316 429.692Z" fill="#100083" fill-opacity="0.4"/>
<path d="M653.272 412.885C641.113 412.885 631.249 422.747 631.249 434.904C631.249 447.06 641.113 456.923 653.272 456.923C665.43 456.923 675.294 447.06 675.294 434.904C675.294 422.737 665.43 412.885 653.272 412.885Z" fill="#100083"/>
<path d="M653.272 429.692C650.396 429.692 648.06 432.029 648.06 434.904C648.06 437.779 650.396 440.115 653.272 440.115C656.147 440.115 658.484 437.779 658.484 434.904C658.484 432.029 656.147 429.692 653.272 429.692Z" fill="#E9E5D9"/>
<path d="M807.428 368.846L719.339 368.846L719.339 456.923L807.428 456.923L807.428 368.846Z" fill="#100083"/>
<path d="M782.139 394.121L744.617 394.121L744.617 431.637L782.139 431.637L782.139 394.121Z" fill="white"/>
<path d="M731.444 488.562C732.565 488.562 733.664 488.107 734.457 487.314C735.25 486.521 735.705 485.422 735.705 484.302C735.705 483.181 735.25 482.082 734.457 481.289C733.664 480.496 732.565 480.042 731.444 480.042C730.324 480.042 729.224 480.496 728.431 481.289C727.638 482.082 727.184 483.181 727.184 484.302C727.184 485.422 727.638 486.521 728.431 487.314C729.224 488.107 730.324 488.562 731.444 488.562Z" fill="white"/>
<path d="M775.436 488.562L775.457 488.562C777.815 488.562 779.728 486.648 779.728 484.291C779.728 481.934 777.815 480.02 775.457 480.02L775.436 480.02C773.078 480.02 771.165 481.934 771.165 484.291C771.175 486.648 773.078 488.562 775.436 488.562Z" fill="white"/>
<path d="M753.435 488.562L753.456 488.562C755.814 488.562 757.727 486.648 757.727 484.291C757.727 481.934 755.814 480.02 753.456 480.02L753.435 480.02C751.077 480.02 749.164 481.934 749.164 484.291C749.174 486.648 751.077 488.562 753.435 488.562Z" fill="white"/>
<path d="M797.448 488.562C798.569 488.562 799.668 488.107 800.461 487.314C801.254 486.521 801.709 485.422 801.709 484.302C801.709 483.181 801.254 482.082 800.461 481.289C799.668 480.496 798.569 480.042 797.448 480.042C796.327 480.042 795.228 480.496 794.435 481.289C793.642 482.082 793.187 483.181 793.187 484.302C793.187 485.422 793.642 486.521 794.435 487.314C795.228 488.107 796.327 488.562 797.448 488.562Z" fill="white"/>
<path d="M731.444 471.035C732.565 471.035 733.664 470.581 734.457 469.788C735.25 468.995 735.705 467.896 735.705 466.775C735.705 465.655 735.25 464.555 734.457 463.762C733.664 462.97 732.565 462.515 731.444 462.515C730.324 462.515 729.224 462.97 728.431 463.762C727.638 464.555 727.184 465.655 727.184 466.775C727.184 467.896 727.638 468.995 728.431 469.788C729.224 470.581 730.324 471.035 731.444 471.035Z" fill="white"/>
<path d="M775.436 471.035L775.457 471.035C777.815 471.035 779.728 469.122 779.728 466.765C779.728 464.407 777.815 462.494 775.457 462.494L775.436 462.494C773.078 462.494 771.165 464.407 771.165 466.765C771.175 469.132 773.078 471.035 775.436 471.035Z" fill="white"/>
<path d="M753.435 471.035L753.456 471.035C755.814 471.035 757.727 469.122 757.727 466.765C757.727 464.407 755.814 462.494 753.456 462.494L753.435 462.494C751.077 462.494 749.164 464.407 749.164 466.765C749.174 469.132 751.077 471.035 753.435 471.035Z" fill="white"/>
<path d="M797.448 471.035C798.569 471.035 799.668 470.581 800.461 469.788C801.254 468.995 801.709 467.896 801.709 466.775C801.709 465.655 801.254 464.555 800.461 463.762C799.668 462.97 798.569 462.515 797.448 462.515C796.327 462.515 795.228 462.97 794.435 463.762C793.642 464.555 793.187 465.655 793.187 466.775C793.187 467.896 793.642 468.995 794.435 469.788C795.228 470.581 796.327 471.035 797.448 471.035Z" fill="white"/>
<path d="M731.444 506.088C732.565 506.088 733.664 505.634 734.457 504.841C735.25 504.048 735.705 502.949 735.705 501.828C735.705 500.708 735.25 499.608 734.457 498.815C733.664 498.023 732.565 497.568 731.444 497.568C730.324 497.568 729.224 498.023 728.431 498.815C727.638 499.608 727.184 500.708 727.184 501.828C727.184 502.949 727.638 504.048 728.431 504.841C729.224 505.634 730.324 506.088 731.444 506.088Z" fill="white"/>
<path d="M775.436 506.088L775.457 506.088C777.815 506.088 779.728 504.175 779.728 501.818C779.728 499.46 777.815 497.547 775.457 497.547L775.436 497.547C773.078 497.547 771.165 499.46 771.165 501.818C771.175 504.175 773.078 506.088 775.436 506.088Z" fill="white"/>
<path d="M753.435 506.088L753.456 506.088C755.814 506.088 757.727 504.175 757.727 501.818C757.727 499.46 755.814 497.547 753.456 497.547L753.435 497.547C751.077 497.547 749.164 499.46 749.164 501.818C749.174 504.175 751.077 506.088 753.435 506.088Z" fill="white"/>
<path d="M797.448 506.088C798.568 506.088 799.668 505.634 800.461 504.841C801.254 504.048 801.708 502.949 801.708 501.828C801.708 500.708 801.254 499.608 800.461 498.815C799.668 498.023 798.568 497.568 797.448 497.568C796.327 497.568 795.227 498.023 794.435 498.815C793.642 499.608 793.187 500.708 793.187 501.828C793.187 502.949 793.642 504.048 794.435 504.841C795.227 505.634 796.327 506.088 797.448 506.088Z" fill="white"/>
<path d="M731.444 523.615C732.565 523.615 733.664 523.16 734.457 522.367C735.25 521.574 735.705 520.475 735.705 519.355C735.705 518.234 735.25 517.135 734.457 516.342C733.664 515.549 732.565 515.094 731.444 515.094C730.324 515.094 729.224 515.549 728.431 516.342C727.638 517.135 727.184 518.234 727.184 519.355C727.184 520.475 727.638 521.574 728.431 522.367C729.224 523.16 730.324 523.615 731.444 523.615Z" fill="white"/>
<path d="M775.436 523.615L775.457 523.615C777.815 523.615 779.728 521.701 779.728 519.344C779.728 516.987 777.815 515.073 775.457 515.073L775.436 515.073C773.078 515.073 771.165 516.987 771.165 519.344C771.175 521.701 773.078 523.615 775.436 523.615Z" fill="white"/>
<path d="M753.435 523.615L753.456 523.615C755.814 523.615 757.727 521.701 757.727 519.344C757.727 516.987 755.814 515.073 753.456 515.073L753.435 515.073C751.077 515.073 749.164 516.987 749.164 519.344C749.174 521.701 751.077 523.615 753.435 523.615Z" fill="white"/>
<path d="M797.448 523.615C798.568 523.615 799.668 523.16 800.461 522.367C801.254 521.574 801.708 520.475 801.708 519.355C801.708 518.234 801.254 517.135 800.461 516.342C799.668 515.549 798.568 515.094 797.448 515.094C796.327 515.094 795.227 515.549 794.435 516.342C793.642 517.135 793.187 518.234 793.187 519.355C793.187 520.475 793.642 521.574 794.435 522.367C795.227 523.16 796.327 523.615 797.448 523.615Z" fill="white"/>
<path d="M731.444 541.142C732.565 541.142 733.664 540.687 734.457 539.894C735.25 539.101 735.705 538.002 735.705 536.881C735.705 535.761 735.25 534.662 734.457 533.869C733.664 533.076 732.565 532.621 731.444 532.621C730.324 532.621 729.224 533.076 728.431 533.869C727.638 534.662 727.184 535.761 727.184 536.881C727.184 538.002 727.638 539.101 728.431 539.894C729.224 540.687 730.324 541.142 731.444 541.142Z" fill="white"/>
<path d="M775.436 541.142L775.457 541.142C777.815 541.142 779.728 539.228 779.728 536.871C779.728 534.514 777.815 532.6 775.457 532.6L775.436 532.6C773.078 532.6 771.165 534.514 771.165 536.871C771.175 539.228 773.078 541.142 775.436 541.142Z" fill="white"/>
<path d="M753.435 541.142L753.456 541.142C755.814 541.142 757.727 539.228 757.727 536.871C757.727 534.514 755.814 532.6 753.456 532.6L753.435 532.6C751.077 532.6 749.164 534.514 749.164 536.871C749.174 539.228 751.077 541.142 753.435 541.142Z" fill="white"/>
<path d="M797.448 541.142C798.568 541.142 799.668 540.687 800.461 539.894C801.254 539.101 801.708 538.002 801.708 536.881C801.708 535.761 801.254 534.662 800.461 533.869C799.668 533.076 798.568 532.621 797.448 532.621C796.327 532.621 795.227 533.076 794.435 533.869C793.642 534.662 793.187 535.761 793.187 536.881C793.187 538.002 793.642 539.101 794.435 539.894C795.227 540.687 796.327 541.142 797.448 541.142Z" fill="white"/>
<path d="M466.045 224.394C467.166 224.394 468.265 223.94 469.058 223.147C469.851 222.354 470.306 221.255 470.306 220.134C470.306 219.014 469.851 217.914 469.058 217.121C468.265 216.329 467.166 215.874 466.045 215.874C464.924 215.874 463.825 216.329 463.032 217.121C462.239 217.914 461.784 219.014 461.784 220.134C461.784 221.255 462.239 222.354 463.032 223.147C463.825 223.94 464.924 224.394 466.045 224.394Z" fill="white" fill-opacity="0.4"/>
<path d="M510.037 224.394L510.058 224.394C512.416 224.394 514.329 222.481 514.329 220.124C514.329 217.766 512.416 215.853 510.058 215.853L510.037 215.853C507.679 215.853 505.766 217.766 505.766 220.124C505.776 222.481 507.69 224.394 510.037 224.394Z" fill="white" fill-opacity="0.4"/>
<path d="M488.036 224.394L488.057 224.394C490.414 224.394 492.328 222.481 492.328 220.124C492.328 217.766 490.414 215.853 488.057 215.853L488.036 215.853C485.678 215.853 483.764 217.766 483.764 220.124C483.775 222.481 485.678 224.394 488.036 224.394Z" fill="white" fill-opacity="0.4"/>
<path d="M532.059 224.394C533.18 224.394 534.279 223.939 535.072 223.147C535.865 222.354 536.32 221.254 536.32 220.134C536.32 219.013 535.865 217.914 535.072 217.121C534.279 216.328 533.18 215.874 532.059 215.874C530.939 215.874 529.839 216.328 529.046 217.121C528.253 217.914 527.799 219.013 527.799 220.134C527.799 221.254 528.253 222.354 529.046 223.147C529.828 223.939 530.928 224.394 532.059 224.394Z" fill="white" fill-opacity="0.4"/>
<path d="M466.045 241.921C467.166 241.921 468.265 241.466 469.058 240.673C469.851 239.881 470.306 238.781 470.306 237.661C470.306 236.54 469.851 235.441 469.058 234.648C468.265 233.855 467.166 233.401 466.045 233.401C464.924 233.401 463.825 233.855 463.032 234.648C462.239 235.441 461.784 236.54 461.784 237.661C461.784 238.781 462.239 239.881 463.032 240.673C463.825 241.466 464.924 241.921 466.045 241.921Z" fill="white" fill-opacity="0.4"/>
<path d="M510.037 241.921L510.058 241.921C512.416 241.921 514.329 240.007 514.329 237.65C514.329 235.293 512.416 233.379 510.058 233.379L510.037 233.379C507.679 233.379 505.766 235.293 505.766 237.65C505.776 240.007 507.69 241.921 510.037 241.921Z" fill="white" fill-opacity="0.4"/>
<path d="M488.036 241.921L488.057 241.921C490.414 241.921 492.328 240.007 492.328 237.65C492.328 235.293 490.414 233.379 488.057 233.379L488.036 233.379C485.678 233.379 483.764 235.293 483.764 237.65C483.775 240.007 485.678 241.921 488.036 241.921Z" fill="white" fill-opacity="0.4"/>
<path d="M532.059 241.921C533.18 241.921 534.279 241.466 535.072 240.674C535.865 239.881 536.32 238.781 536.32 237.661C536.32 236.54 535.865 235.441 535.072 234.648C534.279 233.855 533.18 233.401 532.059 233.401C530.939 233.401 529.839 233.855 529.046 234.648C528.253 235.441 527.799 236.54 527.799 237.661C527.799 238.781 528.253 239.881 529.046 240.674C529.828 241.466 530.928 241.921 532.059 241.921Z" fill="white" fill-opacity="0.4"/>
<path d="M466.045 259.447C467.166 259.447 468.265 258.993 469.058 258.2C469.851 257.407 470.306 256.308 470.306 255.187C470.306 254.067 469.851 252.967 469.058 252.175C468.265 251.382 467.166 250.927 466.045 250.927C464.924 250.927 463.825 251.382 463.032 252.175C462.239 252.967 461.784 254.067 461.784 255.187C461.784 256.308 462.239 257.407 463.032 258.2C463.825 258.993 464.924 259.447 466.045 259.447Z" fill="white" fill-opacity="0.4"/>
<path d="M510.037 259.448L510.058 259.448C512.416 259.448 514.329 257.534 514.329 255.177C514.329 252.82 512.416 250.906 510.058 250.906L510.037 250.906C507.679 250.906 505.766 252.82 505.766 255.177C505.776 257.534 507.69 259.448 510.037 259.448Z" fill="white" fill-opacity="0.4"/>
<path d="M488.036 259.448L488.057 259.448C490.414 259.448 492.328 257.534 492.328 255.177C492.328 252.82 490.414 250.906 488.057 250.906L488.036 250.906C485.678 250.906 483.764 252.82 483.764 255.177C483.775 257.534 485.678 259.448 488.036 259.448Z" fill="white" fill-opacity="0.4"/>
<path d="M532.059 259.447C533.18 259.447 534.279 258.993 535.072 258.2C535.865 257.407 536.32 256.308 536.32 255.187C536.32 254.067 535.865 252.967 535.072 252.175C534.279 251.382 533.18 250.927 532.059 250.927C530.939 250.927 529.839 251.382 529.046 252.175C528.253 252.967 527.799 254.067 527.799 255.187C527.799 256.308 528.253 257.407 529.046 258.2C529.828 258.993 530.928 259.447 532.059 259.447Z" fill="white" fill-opacity="0.4"/>
<path d="M466.045 276.974C467.166 276.974 468.265 276.519 469.058 275.727C469.851 274.934 470.306 273.834 470.306 272.714C470.306 271.593 469.851 270.494 469.058 269.701C468.265 268.908 467.166 268.454 466.045 268.454C464.924 268.454 463.825 268.908 463.032 269.701C462.239 270.494 461.784 271.593 461.784 272.714C461.784 273.834 462.239 274.934 463.032 275.727C463.825 276.519 464.924 276.974 466.045 276.974Z" fill="white" fill-opacity="0.4"/>
<path d="M510.037 276.974L510.058 276.974C512.416 276.974 514.329 275.061 514.329 272.703C514.329 270.346 512.416 268.433 510.058 268.433L510.037 268.433C507.679 268.433 505.766 270.346 505.766 272.703C505.776 275.061 507.69 276.974 510.037 276.974Z" fill="white" fill-opacity="0.4"/>
<path d="M488.036 276.974L488.057 276.974C490.414 276.974 492.328 275.061 492.328 272.703C492.328 270.346 490.414 268.433 488.057 268.433L488.036 268.433C485.678 268.433 483.764 270.346 483.764 272.703C483.775 275.061 485.678 276.974 488.036 276.974Z" fill="white" fill-opacity="0.4"/>
<path d="M532.059 276.974C533.18 276.974 534.279 276.519 535.072 275.727C535.865 274.934 536.32 273.834 536.32 272.714C536.32 271.593 535.865 270.494 535.072 269.701C534.279 268.908 533.18 268.454 532.059 268.454C530.939 268.454 529.839 268.908 529.046 269.701C528.253 270.494 527.799 271.593 527.799 272.714C527.799 273.834 528.253 274.934 529.046 275.727C529.828 276.519 530.928 276.974 532.059 276.974Z" fill="white" fill-opacity="0.4"/>
</g>
<g opacity="0.04">
<path d="M363.576 181.757C413.778 181.757 454.467 222.452 454.467 272.636L363.576 272.636L363.576 181.757Z" fill="#F1F1F0"/>
<path d="M272.685 272.647L363.576 272.647L363.576 181.768L272.685 181.768L272.685 272.647Z" fill="white" fill-opacity="0.4"/>
<path d="M272.685 181.757L363.576 181.757L272.685 272.647L272.685 181.757Z" fill="#100083" fill-opacity="0.4"/>
<path d="M181.783 181.757L272.674 181.757L272.674 272.647C222.483 272.647 181.783 231.952 181.783 181.757Z" fill="#100083"/>
<path d="M6.13516e-05 181.757L90.8914 181.757L90.8914 272.647C40.7004 272.647 5.69634e-05 231.952 6.13516e-05 181.757Z" fill="#100083" fill-opacity="0.4"/>
<path d="M90.2762 181.658L181.167 181.658C181.167 231.853 140.478 272.537 90.2762 272.537L90.2762 181.658Z" fill="#100083" fill-opacity="0.4"/>
<path d="M33.8061 181.757L90.8914 181.757L90.8914 238.834C59.3652 238.845 33.8061 213.29 33.8061 181.757Z" fill="#F1F1F0"/>
<path d="M90.8913 181.757L147.977 181.757C147.977 213.279 122.417 238.834 90.8913 238.834L90.8913 181.757Z" fill="#100083"/>
<path d="M363.576 90.8787C413.778 90.8787 454.468 50.1949 454.468 3.8147e-05L363.576 3.0201e-05L363.576 90.8787Z" fill="#100083"/>
<path d="M363.576 90.8787L363.576 3.8147e-05L272.685 3.0201e-05C272.685 50.1949 313.374 90.8787 363.576 90.8787Z" fill="white" fill-opacity="0.4"/>
<path d="M363.576 52.5181C392.582 52.5181 416.102 29.0022 416.102 1.14441e-05L363.576 6.85217e-06L363.576 52.5181Z" fill="#F1F1F0"/>
<path d="M363.576 52.5181L363.576 1.14441e-05L311.051 6.85217e-06C311.051 29.0022 334.57 52.5181 363.576 52.5181Z" fill="#F9FBFC"/>
<path d="M272.685 90.8787C272.685 40.6838 231.995 3.45898e-05 181.793 3.0201e-05C181.783 50.1949 222.483 90.8787 272.685 90.8787Z" fill="white"/>
<path d="M5.34058e-05 90.8787L90.8914 90.8787L90.8914 3.8147e-05L6.13506e-05 3.0201e-05L5.34058e-05 90.8787Z" fill="white" fill-opacity="0.4"/>
<path d="M90.8914 90.8787C141.093 90.8787 181.783 50.1949 181.783 3.8147e-05L90.8914 3.0201e-05L90.8914 90.8787Z" fill="#100083"/>
<path d="M363.576 181.757C363.576 131.562 322.887 90.8787 272.685 90.8787C272.685 141.074 313.374 181.757 363.576 181.757Z" fill="#100083"/>
<path d="M181.783 181.757C231.984 181.757 272.674 141.074 272.674 90.8787C222.483 90.8787 181.783 131.573 181.783 181.757Z" fill="#100083" fill-opacity="0.4"/>
<path d="M90.8911 181.757L181.782 181.757L181.782 90.8787L90.8912 90.8787L90.8911 181.757Z" fill="#F9FBFC"/>
<path d="M113.614 181.757C126.159 181.757 136.337 171.581 136.337 159.038C136.337 146.494 126.159 136.318 113.614 136.318C101.069 136.318 90.8913 146.494 90.8913 159.038C90.8913 171.592 101.069 181.757 113.614 181.757Z" fill="#100083" fill-opacity="0.4"/>
<path d="M113.614 164.415C116.581 164.415 118.992 162.004 118.992 159.038C118.992 156.071 116.581 153.66 113.614 153.66C110.647 153.66 108.236 156.071 108.236 159.038C108.236 162.015 110.647 164.415 113.614 164.415Z" fill="#F9FBFC"/>
<path d="M159.06 181.757C171.605 181.757 181.782 171.581 181.782 159.038C181.782 146.494 171.605 136.318 159.06 136.318C146.515 136.318 136.337 146.494 136.337 159.038C136.337 171.592 146.515 181.757 159.06 181.757Z" fill="white"/>
<path d="M159.06 164.415C162.027 164.415 164.438 162.004 164.438 159.038C164.438 156.071 162.027 153.66 159.06 153.66C156.093 153.66 153.682 156.071 153.682 159.038C153.682 162.015 156.093 164.415 159.06 164.415Z" fill="#100083" fill-opacity="0.4"/>
<path d="M113.614 136.318C126.159 136.318 136.337 126.141 136.337 113.598C136.337 101.055 126.159 90.8786 113.614 90.8786C101.069 90.8786 90.8913 101.055 90.8913 113.598C90.8913 126.152 101.069 136.318 113.614 136.318Z" fill="white"/>
<path d="M113.614 118.976C116.581 118.976 118.992 116.565 118.992 113.598C118.992 110.632 116.581 108.221 113.614 108.221C110.647 108.221 108.236 110.632 108.236 113.598C108.236 116.565 110.647 118.976 113.614 118.976Z" fill="#100083" fill-opacity="0.4"/>
<path d="M159.06 136.318C171.605 136.318 181.783 126.141 181.783 113.598C181.783 101.055 171.605 90.8786 159.06 90.8786C146.515 90.8786 136.337 101.055 136.337 113.598C136.337 126.152 146.515 136.318 159.06 136.318Z" fill="#100083"/>
<path d="M159.06 118.976C162.027 118.976 164.438 116.565 164.438 113.598C164.438 110.632 162.027 108.221 159.06 108.221C156.093 108.221 153.682 110.632 153.682 113.598C153.682 116.565 156.093 118.976 159.06 118.976Z" fill="#E9E5D9"/>
<path d="M5.34058e-05 181.757L90.8914 181.757L90.8914 90.8787L6.13506e-05 90.8787L5.34058e-05 181.757Z" fill="#100083"/>
<path d="M26.0936 155.678L64.8086 155.678L64.8086 116.969L26.0936 116.969L26.0936 155.678Z" fill="white"/>
<path d="M78.4007 58.2335C77.2443 58.2335 76.1098 58.7025 75.2917 59.5205C74.4735 60.3386 74.0045 61.4729 74.0045 62.6291C74.0045 63.7852 74.4735 64.9195 75.2917 65.7376C76.1098 66.5556 77.2443 67.0247 78.4007 67.0247C79.557 67.0247 80.6915 66.5556 81.5096 65.7376C82.3278 64.9195 82.7969 63.7852 82.7969 62.6291C82.7969 61.4729 82.3278 60.3386 81.5096 59.5205C80.6915 58.7025 79.557 58.2335 78.4007 58.2335Z" fill="white"/>
<path d="M33.0099 58.2336L32.9881 58.2336C30.5554 58.2336 28.5809 60.2078 28.5809 62.6401C28.5809 65.0724 30.5554 67.0466 32.9881 67.0466L33.0099 67.0466C35.4425 67.0466 37.417 65.0724 37.417 62.6401C37.4061 60.2078 35.4425 58.2336 33.0099 58.2336Z" fill="white"/>
<path d="M55.7108 58.2336L55.689 58.2336C53.2563 58.2336 51.2819 60.2078 51.2819 62.6401C51.2819 65.0724 53.2563 67.0466 55.689 67.0466L55.7108 67.0466C58.1434 67.0466 60.1179 65.0724 60.1179 62.6401C60.107 60.2078 58.1434 58.2336 55.7108 58.2336Z" fill="white"/>
<path d="M10.2976 58.2335C9.14132 58.2335 8.00684 58.7025 7.18869 59.5205C6.37053 60.3386 5.90143 61.4729 5.90143 62.6291C5.90143 63.7852 6.37053 64.9195 7.18869 65.7376C8.00684 66.5556 9.14132 67.0247 10.2976 67.0247C11.454 67.0247 12.5885 66.5556 13.4066 65.7376C14.2248 64.9195 14.6938 63.7852 14.6938 62.6291C14.6938 61.4729 14.2248 60.3386 13.4066 59.5205C12.5885 58.7025 11.454 58.2335 10.2976 58.2335Z" fill="white"/>
<path d="M78.4007 76.3175C77.2443 76.3175 76.1098 76.7865 75.2917 77.6045C74.4735 78.4225 74.0045 79.5569 74.0045 80.7131C74.0045 81.8692 74.4735 83.0036 75.2917 83.8216C76.1098 84.6396 77.2443 85.1086 78.4007 85.1086C79.557 85.1086 80.6915 84.6396 81.5096 83.8216C82.3278 83.0036 82.7969 81.8692 82.7969 80.7131C82.7969 79.5569 82.3278 78.4225 81.5096 77.6045C80.6915 76.7865 79.557 76.3175 78.4007 76.3175Z" fill="white"/>
<path d="M33.0099 76.3176L32.9881 76.3176C30.5554 76.3176 28.5809 78.2918 28.5809 80.7241C28.5809 83.1564 30.5554 85.1306 32.9881 85.1306L33.0099 85.1306C35.4425 85.1306 37.417 83.1564 37.417 80.7241C37.4061 78.2809 35.4425 76.3176 33.0099 76.3176Z" fill="white"/>
<path d="M55.7108 76.3176L55.689 76.3176C53.2563 76.3176 51.2819 78.2918 51.2819 80.7241C51.2819 83.1564 53.2563 85.1306 55.689 85.1306L55.7108 85.1306C58.1434 85.1306 60.1179 83.1564 60.1179 80.7241C60.107 78.2809 58.1434 76.3176 55.7108 76.3176Z" fill="white"/>
<path d="M10.2976 76.3175C9.14132 76.3175 8.00684 76.7865 7.18869 77.6045C6.37053 78.4225 5.90143 79.5569 5.90143 80.7131C5.90143 81.8692 6.37053 83.0036 7.18869 83.8216C8.00684 84.6396 9.14132 85.1086 10.2976 85.1086C11.454 85.1086 12.5885 84.6396 13.4066 83.8216C14.2248 83.0036 14.6938 81.8692 14.6938 80.7131C14.6938 79.5569 14.2248 78.4225 13.4066 77.6045C12.5885 76.7865 11.454 76.3175 10.2976 76.3175Z" fill="white"/>
<path d="M78.4007 40.1495C77.2443 40.1495 76.1098 40.6185 75.2917 41.4365C74.4735 42.2546 74.0045 43.3889 74.0045 44.5451C74.0045 45.7012 74.4735 46.8356 75.2917 47.6536C76.1098 48.4717 77.2443 48.9407 78.4007 48.9407C79.557 48.9407 80.6915 48.4717 81.5096 47.6536C82.3278 46.8356 82.7969 45.7012 82.7969 44.5451C82.7969 43.3889 82.3278 42.2546 81.5096 41.4365C80.6915 40.6185 79.557 40.1495 78.4007 40.1495Z" fill="white"/>
<path d="M33.0099 40.1494L32.9881 40.1494C30.5554 40.1494 28.5809 42.1236 28.5809 44.5559C28.5809 46.9882 30.5554 48.9624 32.9881 48.9624L33.0099 48.9624C35.4425 48.9624 37.417 46.9882 37.417 44.5559C37.4061 42.1236 35.4425 40.1494 33.0099 40.1494Z" fill="white"/>
<path d="M55.7108 40.1494L55.689 40.1494C53.2563 40.1494 51.2819 42.1236 51.2819 44.5559C51.2819 46.9882 53.2563 48.9624 55.689 48.9624L55.7108 48.9624C58.1434 48.9624 60.1179 46.9882 60.1179 44.5559C60.107 42.1236 58.1434 40.1494 55.7108 40.1494Z" fill="white"/>
<path d="M10.2979 40.1492C9.14156 40.1492 8.00708 40.6182 7.18893 41.4363C6.37078 42.2543 5.90168 43.3887 5.90168 44.5448C5.90168 45.701 6.37078 46.8354 7.18893 47.6534C8.00708 48.4714 9.14156 48.9404 10.2979 48.9404C11.4542 48.9404 12.5887 48.4714 13.4069 47.6534C14.225 46.8354 14.6941 45.701 14.6941 44.5448C14.6941 43.3887 14.225 42.2543 13.4069 41.4363C12.5887 40.6182 11.4542 40.1492 10.2979 40.1492Z" fill="white"/>
<path d="M78.4007 22.0655C77.2443 22.0655 76.1098 22.5345 75.2917 23.3525C74.4735 24.1706 74.0045 25.3049 74.0045 26.4611C74.0045 27.6173 74.4735 28.7516 75.2917 29.5696C76.1098 30.3877 77.2443 30.8567 78.4007 30.8567C79.557 30.8567 80.6915 30.3877 81.5096 29.5697C82.3278 28.7516 82.7969 27.6173 82.7969 26.4611C82.7969 25.3049 82.3278 24.1706 81.5096 23.3525C80.6915 22.5345 79.557 22.0655 78.4007 22.0655Z" fill="white"/>
<path d="M33.0099 22.0654L32.9881 22.0654C30.5554 22.0654 28.5809 24.0396 28.5809 26.4719C28.5809 28.9042 30.5554 30.8784 32.9881 30.8784L33.0099 30.8784C35.4425 30.8784 37.417 28.9042 37.417 26.4719C37.4061 24.0396 35.4425 22.0654 33.0099 22.0654Z" fill="white"/>
<path d="M55.7108 22.0654L55.689 22.0654C53.2563 22.0654 51.2819 24.0396 51.2819 26.4719C51.2819 28.9042 53.2563 30.8784 55.689 30.8784L55.7108 30.8784C58.1434 30.8784 60.1179 28.9042 60.1179 26.4719C60.107 24.0396 58.1434 22.0654 55.7108 22.0654Z" fill="white"/>
<path d="M10.2979 22.0655C9.14156 22.0655 8.00708 22.5345 7.18893 23.3525C6.37078 24.1706 5.90168 25.3049 5.90168 26.4611C5.90168 27.6173 6.37078 28.7516 7.18893 29.5696C8.00708 30.3877 9.14156 30.8567 10.2979 30.8567C11.4542 30.8567 12.5887 30.3877 13.4069 29.5697C14.225 28.7516 14.6941 27.6173 14.6941 26.4611C14.6941 25.3049 14.225 24.1706 13.4069 23.3525C12.5887 22.5345 11.4542 22.0655 10.2979 22.0655Z" fill="white"/>
<path d="M78.4007 3.98128C77.2443 3.98128 76.1098 4.45031 75.2917 5.26835C74.4735 6.08639 74.0045 7.22071 74.0045 8.37687C74.0045 9.53303 74.4735 10.6674 75.2917 11.4854C76.1098 12.3035 77.2443 12.7725 78.4007 12.7725C79.557 12.7725 80.6915 12.3035 81.5096 11.4854C82.3278 10.6674 82.7969 9.53303 82.7969 8.37687C82.7969 7.22071 82.3278 6.08639 81.5096 5.26835C80.6915 4.45031 79.557 3.98128 78.4007 3.98128Z" fill="white"/>
<path d="M33.0099 3.98117L32.9881 3.98117C30.5554 3.98117 28.5809 5.95538 28.5809 8.38768C28.5809 10.82 30.5554 12.7942 32.9881 12.7942L33.0099 12.7942C35.4425 12.7942 37.417 10.82 37.417 8.38768C37.4061 5.95538 35.4425 3.98117 33.0099 3.98117Z" fill="white"/>
<path d="M55.7108 3.98117L55.689 3.98117C53.2563 3.98117 51.2819 5.95538 51.2819 8.38768C51.2819 10.82 53.2563 12.7942 55.689 12.7942L55.7108 12.7942C58.1434 12.7942 60.1179 10.82 60.1179 8.38768C60.107 5.95538 58.1434 3.98117 55.7108 3.98117Z" fill="white"/>
<path d="M10.2979 3.98128C9.14156 3.98128 8.00708 4.45031 7.18893 5.26835C6.37078 6.08639 5.90168 7.22071 5.90168 8.37687C5.90168 9.53303 6.37078 10.6674 7.18893 11.4854C8.00708 12.3035 9.14156 12.7725 10.2979 12.7725C11.4542 12.7725 12.5887 12.3035 13.4069 11.4854C14.225 10.6674 14.6941 9.53303 14.6941 8.37687C14.6941 7.22071 14.225 6.08639 13.4069 5.26835C12.5887 4.45031 11.4542 3.98128 10.2979 3.98128Z" fill="white"/>
<path d="M352.242 330.804C351.086 330.804 349.951 331.273 349.133 332.091C348.315 332.909 347.846 334.043 347.846 335.2C347.846 336.356 348.315 337.49 349.133 338.308C349.951 339.126 351.086 339.595 352.242 339.595C353.398 339.595 354.533 339.126 355.351 338.308C356.169 337.49 356.638 336.356 356.638 335.2C356.638 334.043 356.169 332.909 355.351 332.091C354.533 331.273 353.398 330.804 352.242 330.804Z" fill="white" fill-opacity="0.4"/>
<path d="M306.851 330.804L306.829 330.804C304.396 330.804 302.422 332.778 302.422 335.21C302.422 337.643 304.396 339.617 306.829 339.617L306.851 339.617C309.284 339.617 311.258 337.643 311.258 335.21C311.247 332.778 309.273 330.804 306.851 330.804Z" fill="white" fill-opacity="0.4"/>
<path d="M329.552 330.804L329.53 330.804C327.097 330.804 325.123 332.778 325.123 335.21C325.123 337.643 327.097 339.617 329.53 339.617L329.552 339.617C331.985 339.617 333.959 337.643 333.959 335.21C333.948 332.778 331.985 330.804 329.552 330.804Z" fill="white" fill-opacity="0.4"/>
<path d="M284.128 330.804C282.972 330.804 281.837 331.273 281.019 332.091C280.201 332.909 279.732 334.043 279.732 335.2C279.732 336.356 280.201 337.49 281.019 338.308C281.837 339.126 282.972 339.595 284.128 339.595C285.284 339.595 286.419 339.126 287.237 338.308C288.055 337.49 288.524 336.356 288.524 335.2C288.524 334.043 288.055 332.909 287.237 332.091C286.43 331.273 285.295 330.804 284.128 330.804Z" fill="white" fill-opacity="0.4"/>
<path d="M352.242 312.72C351.086 312.72 349.951 313.189 349.133 314.007C348.315 314.825 347.846 315.959 347.846 317.115C347.846 318.272 348.315 319.406 349.133 320.224C349.951 321.042 351.086 321.511 352.242 321.511C353.398 321.511 354.533 321.042 355.351 320.224C356.169 319.406 356.638 318.272 356.638 317.115C356.638 315.959 356.169 314.825 355.351 314.007C354.533 313.189 353.398 312.72 352.242 312.72Z" fill="white" fill-opacity="0.4"/>
<path d="M306.851 312.72L306.829 312.72C304.396 312.72 302.422 314.694 302.422 317.126C302.422 319.559 304.396 321.533 306.829 321.533L306.851 321.533C309.284 321.533 311.258 319.559 311.258 317.126C311.247 314.694 309.273 312.72 306.851 312.72Z" fill="white" fill-opacity="0.4"/>
<path d="M329.552 312.72L329.53 312.72C327.097 312.72 325.123 314.694 325.123 317.126C325.123 319.559 327.097 321.533 329.53 321.533L329.552 321.533C331.985 321.533 333.959 319.559 333.959 317.126C333.948 314.694 331.985 312.72 329.552 312.72Z" fill="white" fill-opacity="0.4"/>
<path d="M284.128 312.72C282.972 312.72 281.837 313.189 281.019 314.007C280.201 314.825 279.732 315.959 279.732 317.115C279.732 318.271 280.201 319.406 281.019 320.224C281.837 321.042 282.972 321.511 284.128 321.511C285.284 321.511 286.419 321.042 287.237 320.224C288.055 319.406 288.524 318.271 288.524 317.115C288.524 315.959 288.055 314.825 287.237 314.007C286.43 313.189 285.295 312.72 284.128 312.72Z" fill="white" fill-opacity="0.4"/>
<path d="M352.242 294.636C351.085 294.636 349.951 295.105 349.133 295.923C348.315 296.741 347.846 297.875 347.846 299.031C347.846 300.188 348.315 301.322 349.133 302.14C349.951 302.958 351.085 303.427 352.242 303.427C353.398 303.427 354.533 302.958 355.351 302.14C356.169 301.322 356.638 300.188 356.638 299.031C356.638 297.875 356.169 296.741 355.351 295.923C354.533 295.105 353.398 294.636 352.242 294.636Z" fill="white" fill-opacity="0.4"/>
<path d="M306.851 294.636L306.829 294.636C304.396 294.636 302.422 296.61 302.422 299.042C302.422 301.475 304.396 303.449 306.829 303.449L306.851 303.449C309.284 303.449 311.258 301.475 311.258 299.042C311.247 296.61 309.273 294.636 306.851 294.636Z" fill="white" fill-opacity="0.4"/>
<path d="M329.552 294.636L329.53 294.636C327.097 294.636 325.123 296.61 325.123 299.042C325.123 301.475 327.097 303.449 329.53 303.449L329.552 303.449C331.985 303.449 333.959 301.475 333.959 299.042C333.948 296.61 331.985 294.636 329.552 294.636Z" fill="white" fill-opacity="0.4"/>
<path d="M284.128 294.636C282.972 294.636 281.837 295.105 281.019 295.923C280.201 296.741 279.732 297.875 279.732 299.031C279.732 300.188 280.201 301.322 281.019 302.14C281.837 302.958 282.972 303.427 284.128 303.427C285.284 303.427 286.419 302.958 287.237 302.14C288.055 301.322 288.524 300.188 288.524 299.031C288.524 297.875 288.055 296.741 287.237 295.923C286.43 295.105 285.295 294.636 284.128 294.636Z" fill="white" fill-opacity="0.4"/>
<path d="M352.242 276.552C351.085 276.552 349.951 277.021 349.133 277.839C348.315 278.657 347.846 279.791 347.846 280.947C347.846 282.104 348.315 283.238 349.133 284.056C349.951 284.874 351.085 285.343 352.242 285.343C353.398 285.343 354.533 284.874 355.351 284.056C356.169 283.238 356.638 282.104 356.638 280.947C356.638 279.791 356.169 278.657 355.351 277.839C354.533 277.021 353.398 276.552 352.242 276.552Z" fill="white" fill-opacity="0.4"/>
<path d="M306.851 276.552L306.829 276.552C304.396 276.552 302.422 278.526 302.422 280.958C302.422 283.391 304.396 285.365 306.829 285.365L306.851 285.365C309.284 285.365 311.258 283.391 311.258 280.958C311.247 278.526 309.273 276.552 306.851 276.552Z" fill="white" fill-opacity="0.4"/>
<path d="M329.552 276.552L329.53 276.552C327.097 276.552 325.123 278.526 325.123 280.958C325.123 283.391 327.097 285.365 329.53 285.365L329.552 285.365C331.985 285.365 333.959 283.391 333.959 280.958C333.948 278.526 331.985 276.552 329.552 276.552Z" fill="white" fill-opacity="0.4"/>
<path d="M284.128 276.552C282.972 276.552 281.837 277.021 281.019 277.839C280.201 278.657 279.732 279.791 279.732 280.947C279.732 282.104 280.201 283.238 281.019 284.056C281.837 284.874 282.972 285.343 284.128 285.343C285.284 285.343 286.419 284.874 287.237 284.056C288.055 283.238 288.524 282.104 288.524 280.947C288.524 279.791 288.055 278.657 287.237 277.839C286.43 277.021 285.295 276.552 284.128 276.552Z" fill="white" fill-opacity="0.4"/>
</g>
</svg>
