<svg width="36" height="36" viewBox="0 0 36 36" fill="none" xmlns="http://www.w3.org/2000/svg">
<rect width="36" height="36" rx="18" fill="url(#paint0_linear_2001_1493)"/>
<path d="M25 18.0003C25.0004 18.1701 24.9569 18.3371 24.8736 18.485C24.7904 18.633 24.6703 18.7569 24.525 18.8447L15.52 24.3534C15.3682 24.4464 15.1943 24.4972 15.0163 24.5005C14.8383 24.5037 14.6627 24.4595 14.5075 24.3722C14.3538 24.2863 14.2258 24.1609 14.1366 24.0091C14.0474 23.8573 14.0003 23.6845 14 23.5084V12.4922C14.0003 12.3161 14.0474 12.1433 14.1366 11.9915C14.2258 11.8397 14.3538 11.7144 14.5075 11.6284C14.6627 11.5412 14.8383 11.4969 15.0163 11.5002C15.1943 11.5035 15.3682 11.5542 15.52 11.6472L24.525 17.1559C24.6703 17.2437 24.7904 17.3676 24.8736 17.5156C24.9569 17.6636 25.0004 17.8305 25 18.0003Z" fill="white"/>
<defs>
<linearGradient id="paint0_linear_2001_1493" x1="0" y1="0" x2="36" y2="36" gradientUnits="userSpaceOnUse">
<stop stop-color="#0A8B8B"/>
<stop offset="1" stop-color="#C9A24D"/>
</linearGradient>
</defs>
</svg>
