<svg version="1.2" xmlns="http://www.w3.org/2000/svg" viewBox="0 0 433 165" width="433" height="165">
	<title>cerp RGB</title>
	<style>
		.s0 { fill: #100083 } 
		.s1 { fill: #ff3800 } 
	</style>
	<path class="s0" d="m109.9 147.2q-4.1 0-7.2-0.5-3-0.4-5-1.2-2.1-0.9-3.4-2-1.3-1.2-2-2.6-0.7-1.4-0.9-3-0.2-1.5-0.2-3.3 0-0.6 0-1.5c0-0.6 1.5-8.6 1.6-9.2q0.1-0.9 0.2-1.8 0.1-1 0.2-1.7l5.9 0.5q-0.1 1.2-0.3 2.5c-0.2 0.8-1.6 9-1.6 9.8q0 2.1 0.5 3.6 0.6 1.4 2.3 2.4 1.7 0.9 5 1.3 3.3 0.5 8.8 0.5h89.1v-20.5h6.2v26.7h-99.2zm34.5 10.4q0-0.8 0.3-1.5 0.3-0.7 0.8-1.2 0.5-0.5 1.2-0.8 0.6-0.3 1.4-0.2 0.8 0 1.4 0.2 0.7 0.3 1.2 0.8 0.5 0.5 0.8 1.2 0.3 0.7 0.3 1.5 0 0.7-0.3 1.4-0.3 0.7-0.8 1.1-0.5 0.5-1.2 0.8-0.6 0.3-1.4 0.3-1.6 0-2.6-1-1.1-1.1-1.1-2.6z"/>
	<path class="s0" d="m217.5 155.7q3.7-0.5 5.9-1.5 2.2-1 3.3-2.5 1.2-1.5 1.5-3.6 0.3-2.1 0.4-4.7v-22.9h6.2v20.5h77.9q1.2 0 1.9 0.4 0.6 0.4 0.6 1.4v2.4q0 0.7-0.2 1-0.2 0.4-0.6 0.7-0.3 0.2-0.8 0.2-0.4 0.1-0.9 0.1h-78.3q-0.5 3.6-1.7 6.1-1.3 2.5-3.3 4.2-2 1.7-4.8 2.7-2.8 0.9-6.5 1.4l-0.6-5.9z"/>
	<path class="s0" d="m388.1 138.8q1.8 1.3 4.1 1.7 2.2 0.5 4.7 0.5h2.4q1.1 0 1.8-1 0.6-1 0.6-3v-16.6h6.2v18.4q1.8 1.2 4 1.7 2.3 0.5 4.9 0.5h5v-20.5h6.2v26.7h-11.3q-1.2 0-2.5-0.1-1.3-0.2-2.6-0.5-1.4-0.4-2.7-1-1.3-0.7-2.4-1.6-0.8 1.4-2.3 2.3-1.4 0.9-3.6 0.9h-3.7q-1.4 0-2.7-0.2-1.4-0.1-2.7-0.5-1.3-0.4-2.5-1-1.2-0.6-2.3-1.5-0.8 1.3-2.3 2.3-1.4 0.9-3.6 0.9h-73.7q-1.2 0-1.9-0.4-0.6-0.4-0.6-1.4v-2.4q0-0.7 0.2-1.1 0.2-0.4 0.5-0.6 0.4-0.2 0.8-0.3 0.5 0 1 0h72.4q1.1 0 1.8-1 0.6-1 0.6-2.9v-16.7h6.2v18.4z"/>
	<path class="s0" d="m186.4 11.1h65.5v17h-46.5v17.6h40.9v17h-40.9v18.3h47.1v17h-66.1v-86.9z"/>
	<path class="s0" d="m269.5 11.1h39.7c11.1 0 19.6 3.1 25.3 8.8 4.9 4.9 7.5 11.7 7.5 19.9v0.2c0 14.1-7.6 22.9-18.6 27l21.2 31h-22.3l-18.6-27.8h-15.1v27.8h-19.1zm38.5 42.2c9.3 0 14.6-5 14.6-12.3v-0.3c0-8.2-5.7-12.4-15-12.4h-19v25h19.4z"/>
	<path class="s0" d="m359.2 11.1h35.5c20.7 0 33.3 12.3 33.3 30v0.3c0 20.1-15.7 30.5-35.1 30.5h-14.6v26.1h-19.1zm34.3 43.8c9.5 0 15.1-5.7 15.1-13.2v-0.2c0-8.6-5.9-13.2-15.5-13.2h-14.8v26.6z"/>
	<path fill-rule="evenodd" class="s0" d="m53.6 64.8c-4.8 0-8.7-3.8-8.7-8.6 0-4.8 3.9-8.7 8.7-8.7 4.8 0 8.7 3.9 8.7 8.7 0 4.8-3.9 8.6-8.7 8.6z"/>
	<path class="s0" d="m158.9 71.6c-6.8 6.2-12.9 10.2-22.8 10.2-14.9 0-25.2-12.4-25.2-27.3v-0.2c0-14.9 10.5-27.1 25.2-27.1 8.7 0 15.5 3.8 22.2 9.8l12.1-14c-8-7.9-17.8-13.4-34.2-13.4-8.8 0-16.8 2.3-23.5 6.1-1.9-2.7-5.1-4.4-8.7-4.4-5.9 0-10.8 4.8-10.8 10.7 0 3.4 1.6 6.3 3.9 8.3q0.2 0.2 0.4 0.3 0 0 0 0c1.9 1.6 3.1 4 3.1 6.7 0 4.8-3.9 8.7-8.7 8.7q-0.1 0-0.2 0 0 0 0 0c-4.7 0.1-8.4 3.9-8.4 8.6 0 4.8 3.6 8.5 8.2 8.7h0.2q0.2 0 0.4 0c4.6 0.3 8.3 4 8.3 8.7 0 2.6-1.2 4.9-3 6.5q0 0 0.1 0c-2.6 2-4.3 5.1-4.3 8.6 0 6 4.8 10.8 10.8 10.8 3.6 0 6.7-1.8 8.7-4.5 6.5 3.8 14.3 6 22.7 6 16.8 0 26.7-6 35.6-15.5l-12.1-12.3z"/>
	<path fill-rule="evenodd" class="s1" d="m58 23.1c-2 0-3.7-1.7-3.7-3.7 0-2.1 1.7-3.8 3.7-3.8 2.1 0 3.7 1.7 3.7 3.8 0 2-1.6 3.7-3.7 3.7z"/>
	<path fill-rule="evenodd" class="s1" d="m39.2 42.3c-3 0-5.3-2.4-5.3-5.3 0-3 2.3-5.4 5.3-5.4 3 0 5.3 2.4 5.3 5.4 0 2.9-2.3 5.3-5.3 5.3z"/>
	<path fill-rule="evenodd" class="s1" d="m10.9 60c-2 0-3.7-1.7-3.7-3.7 0-2.1 1.7-3.7 3.7-3.7 2.1 0 3.7 1.6 3.7 3.7 0 2-1.6 3.7-3.7 3.7z"/>
	<path fill-rule="evenodd" class="s0" d="m22.3 41.9c-2.1 0-3.8-1.7-3.8-3.7 0-2.1 1.7-3.8 3.8-3.8 2 0 3.7 1.7 3.7 3.8 0 2-1.7 3.7-3.7 3.7z"/>
	<path fill-rule="evenodd" class="s0" d="m78.6 25.2c-3.2 0-5.8-2.6-5.8-5.8 0-3.3 2.6-5.9 5.8-5.9 3.3 0 5.9 2.6 5.9 5.9 0 3.2-2.6 5.8-5.9 5.8z"/>
	<path fill-rule="evenodd" class="s0" d="m30.6 62c-3.3 0-6-2.6-6-5.9 0-3.4 2.7-6 6-6 3.3 0 6 2.6 6 6 0 3.3-2.7 5.9-6 5.9z"/>
	<path fill-rule="evenodd" class="s0" d="m73.6 59.2c-2.1 0-3.8-1.7-3.8-3.7 0-2.1 1.7-3.7 3.8-3.7 2 0 3.7 1.6 3.7 3.7 0 2-1.7 3.7-3.7 3.7z"/>
	<path fill-rule="evenodd" class="s0" d="m39.5 23.6c-2.9 0-5.2-2.3-5.2-5.1 0-2.9 2.3-5.2 5.2-5.2 2.9 0 5.2 2.3 5.2 5.2 0 2.8-2.3 5.1-5.2 5.1z"/>
	<path fill-rule="evenodd" class="s0" d="m58.6 97.1c-2.1 0-3.8-1.6-3.8-3.7 0-2 1.7-3.7 3.8-3.7 2 0 3.7 1.7 3.7 3.7 0 2.1-1.7 3.7-3.7 3.7z"/>
	<path fill-rule="evenodd" class="s0" d="m78.2 99.7c-3.2 0-5.8-2.6-5.8-5.8 0-3.3 2.6-5.9 5.8-5.9 3.2 0 5.8 2.6 5.8 5.9 0 3.2-2.6 5.8-5.8 5.8z"/>
	<path fill-rule="evenodd" class="s1" d="m41.3 97.3c-2.1 0-3.7-1.6-3.7-3.7 0-2 1.6-3.7 3.7-3.7 2 0 3.7 1.7 3.7 3.7 0 2.1-1.7 3.7-3.7 3.7z"/>
	<path fill-rule="evenodd" class="s0" d="m62.9 44c-4.6 0-8.2-3.7-8.2-8.3 0-4.6 3.6-8.2 8.2-8.2 4.6 0 8.3 3.6 8.3 8.2 0 4.6-3.7 8.3-8.3 8.3z"/>
	<path fill-rule="evenodd" class="s0" d="m38.6 81.1c-3.2 0-5.8-2.6-5.8-5.8 0-3.2 2.6-5.8 5.8-5.8 3.2 0 5.8 2.6 5.8 5.8 0 3.2-2.6 5.8-5.8 5.8z"/>
	<path fill-rule="evenodd" class="s0" d="m22.3 79.2c-2.1 0-3.8-1.6-3.8-3.7 0-2 1.7-3.7 3.8-3.7 2 0 3.7 1.7 3.7 3.7 0 2.1-1.7 3.7-3.7 3.7z"/>
	<path fill-rule="evenodd" class="s0" d="m58 81.2c-3.1 0-5.7-2.5-5.7-5.7 0-3.1 2.6-5.7 5.7-5.7 3.2 0 5.7 2.6 5.7 5.7 0 3.2-2.5 5.7-5.7 5.7z"/>
	<path class="s0" d="m86.8 74.1c0 1.6-0.4 3-1 4.2-1.5 2.7-4.4 4.5-7.6 4.5-4.8 0-8.7-3.9-8.7-8.7 0-4.8 3.9-8.6 8.7-8.6 2.2 0 4.3 0.9 5.9 2.3 1.7 1.6 2.7 3.8 2.7 6.3z"/>
	<path class="s0" d="m83.4 38.5q-0.2 0.3-0.5 0.5c-1.4 1.5-3.8 1.5-5.2 0-1.5-1.4-1.5-3.8 0-5.2 1.4-1.5 3.8-1.5 5.2 0q0.5 0.5 0.7 1c0.6 1.2 0.5 2.6-0.2 3.7z"/>
</svg>