<svg width="18" height="18" viewBox="0 0 18 18" fill="none" xmlns="http://www.w3.org/2000/svg">
<path opacity="0.2" d="M6.66621 13.5005L4.59551 15.0642C4.52093 15.1239 4.43236 15.1637 4.33816 15.1797C4.24397 15.1957 4.14725 15.1874 4.05712 15.1557C3.967 15.124 3.88644 15.0698 3.82305 14.9983C3.75966 14.9268 3.71552 14.8404 3.69481 14.7471L2.82574 10.8356C2.80702 10.7517 2.8078 10.6645 2.82804 10.5809C2.84827 10.4973 2.88742 10.4194 2.94246 10.3533L5.07363 7.79883C4.99207 9.43992 5.39285 11.351 6.66621 13.5005ZM15.0573 10.3533L12.9261 7.79883C13.0112 9.43992 12.6069 11.351 11.3336 13.5005L13.4043 15.0642C13.4788 15.1239 13.5674 15.1637 13.6616 15.1797C13.7558 15.1957 13.8525 15.1874 13.9426 15.1557C14.0328 15.124 14.1133 15.0698 14.1767 14.9983C14.2401 14.9268 14.2842 14.8404 14.305 14.7471L15.174 10.8356C15.1928 10.7517 15.192 10.6645 15.1717 10.5809C15.1515 10.4973 15.1124 10.4194 15.0573 10.3533Z" fill="#1AB4B4"/>
<path d="M10.6876 15.7509C10.6876 15.9001 10.6283 16.0431 10.5229 16.1486C10.4174 16.2541 10.2743 16.3134 10.1251 16.3134H7.8751C7.72592 16.3134 7.58284 16.2541 7.47736 16.1486C7.37187 16.0431 7.3126 15.9001 7.3126 15.7509C7.3126 15.6017 7.37187 15.4586 7.47736 15.3531C7.58284 15.2476 7.72592 15.1884 7.8751 15.1884H10.1251C10.2743 15.1884 10.4174 15.2476 10.5229 15.3531C10.6283 15.4586 10.6876 15.6017 10.6876 15.7509ZM9.0001 7.87588C9.16698 7.87588 9.33011 7.82639 9.46887 7.73368C9.60762 7.64097 9.71576 7.50919 9.77963 7.35502C9.84349 7.20084 9.8602 7.03119 9.82764 6.86752C9.79508 6.70385 9.71472 6.55351 9.59672 6.43551C9.47872 6.3175 9.32838 6.23715 9.16471 6.20459C9.00104 6.17203 8.83139 6.18874 8.67721 6.2526C8.52304 6.31646 8.39126 6.42461 8.29855 6.56336C8.20584 6.70212 8.15635 6.86525 8.15635 7.03213C8.15635 7.2559 8.24525 7.47051 8.40348 7.62875C8.56172 7.78698 8.77633 7.87588 9.0001 7.87588ZM15.7234 10.9577L14.8543 14.8692C14.8131 15.0549 14.7254 15.2272 14.5995 15.3698C14.4736 15.5125 14.3136 15.6209 14.1344 15.6848C13.9552 15.7488 13.7627 15.7663 13.5749 15.7357C13.3872 15.7051 13.2102 15.6273 13.0606 15.5097L11.1453 14.0634H6.85628L4.93956 15.5097C4.78999 15.6273 4.61304 15.7051 4.42526 15.7357C4.23747 15.7663 4.04499 15.7488 3.8658 15.6848C3.68662 15.6209 3.52659 15.5125 3.40068 15.3698C3.27478 15.2272 3.18711 15.0549 3.14588 14.8692L2.27682 10.9577C2.23996 10.7898 2.24182 10.6158 2.28227 10.4487C2.32272 10.2817 2.40069 10.1261 2.51026 9.99369L4.51838 7.58478C4.58578 6.69951 4.78902 5.82988 5.12096 5.00642C6.02799 2.73252 7.65221 1.30588 8.31104 0.798221C8.50824 0.64542 8.75063 0.5625 9.0001 0.5625C9.24957 0.5625 9.49197 0.64542 9.68917 0.798221C10.3459 1.30588 11.9722 2.73252 12.8792 5.00642C13.2112 5.82988 13.4144 6.69951 13.4818 7.58478L15.4899 9.99369C15.5995 10.1261 15.6775 10.2817 15.7179 10.4487C15.7584 10.6158 15.7602 10.7898 15.7234 10.9577ZM6.99127 12.9384H11.0089C12.4939 10.2988 12.7717 7.77181 11.8344 5.42338C11.0075 3.35056 9.45643 2.03994 9.0001 1.68838C8.54237 2.03994 6.99127 3.35056 6.1644 5.42338C5.22854 7.77181 5.50627 10.2988 6.99127 12.9384ZM5.93659 13.3497C5.17956 11.9739 4.72018 10.6218 4.55846 9.29338L3.3751 10.7137L4.24417 14.6259L4.25682 14.6167L5.93659 13.3497ZM14.6251 10.7137L13.4417 9.29338C13.2814 10.619 12.823 11.9711 12.0664 13.3497L13.7434 14.6153L13.756 14.6245L14.6251 10.7137Z" fill="#1AB4B4"/>
</svg>
