<svg width="625" height="758" viewBox="0 0 625 758" fill="none" xmlns="http://www.w3.org/2000/svg">
<g opacity="0.1">
<path d="M528.209 192.072C581.26 192.072 624.258 235.076 624.258 288.108L528.209 288.108L528.209 192.072Z" fill="#F1F1F0"/>
<path d="M432.159 288.119L528.209 288.119L528.209 192.083L432.159 192.083L432.159 288.119Z" fill="#100083" fill-opacity="0.08"/>
<path d="M432.159 192.072L528.209 192.072L432.159 288.119L432.159 192.072Z" fill="#100083" fill-opacity="0.2"/>
<path d="M336.099 192.072L432.148 192.072L432.148 288.119C379.109 288.119 336.099 245.115 336.099 192.072Z" fill="#100083"/>
<path d="M144 192.072L240.049 192.072L240.049 288.119C187.01 288.119 144 245.115 144 192.072Z" fill="#100083" fill-opacity="0.2"/>
<path d="M239.399 191.967L335.449 191.967C335.449 245.01 292.45 288.003 239.399 288.003L239.399 191.967Z" fill="#100083" fill-opacity="0.08"/>
<path d="M179.725 192.072L240.049 192.072L240.049 252.388C206.734 252.399 179.725 225.394 179.725 192.072Z" fill="#F1F1F0"/>
<path d="M240.049 192.072L300.374 192.072C300.374 225.382 273.365 252.388 240.049 252.388L240.049 192.072Z" fill="#100083"/>
<path d="M528.209 96.0359C581.26 96.0359 624.258 53.0434 624.258 3.05176e-05L528.209 2.21207e-05L528.209 96.0359Z" fill="#100083"/>
<path d="M528.209 96.0359L528.209 3.05176e-05L432.159 2.21207e-05C432.159 53.0433 475.158 96.0359 528.209 96.0359Z" fill="#100083" fill-opacity="0.2"/>
<path d="M528.209 55.4985C558.861 55.4985 583.715 30.6482 583.715 0.000156403L528.209 0.00015155L528.209 55.4985Z" fill="#F1F1F0"/>
<path d="M528.209 55.4985L528.209 0.000156403L472.703 0.00015155C472.703 30.6482 497.556 55.4985 528.209 55.4985Z" fill="#F9FBFC"/>
<path d="M432.159 96.0359C432.159 42.9926 389.161 2.67585e-05 336.11 2.21207e-05C336.099 53.0433 379.109 96.0359 432.159 96.0359Z" fill="white"/>
<path d="M144 96.0359L240.049 96.0359L240.049 3.05176e-05L144 2.21207e-05L144 96.0359Z" fill="#100083" fill-opacity="0.08"/>
<path d="M240.049 96.0359C293.1 96.0359 336.099 53.0434 336.099 3.05176e-05L240.049 2.21207e-05L240.049 96.0359Z" fill="#100083"/>
<path d="M528.209 192.072C528.209 139.028 485.21 96.0359 432.159 96.0359C432.159 149.079 475.158 192.072 528.209 192.072Z" fill="#100083"/>
<path d="M336.099 192.072C389.149 192.072 432.148 149.079 432.148 96.0359C379.109 96.0359 336.099 139.04 336.099 192.072Z" fill="#100083" fill-opacity="0.2"/>
<path d="M240.049 192.072L336.099 192.072L336.099 96.0359L240.049 96.0359L240.049 192.072Z" fill="#F9FBFC"/>
<path d="M264.062 192.072C277.319 192.072 288.074 181.318 288.074 168.063C288.074 154.808 277.319 144.054 264.062 144.054C250.805 144.054 240.049 154.808 240.049 168.063C240.049 181.329 250.805 192.072 264.062 192.072Z" fill="#100083" fill-opacity="0.2"/>
<path d="M264.062 173.745C267.197 173.745 269.745 171.198 269.745 168.063C269.745 164.928 267.197 162.38 264.062 162.38C260.926 162.38 258.379 164.928 258.379 168.063C258.379 171.209 260.926 173.745 264.062 173.745Z" fill="#F9FBFC"/>
<path d="M312.086 192.072C325.343 192.072 336.099 181.318 336.099 168.063C336.099 154.808 325.343 144.054 312.086 144.054C298.829 144.054 288.074 154.808 288.074 168.063C288.074 181.329 298.829 192.072 312.086 192.072Z" fill="#F1F1F0"/>
<path d="M312.086 173.745C315.222 173.745 317.769 171.198 317.769 168.063C317.769 164.928 315.222 162.38 312.086 162.38C308.951 162.38 306.403 164.928 306.403 168.063C306.403 171.209 308.951 173.745 312.086 173.745Z" fill="#100083" fill-opacity="0.2"/>
<path d="M264.062 144.054C277.319 144.054 288.074 133.3 288.074 120.045C288.074 106.79 277.319 96.0358 264.062 96.0358C250.805 96.0358 240.049 106.79 240.049 120.045C240.049 133.311 250.805 144.054 264.062 144.054Z" fill="white"/>
<path d="M264.062 125.727C267.197 125.727 269.745 123.18 269.745 120.045C269.745 116.91 267.197 114.362 264.062 114.362C260.926 114.362 258.378 116.91 258.378 120.045C258.378 123.18 260.926 125.727 264.062 125.727Z" fill="#100083" fill-opacity="0.2"/>
<path d="M312.086 144.054C325.343 144.054 336.099 133.3 336.099 120.045C336.099 106.79 325.343 96.0358 312.086 96.0358C298.829 96.0358 288.074 106.79 288.074 120.045C288.074 133.311 298.829 144.054 312.086 144.054Z" fill="#100083"/>
<path d="M312.086 125.727C315.222 125.727 317.769 123.18 317.769 120.045C317.769 116.91 315.222 114.362 312.086 114.362C308.951 114.362 306.403 116.91 306.403 120.045C306.403 123.18 308.951 125.727 312.086 125.727Z" fill="#E9E5D9"/>
<path d="M144 192.072L240.049 192.072L240.049 96.0359L144 96.0359L144 192.072Z" fill="#100083"/>
<path d="M171.574 164.513L212.486 164.513L212.486 123.606L171.574 123.606L171.574 164.513Z" fill="white"/>
<path d="M226.85 61.5381C225.628 61.5381 224.429 62.0337 223.565 62.8981C222.7 63.7626 222.204 64.9613 222.204 66.1831C222.204 67.4049 222.7 68.6036 223.565 69.468C224.429 70.3325 225.628 70.8281 226.85 70.8281C228.072 70.8281 229.271 70.3325 230.135 69.468C231 68.6036 231.496 67.4049 231.496 66.1831C231.496 64.9613 231 63.7626 230.135 62.8981C229.271 62.0337 228.072 61.5381 226.85 61.5381Z" fill="#100083"/>
<path d="M178.883 61.538L178.86 61.538C176.289 61.538 174.203 63.6242 174.203 66.1945C174.203 68.7648 176.289 70.8511 178.86 70.8511L178.883 70.8511C181.454 70.8511 183.54 68.7648 183.54 66.1945C183.529 63.6242 181.454 61.538 178.883 61.538Z" fill="#100083"/>
<path d="M202.872 61.538L202.849 61.538C200.279 61.538 198.192 63.6242 198.192 66.1945C198.192 68.7648 200.279 70.8511 202.849 70.8511L202.872 70.8511C205.443 70.8511 207.529 68.7648 207.529 66.1945C207.518 63.6242 205.443 61.538 202.872 61.538Z" fill="#100083"/>
<path d="M154.882 61.5381C153.66 61.5381 152.461 62.0337 151.597 62.8981C150.732 63.7626 150.237 64.9613 150.237 66.1831C150.237 67.4049 150.732 68.6036 151.597 69.468C152.461 70.3325 153.66 70.8281 154.882 70.8281C156.104 70.8281 157.303 70.3325 158.168 69.468C159.032 68.6036 159.528 67.4049 159.528 66.1831C159.528 64.9613 159.032 63.7626 158.168 62.8981C157.303 62.0337 156.104 61.5381 154.882 61.5381Z" fill="#100083"/>
<path d="M226.85 80.6484C225.628 80.6484 224.429 81.144 223.565 82.0085C222.7 82.8729 222.204 84.0717 222.204 85.2934C222.204 86.5152 222.7 87.7139 223.565 88.5784C224.429 89.4429 225.628 89.9385 226.85 89.9385C228.072 89.9385 229.271 89.4429 230.135 88.5784C231 87.7139 231.496 86.5152 231.496 85.2934C231.496 84.0717 231 82.8729 230.135 82.0085C229.271 81.144 228.072 80.6484 226.85 80.6484Z" fill="#100083"/>
<path d="M178.883 80.6485L178.86 80.6485C176.289 80.6485 174.203 82.7348 174.203 85.3051C174.203 87.8754 176.289 89.9617 178.86 89.9617L178.883 89.9617C181.454 89.9617 183.54 87.8754 183.54 85.3051C183.529 82.7233 181.454 80.6485 178.883 80.6485Z" fill="#100083"/>
<path d="M202.872 80.6485L202.849 80.6485C200.279 80.6485 198.192 82.7348 198.192 85.3051C198.192 87.8754 200.279 89.9617 202.849 89.9617L202.872 89.9617C205.443 89.9617 207.529 87.8754 207.529 85.3051C207.518 82.7233 205.443 80.6485 202.872 80.6485Z" fill="#100083"/>
<path d="M154.882 80.6484C153.66 80.6484 152.461 81.144 151.597 82.0085C150.732 82.8729 150.237 84.0717 150.237 85.2934C150.237 86.5152 150.732 87.7139 151.597 88.5784C152.461 89.4429 153.66 89.9385 154.882 89.9385C156.104 89.9385 157.303 89.4429 158.168 88.5784C159.032 87.7139 159.528 86.5152 159.528 85.2934C159.528 84.0717 159.032 82.8729 158.168 82.0085C157.303 81.144 156.104 80.6484 154.882 80.6484Z" fill="#100083"/>
<path d="M226.85 42.4277C225.628 42.4277 224.429 42.9233 223.565 43.7878C222.7 44.6522 222.204 45.851 222.204 47.0727C222.204 48.2945 222.7 49.4932 223.565 50.3577C224.429 51.2222 225.628 51.7178 226.85 51.7178C228.072 51.7178 229.271 51.2222 230.135 50.3577C231 49.4932 231.496 48.2945 231.496 47.0727C231.496 45.851 231 44.6522 230.135 43.7878C229.271 42.9233 228.072 42.4277 226.85 42.4277Z" fill="#100083"/>
<path d="M178.883 42.4276L178.86 42.4276C176.289 42.4276 174.203 44.5138 174.203 47.0841C174.203 49.6545 176.289 51.7407 178.86 51.7407L178.883 51.7407C181.454 51.7407 183.54 49.6545 183.54 47.0842C183.529 44.5138 181.454 42.4276 178.883 42.4276Z" fill="#100083"/>
<path d="M202.872 42.4276L202.849 42.4276C200.279 42.4276 198.192 44.5138 198.192 47.0841C198.192 49.6545 200.279 51.7407 202.849 51.7407L202.872 51.7407C205.443 51.7407 207.529 49.6545 207.529 47.0842C207.518 44.5138 205.443 42.4276 202.872 42.4276Z" fill="#100083"/>
<path d="M154.882 42.4277C153.66 42.4277 152.461 42.9233 151.597 43.7878C150.732 44.6522 150.237 45.851 150.237 47.0727C150.237 48.2945 150.732 49.4932 151.597 50.3577C152.461 51.2222 153.66 51.7178 154.882 51.7178C156.104 51.7178 157.303 51.2222 158.168 50.3577C159.032 49.4932 159.528 48.2945 159.528 47.0727C159.528 45.851 159.032 44.6522 158.168 43.7878C157.303 42.9233 156.104 42.4277 154.882 42.4277Z" fill="#100083"/>
<path d="M226.85 23.3174C225.628 23.3174 224.429 23.813 223.565 24.6774C222.7 25.5419 222.204 26.7406 222.204 27.9624C222.204 29.1842 222.7 30.3829 223.565 31.2473C224.429 32.1118 225.628 32.6074 226.85 32.6074C228.072 32.6074 229.271 32.1118 230.135 31.2473C231 30.3829 231.496 29.1842 231.496 27.9624C231.496 26.7406 231 25.5419 230.135 24.6774C229.271 23.813 228.072 23.3174 226.85 23.3174Z" fill="#100083"/>
<path d="M178.883 23.3173L178.86 23.3173C176.289 23.3173 174.203 25.4035 174.203 27.9738C174.203 30.5441 176.289 32.6304 178.86 32.6304L178.883 32.6304C181.454 32.6304 183.54 30.5441 183.54 27.9738C183.529 25.4035 181.454 23.3173 178.883 23.3173Z" fill="#100083"/>
<path d="M202.872 23.3173L202.849 23.3173C200.279 23.3173 198.192 25.4035 198.192 27.9738C198.192 30.5441 200.279 32.6304 202.849 32.6304L202.872 32.6304C205.443 32.6304 207.529 30.5441 207.529 27.9738C207.518 25.4035 205.443 23.3173 202.872 23.3173Z" fill="#100083"/>
<path d="M154.882 23.3174C153.66 23.3174 152.461 23.813 151.597 24.6774C150.732 25.5419 150.237 26.7406 150.237 27.9624C150.237 29.1842 150.732 30.3829 151.597 31.2473C152.461 32.1118 153.66 32.6074 154.882 32.6074C156.104 32.6074 157.303 32.1118 158.168 31.2473C159.032 30.3829 159.528 29.1842 159.528 27.9624C159.528 26.7406 159.032 25.5419 158.168 24.6774C157.303 23.813 156.104 23.3174 154.882 23.3174Z" fill="#100083"/>
<path d="M226.85 4.207C225.628 4.207 224.429 4.70265 223.565 5.56711C222.7 6.43157 222.204 7.63026 222.204 8.85203C222.204 10.0738 222.7 11.2725 223.565 12.137C224.429 13.0015 225.628 13.4971 226.85 13.4971C228.072 13.4971 229.271 13.0015 230.135 12.137C231 11.2725 231.496 10.0738 231.496 8.85204C231.496 7.63026 231 6.43157 230.135 5.56711C229.271 4.70265 228.072 4.207 226.85 4.207Z" fill="#100083"/>
<path d="M178.883 4.20687L178.86 4.20687C176.289 4.20687 174.203 6.29312 174.203 8.86345C174.203 11.4338 176.289 13.52 178.86 13.52L178.883 13.52C181.454 13.52 183.54 11.4338 183.54 8.86345C183.529 6.29312 181.454 4.20687 178.883 4.20687Z" fill="#100083"/>
<path d="M202.872 4.20687L202.849 4.20687C200.279 4.20687 198.192 6.29312 198.192 8.86345C198.192 11.4338 200.279 13.52 202.849 13.52L202.872 13.52C205.443 13.52 207.529 11.4338 207.529 8.86345C207.518 6.29312 205.443 4.20687 202.872 4.20687Z" fill="#100083"/>
<path d="M154.882 4.207C153.66 4.207 152.461 4.70265 151.597 5.56711C150.732 6.43157 150.237 7.63026 150.237 8.85203C150.237 10.0738 150.732 11.2725 151.597 12.137C152.461 13.0015 153.66 13.4971 154.882 13.4971C156.104 13.4971 157.303 13.0015 158.168 12.137C159.032 11.2725 159.528 10.0738 159.528 8.85204C159.528 7.63026 159.032 6.43157 158.168 5.56711C157.303 4.70265 156.104 4.207 154.882 4.207Z" fill="#100083"/>
<path d="M516.231 349.577C515.009 349.577 513.811 350.072 512.946 350.937C512.081 351.801 511.586 353 511.586 354.222C511.586 355.443 512.081 356.642 512.946 357.507C513.811 358.371 515.009 358.867 516.231 358.867C517.453 358.867 518.652 358.371 519.517 357.507C520.381 356.642 520.877 355.443 520.877 354.222C520.877 353 520.381 351.801 519.517 350.937C518.652 350.072 517.453 349.577 516.231 349.577Z" fill="#100083" fill-opacity="0.2"/>
<path d="M468.264 349.577L468.241 349.577C465.671 349.577 463.584 351.663 463.584 354.233C463.584 356.803 465.671 358.89 468.241 358.89L468.264 358.89C470.835 358.89 472.922 356.803 472.922 354.233C472.91 351.663 470.824 349.577 468.264 349.577Z" fill="#100083" fill-opacity="0.2"/>
<path d="M492.254 349.577L492.231 349.577C489.66 349.577 487.573 351.663 487.573 354.233C487.573 356.803 489.66 358.89 492.231 358.89L492.254 358.89C494.824 358.89 496.911 356.803 496.911 354.233C496.899 351.663 494.824 349.577 492.254 349.577Z" fill="#100083" fill-opacity="0.2"/>
<path d="M444.252 349.576C443.03 349.576 441.831 350.072 440.967 350.936C440.102 351.801 439.606 353 439.606 354.221C439.606 355.443 440.102 356.642 440.967 357.506C441.831 358.371 443.03 358.866 444.252 358.866C445.474 358.866 446.673 358.371 447.537 357.506C448.402 356.642 448.898 355.443 448.898 354.221C448.898 353 448.402 351.801 447.537 350.936C446.684 350.072 445.485 349.576 444.252 349.576Z" fill="#100083" fill-opacity="0.2"/>
<path d="M516.231 368.687C515.009 368.687 513.811 369.183 512.946 370.047C512.081 370.911 511.586 372.11 511.586 373.332C511.586 374.554 512.081 375.752 512.946 376.617C513.811 377.493 515.009 377.989 516.231 377.989C517.453 377.989 518.652 377.493 519.517 376.628C520.381 375.764 520.877 374.565 520.877 373.343C520.877 372.122 520.381 370.923 519.517 370.059C518.652 369.183 517.453 368.687 516.231 368.687Z" fill="#100083" fill-opacity="0.2"/>
<path d="M468.264 368.687L468.241 368.687C465.671 368.687 463.584 370.773 463.584 373.343C463.584 375.914 465.671 378 468.241 378L468.264 378C470.835 378 472.922 375.914 472.922 373.343C472.91 370.773 470.824 368.687 468.264 368.687Z" fill="#100083" fill-opacity="0.2"/>
<path d="M492.254 368.687L492.231 368.687C489.66 368.687 487.573 370.773 487.573 373.343C487.573 375.914 489.66 378 492.231 378L492.254 378C494.824 378 496.911 375.914 496.911 373.343C496.899 370.773 494.824 368.687 492.254 368.687Z" fill="#100083" fill-opacity="0.2"/>
<path d="M444.252 368.687C443.03 368.687 441.831 369.183 440.967 370.047C440.102 370.911 439.606 372.11 439.606 373.332C439.606 374.554 440.102 375.752 440.967 376.617C441.831 377.493 443.03 377.989 444.252 377.989C445.474 377.989 446.673 377.493 447.537 376.628C448.402 375.764 448.898 374.565 448.898 373.343C448.898 372.122 448.402 370.923 447.537 370.059C446.684 369.183 445.485 368.687 444.252 368.687Z" fill="#100083" fill-opacity="0.2"/>
<path d="M516.231 330.466C515.009 330.466 513.811 330.962 512.946 331.826C512.081 332.691 511.586 333.89 511.586 335.111C511.586 336.333 512.081 337.532 512.946 338.396C513.811 339.261 515.009 339.756 516.231 339.756C517.453 339.756 518.652 339.261 519.517 338.396C520.381 337.532 520.877 336.333 520.877 335.111C520.877 333.89 520.381 332.691 519.517 331.826C518.652 330.962 517.453 330.466 516.231 330.466Z" fill="#100083" fill-opacity="0.2"/>
<path d="M468.264 330.466L468.241 330.466C465.671 330.466 463.584 332.552 463.584 335.123C463.584 337.693 465.671 339.779 468.241 339.779L468.264 339.779C470.835 339.779 472.922 337.693 472.922 335.123C472.91 332.552 470.824 330.466 468.264 330.466Z" fill="#100083" fill-opacity="0.2"/>
<path d="M492.254 330.466L492.231 330.466C489.66 330.466 487.573 332.552 487.573 335.123C487.573 337.693 489.66 339.779 492.231 339.779L492.254 339.779C494.824 339.779 496.911 337.693 496.911 335.123C496.899 332.552 494.824 330.466 492.254 330.466Z" fill="#100083" fill-opacity="0.2"/>
<path d="M444.252 330.466C443.03 330.466 441.831 330.962 440.967 331.826C440.102 332.691 439.606 333.89 439.606 335.111C439.606 336.333 440.102 337.532 440.967 338.396C441.831 339.261 443.03 339.756 444.252 339.756C445.474 339.756 446.673 339.261 447.537 338.396C448.402 337.532 448.898 336.333 448.898 335.111C448.898 333.89 448.402 332.691 447.537 331.826C446.684 330.962 445.485 330.466 444.252 330.466Z" fill="#100083" fill-opacity="0.2"/>
<path d="M516.231 311.356C515.009 311.356 513.811 311.852 512.946 312.716C512.081 313.58 511.586 314.779 511.586 316.001C511.586 317.223 512.081 318.421 512.946 319.286C513.811 320.15 515.009 320.646 516.231 320.646C517.453 320.646 518.652 320.15 519.517 319.286C520.381 318.421 520.877 317.223 520.877 316.001C520.877 314.779 520.381 313.58 519.517 312.716C518.652 311.852 517.453 311.356 516.231 311.356Z" fill="#100083" fill-opacity="0.2"/>
<path d="M468.264 311.356L468.241 311.356C465.671 311.356 463.584 313.442 463.584 316.012C463.584 318.583 465.671 320.669 468.241 320.669L468.264 320.669C470.835 320.669 472.922 318.583 472.922 316.012C472.91 313.442 470.824 311.356 468.264 311.356Z" fill="#100083" fill-opacity="0.2"/>
<path d="M492.254 311.356L492.231 311.356C489.66 311.356 487.573 313.442 487.573 316.012C487.573 318.583 489.66 320.669 492.231 320.669L492.254 320.669C494.824 320.669 496.911 318.583 496.911 316.012C496.899 313.442 494.824 311.356 492.254 311.356Z" fill="#100083" fill-opacity="0.2"/>
<path d="M444.252 311.356C443.03 311.356 441.831 311.851 440.967 312.716C440.102 313.58 439.606 314.779 439.606 316.001C439.606 317.222 440.102 318.421 440.967 319.286C441.831 320.15 443.03 320.646 444.252 320.646C445.474 320.646 446.673 320.15 447.537 319.286C448.402 318.421 448.898 317.222 448.898 316.001C448.898 314.779 448.402 313.58 447.537 312.716C446.684 311.851 445.485 311.356 444.252 311.356Z" fill="#100083" fill-opacity="0.2"/>
<path d="M516.231 292.246C515.009 292.246 513.811 292.741 512.946 293.606C512.081 294.47 511.586 295.669 511.586 296.891C511.586 298.112 512.081 299.311 512.946 300.176C513.811 301.04 515.009 301.536 516.231 301.536C517.453 301.536 518.652 301.04 519.517 300.176C520.381 299.311 520.877 298.112 520.877 296.891C520.877 295.669 520.381 294.47 519.517 293.606C518.652 292.741 517.453 292.246 516.231 292.246Z" fill="#100083" fill-opacity="0.2"/>
<path d="M468.264 292.245L468.241 292.245C465.671 292.245 463.584 294.332 463.584 296.902C463.584 299.472 465.671 301.559 468.241 301.559L468.264 301.559C470.835 301.559 472.922 299.472 472.922 296.902C472.91 294.332 470.824 292.245 468.264 292.245Z" fill="#100083" fill-opacity="0.2"/>
<path d="M492.254 292.245L492.231 292.245C489.66 292.245 487.573 294.332 487.573 296.902C487.573 299.472 489.66 301.559 492.231 301.559L492.254 301.559C494.824 301.559 496.911 299.472 496.911 296.902C496.899 294.332 494.824 292.245 492.254 292.245Z" fill="#100083" fill-opacity="0.2"/>
<path d="M444.252 292.245C443.03 292.245 441.831 292.741 440.967 293.605C440.102 294.47 439.606 295.669 439.606 296.89C439.606 298.112 440.102 299.311 440.967 300.175C441.831 301.04 443.03 301.535 444.252 301.535C445.474 301.535 446.673 301.04 447.537 300.175C448.402 299.311 448.898 298.112 448.898 296.89C448.898 295.669 448.402 294.47 447.537 293.605C446.684 292.741 445.485 292.245 444.252 292.245Z" fill="#100083" fill-opacity="0.2"/>
</g>
<g opacity="0.1">
<path d="M384.209 572.072C437.26 572.072 480.258 615.076 480.258 668.108L384.209 668.108L384.209 572.072Z" fill="#F1F1F0"/>
<path d="M288.159 668.119L384.209 668.119L384.209 572.083L288.159 572.083L288.159 668.119Z" fill="#100083" fill-opacity="0.08"/>
<path d="M288.159 572.072L384.209 572.072L288.159 668.119L288.159 572.072Z" fill="#100083" fill-opacity="0.2"/>
<path d="M192.099 572.072L288.148 572.072L288.148 668.119C235.109 668.119 192.099 625.115 192.099 572.072Z" fill="#100083"/>
<path d="M0.000107579 572.072L96.0494 572.072L96.0494 668.119C43.0102 668.119 0.000102942 625.115 0.000107579 572.072Z" fill="#100083" fill-opacity="0.2"/>
<path d="M95.3994 571.967L191.449 571.967C191.449 625.01 148.45 668.003 95.3994 668.003L95.3994 571.967Z" fill="#100083" fill-opacity="0.08"/>
<path d="M35.7246 572.072L96.0494 572.072L96.0494 632.388C62.7341 632.399 35.7246 605.394 35.7246 572.072Z" fill="#F1F1F0"/>
<path d="M96.0493 572.072L156.374 572.072C156.374 605.382 129.365 632.388 96.0493 632.388L96.0493 572.072Z" fill="#100083"/>
<path d="M384.209 476.036C437.26 476.036 480.258 433.043 480.258 380L384.209 380L384.209 476.036Z" fill="#100083"/>
<path d="M384.209 476.036L384.209 380L288.159 380C288.159 433.043 331.158 476.036 384.209 476.036Z" fill="#100083" fill-opacity="0.2"/>
<path d="M384.209 435.498C414.861 435.498 439.715 410.648 439.715 380L384.209 380L384.209 435.498Z" fill="#F1F1F0"/>
<path d="M384.209 435.498L384.209 380L328.703 380C328.703 410.648 353.556 435.498 384.209 435.498Z" fill="#F9FBFC"/>
<path d="M288.159 476.036C288.159 422.993 245.161 380 192.11 380C192.099 433.043 235.109 476.036 288.159 476.036Z" fill="white"/>
<path d="M9.91821e-05 476.036L96.0494 476.036L96.0494 380L0.000107578 380L9.91821e-05 476.036Z" fill="#100083" fill-opacity="0.08"/>
<path d="M96.0494 476.036C149.1 476.036 192.099 433.043 192.099 380L96.0494 380L96.0494 476.036Z" fill="#100083"/>
<path d="M384.209 572.072C384.209 519.028 341.21 476.036 288.159 476.036C288.159 529.079 331.158 572.072 384.209 572.072Z" fill="#100083"/>
<path d="M192.099 572.072C245.149 572.072 288.148 529.079 288.148 476.036C235.109 476.036 192.099 519.04 192.099 572.072Z" fill="#100083" fill-opacity="0.2"/>
<path d="M96.0494 572.072L192.099 572.072L192.099 476.036L96.0494 476.036L96.0494 572.072Z" fill="#F9FBFC"/>
<path d="M120.062 572.072C133.319 572.072 144.074 561.318 144.074 548.063C144.074 534.808 133.319 524.054 120.062 524.054C106.805 524.054 96.0493 534.808 96.0493 548.063C96.0493 561.329 106.805 572.072 120.062 572.072Z" fill="#100083" fill-opacity="0.2"/>
<path d="M120.062 553.745C123.197 553.745 125.745 551.198 125.745 548.063C125.745 544.928 123.197 542.38 120.062 542.38C116.926 542.38 114.379 544.928 114.379 548.063C114.379 551.209 116.926 553.745 120.062 553.745Z" fill="#F9FBFC"/>
<path d="M168.086 572.072C181.343 572.072 192.099 561.318 192.099 548.063C192.099 534.808 181.343 524.054 168.086 524.054C154.829 524.054 144.074 534.808 144.074 548.063C144.074 561.329 154.829 572.072 168.086 572.072Z" fill="#F1F1F0"/>
<path d="M168.086 553.745C171.222 553.745 173.769 551.198 173.769 548.063C173.769 544.928 171.222 542.38 168.086 542.38C164.951 542.38 162.403 544.928 162.403 548.063C162.403 551.209 164.951 553.745 168.086 553.745Z" fill="#100083" fill-opacity="0.2"/>
<path d="M120.062 524.054C133.319 524.054 144.074 513.3 144.074 500.045C144.074 486.79 133.319 476.036 120.062 476.036C106.805 476.036 96.0493 486.79 96.0493 500.045C96.0493 513.311 106.805 524.054 120.062 524.054Z" fill="white"/>
<path d="M120.062 505.727C123.197 505.727 125.745 503.18 125.745 500.045C125.745 496.91 123.197 494.362 120.062 494.362C116.926 494.362 114.378 496.91 114.378 500.045C114.378 503.18 116.926 505.727 120.062 505.727Z" fill="#100083" fill-opacity="0.2"/>
<path d="M168.086 524.054C181.343 524.054 192.099 513.3 192.099 500.045C192.099 486.79 181.343 476.036 168.086 476.036C154.829 476.036 144.074 486.79 144.074 500.045C144.074 513.311 154.829 524.054 168.086 524.054Z" fill="#100083"/>
<path d="M168.086 505.727C171.222 505.727 173.769 503.18 173.769 500.045C173.769 496.91 171.222 494.362 168.086 494.362C164.951 494.362 162.403 496.91 162.403 500.045C162.403 503.18 164.951 505.727 168.086 505.727Z" fill="#E9E5D9"/>
<path d="M9.91821e-05 572.072L96.0494 572.072L96.0494 476.036L0.000107578 476.036L9.91821e-05 572.072Z" fill="#100083"/>
<path d="M27.5743 544.513L68.4863 544.513L68.4863 503.606L27.5743 503.606L27.5743 544.513Z" fill="white"/>
<path d="M82.85 441.538C81.6281 441.538 80.4292 442.034 79.5646 442.898C78.7 443.763 78.2044 444.961 78.2044 446.183C78.2044 447.405 78.7 448.604 79.5646 449.468C80.4292 450.332 81.6281 450.828 82.85 450.828C84.072 450.828 85.2708 450.332 86.1354 449.468C87 448.604 87.4957 447.405 87.4957 446.183C87.4957 444.961 87 443.763 86.1354 442.898C85.2708 442.034 84.072 441.538 82.85 441.538Z" fill="#100083"/>
<path d="M34.8831 441.538L34.86 441.538C32.2893 441.538 30.2028 443.624 30.2028 446.195C30.2028 448.765 32.2893 450.851 34.86 450.851L34.8831 450.851C37.4537 450.851 39.5403 448.765 39.5403 446.195C39.5288 443.624 37.4537 441.538 34.8831 441.538Z" fill="#100083"/>
<path d="M58.8723 441.538L58.8492 441.538C56.2785 441.538 54.192 443.624 54.192 446.195C54.192 448.765 56.2785 450.851 58.8492 450.851L58.8723 450.851C61.4429 450.851 63.5295 448.765 63.5295 446.195C63.518 443.624 61.4429 441.538 58.8723 441.538Z" fill="#100083"/>
<path d="M10.8822 441.538C9.66026 441.538 8.46141 442.034 7.59682 442.898C6.73224 443.763 6.23652 444.961 6.23652 446.183C6.23652 447.405 6.73224 448.604 7.59682 449.468C8.4614 450.332 9.66026 450.828 10.8822 450.828C12.1041 450.828 13.303 450.332 14.1676 449.468C15.0322 448.604 15.5279 447.405 15.5279 446.183C15.5279 444.961 15.0322 443.763 14.1676 442.898C13.303 442.034 12.1042 441.538 10.8822 441.538Z" fill="#100083"/>
<path d="M82.85 460.648C81.6281 460.648 80.4292 461.144 79.5646 462.008C78.7 462.873 78.2044 464.072 78.2044 465.293C78.2044 466.515 78.7 467.714 79.5646 468.578C80.4292 469.443 81.6281 469.938 82.85 469.938C84.072 469.938 85.2708 469.443 86.1354 468.578C87 467.714 87.4957 466.515 87.4957 465.293C87.4957 464.072 87 462.873 86.1354 462.008C85.2708 461.144 84.072 460.648 82.85 460.648Z" fill="#100083"/>
<path d="M34.8831 460.649L34.86 460.649C32.2893 460.649 30.2028 462.735 30.2028 465.305C30.2028 467.875 32.2893 469.962 34.86 469.962L34.8831 469.962C37.4537 469.962 39.5403 467.875 39.5403 465.305C39.5288 462.723 37.4537 460.649 34.8831 460.649Z" fill="#100083"/>
<path d="M58.8723 460.649L58.8492 460.649C56.2785 460.649 54.192 462.735 54.192 465.305C54.192 467.875 56.2785 469.962 58.8492 469.962L58.8723 469.962C61.4429 469.962 63.5295 467.875 63.5295 465.305C63.518 462.723 61.4429 460.649 58.8723 460.649Z" fill="#100083"/>
<path d="M10.8822 460.648C9.66026 460.648 8.46141 461.144 7.59682 462.008C6.73224 462.873 6.23652 464.072 6.23652 465.293C6.23652 466.515 6.73224 467.714 7.59682 468.578C8.4614 469.443 9.66026 469.938 10.8822 469.938C12.1041 469.938 13.303 469.443 14.1676 468.578C15.0322 467.714 15.5279 466.515 15.5279 465.293C15.5279 464.072 15.0322 462.873 14.1676 462.008C13.303 461.144 12.1042 460.648 10.8822 460.648Z" fill="#100083"/>
<path d="M82.85 422.428C81.6281 422.428 80.4292 422.923 79.5646 423.788C78.7 424.652 78.2044 425.851 78.2044 427.073C78.2044 428.295 78.7 429.493 79.5646 430.358C80.4292 431.222 81.6281 431.718 82.85 431.718C84.072 431.718 85.2708 431.222 86.1354 430.358C87 429.493 87.4957 428.295 87.4957 427.073C87.4957 425.851 87 424.652 86.1354 423.788C85.2708 422.923 84.072 422.428 82.85 422.428Z" fill="#100083"/>
<path d="M34.8831 422.428L34.86 422.428C32.2893 422.428 30.2028 424.514 30.2028 427.084C30.2028 429.654 32.2893 431.741 34.86 431.741L34.8831 431.741C37.4537 431.741 39.5403 429.654 39.5403 427.084C39.5288 424.514 37.4537 422.428 34.8831 422.428Z" fill="#100083"/>
<path d="M58.8723 422.428L58.8492 422.428C56.2785 422.428 54.192 424.514 54.192 427.084C54.192 429.654 56.2785 431.741 58.8492 431.741L58.8723 431.741C61.4429 431.741 63.5295 429.654 63.5295 427.084C63.518 424.514 61.4429 422.428 58.8723 422.428Z" fill="#100083"/>
<path d="M10.8822 422.428C9.66026 422.428 8.46141 422.923 7.59682 423.788C6.73224 424.652 6.23652 425.851 6.23652 427.073C6.23652 428.295 6.73224 429.493 7.59682 430.358C8.4614 431.222 9.66026 431.718 10.8822 431.718C12.1041 431.718 13.303 431.222 14.1676 430.358C15.0322 429.493 15.5279 428.295 15.5279 427.073C15.5279 425.851 15.0322 424.652 14.1676 423.788C13.303 422.923 12.1042 422.428 10.8822 422.428Z" fill="#100083"/>
<path d="M82.85 403.317C81.6281 403.317 80.4292 403.813 79.5646 404.677C78.7 405.542 78.2044 406.741 78.2044 407.962C78.2044 409.184 78.7 410.383 79.5646 411.247C80.4292 412.112 81.6281 412.607 82.85 412.607C84.072 412.607 85.2708 412.112 86.1354 411.247C87 410.383 87.4957 409.184 87.4957 407.962C87.4957 406.741 87 405.542 86.1354 404.677C85.2708 403.813 84.072 403.317 82.85 403.317Z" fill="#100083"/>
<path d="M34.8831 403.318L34.86 403.318C32.2893 403.318 30.2028 405.404 30.2028 407.974C30.2028 410.544 32.2893 412.631 34.86 412.631L34.8831 412.631C37.4537 412.631 39.5403 410.544 39.5403 407.974C39.5288 405.404 37.4537 403.318 34.8831 403.318Z" fill="#100083"/>
<path d="M58.8723 403.318L58.8492 403.318C56.2785 403.318 54.192 405.404 54.192 407.974C54.192 410.544 56.2785 412.631 58.8492 412.631L58.8723 412.631C61.4429 412.631 63.5295 410.544 63.5295 407.974C63.518 405.404 61.4429 403.318 58.8723 403.318Z" fill="#100083"/>
<path d="M10.8822 403.317C9.66026 403.317 8.46141 403.813 7.59682 404.677C6.73224 405.542 6.23652 406.741 6.23652 407.962C6.23652 409.184 6.73224 410.383 7.59682 411.247C8.4614 412.112 9.66026 412.607 10.8822 412.607C12.1041 412.607 13.303 412.112 14.1676 411.247C15.0322 410.383 15.5279 409.184 15.5279 407.962C15.5279 406.741 15.0322 405.542 14.1676 404.677C13.303 403.813 12.1042 403.317 10.8822 403.317Z" fill="#100083"/>
<path d="M82.85 384.207C81.6281 384.207 80.4292 384.703 79.5646 385.567C78.7 386.432 78.2044 387.63 78.2044 388.852C78.2044 390.074 78.7 391.273 79.5646 392.137C80.4292 393.001 81.6281 393.497 82.85 393.497C84.072 393.497 85.2708 393.001 86.1354 392.137C87 391.273 87.4957 390.074 87.4957 388.852C87.4957 387.63 87 386.432 86.1354 385.567C85.2708 384.703 84.072 384.207 82.85 384.207Z" fill="#100083"/>
<path d="M34.8831 384.207L34.86 384.207C32.2893 384.207 30.2028 386.293 30.2028 388.864C30.2028 391.434 32.2893 393.52 34.86 393.52L34.8831 393.52C37.4537 393.52 39.5403 391.434 39.5403 388.864C39.5288 386.293 37.4537 384.207 34.8831 384.207Z" fill="#100083"/>
<path d="M58.8723 384.207L58.8492 384.207C56.2785 384.207 54.192 386.293 54.192 388.864C54.192 391.434 56.2785 393.52 58.8492 393.52L58.8723 393.52C61.4429 393.52 63.5295 391.434 63.5295 388.864C63.518 386.293 61.4429 384.207 58.8723 384.207Z" fill="#100083"/>
<path d="M10.8822 384.207C9.66026 384.207 8.46141 384.703 7.59682 385.567C6.73224 386.432 6.23652 387.63 6.23652 388.852C6.23652 390.074 6.73224 391.273 7.59682 392.137C8.4614 393.001 9.66026 393.497 10.8822 393.497C12.1041 393.497 13.303 393.001 14.1676 392.137C15.0322 391.273 15.5279 390.074 15.5279 388.852C15.5279 387.63 15.0322 386.432 14.1676 385.567C13.303 384.703 12.1042 384.207 10.8822 384.207Z" fill="#100083"/>
<path d="M372.231 729.577C371.009 729.577 369.811 730.072 368.946 730.937C368.081 731.801 367.586 733 367.586 734.222C367.586 735.443 368.081 736.642 368.946 737.507C369.811 738.371 371.009 738.867 372.231 738.867C373.453 738.867 374.652 738.371 375.517 737.507C376.381 736.642 376.877 735.443 376.877 734.222C376.877 733 376.381 731.801 375.517 730.937C374.652 730.072 373.453 729.577 372.231 729.577Z" fill="#100083" fill-opacity="0.2"/>
<path d="M324.264 729.577L324.241 729.577C321.671 729.577 319.584 731.663 319.584 734.233C319.584 736.803 321.671 738.89 324.241 738.89L324.264 738.89C326.835 738.89 328.922 736.803 328.922 734.233C328.91 731.663 326.824 729.577 324.264 729.577Z" fill="#100083" fill-opacity="0.2"/>
<path d="M348.254 729.577L348.231 729.577C345.66 729.577 343.573 731.663 343.573 734.233C343.573 736.803 345.66 738.89 348.231 738.89L348.254 738.89C350.824 738.89 352.911 736.803 352.911 734.233C352.899 731.663 350.824 729.577 348.254 729.577Z" fill="#100083" fill-opacity="0.2"/>
<path d="M300.252 729.576C299.03 729.576 297.831 730.072 296.967 730.936C296.102 731.801 295.606 733 295.606 734.221C295.606 735.443 296.102 736.642 296.967 737.506C297.831 738.371 299.03 738.866 300.252 738.866C301.474 738.866 302.673 738.371 303.537 737.506C304.402 736.642 304.898 735.443 304.898 734.221C304.898 733 304.402 731.801 303.537 730.936C302.684 730.072 301.485 729.576 300.252 729.576Z" fill="#100083" fill-opacity="0.2"/>
<path d="M372.231 748.687C371.009 748.687 369.811 749.183 368.946 750.047C368.081 750.911 367.586 752.11 367.586 753.332C367.586 754.554 368.081 755.752 368.946 756.617C369.811 757.493 371.009 757.989 372.231 757.989C373.453 757.989 374.652 757.493 375.517 756.628C376.381 755.764 376.877 754.565 376.877 753.343C376.877 752.122 376.381 750.923 375.517 750.059C374.652 749.183 373.453 748.687 372.231 748.687Z" fill="#100083" fill-opacity="0.2"/>
<path d="M324.264 748.687L324.241 748.687C321.671 748.687 319.584 750.773 319.584 753.343C319.584 755.914 321.671 758 324.241 758L324.264 758C326.835 758 328.922 755.914 328.922 753.343C328.91 750.773 326.824 748.687 324.264 748.687Z" fill="#100083" fill-opacity="0.2"/>
<path d="M348.254 748.687L348.231 748.687C345.66 748.687 343.573 750.773 343.573 753.343C343.573 755.914 345.66 758 348.231 758L348.254 758C350.824 758 352.911 755.914 352.911 753.343C352.899 750.773 350.824 748.687 348.254 748.687Z" fill="#100083" fill-opacity="0.2"/>
<path d="M300.252 748.687C299.03 748.687 297.831 749.183 296.967 750.047C296.102 750.911 295.606 752.11 295.606 753.332C295.606 754.554 296.102 755.752 296.967 756.617C297.831 757.493 299.03 757.989 300.252 757.989C301.474 757.989 302.673 757.493 303.537 756.628C304.402 755.764 304.898 754.565 304.898 753.343C304.898 752.122 304.402 750.923 303.537 750.059C302.684 749.183 301.485 748.687 300.252 748.687Z" fill="#100083" fill-opacity="0.2"/>
<path d="M372.231 710.466C371.009 710.466 369.811 710.962 368.946 711.826C368.081 712.691 367.586 713.89 367.586 715.111C367.586 716.333 368.081 717.532 368.946 718.396C369.811 719.261 371.009 719.756 372.231 719.756C373.453 719.756 374.652 719.261 375.517 718.396C376.381 717.532 376.877 716.333 376.877 715.111C376.877 713.89 376.381 712.691 375.517 711.826C374.652 710.962 373.453 710.466 372.231 710.466Z" fill="#100083" fill-opacity="0.2"/>
<path d="M324.264 710.466L324.241 710.466C321.671 710.466 319.584 712.552 319.584 715.123C319.584 717.693 321.671 719.779 324.241 719.779L324.264 719.779C326.835 719.779 328.922 717.693 328.922 715.123C328.91 712.552 326.824 710.466 324.264 710.466Z" fill="#100083" fill-opacity="0.2"/>
<path d="M348.254 710.466L348.231 710.466C345.66 710.466 343.573 712.552 343.573 715.123C343.573 717.693 345.66 719.779 348.231 719.779L348.254 719.779C350.824 719.779 352.911 717.693 352.911 715.123C352.899 712.552 350.824 710.466 348.254 710.466Z" fill="#100083" fill-opacity="0.2"/>
<path d="M300.252 710.466C299.03 710.466 297.831 710.962 296.967 711.826C296.102 712.691 295.606 713.89 295.606 715.111C295.606 716.333 296.102 717.532 296.967 718.396C297.831 719.261 299.03 719.756 300.252 719.756C301.474 719.756 302.673 719.261 303.537 718.396C304.402 717.532 304.898 716.333 304.898 715.111C304.898 713.89 304.402 712.691 303.537 711.826C302.684 710.962 301.485 710.466 300.252 710.466Z" fill="#100083" fill-opacity="0.2"/>
<path d="M372.231 691.356C371.009 691.356 369.811 691.852 368.946 692.716C368.081 693.58 367.586 694.779 367.586 696.001C367.586 697.223 368.081 698.421 368.946 699.286C369.811 700.15 371.009 700.646 372.231 700.646C373.453 700.646 374.652 700.15 375.517 699.286C376.381 698.421 376.877 697.223 376.877 696.001C376.877 694.779 376.381 693.58 375.517 692.716C374.652 691.852 373.453 691.356 372.231 691.356Z" fill="#100083" fill-opacity="0.2"/>
<path d="M324.264 691.356L324.241 691.356C321.671 691.356 319.584 693.442 319.584 696.012C319.584 698.583 321.671 700.669 324.241 700.669L324.264 700.669C326.835 700.669 328.922 698.583 328.922 696.012C328.91 693.442 326.824 691.356 324.264 691.356Z" fill="#100083" fill-opacity="0.2"/>
<path d="M348.254 691.356L348.231 691.356C345.66 691.356 343.573 693.442 343.573 696.012C343.573 698.583 345.66 700.669 348.231 700.669L348.254 700.669C350.824 700.669 352.911 698.583 352.911 696.012C352.899 693.442 350.824 691.356 348.254 691.356Z" fill="#100083" fill-opacity="0.2"/>
<path d="M300.252 691.356C299.03 691.356 297.831 691.851 296.967 692.716C296.102 693.58 295.606 694.779 295.606 696.001C295.606 697.222 296.102 698.421 296.967 699.286C297.831 700.15 299.03 700.646 300.252 700.646C301.474 700.646 302.673 700.15 303.537 699.286C304.402 698.421 304.898 697.222 304.898 696.001C304.898 694.779 304.402 693.58 303.537 692.716C302.684 691.851 301.485 691.356 300.252 691.356Z" fill="#100083" fill-opacity="0.2"/>
<path d="M372.231 672.246C371.009 672.246 369.811 672.741 368.946 673.606C368.081 674.47 367.586 675.669 367.586 676.891C367.586 678.112 368.081 679.311 368.946 680.176C369.811 681.04 371.009 681.536 372.231 681.536C373.453 681.536 374.652 681.04 375.517 680.176C376.381 679.311 376.877 678.112 376.877 676.891C376.877 675.669 376.381 674.47 375.517 673.606C374.652 672.741 373.453 672.246 372.231 672.246Z" fill="#100083" fill-opacity="0.2"/>
<path d="M324.264 672.245L324.241 672.245C321.671 672.245 319.584 674.332 319.584 676.902C319.584 679.472 321.671 681.559 324.241 681.559L324.264 681.559C326.835 681.559 328.922 679.472 328.922 676.902C328.91 674.332 326.824 672.245 324.264 672.245Z" fill="#100083" fill-opacity="0.2"/>
<path d="M348.254 672.245L348.231 672.245C345.66 672.245 343.573 674.332 343.573 676.902C343.573 679.472 345.66 681.559 348.231 681.559L348.254 681.559C350.824 681.559 352.911 679.472 352.911 676.902C352.899 674.332 350.824 672.245 348.254 672.245Z" fill="#100083" fill-opacity="0.2"/>
<path d="M300.252 672.245C299.03 672.245 297.831 672.741 296.967 673.605C296.102 674.47 295.606 675.669 295.606 676.89C295.606 678.112 296.102 679.311 296.967 680.175C297.831 681.04 299.03 681.535 300.252 681.535C301.474 681.535 302.673 681.04 303.537 680.175C304.402 679.311 304.898 678.112 304.898 676.89C304.898 675.669 304.402 674.47 303.537 673.605C302.684 672.741 301.485 672.245 300.252 672.245Z" fill="#100083" fill-opacity="0.2"/>
</g>
</svg>
