<svg width="311" height="385" viewBox="0 0 311 385" fill="none" xmlns="http://www.w3.org/2000/svg">
<g opacity="0.3">
<path d="M2.26594e-05 96.0493L0 0L103.663 -2.09893e-05L103.663 96.0493L2.26594e-05 96.0493Z" fill="#100083" fill-opacity="0.3"/>
<path d="M103.675 96.0493L103.675 -2.09918e-05L2.26594e-05 96.0493L103.675 96.0493Z" fill="#100083" fill-opacity="0.3"/>
<path d="M103.675 192.111L103.675 96.0615L0 96.0615C1.25127e-05 149.101 46.4193 192.111 103.675 192.111Z" fill="#100083"/>
<path d="M103.675 384.209L103.675 288.16L0 288.16C1.25127e-05 341.199 46.4193 384.209 103.675 384.209Z" fill="#100083" fill-opacity="0.3"/>
<path d="M103.788 288.81L103.788 192.761C46.5318 192.761 0.12501 235.759 0.125023 288.81L103.788 288.81Z" fill="#100083" fill-opacity="0.3"/>
<path d="M103.675 348.485L103.675 288.16L38.5684 288.16C38.5559 321.475 67.7064 348.485 103.675 348.485Z" fill="#F1F1F0"/>
<path d="M103.675 288.16L103.675 227.835C67.7188 227.835 38.5684 254.845 38.5684 288.16L103.675 288.16Z" fill="#100083"/>
<path d="M207.337 96.0498C264.593 96.0498 311 139.048 311 192.099C253.744 192.111 207.337 149.101 207.337 96.0498Z" fill="#E4EDEE"/>
<path d="M207.337 384.209L207.337 288.16L311 288.16L311 384.209L207.337 384.209Z" fill="#100083" fill-opacity="0.3"/>
<path d="M207.337 288.16C207.337 235.109 253.744 192.11 311 192.11L311 288.16L207.337 288.16Z" fill="#100083"/>
<path d="M103.675 0C160.931 -1.1593e-05 207.337 42.9985 207.337 96.0493C150.082 96.0493 103.675 53.0508 103.675 0Z" fill="#100083"/>
<path d="M103.676 192.111C103.676 139.06 150.083 96.0615 207.338 96.0615C207.338 149.101 160.919 192.111 103.676 192.111Z" fill="#100083" fill-opacity="0.3"/>
<path d="M103.676 288.16L103.676 192.11L207.338 192.11L207.338 288.16L103.676 288.16Z" fill="#F9FBFC"/>
<path d="M103.676 264.148C103.676 250.891 115.284 240.136 129.591 240.136C143.899 240.136 155.507 250.891 155.507 264.148C155.507 277.405 143.899 288.16 129.591 288.16C115.271 288.16 103.676 277.405 103.676 264.148Z" fill="#100083" fill-opacity="0.3"/>
<path d="M123.458 264.147C123.458 261.011 126.208 258.464 129.592 258.464C132.976 258.464 135.725 261.011 135.725 264.147C135.725 267.283 132.976 269.83 129.592 269.83C126.195 269.83 123.458 267.283 123.458 264.147Z" fill="#F9FBFC"/>
<path d="M103.676 216.123C103.676 202.866 115.284 192.11 129.591 192.11C143.899 192.11 155.507 202.866 155.507 216.123C155.507 229.38 143.899 240.135 129.591 240.135C115.271 240.135 103.676 229.38 103.676 216.123Z" fill="#F1F1F0"/>
<path d="M123.458 216.123C123.458 212.987 126.208 210.439 129.592 210.439C132.976 210.439 135.725 212.987 135.725 216.123C135.725 219.258 132.976 221.806 129.592 221.806C126.195 221.806 123.458 219.258 123.458 216.123Z" fill="#100083" fill-opacity="0.3"/>
<path d="M155.508 264.148C155.508 250.891 167.116 240.136 181.423 240.136C195.731 240.136 207.339 250.891 207.339 264.148C207.339 277.405 195.731 288.16 181.423 288.16C167.103 288.16 155.508 277.405 155.508 264.148Z" fill="white"/>
<path d="M175.288 264.147C175.288 261.011 178.038 258.464 181.422 258.464C184.806 258.464 187.555 261.011 187.555 264.147C187.555 267.283 184.806 269.83 181.422 269.83C178.038 269.83 175.288 267.283 175.288 264.147Z" fill="#100083" fill-opacity="0.3"/>
<path d="M155.508 216.123C155.508 202.866 167.116 192.11 181.423 192.11C195.731 192.11 207.339 202.866 207.339 216.123C207.339 229.38 195.731 240.135 181.423 240.135C167.103 240.135 155.508 229.38 155.508 216.123Z" fill="#100083"/>
<path d="M175.288 216.123C175.288 212.987 178.038 210.439 181.422 210.439C184.806 210.439 187.555 212.987 187.555 216.123C187.555 219.258 184.806 221.806 181.422 221.806C178.038 221.806 175.288 219.258 175.288 216.123Z" fill="#E9E5D9"/>
<path d="M103.676 384.209L103.676 288.16L207.338 288.16L207.338 384.209L103.676 384.209Z" fill="#100083"/>
<path d="M133.422 356.635L133.422 315.723L177.577 315.723L177.577 356.635L133.422 356.635Z" fill="white"/>
<path d="M244.575 301.36C244.575 302.581 244.04 303.78 243.107 304.645C242.174 305.51 240.88 306.005 239.561 306.005C238.242 306.005 236.948 305.51 236.015 304.645C235.082 303.78 234.547 302.581 234.547 301.36C234.547 300.138 235.082 298.939 236.015 298.074C236.948 297.21 238.242 296.714 239.561 296.714C240.88 296.714 242.174 297.21 243.107 298.074C244.04 298.939 244.575 300.138 244.575 301.36Z" fill="#100083"/>
<path d="M244.575 349.326L244.575 349.349C244.575 351.92 242.323 354.006 239.549 354.006C236.774 354.006 234.522 351.92 234.522 349.349L234.522 349.326C234.522 346.755 236.774 344.669 239.549 344.669C242.323 344.68 244.575 346.755 244.575 349.326Z" fill="#100083"/>
<path d="M244.575 325.337L244.575 325.36C244.575 327.931 242.323 330.017 239.549 330.017C236.774 330.017 234.522 327.931 234.522 325.36L234.522 325.337C234.522 322.766 236.774 320.68 239.549 320.68C242.323 320.691 244.575 322.766 244.575 325.337Z" fill="#100083"/>
<path d="M244.575 373.327C244.575 374.549 244.04 375.748 243.107 376.613C242.174 377.477 240.88 377.973 239.561 377.973C238.242 377.973 236.948 377.477 236.015 376.613C235.082 375.748 234.547 374.549 234.547 373.327C234.547 372.105 235.082 370.906 236.015 370.042C236.948 369.177 238.242 368.682 239.561 368.682C240.88 368.682 242.174 369.177 243.107 370.042C244.04 370.906 244.575 372.105 244.575 373.327Z" fill="#100083"/>
<path d="M223.948 301.36C223.948 302.581 223.413 303.78 222.48 304.645C221.547 305.51 220.253 306.005 218.934 306.005C217.615 306.005 216.321 305.51 215.388 304.645C214.455 303.78 213.92 302.581 213.92 301.36C213.92 300.138 214.455 298.939 215.388 298.074C216.321 297.21 217.615 296.714 218.934 296.714C220.253 296.714 221.547 297.21 222.48 298.074C223.413 298.939 223.948 300.138 223.948 301.36Z" fill="#100083"/>
<path d="M223.946 349.326L223.946 349.349C223.946 351.92 221.694 354.006 218.92 354.006C216.145 354.006 213.894 351.92 213.894 349.349L213.894 349.326C213.894 346.755 216.145 344.669 218.92 344.669C221.707 344.68 223.946 346.755 223.946 349.326Z" fill="#100083"/>
<path d="M223.946 325.337L223.946 325.36C223.946 327.931 221.694 330.017 218.92 330.017C216.145 330.017 213.894 327.931 213.894 325.36L213.894 325.337C213.894 322.766 216.145 320.68 218.92 320.68C221.707 320.691 223.946 322.766 223.946 325.337Z" fill="#100083"/>
<path d="M223.948 373.327C223.948 374.549 223.413 375.748 222.48 376.613C221.547 377.477 220.253 377.973 218.934 377.973C217.615 377.973 216.321 377.477 215.388 376.613C214.455 375.748 213.92 374.549 213.92 373.327C213.92 372.105 214.455 370.906 215.388 370.042C216.321 369.177 217.615 368.682 218.934 368.682C220.253 368.682 221.547 369.177 222.48 370.042C223.413 370.906 223.948 372.105 223.948 373.327Z" fill="#100083"/>
<path d="M265.204 301.36C265.204 302.581 264.669 303.78 263.736 304.645C262.802 305.51 261.509 306.005 260.19 306.005C258.871 306.005 257.577 305.51 256.644 304.645C255.711 303.78 255.176 302.581 255.176 301.36C255.176 300.138 255.711 298.939 256.644 298.074C257.577 297.21 258.871 296.714 260.19 296.714C261.509 296.714 262.802 297.21 263.736 298.074C264.669 298.939 265.204 300.138 265.204 301.36Z" fill="#100083"/>
<path d="M265.202 349.326L265.202 349.349C265.202 351.92 262.95 354.006 260.176 354.006C257.401 354.006 255.149 351.92 255.149 349.349L255.149 349.326C255.149 346.755 257.401 344.669 260.176 344.669C262.95 344.68 265.202 346.755 265.202 349.326Z" fill="#100083"/>
<path d="M265.202 325.337L265.202 325.36C265.202 327.931 262.95 330.017 260.176 330.017C257.401 330.017 255.149 327.931 255.149 325.36L255.149 325.337C255.149 322.766 257.401 320.68 260.176 320.68C262.95 320.691 265.202 322.766 265.202 325.337Z" fill="#100083"/>
<path d="M265.204 373.327C265.204 374.549 264.669 375.748 263.736 376.613C262.802 377.477 261.509 377.973 260.19 377.973C258.871 377.973 257.577 377.477 256.644 376.613C255.711 375.748 255.176 374.549 255.176 373.327C255.176 372.105 255.711 370.906 256.644 370.042C257.577 369.177 258.871 368.682 260.19 368.682C261.509 368.682 262.802 369.177 263.736 370.042C264.669 370.906 265.204 372.105 265.204 373.327Z" fill="#100083"/>
<path d="M285.831 301.36C285.831 302.581 285.296 303.78 284.363 304.645C283.429 305.51 282.135 306.005 280.817 306.005C279.498 306.005 278.204 305.51 277.271 304.645C276.338 303.78 275.803 302.581 275.803 301.36C275.803 300.138 276.338 298.939 277.271 298.074C278.204 297.21 279.498 296.714 280.817 296.714C282.135 296.714 283.429 297.21 284.363 298.074C285.296 298.939 285.831 300.138 285.831 301.36Z" fill="#100083"/>
<path d="M285.831 349.326L285.831 349.349C285.831 351.92 283.579 354.006 280.805 354.006C278.03 354.006 275.778 351.92 275.778 349.349L275.778 349.326C275.778 346.755 278.03 344.669 280.805 344.669C283.579 344.68 285.831 346.755 285.831 349.326Z" fill="#100083"/>
<path d="M285.831 325.337L285.831 325.36C285.831 327.931 283.579 330.017 280.805 330.017C278.03 330.017 275.778 327.931 275.778 325.36L275.778 325.337C275.778 322.766 278.03 320.68 280.805 320.68C283.579 320.691 285.831 322.766 285.831 325.337Z" fill="#100083"/>
<path d="M285.831 373.327C285.831 374.549 285.296 375.748 284.363 376.613C283.429 377.477 282.135 377.973 280.817 377.973C279.498 377.973 278.204 377.477 277.271 376.613C276.338 375.748 275.803 374.549 275.803 373.327C275.803 372.105 276.338 370.906 277.271 370.042C278.204 369.177 279.498 368.682 280.817 368.682C282.135 368.682 283.429 369.177 284.363 370.042C285.296 370.906 285.831 372.105 285.831 373.327Z" fill="#100083"/>
<path d="M306.459 301.36C306.459 302.581 305.924 303.78 304.991 304.645C304.058 305.51 302.764 306.005 301.446 306.005C300.127 306.005 298.833 305.51 297.9 304.645C296.967 303.78 296.432 302.581 296.432 301.36C296.432 300.138 296.967 298.939 297.9 298.074C298.833 297.21 300.127 296.714 301.446 296.714C302.764 296.714 304.058 297.21 304.991 298.074C305.924 298.939 306.459 300.138 306.459 301.36Z" fill="#100083"/>
<path d="M306.458 349.326L306.458 349.349C306.458 351.92 304.206 354.006 301.432 354.006C298.657 354.006 296.405 351.92 296.405 349.349L296.405 349.326C296.405 346.755 298.657 344.669 301.432 344.669C304.206 344.68 306.458 346.755 306.458 349.326Z" fill="#100083"/>
<path d="M306.458 325.337L306.458 325.36C306.458 327.931 304.206 330.017 301.432 330.017C298.657 330.017 296.405 327.931 296.405 325.36L296.405 325.337C296.405 322.766 298.657 320.68 301.432 320.68C304.206 320.691 306.458 322.766 306.458 325.337Z" fill="#100083"/>
<path d="M306.459 373.327C306.459 374.549 305.924 375.748 304.991 376.613C304.058 377.477 302.764 377.973 301.446 377.973C300.127 377.973 298.833 377.477 297.9 376.613C296.967 375.748 296.432 374.549 296.432 373.327C296.432 372.105 296.967 370.906 297.9 370.042C298.833 369.177 300.127 368.682 301.446 368.682C302.764 368.682 304.058 369.177 304.991 370.042C305.924 370.906 306.459 372.105 306.459 373.327Z" fill="#100083"/>
</g>
</svg>
