<svg width="76" height="76" viewBox="0 0 76 76" fill="none" xmlns="http://www.w3.org/2000/svg">
<g filter="url(#filter0_d_7_4374)">
<rect x="16" y="12" width="44" height="44" rx="12" fill="url(#paint0_linear_7_4374)" shape-rendering="crispEdges"/>
<path opacity="0.2" d="M38.625 32.4375C38.625 33.241 38.3867 34.0264 37.9403 34.6945C37.494 35.3626 36.8595 35.8833 36.1172 36.1908C35.3748 36.4982 34.558 36.5787 33.7699 36.4219C32.9819 36.2652 32.258 35.8783 31.6899 35.3101C31.1217 34.742 30.7348 34.0181 30.5781 33.2301C30.4213 32.442 30.5018 31.6252 30.8092 30.8828C31.1167 30.1405 31.6374 29.506 32.3055 29.0597C32.9736 28.6133 33.759 28.375 34.5625 28.375C35.6399 28.375 36.6733 28.803 37.4351 29.5649C38.197 30.3267 38.625 31.3601 38.625 32.4375Z" fill="white"/>
<path d="M37.1603 36.3374C37.9979 35.7798 38.6339 34.9674 38.9741 34.0203C39.3143 33.0732 39.3407 32.0418 39.0494 31.0786C38.7581 30.1154 38.1646 29.2715 37.3565 28.6717C36.5485 28.0719 35.5689 27.748 34.5626 27.748C33.5563 27.748 32.5767 28.0719 31.7687 28.6717C30.9606 29.2715 30.3671 30.1154 30.0758 31.0786C29.7845 32.0418 29.8109 33.0732 30.1511 34.0203C30.4913 34.9674 31.1273 35.7798 31.9649 36.3374C30.4497 36.8959 29.1557 37.9293 28.2759 39.2835C28.2296 39.3523 28.1975 39.4295 28.1814 39.5107C28.1653 39.592 28.1654 39.6756 28.1819 39.7568C28.1984 39.838 28.2309 39.915 28.2774 39.9836C28.3239 40.0521 28.3836 40.1107 28.453 40.1559C28.5224 40.2012 28.6 40.2322 28.6815 40.2472C28.763 40.2621 28.8466 40.2607 28.9275 40.2431C29.0085 40.2255 29.0851 40.1919 29.1529 40.1444C29.2208 40.0969 29.2785 40.0364 29.3228 39.9664C29.8902 39.0935 30.6668 38.3763 31.5818 37.8798C32.4969 37.3833 33.5215 37.1232 34.5626 37.1232C35.6037 37.1232 36.6283 37.3833 37.5434 37.8798C38.4584 38.3763 39.235 39.0935 39.8024 39.9664C39.8941 40.1026 40.0357 40.1973 40.1966 40.23C40.3576 40.2626 40.5249 40.2307 40.6624 40.1409C40.8 40.0512 40.8967 39.911 40.9317 39.7506C40.9666 39.5901 40.9371 39.4224 40.8493 39.2835C39.9695 37.9293 38.6755 36.8959 37.1603 36.3374ZM31.1251 32.4374C31.1251 31.7576 31.3267 31.093 31.7044 30.5277C32.0821 29.9624 32.619 29.5218 33.2471 29.2616C33.8752 29.0014 34.5664 28.9334 35.2332 29.066C35.9 29.1986 36.5125 29.526 36.9933 30.0068C37.474 30.4875 37.8014 31.1 37.934 31.7668C38.0667 32.4336 37.9986 33.1248 37.7384 33.7529C37.4783 34.381 37.0377 34.9179 36.4724 35.2956C35.9071 35.6733 35.2425 35.8749 34.5626 35.8749C33.6512 35.8739 32.7775 35.5114 32.1331 34.867C31.4886 34.2226 31.1261 33.3488 31.1251 32.4374ZM47.5423 40.1484C47.4035 40.2389 47.2344 40.2706 47.0722 40.2365C46.91 40.2023 46.768 40.1052 46.6774 39.9664C46.1106 39.093 45.3342 38.3755 44.4189 37.8791C43.5037 37.3828 42.4788 37.1236 41.4376 37.1249C41.2718 37.1249 41.1129 37.0591 40.9957 36.9419C40.8784 36.8247 40.8126 36.6657 40.8126 36.4999C40.8126 36.3342 40.8784 36.1752 40.9957 36.058C41.1129 35.9408 41.2718 35.8749 41.4376 35.8749C41.9438 35.8745 42.4437 35.7622 42.9015 35.5461C43.3593 35.3301 43.7637 35.0156 44.0859 34.6251C44.4081 34.2346 44.64 33.7778 44.7652 33.2873C44.8903 32.7968 44.9056 32.2847 44.8099 31.7876C44.7142 31.2905 44.5098 30.8206 44.2115 30.4117C43.9132 30.0027 43.5282 29.6646 43.0841 29.4217C42.64 29.1787 42.1477 29.0369 41.6424 29.0063C41.1371 28.9756 40.6313 29.057 40.161 29.2445C40.0844 29.2776 40.0018 29.2951 39.9183 29.2958C39.8348 29.2965 39.752 29.2804 39.6748 29.2486C39.5975 29.2167 39.5275 29.1698 39.4688 29.1104C39.41 29.051 39.3638 28.9805 39.3327 28.9029C39.3017 28.8254 39.2866 28.7424 39.2881 28.6589C39.2897 28.5754 39.3081 28.493 39.342 28.4167C39.376 28.3404 39.4249 28.2717 39.4858 28.2146C39.5468 28.1575 39.6186 28.1132 39.697 28.0843C40.7731 27.6551 41.9701 27.6397 43.0569 28.041C44.1438 28.4422 45.0435 29.2318 45.5826 30.2573C46.1217 31.2828 46.2619 32.4716 45.9761 33.5944C45.6904 34.7172 44.999 35.6944 44.0353 36.3374C45.5505 36.8959 46.8445 37.9293 47.7243 39.2835C47.8148 39.4224 47.8465 39.5915 47.8124 39.7537C47.7783 39.9158 47.6811 40.0578 47.5423 40.1484Z" fill="white"/>
</g>
<defs>
<filter id="filter0_d_7_4374" x="0" y="0" width="76" height="76" filterUnits="userSpaceOnUse" color-interpolation-filters="sRGB">
<feFlood flood-opacity="0" result="BackgroundImageFix"/>
<feColorMatrix in="SourceAlpha" type="matrix" values="0 0 0 0 0 0 0 0 0 0 0 0 0 0 0 0 0 0 127 0" result="hardAlpha"/>
<feOffset dy="4"/>
<feGaussianBlur stdDeviation="8"/>
<feComposite in2="hardAlpha" operator="out"/>
<feColorMatrix type="matrix" values="0 0 0 0 0.0392157 0 0 0 0 0.545098 0 0 0 0 0.545098 0 0 0 0.3 0"/>
<feBlend mode="normal" in2="BackgroundImageFix" result="effect1_dropShadow_7_4374"/>
<feBlend mode="normal" in="SourceGraphic" in2="effect1_dropShadow_7_4374" result="shape"/>
</filter>
<linearGradient id="paint0_linear_7_4374" x1="16" y1="12" x2="60" y2="56" gradientUnits="userSpaceOnUse">
<stop stop-color="#0A8B8B"/>
<stop offset="1" stop-color="#1AB4B4"/>
</linearGradient>
</defs>
</svg>
