<svg width="76" height="76" viewBox="0 0 76 76" fill="none" xmlns="http://www.w3.org/2000/svg">
<g filter="url(#filter0_d_7_4366)">
<rect x="16" y="12" width="44" height="44" rx="12" fill="url(#paint0_linear_7_4366)" shape-rendering="crispEdges"/>
<path opacity="0.2" d="M35.4069 38.9992L33.1061 40.7367C33.0233 40.8031 32.9249 40.8472 32.8202 40.865C32.7155 40.8828 32.6081 40.8736 32.5079 40.8384C32.4078 40.8031 32.3183 40.7429 32.2479 40.6635C32.1774 40.5841 32.1284 40.488 32.1054 40.3844L31.1397 36.0383C31.1189 35.945 31.1198 35.8481 31.1423 35.7552C31.1648 35.6623 31.2083 35.5758 31.2694 35.5023L33.6374 32.6641C33.5468 34.4875 33.9921 36.6109 35.4069 38.9992ZM44.7304 35.5023L42.3624 32.6641C42.4569 34.4875 42.0077 36.6109 40.5929 38.9992L42.8936 40.7367C42.9765 40.8031 43.0749 40.8472 43.1796 40.865C43.2843 40.8828 43.3917 40.8736 43.4919 40.8384C43.592 40.8031 43.6815 40.7429 43.7519 40.6635C43.8224 40.5841 43.8714 40.488 43.8944 40.3844L44.8601 36.0383C44.8809 35.945 44.88 35.8481 44.8575 35.7552C44.835 35.6623 44.7915 35.5758 44.7304 35.5023Z" fill="white"/>
<path d="M39.8751 41.501C39.8751 41.6667 39.8092 41.8257 39.692 41.9429C39.5748 42.0601 39.4158 42.126 39.2501 42.126H36.7501C36.5843 42.126 36.4253 42.0601 36.3081 41.9429C36.1909 41.8257 36.1251 41.6667 36.1251 41.501C36.1251 41.3352 36.1909 41.1762 36.3081 41.059C36.4253 40.9418 36.5843 40.876 36.7501 40.876H39.2501C39.4158 40.876 39.5748 40.9418 39.692 41.059C39.8092 41.1762 39.8751 41.3352 39.8751 41.501ZM38.0001 32.751C38.1855 32.751 38.3667 32.696 38.5209 32.593C38.6751 32.49 38.7952 32.3435 38.8662 32.1722C38.9372 32.0009 38.9557 31.8124 38.9195 31.6306C38.8834 31.4487 38.7941 31.2817 38.663 31.1506C38.5319 31.0195 38.3648 30.9302 38.183 30.894C38.0011 30.8578 37.8126 30.8764 37.6413 30.9473C37.47 31.0183 37.3236 31.1385 37.2206 31.2926C37.1175 31.4468 37.0626 31.6281 37.0626 31.8135C37.0626 32.0621 37.1613 32.3006 37.3371 32.4764C37.513 32.6522 37.7514 32.751 38.0001 32.751ZM45.4704 36.1752L44.5047 40.5213C44.4589 40.7277 44.3615 40.9191 44.2216 41.0776C44.0817 41.2361 43.9039 41.3565 43.7048 41.4276C43.5057 41.4987 43.2919 41.5181 43.0832 41.4841C42.8746 41.4501 42.678 41.3637 42.5118 41.233L40.3837 39.626H35.618L33.4883 41.233C33.3222 41.3637 33.1255 41.4501 32.9169 41.4841C32.7082 41.5181 32.4944 41.4987 32.2953 41.4276C32.0962 41.3565 31.9184 41.2361 31.7785 41.0776C31.6386 40.9191 31.5412 40.7277 31.4954 40.5213L30.5297 36.1752C30.4888 35.9887 30.4909 35.7953 30.5358 35.6097C30.5807 35.4241 30.6674 35.2512 30.7891 35.1041L33.0204 32.4275C33.0953 31.4439 33.3211 30.4776 33.6899 29.5627C34.6977 27.0361 36.5024 25.451 37.2344 24.8869C37.4535 24.7171 37.7229 24.625 38.0001 24.625C38.2772 24.625 38.5466 24.7171 38.7657 24.8869C39.4954 25.451 41.3024 27.0361 42.3102 29.5627C42.679 30.4776 42.9049 31.4439 42.9797 32.4275L45.211 35.1041C45.3327 35.2512 45.4194 35.4241 45.4643 35.6097C45.5093 35.7953 45.5113 35.9887 45.4704 36.1752ZM35.768 38.376H40.2321C41.8821 35.4432 42.1907 32.6354 41.1493 30.026C40.2305 27.7228 38.5071 26.2666 38.0001 25.876C37.4915 26.2666 35.768 27.7228 34.8493 30.026C33.8094 32.6354 34.118 35.4432 35.768 38.376ZM34.5962 38.833C33.755 37.3044 33.2446 35.802 33.0649 34.326L31.7501 35.9041L32.7157 40.251L32.7297 40.2408L34.5962 38.833ZM44.2501 35.9041L42.9352 34.326C42.7571 35.7989 42.2477 37.3012 41.4071 38.833L43.2704 40.2393L43.2844 40.2494L44.2501 35.9041Z" fill="white"/>
</g>
<defs>
<filter id="filter0_d_7_4366" x="0" y="0" width="76" height="76" filterUnits="userSpaceOnUse" color-interpolation-filters="sRGB">
<feFlood flood-opacity="0" result="BackgroundImageFix"/>
<feColorMatrix in="SourceAlpha" type="matrix" values="0 0 0 0 0 0 0 0 0 0 0 0 0 0 0 0 0 0 127 0" result="hardAlpha"/>
<feOffset dy="4"/>
<feGaussianBlur stdDeviation="8"/>
<feComposite in2="hardAlpha" operator="out"/>
<feColorMatrix type="matrix" values="0 0 0 0 0.960784 0 0 0 0 0.619608 0 0 0 0 0.0431373 0 0 0 0.3 0"/>
<feBlend mode="normal" in2="BackgroundImageFix" result="effect1_dropShadow_7_4366"/>
<feBlend mode="normal" in="SourceGraphic" in2="effect1_dropShadow_7_4366" result="shape"/>
</filter>
<linearGradient id="paint0_linear_7_4366" x1="16" y1="12" x2="60" y2="56" gradientUnits="userSpaceOnUse">
<stop stop-color="#F59E0B"/>
<stop offset="1" stop-color="#FBBF24"/>
</linearGradient>
</defs>
</svg>
