<svg width="76" height="76" viewBox="0 0 76 76" fill="none" xmlns="http://www.w3.org/2000/svg">
<g filter="url(#filter0_d_7_4358)">
<rect x="16" y="12" width="44" height="44" rx="12" fill="url(#paint0_linear_7_4358)" shape-rendering="crispEdges"/>
<path opacity="0.2" d="M44.875 28.375V32.75C44.875 40.25 38 42.125 38 42.125C38 42.125 31.125 40.25 31.125 32.75V28.375C31.125 28.2092 31.1908 28.0503 31.3081 27.9331C31.4253 27.8158 31.5842 27.75 31.75 27.75H44.25C44.4158 27.75 44.5747 27.8158 44.6919 27.9331C44.8092 28.0503 44.875 28.2092 44.875 28.375Z" fill="white"/>
<path d="M44.25 27.125H31.75C31.4185 27.125 31.1005 27.2567 30.8661 27.4911C30.6317 27.7255 30.5 28.0435 30.5 28.375V32.75C30.5 36.8687 32.4938 39.3648 34.1664 40.7336C35.968 42.207 37.7602 42.707 37.8383 42.7281C37.9457 42.7573 38.059 42.7573 38.1664 42.7281C38.2445 42.707 40.0344 42.207 41.8383 40.7336C43.5063 39.3648 45.5 36.8687 45.5 32.75V28.375C45.5 28.0435 45.3683 27.7255 45.1339 27.4911C44.8995 27.2567 44.5815 27.125 44.25 27.125ZM44.25 32.75C44.25 35.6461 43.1828 37.9969 41.0781 39.7359C40.1619 40.4904 39.12 41.0775 38 41.4703C36.8947 41.0843 35.8656 40.5077 34.9594 39.7664C32.8297 38.0242 31.75 35.6641 31.75 32.75V28.375H44.25V32.75ZM34.4328 35.0672C34.3155 34.9499 34.2497 34.7909 34.2497 34.625C34.2497 34.4591 34.3155 34.3001 34.4328 34.1828C34.5501 34.0655 34.7091 33.9997 34.875 33.9997C35.0409 33.9997 35.1999 34.0655 35.3172 34.1828L36.75 35.6164L40.6828 31.6828C40.7409 31.6247 40.8098 31.5787 40.8857 31.5473C40.9616 31.5158 41.0429 31.4997 41.125 31.4997C41.2071 31.4997 41.2884 31.5158 41.3643 31.5473C41.4402 31.5787 41.5091 31.6247 41.5672 31.6828C41.6253 31.7409 41.6713 31.8098 41.7027 31.8857C41.7342 31.9616 41.7503 32.0429 41.7503 32.125C41.7503 32.2071 41.7342 32.2884 41.7027 32.3643C41.6713 32.4402 41.6253 32.5091 41.5672 32.5672L37.1922 36.9422C37.1341 37.0003 37.0652 37.0464 36.9893 37.0779C36.9135 37.1093 36.8321 37.1255 36.75 37.1255C36.6679 37.1255 36.5865 37.1093 36.5107 37.0779C36.4348 37.0464 36.3659 37.0003 36.3078 36.9422L34.4328 35.0672Z" fill="white"/>
</g>
<defs>
<filter id="filter0_d_7_4358" x="0" y="0" width="76" height="76" filterUnits="userSpaceOnUse" color-interpolation-filters="sRGB">
<feFlood flood-opacity="0" result="BackgroundImageFix"/>
<feColorMatrix in="SourceAlpha" type="matrix" values="0 0 0 0 0 0 0 0 0 0 0 0 0 0 0 0 0 0 127 0" result="hardAlpha"/>
<feOffset dy="4"/>
<feGaussianBlur stdDeviation="8"/>
<feComposite in2="hardAlpha" operator="out"/>
<feColorMatrix type="matrix" values="0 0 0 0 0.788235 0 0 0 0 0.635294 0 0 0 0 0.301961 0 0 0 0.3 0"/>
<feBlend mode="normal" in2="BackgroundImageFix" result="effect1_dropShadow_7_4358"/>
<feBlend mode="normal" in="SourceGraphic" in2="effect1_dropShadow_7_4358" result="shape"/>
</filter>
<linearGradient id="paint0_linear_7_4358" x1="16" y1="12" x2="60" y2="56" gradientUnits="userSpaceOnUse">
<stop stop-color="#C9A24D"/>
<stop offset="1" stop-color="#DDB866"/>
</linearGradient>
</defs>
</svg>
