<svg width="14" height="16" viewBox="0 0 14 16" fill="none" xmlns="http://www.w3.org/2000/svg">
<path d="M8.43711 15.1884C8.43711 15.3376 8.37785 15.4806 8.27236 15.5861C8.16687 15.6916 8.0238 15.7509 7.87461 15.7509H5.62461C5.47543 15.7509 5.33236 15.6916 5.22687 15.5861C5.12138 15.4806 5.06211 15.3376 5.06211 15.1884C5.06211 15.0392 5.12138 14.8961 5.22687 14.7906C5.33236 14.6851 5.47543 14.6259 5.62461 14.6259H7.87461C8.0238 14.6259 8.16687 14.6851 8.27236 14.7906C8.37785 14.8961 8.43711 15.0392 8.43711 15.1884ZM6.74961 7.31338C6.91649 7.31338 7.07962 7.26389 7.21838 7.17118C7.35713 7.07847 7.46528 6.94669 7.52914 6.79252C7.593 6.63834 7.60971 6.46869 7.57715 6.30502C7.5446 6.14135 7.46424 5.99101 7.34624 5.87301C7.22824 5.755 7.07789 5.67465 6.91422 5.64209C6.75055 5.60953 6.5809 5.62624 6.42673 5.6901C6.27255 5.75396 6.14077 5.86211 6.04806 6.00086C5.95535 6.13962 5.90586 6.30275 5.90586 6.46963C5.90586 6.6934 5.99476 6.90801 6.15299 7.06625C6.31123 7.22448 6.52584 7.31338 6.74961 7.31338ZM13.4729 10.3952L12.6038 14.3067C12.5626 14.4924 12.4749 14.6647 12.349 14.8073C12.2231 14.95 12.0631 15.0584 11.8839 15.1223C11.7047 15.1863 11.5122 15.2038 11.3245 15.1732C11.1367 15.1426 10.9597 15.0648 10.8102 14.9472L8.89485 13.5009H4.60579L2.68907 14.9472C2.5395 15.0648 2.36255 15.1426 2.17477 15.1732C1.98698 15.2038 1.7945 15.1863 1.61531 15.1223C1.43613 15.0584 1.2761 14.95 1.1502 14.8073C1.02429 14.6647 0.936626 14.4924 0.895396 14.3067L0.0263334 10.3952C-0.0105304 10.2273 -0.00866794 10.0533 0.0317799 9.88624C0.0722278 9.71921 0.150198 9.56359 0.259771 9.43119L2.2679 7.02228C2.3353 6.13701 2.53853 5.26738 2.87047 4.44392C3.77751 2.17002 5.40172 0.743377 6.06055 0.235721C6.25775 0.0829203 6.50014 0 6.74961 0C6.99908 0 7.24148 0.0829203 7.43868 0.235721C8.0954 0.743377 9.72172 2.17002 10.6288 4.44392C10.9607 5.26738 11.1639 6.13701 11.2313 7.02228L13.2395 9.43119C13.349 9.56359 13.427 9.71921 13.4675 9.88624C13.5079 10.0533 13.5098 10.2273 13.4729 10.3952ZM4.74079 12.3759H8.75844C10.2434 9.73635 10.5212 7.20931 9.58391 4.86088C8.75704 2.78806 7.20594 1.47744 6.74961 1.12588C6.29188 1.47744 4.74079 2.78806 3.91391 4.86088C2.97805 7.20931 3.25579 9.73635 4.74079 12.3759ZM3.6861 12.7872C2.92907 11.4114 2.46969 10.0593 2.30797 8.73088L1.12461 10.1512L1.99368 14.0634L2.00633 14.0542L3.6861 12.7872ZM12.3746 10.1512L11.1913 8.73088C11.0309 10.0565 10.5725 11.4086 9.81594 12.7872L11.4929 14.0528L11.5056 14.062L12.3746 10.1512Z" fill="#1AB4B4"/>
</svg>
