<svg version="1.2" xmlns="http://www.w3.org/2000/svg" viewBox="0 0 337 185" width="337" height="185">
	<title>cerp icone RVB</title>
	<style>
		.s0 { fill: #100083 } 
		.s1 { fill: #ff3800 } 
	</style>
	<path fill-rule="evenodd" class="s0" d="m99.6 114.4c-9.6 0-17.3-7.7-17.3-17.3 0-9.5 7.7-17.3 17.3-17.3 9.5 0 17.3 7.8 17.3 17.3 0 9.6-7.8 17.3-17.3 17.3z"/>
	<path class="s0" d="m309.3 128c-13.6 12.3-25.7 20.2-45.5 20.2-29.6 0-50.1-24.7-50.1-54.3v-0.5c0-29.7 21-53.9 50.1-53.9 17.3 0 30.9 7.4 44.2 19.5l24.2-27.9c-16-15.8-35.5-26.6-68.1-26.6-17.6 0-33.5 4.4-46.8 12.1-3.8-5.4-10.2-8.9-17.4-8.9-11.8 0-21.4 9.6-21.4 21.4 0 6.7 3 12.6 7.8 16.6q0.3 0.2 0.6 0.5 0 0 0.1 0.1c3.8 3.2 6.2 7.9 6.2 13.2 0 9.6-7.8 17.3-17.3 17.3q-0.2 0-0.5 0c0 0 0 0 0 0-9.3 0.3-16.8 7.9-16.8 17.3 0 9.4 7.3 16.8 16.4 17.3h0.4q0.5 0 0.9 0c9.1 0.5 16.4 8 16.4 17.3 0 5.1-2.3 9.8-5.9 12.9q0.1 0.1 0.1 0.1 0 0 0 0c-5.1 3.9-8.5 10.1-8.5 17.1 0 11.8 9.7 21.4 21.5 21.4 7.1 0 13.4-3.5 17.3-8.8 13.1 7.6 28.5 11.9 45.4 11.9 33.3 0 53.1-11.9 70.8-30.9l-24.2-24.5z"/>
	<path fill-rule="evenodd" class="s1" d="m108.3 31.3c-4.1-0.1-7.4-3.4-7.4-7.5 0-4.1 3.3-7.4 7.4-7.4 4.1 0 7.4 3.3 7.4 7.4 0 4.1-3.3 7.4-7.4 7.4z"/>
	<path fill-rule="evenodd" class="s1" d="m70.8 69.5c-5.8 0-10.6-4.7-10.6-10.6 0-5.9 4.8-10.6 10.6-10.6 5.9 0 10.7 4.7 10.7 10.6 0 5.9-4.8 10.6-10.7 10.6z"/>
	<path fill-rule="evenodd" class="s1" d="m14.5 104.8c-4.1 0-7.4-3.3-7.4-7.4 0-4.1 3.3-7.4 7.4-7.4 4.1 0 7.4 3.3 7.4 7.4 0 4.1-3.3 7.4-7.4 7.4z"/>
	<path fill-rule="evenodd" class="s0" d="m37.1 68.7c-4.1 0-7.4-3.3-7.4-7.4 0-4.1 3.3-7.4 7.4-7.4 4.1 0 7.4 3.3 7.4 7.4 0 4.1-3.3 7.4-7.4 7.4z"/>
	<path fill-rule="evenodd" class="s0" d="m149.4 35.4c-6.4 0-11.6-5.1-11.6-11.6 0-6.4 5.2-11.6 11.6-11.6 6.4 0 11.6 5.2 11.6 11.6 0 6.5-5.2 11.6-11.6 11.6z"/>
	<path fill-rule="evenodd" class="s0" d="m53.8 108.8c-6.6 0-12-5.3-12-11.9 0-6.6 5.4-11.9 12-11.9 6.6 0 11.9 5.3 11.9 11.9 0 6.6-5.3 11.9-11.9 11.9z"/>
	<path fill-rule="evenodd" class="s0" d="m139.3 103.2c-4.1 0-7.4-3.3-7.4-7.4 0-4.1 3.3-7.4 7.4-7.4 4.1 0 7.4 3.3 7.4 7.4 0 4.1-3.3 7.4-7.4 7.4z"/>
	<path fill-rule="evenodd" class="s0" d="m71.4 32.4c-5.7 0-10.3-4.7-10.3-10.4 0-5.7 4.6-10.3 10.3-10.3 5.7 0 10.4 4.6 10.4 10.3 0 5.7-4.7 10.4-10.4 10.4z"/>
	<path fill-rule="evenodd" class="s0" d="m109.4 178.8c-4.1 0-7.4-3.3-7.4-7.4 0-4.2 3.3-7.5 7.4-7.5 4.1 0 7.4 3.3 7.4 7.5 0 4.1-3.3 7.4-7.4 7.4z"/>
	<path fill-rule="evenodd" class="s0" d="m148.5 183.9c-6.4 0-11.6-5.2-11.6-11.7 0-6.4 5.2-11.6 11.6-11.6 6.4 0 11.6 5.2 11.6 11.6 0 6.5-5.2 11.7-11.6 11.7z"/>
	<path fill-rule="evenodd" class="s1" d="m74.9 179.2c-4.1 0-7.4-3.3-7.4-7.4 0-4.2 3.3-7.5 7.4-7.5 4.2 0 7.5 3.3 7.5 7.5 0 4.1-3.3 7.4-7.5 7.4z"/>
	<path fill-rule="evenodd" class="s0" d="m118.1 72.8c-9.1 0-16.5-7.3-16.5-16.4 0-9.1 7.4-16.4 16.5-16.4 9 0 16.4 7.3 16.4 16.4 0 9.1-7.4 16.4-16.4 16.4z"/>
	<path fill-rule="evenodd" class="s0" d="m69.7 146.8c-6.4 0-11.5-5.2-11.5-11.6 0-6.3 5.1-11.5 11.5-11.5 6.4 0 11.6 5.2 11.6 11.5 0 6.4-5.2 11.6-11.6 11.6z"/>
	<path fill-rule="evenodd" class="s0" d="m37.1 143.1c-4.1 0-7.4-3.3-7.4-7.4 0-4.1 3.3-7.4 7.4-7.4 4.1 0 7.4 3.3 7.4 7.4 0 4.1-3.3 7.4-7.4 7.4z"/>
	<path fill-rule="evenodd" class="s0" d="m108.3 147c-6.2 0-11.3-5.1-11.3-11.3 0-6.3 5.1-11.3 11.3-11.3 6.3 0 11.3 5 11.3 11.3 0 6.2-5 11.3-11.3 11.3z"/>
	<path class="s0" d="m165.7 133c0 3-0.8 5.9-2.1 8.3-3 5.4-8.6 9-15.2 9-9.5 0-17.3-7.8-17.3-17.3 0-9.6 7.8-17.3 17.3-17.3 4.6 0 8.8 1.8 11.8 4.7 3.4 3.1 5.5 7.6 5.5 12.6z"/>
	<path class="s0" d="m158.8 62q-0.4 0.6-0.8 1.1c-3 2.9-7.6 2.9-10.5 0-2.9-2.9-2.9-7.6 0-10.5 2.8-2.9 7.5-2.9 10.5 0q0.8 0.9 1.4 2c1.1 2.4 1 5.2-0.6 7.4z"/>
</svg>