<svg width="293" height="388" viewBox="0 0 293 388" fill="none" xmlns="http://www.w3.org/2000/svg">
<g opacity="0.3">
<path d="M2.99698 291.639L3.98608 387.683L100.017 386.694L99.0277 290.65L2.99698 291.639Z" fill="#100083" fill-opacity="0.08"/>
<path d="M99.0393 290.65L100.028 386.694L2.99698 291.639L99.0393 290.65Z" fill="#100083" fill-opacity="0.3"/>
<path d="M98.05 194.593L99.0391 290.637L2.99683 291.626C2.45064 238.59 45.0095 195.139 98.05 194.593Z" fill="#100083" fill-opacity="0.3"/>
<path d="M96.0717 2.50482L97.0608 98.549L1.01855 99.5381C0.472365 46.5017 43.0312 3.05105 96.0717 2.50482Z" fill="#100083" fill-opacity="0.3"/>
<path d="M97.1588 97.898L98.1479 193.942C45.1074 194.488 1.6744 151.935 1.12809 98.8869L97.1588 97.898Z" fill="#100083" fill-opacity="0.08"/>
<path d="M96.44 38.2272L97.0612 98.5488L36.7481 99.1699C36.3935 65.8566 63.1196 38.5704 96.44 38.2272Z" fill="#F1F1F0"/>
<path d="M97.0613 98.5492L97.6825 158.871C64.3737 159.214 37.0912 132.484 36.7482 99.1704L97.0613 98.5492Z" fill="#100083" fill-opacity="0.3"/>
<path d="M195.07 289.66C248.11 289.114 290.658 245.675 290.111 192.627C237.071 193.162 194.523 236.612 195.07 289.66Z" fill="#E4EDEE"/>
<path d="M192.102 1.51563L193.091 97.5598L289.122 96.5709L288.133 0.52667L192.102 1.51563Z" fill="#100083" fill-opacity="0.08"/>
<path d="M193.091 97.5605C193.638 150.608 237.071 193.162 290.111 192.616L289.122 96.5716L193.091 97.5605Z" fill="#100083" fill-opacity="0.3"/>
<path d="M100.028 386.694C153.068 386.148 195.616 342.709 195.069 289.661C142.029 290.207 99.4815 333.646 100.028 386.694Z" fill="#100083" fill-opacity="0.3"/>
<path d="M98.0505 194.593C98.5968 247.641 142.03 290.194 195.07 289.648C194.524 236.612 151.079 194.047 98.0505 194.593Z" fill="#100083" fill-opacity="0.3"/>
<path d="M97.0612 98.5493L98.0503 194.594L194.081 193.605L193.092 97.5603L97.0612 98.5493Z" fill="#F9FBFC"/>
<path d="M97.3086 122.56C97.4452 135.816 108.309 146.46 121.564 146.324C134.818 146.187 145.461 135.322 145.324 122.065C145.187 108.809 134.323 98.165 121.069 98.3015C107.803 98.4381 97.1721 109.304 97.3086 122.56Z" fill="#100083" fill-opacity="0.3"/>
<path d="M115.634 122.372C115.666 125.507 118.24 128.029 121.374 127.996C124.509 127.964 127.03 125.39 126.998 122.255C126.966 119.12 124.392 116.598 121.257 116.631C118.111 116.663 115.602 119.237 115.634 122.372Z" fill="#F9FBFC"/>
<path d="M97.803 170.582C97.9395 183.839 108.804 194.483 122.058 194.346C135.312 194.21 145.955 183.344 145.818 170.088C145.682 156.832 134.818 146.188 121.563 146.324C108.298 146.461 97.6665 157.326 97.803 170.582Z" fill="#F1F1F0"/>
<path d="M116.128 170.394C116.161 173.529 118.734 176.05 121.869 176.018C125.004 175.986 127.525 173.412 127.492 170.277C127.46 167.141 124.887 164.62 121.752 164.652C118.605 164.685 116.096 167.258 116.128 170.394Z" fill="#100083" fill-opacity="0.3"/>
<path d="M145.324 122.065C145.46 135.321 156.324 145.965 169.578 145.829C182.833 145.692 193.475 134.827 193.339 121.571C193.202 108.314 182.338 97.6703 169.084 97.8068C155.818 97.9434 145.187 108.809 145.324 122.065Z" fill="white"/>
<path d="M163.649 121.877C163.681 125.013 166.254 127.534 169.389 127.502C172.524 127.47 175.045 124.896 175.013 121.76C174.981 118.625 172.407 116.104 169.272 116.136C166.137 116.168 163.616 118.742 163.649 121.877Z" fill="#100083" fill-opacity="0.3"/>
<path d="M145.818 170.088C145.955 183.344 156.819 193.988 170.073 193.852C183.327 193.715 193.97 182.85 193.834 169.594C193.697 156.337 182.833 145.693 169.579 145.83C156.313 145.966 145.682 156.832 145.818 170.088Z" fill="#100083" fill-opacity="0.3"/>
<path d="M164.143 169.899C164.176 173.035 166.749 175.556 169.884 175.524C173.019 175.491 175.54 172.918 175.508 169.782C175.475 166.647 172.902 164.126 169.767 164.158C166.632 164.19 164.111 166.764 164.143 169.899Z" fill="#E9E5D9"/>
<path d="M96.0722 2.50465L97.0613 98.5488L193.092 97.5599L192.103 1.51568L96.0722 2.50465Z" fill="#100083" fill-opacity="0.3"/>
<path d="M123.913 29.7943L124.334 70.7041L165.239 70.2829L164.817 29.373L123.913 29.7943Z" fill="white"/>
<path d="M227.452 84.006C227.439 82.7841 226.931 81.5904 226.058 80.7347C225.185 79.8791 223.981 79.3958 222.759 79.4084C221.537 79.4209 220.344 79.9289 219.488 80.8024C218.633 81.6758 218.15 82.8798 218.162 84.1016C218.175 85.3235 218.683 86.5172 219.556 87.3728C220.429 88.2285 221.633 88.7118 222.855 88.6992C224.076 88.6867 225.27 88.1786 226.126 87.3052C226.981 86.4317 227.464 85.2278 227.452 84.006Z" fill="#100083" fill-opacity="0.3"/>
<path d="M226.957 36.0418L226.957 36.0188C226.931 33.4482 224.823 31.3833 222.253 31.4097C219.683 31.4362 217.618 33.5441 217.644 36.1147L217.645 36.1377C217.671 38.7083 219.779 40.7732 222.349 40.7467C224.919 40.7087 226.984 38.6123 226.957 36.0418Z" fill="#100083" fill-opacity="0.3"/>
<path d="M227.204 60.0298L227.204 60.0068C227.178 57.4362 225.07 55.3713 222.5 55.3978C219.93 55.4242 217.865 57.5321 217.892 60.1027L217.892 60.1257C217.918 62.6963 220.026 64.7612 222.596 64.7348C225.166 64.6968 227.231 62.6004 227.204 60.0298Z" fill="#100083" fill-opacity="0.3"/>
<path d="M226.71 12.0419C226.698 10.82 226.19 9.62628 225.317 8.77065C224.443 7.91501 223.24 7.43166 222.018 7.44425C220.796 7.45683 219.603 7.96486 218.747 8.8383C217.892 9.71174 217.408 10.9156 217.421 12.1375C217.433 13.3594 217.941 14.5531 218.815 15.4088C219.688 16.2644 220.892 16.7477 222.114 16.7351C223.335 16.7225 224.529 16.2145 225.384 15.3411C226.24 14.4677 226.723 13.2637 226.71 12.0419Z" fill="#100083" fill-opacity="0.3"/>
<path d="M208.342 84.2027C208.33 82.9809 207.822 81.7871 206.948 80.9315C206.075 80.0759 204.871 79.5926 203.65 79.6051C202.428 79.6177 201.234 80.1257 200.379 80.9992C199.523 81.8726 199.04 83.0765 199.053 84.2984C199.065 85.5203 199.573 86.714 200.447 87.5696C201.32 88.4252 202.524 88.9086 203.745 88.896C204.967 88.8834 206.161 88.3754 207.016 87.502C207.872 86.6285 208.355 85.4246 208.342 84.2027Z" fill="#100083" fill-opacity="0.3"/>
<path d="M207.848 36.2386L207.848 36.2155C207.821 33.645 205.714 31.58 203.143 31.6065C200.573 31.633 198.509 33.7409 198.535 36.3114L198.535 36.3345C198.562 38.905 200.669 40.97 203.24 40.9435C205.821 40.9054 207.874 38.8091 207.848 36.2386Z" fill="#100083" fill-opacity="0.3"/>
<path d="M208.095 60.2266L208.095 60.2036C208.068 57.633 205.961 55.5681 203.39 55.5945C200.82 55.621 198.756 57.7289 198.782 60.2995L198.782 60.3225C198.809 62.8931 200.916 64.958 203.487 64.9315C206.068 64.8934 208.121 62.7972 208.095 60.2266Z" fill="#100083" fill-opacity="0.3"/>
<path d="M207.601 12.2389C207.589 11.017 207.081 9.8233 206.207 8.96767C205.334 8.11203 204.13 7.62869 202.908 7.64127C201.687 7.65385 200.493 8.16189 199.638 9.03533C198.782 9.90876 198.299 11.1127 198.312 12.3345C198.324 13.5564 198.832 14.7501 199.705 15.6058C200.579 16.4614 201.782 16.9447 203.004 16.9321C204.226 16.9196 205.419 16.4116 206.275 15.5381C207.13 14.6647 207.614 13.4608 207.601 12.2389Z" fill="#100083" fill-opacity="0.3"/>
<path d="M246.561 83.8092C246.548 82.5873 246.041 81.3936 245.167 80.5379C244.294 79.6823 243.09 79.199 241.868 79.2116C240.647 79.2242 239.453 79.7322 238.598 80.6056C237.742 81.479 237.259 82.683 237.271 83.9049C237.284 85.1267 237.792 86.3204 238.665 87.1761C239.539 88.0317 240.742 88.515 241.964 88.5025C243.186 88.4899 244.379 87.9818 245.235 87.1084C246.09 86.235 246.574 85.0311 246.561 83.8092Z" fill="#100083" fill-opacity="0.3"/>
<path d="M246.067 35.845L246.066 35.822C246.04 33.2514 243.932 31.1865 241.362 31.213C238.792 31.2394 236.727 33.3473 236.754 35.9179L236.754 35.9409C236.781 38.5115 238.888 40.5764 241.458 40.5499C244.028 40.512 246.093 38.4156 246.067 35.845Z" fill="#100083" fill-opacity="0.3"/>
<path d="M246.314 59.8331L246.314 59.81C246.287 57.2395 244.179 55.1745 241.609 55.201C239.039 55.2275 236.974 57.3354 237.001 59.9059L237.001 59.929C237.028 62.4995 239.135 64.5645 241.705 64.538C244.275 64.5 246.34 62.4036 246.314 59.8331Z" fill="#100083" fill-opacity="0.3"/>
<path d="M245.82 11.8451C245.807 10.6232 245.299 9.4295 244.426 8.57387C243.553 7.71824 242.349 7.23489 241.127 7.24747C239.906 7.26005 238.712 7.76809 237.856 8.64153C237.001 9.51496 236.518 10.7189 236.53 11.9407C236.543 13.1626 237.051 14.3563 237.924 15.212C238.797 16.0676 240.001 16.5509 241.223 16.5383C242.445 16.5258 243.638 16.0178 244.494 15.1443C245.349 14.2709 245.832 13.067 245.82 11.8451Z" fill="#100083" fill-opacity="0.3"/>
<path d="M265.67 83.6124C265.658 82.3905 265.15 81.1968 264.276 80.3412C263.403 79.4855 262.199 79.0022 260.978 79.0148C259.756 79.0274 258.562 79.5354 257.707 80.4088C256.851 81.2823 256.368 82.4862 256.381 83.7081C256.393 84.93 256.901 86.1236 257.774 86.9793C258.648 87.8349 259.852 88.3183 261.073 88.3057C262.295 88.2931 263.489 87.7851 264.344 86.9116C265.2 86.0382 265.683 84.8343 265.67 83.6124Z" fill="#100083" fill-opacity="0.3"/>
<path d="M265.176 35.6482L265.176 35.6252C265.149 33.0546 263.042 30.9897 260.472 31.0162C257.901 31.0426 255.837 33.1505 255.863 35.7211L255.863 35.7441C255.89 38.3147 257.998 40.3796 260.568 40.3532C263.138 40.3152 265.203 38.2188 265.176 35.6482Z" fill="#100083" fill-opacity="0.3"/>
<path d="M265.423 59.6363L265.423 59.6132C265.396 57.0427 263.289 54.9777 260.719 55.0042C258.148 55.0307 256.084 57.1386 256.11 59.7091L256.11 59.7322C256.137 62.3027 258.245 64.3677 260.815 64.3412C263.385 64.3032 265.45 62.2068 265.423 59.6363Z" fill="#100083" fill-opacity="0.3"/>
<path d="M264.929 11.6483C264.917 10.4264 264.409 9.23273 263.535 8.37709C262.662 7.52146 261.458 7.03811 260.237 7.05069C259.015 7.06327 257.821 7.57131 256.966 8.44475C256.11 9.31819 255.627 10.5221 255.64 11.744C255.652 12.9658 256.16 14.1596 257.033 15.0152C257.907 15.8708 259.111 16.3542 260.332 16.3416C261.554 16.329 262.748 15.821 263.603 14.9475C264.459 14.0741 264.942 12.8702 264.929 11.6483Z" fill="#100083" fill-opacity="0.3"/>
<path d="M284.78 83.4156C284.767 82.1938 284.259 81 283.386 80.1444C282.512 79.2888 281.309 78.8054 280.087 78.818C278.865 78.8306 277.672 79.3386 276.816 80.212C275.961 81.0855 275.477 82.2894 275.49 83.5113C275.503 84.7332 276.011 85.9269 276.884 86.7825C277.757 87.6381 278.961 88.1215 280.183 88.1089C281.404 88.0963 282.598 87.5883 283.453 86.7148C284.309 85.8414 284.792 84.6375 284.78 83.4156Z" fill="#100083" fill-opacity="0.3"/>
<path d="M284.285 35.4515L284.285 35.4284C284.259 32.8579 282.151 30.7929 279.581 30.8194C277.011 30.8459 274.946 32.9538 274.973 35.5243L274.973 35.5474C274.999 38.1179 277.107 40.1829 279.677 40.1564C282.247 40.1184 284.312 38.022 284.285 35.4515Z" fill="#100083" fill-opacity="0.3"/>
<path d="M284.532 59.4395L284.532 59.4165C284.506 56.8459 282.398 54.781 279.828 54.8074C277.258 54.8339 275.193 56.9418 275.219 59.5124L275.22 59.5354C275.246 62.106 277.354 64.1709 279.924 64.1444C282.494 64.1064 284.559 62.0101 284.532 59.4395Z" fill="#100083" fill-opacity="0.3"/>
<path d="M284.039 11.4515C284.026 10.2296 283.518 9.03595 282.645 8.18032C281.771 7.32468 280.568 6.84133 279.346 6.85391C278.124 6.8665 276.931 7.37453 276.075 8.24797C275.22 9.12141 274.736 10.3253 274.749 11.5472C274.762 12.7691 275.27 13.9628 276.143 14.8184C277.016 15.6741 278.22 16.1574 279.442 16.1448C280.663 16.1322 281.857 15.6242 282.712 14.7508C283.568 13.8773 284.051 12.6734 284.039 11.4515Z" fill="#100083" fill-opacity="0.3"/>
</g>
</svg>
