<svg width="1118" height="1734" viewBox="0 0 1118 1734" fill="none" xmlns="http://www.w3.org/2000/svg">
<g clip-path="url(#clip0_1006_47)">
<g opacity="0.08">
<path d="M361.279 976.214C361.279 871.848 442.134 787.258 541.844 787.258L541.844 976.214L361.279 976.214Z" fill="#F1F1F0"/>
<path d="M541.866 1165.17L541.866 976.214L361.301 976.214L361.301 1165.17L541.866 1165.17Z" fill="white" fill-opacity="0.4"/>
<path d="M361.279 1165.17L361.279 976.214L541.866 1165.17L361.279 1165.17Z" fill="#100083" fill-opacity="0.4"/>
<path d="M361.279 1354.15L361.279 1165.19L541.864 1165.19C541.864 1269.54 461.009 1354.15 361.279 1354.15Z" fill="#100083"/>
<path d="M361.279 1732.06L361.279 1543.11L541.866 1543.11C541.866 1647.45 461.011 1732.06 361.279 1732.06Z" fill="#100083" fill-opacity="0.4"/>
<path d="M361.082 1544.38L361.082 1355.43C460.812 1355.43 541.647 1440.02 541.647 1544.38L361.082 1544.38Z" fill="#100083" fill-opacity="0.4"/>
<path d="M361.279 1661.78L361.279 1543.11L474.685 1543.11C474.706 1608.65 423.931 1661.78 361.279 1661.78Z" fill="#F1F1F0"/>
<path d="M361.279 1543.11L361.279 1424.43C423.909 1424.43 474.685 1477.57 474.685 1543.11L361.279 1543.11Z" fill="#100083"/>
<path d="M180.714 976.214C180.714 871.848 99.8812 787.258 0.148869 787.258L0.148861 976.214L180.714 976.214Z" fill="#100083"/>
<path d="M180.714 976.214L0.148869 976.214L0.148861 1165.17C99.8792 1165.17 180.714 1080.58 180.714 976.214Z" fill="white" fill-opacity="0.4"/>
<path d="M104.496 976.214C104.496 915.912 57.7725 867.018 0.148779 867.018L0.148774 976.214L104.496 976.214Z" fill="#F1F1F0"/>
<path d="M104.496 976.214L0.148779 976.214L0.148774 1085.41C57.7725 1085.41 104.496 1036.52 104.496 976.214Z" fill="#F9FBFC"/>
<path d="M180.714 1165.17C80.9815 1165.17 0.148865 1249.76 0.148861 1354.13C99.8792 1354.15 180.714 1269.54 180.714 1165.17Z" fill="white"/>
<path d="M180.714 1732.06L180.714 1543.11L0.148869 1543.11L0.148861 1732.06L180.714 1732.06Z" fill="white" fill-opacity="0.4"/>
<path d="M180.714 1543.11C180.714 1438.74 99.8792 1354.15 0.148869 1354.15L0.148861 1543.11L180.714 1543.11Z" fill="#100083"/>
<path d="M361.279 976.214C261.546 976.214 180.714 1060.8 180.714 1165.17C280.444 1165.17 361.279 1080.58 361.279 976.214Z" fill="#100083"/>
<path d="M361.279 1354.15C361.279 1249.78 280.446 1165.19 180.714 1165.19C180.714 1269.54 261.569 1354.15 361.279 1354.15Z" fill="#100083" fill-opacity="0.4"/>
<path d="M361.279 1543.11L361.279 1354.15L180.714 1354.15L180.714 1543.11L361.279 1543.11Z" fill="#F9FBFC"/>
<path d="M361.279 1495.87C361.279 1469.79 341.059 1448.63 316.138 1448.63C291.215 1448.63 270.997 1469.79 270.997 1495.87C270.997 1521.95 291.215 1543.11 316.138 1543.11C341.081 1543.11 361.279 1521.95 361.279 1495.87Z" fill="#100083" fill-opacity="0.4"/>
<path d="M326.821 1495.87C326.821 1489.7 322.032 1484.69 316.138 1484.69C310.242 1484.69 305.453 1489.7 305.453 1495.87C305.453 1502.03 310.242 1507.05 316.138 1507.05C322.055 1507.05 326.821 1502.03 326.821 1495.87Z" fill="#F9FBFC"/>
<path d="M361.279 1401.39C361.279 1375.31 341.059 1354.15 316.138 1354.15C291.215 1354.15 270.995 1375.31 270.995 1401.39C270.995 1427.47 291.215 1448.63 316.138 1448.63C341.081 1448.63 361.279 1427.47 361.279 1401.39Z" fill="white"/>
<path d="M326.821 1401.39C326.821 1395.22 322.032 1390.21 316.138 1390.21C310.242 1390.21 305.453 1395.22 305.453 1401.39C305.453 1407.56 310.242 1412.57 316.138 1412.57C322.055 1412.57 326.821 1407.56 326.821 1401.39Z" fill="#100083" fill-opacity="0.4"/>
<path d="M270.995 1495.87C270.995 1469.79 250.777 1448.63 225.855 1448.63C200.934 1448.63 180.714 1469.79 180.714 1495.87C180.714 1521.95 200.934 1543.11 225.855 1543.11C250.798 1543.11 270.995 1521.95 270.995 1495.87Z" fill="white"/>
<path d="M236.54 1495.87C236.54 1489.7 231.749 1484.69 225.855 1484.69C219.961 1484.69 215.172 1489.7 215.172 1495.87C215.172 1502.03 219.961 1507.05 225.855 1507.05C231.749 1507.05 236.54 1502.03 236.54 1495.87Z" fill="#100083" fill-opacity="0.4"/>
<path d="M270.995 1401.39C270.995 1375.31 250.777 1354.15 225.855 1354.15C200.934 1354.15 180.714 1375.31 180.714 1401.39C180.714 1427.47 200.934 1448.63 225.855 1448.63C250.798 1448.63 270.995 1427.47 270.995 1401.39Z" fill="#100083"/>
<path d="M236.54 1401.39C236.54 1395.22 231.749 1390.21 225.855 1390.21C219.961 1390.21 215.172 1395.22 215.172 1401.39C215.172 1407.56 219.961 1412.57 225.855 1412.57C231.749 1412.57 236.54 1407.56 236.54 1401.39Z" fill="#E9E5D9"/>
<path d="M361.279 1732.06L361.279 1543.11L180.714 1543.11L180.714 1732.06L361.279 1732.06Z" fill="#100083"/>
<path d="M309.463 1677.82L309.463 1597.33L232.552 1597.33L232.552 1677.82L309.463 1677.82Z" fill="white"/>
<path d="M115.851 1569.07C115.851 1571.48 116.784 1573.83 118.41 1575.53C120.036 1577.24 122.289 1578.21 124.585 1578.21C126.883 1578.21 129.136 1577.24 130.762 1575.53C132.387 1573.83 133.318 1571.48 133.318 1569.07C133.318 1566.67 132.387 1564.31 130.762 1562.61C129.136 1560.91 126.883 1559.93 124.585 1559.93C122.289 1559.93 120.036 1560.91 118.41 1562.61C116.784 1564.31 115.851 1566.67 115.851 1569.07Z" fill="white"/>
<path d="M115.851 1663.44L115.851 1663.48C115.851 1668.54 119.775 1672.64 124.607 1672.64C129.439 1672.64 133.363 1668.54 133.363 1663.48L133.363 1663.44C133.363 1658.38 129.439 1654.28 124.607 1654.28C119.775 1654.3 115.851 1658.38 115.851 1663.44Z" fill="white"/>
<path d="M115.851 1616.24L115.851 1616.29C115.851 1621.35 119.775 1625.45 124.607 1625.45C129.439 1625.45 133.363 1621.35 133.363 1616.29L133.363 1616.24C133.363 1611.19 129.439 1607.08 124.607 1607.08C119.775 1607.1 115.851 1611.19 115.851 1616.24Z" fill="white"/>
<path d="M115.851 1710.65C115.851 1713.06 116.784 1715.42 118.41 1717.12C120.036 1718.82 122.289 1719.79 124.585 1719.79C126.883 1719.79 129.136 1718.82 130.762 1717.12C132.387 1715.42 133.318 1713.06 133.318 1710.65C133.318 1708.25 132.387 1705.89 130.762 1704.19C129.136 1702.49 126.883 1701.51 124.585 1701.51C122.289 1701.51 120.036 1702.49 118.41 1704.19C116.784 1705.89 115.851 1708.25 115.851 1710.65Z" fill="white"/>
<path d="M151.783 1569.07C151.783 1571.48 152.714 1573.83 154.34 1575.53C155.965 1577.24 158.218 1578.21 160.516 1578.21C162.813 1578.21 165.068 1577.24 166.693 1575.53C168.317 1573.83 169.25 1571.48 169.25 1569.07C169.25 1566.67 168.317 1564.31 166.693 1562.61C165.068 1560.91 162.813 1559.93 160.516 1559.93C158.218 1559.93 155.965 1560.91 154.34 1562.61C152.714 1564.31 151.783 1566.67 151.783 1569.07Z" fill="white"/>
<path d="M151.783 1663.44L151.783 1663.48C151.783 1668.54 155.705 1672.64 160.537 1672.64C165.371 1672.64 169.293 1668.54 169.293 1663.48L169.293 1663.44C169.293 1658.38 165.371 1654.28 160.537 1654.28C155.684 1654.3 151.783 1658.38 151.783 1663.44Z" fill="white"/>
<path d="M151.783 1616.24L151.783 1616.29C151.783 1621.35 155.705 1625.45 160.537 1625.45C165.371 1625.45 169.293 1621.35 169.293 1616.29L169.293 1616.24C169.293 1611.19 165.371 1607.08 160.537 1607.08C155.684 1607.1 151.783 1611.19 151.783 1616.24Z" fill="white"/>
<path d="M151.783 1710.65C151.783 1713.06 152.714 1715.42 154.34 1717.12C155.965 1718.82 158.218 1719.79 160.516 1719.79C162.813 1719.79 165.068 1718.82 166.693 1717.12C168.317 1715.42 169.25 1713.06 169.25 1710.65C169.25 1708.25 168.317 1705.89 166.693 1704.19C165.068 1702.49 162.813 1701.51 160.516 1701.51C158.218 1701.51 155.965 1702.49 154.34 1704.19C152.714 1705.89 151.783 1708.25 151.783 1710.65Z" fill="white"/>
<path d="M79.9216 1569.07C79.9216 1571.48 80.8523 1573.83 82.478 1575.53C84.1038 1577.24 86.3568 1578.21 88.6549 1578.21C90.951 1578.21 93.2061 1577.24 94.8318 1575.53C96.4555 1573.83 97.3883 1571.48 97.3883 1569.07C97.3883 1566.67 96.4555 1564.31 94.8318 1562.61C93.2061 1560.91 90.951 1559.93 88.6549 1559.93C86.3568 1559.93 84.1038 1560.91 82.478 1562.61C80.8523 1564.31 79.9216 1566.67 79.9216 1569.07Z" fill="white"/>
<path d="M79.9216 1663.44L79.9216 1663.48C79.9216 1668.54 83.8435 1672.64 88.6755 1672.64C93.5096 1672.64 97.4314 1668.54 97.4314 1663.48L97.4314 1663.44C97.4314 1658.38 93.5096 1654.28 88.6755 1654.28C83.8435 1654.3 79.9216 1658.38 79.9216 1663.44Z" fill="white"/>
<path d="M79.9216 1616.24L79.9216 1616.29C79.9216 1621.35 83.8435 1625.45 88.6755 1625.45C93.5096 1625.45 97.4314 1621.35 97.4314 1616.29L97.4314 1616.24C97.4314 1611.19 93.5096 1607.08 88.6755 1607.08C83.8435 1607.1 79.9216 1611.19 79.9216 1616.24Z" fill="white"/>
<path d="M79.9216 1710.65C79.9216 1713.06 80.8523 1715.42 82.478 1717.12C84.1038 1718.82 86.3568 1719.79 88.6549 1719.79C90.951 1719.79 93.2061 1718.82 94.8318 1717.12C96.4555 1715.42 97.3883 1713.06 97.3883 1710.65C97.3883 1708.25 96.4555 1705.89 94.8318 1704.19C93.2061 1702.49 90.951 1701.51 88.6549 1701.51C86.3568 1701.51 84.1038 1702.49 82.478 1704.19C80.8523 1705.89 79.9216 1708.25 79.9216 1710.65Z" fill="white"/>
<path d="M43.9898 1569.07C43.9898 1571.48 44.9225 1573.83 46.5482 1575.53C48.1739 1577.24 50.427 1578.21 52.7231 1578.21C55.0213 1578.21 57.2743 1577.24 58.9 1575.53C60.5257 1573.83 61.4585 1571.48 61.4585 1569.07C61.4585 1566.67 60.5257 1564.31 58.9 1562.61C57.2743 1560.91 55.0213 1559.93 52.7231 1559.93C50.427 1559.93 48.1739 1560.91 46.5482 1562.61C44.9225 1564.31 43.9898 1566.67 43.9898 1569.07Z" fill="white"/>
<path d="M43.9898 1663.44L43.9898 1663.48C43.9898 1668.54 47.9137 1672.64 52.7457 1672.64C57.5777 1672.64 61.5016 1668.54 61.5016 1663.48L61.5016 1663.44C61.5016 1658.38 57.5777 1654.28 52.7457 1654.28C47.9137 1654.3 43.9898 1658.38 43.9898 1663.44Z" fill="white"/>
<path d="M43.9898 1616.24L43.9898 1616.29C43.9898 1621.35 47.9137 1625.45 52.7457 1625.45C57.5777 1625.45 61.5016 1621.35 61.5016 1616.29L61.5016 1616.24C61.5016 1611.19 57.5777 1607.08 52.7457 1607.08C47.9137 1607.1 43.9898 1611.19 43.9898 1616.24Z" fill="white"/>
<path d="M43.9898 1710.65C43.9898 1713.06 44.9225 1715.42 46.5482 1717.12C48.1739 1718.82 50.427 1719.79 52.7231 1719.79C55.0213 1719.79 57.2743 1718.82 58.9 1717.12C60.5257 1715.42 61.4585 1713.06 61.4585 1710.65C61.4585 1708.25 60.5257 1705.89 58.9 1704.19C57.2743 1702.49 55.0213 1701.51 52.7231 1701.51C50.427 1701.51 48.1739 1702.49 46.5482 1704.19C44.9225 1705.89 43.9898 1708.25 43.9898 1710.65Z" fill="white"/>
<path d="M8.058 1569.07C8.058 1571.48 8.99088 1573.83 10.6166 1575.53C12.2423 1577.24 14.4953 1578.21 16.7935 1578.21C19.0896 1578.21 21.3425 1577.24 22.9683 1575.53C24.594 1573.83 25.5269 1571.48 25.5269 1569.07C25.5269 1566.67 24.594 1564.31 22.9683 1562.61C21.3425 1560.91 19.0896 1559.93 16.7935 1559.93C14.4953 1559.93 12.2423 1560.91 10.6166 1562.61C8.99088 1564.31 8.058 1566.67 8.058 1569.07Z" fill="white"/>
<path d="M8.05804 1663.44L8.05804 1663.48C8.05804 1668.54 11.982 1672.64 16.8141 1672.64C21.6461 1672.64 25.5699 1668.54 25.5699 1663.48L25.5699 1663.44C25.5699 1658.38 21.6461 1654.28 16.8141 1654.28C11.982 1654.3 8.05804 1658.38 8.05804 1663.44Z" fill="white"/>
<path d="M8.05804 1616.24L8.05804 1616.29C8.05804 1621.35 11.982 1625.45 16.8141 1625.45C21.6461 1625.45 25.5699 1621.35 25.5699 1616.29L25.5699 1616.24C25.5699 1611.19 21.6461 1607.08 16.8141 1607.08C11.982 1607.1 8.05804 1611.19 8.05804 1616.24Z" fill="white"/>
<path d="M8.058 1710.65C8.058 1713.06 8.99088 1715.42 10.6166 1717.12C12.2423 1718.82 14.4953 1719.79 16.7935 1719.79C19.0896 1719.79 21.3425 1718.82 22.9683 1717.12C24.594 1715.42 25.5269 1713.06 25.5269 1710.65C25.5269 1708.25 24.594 1705.89 22.9683 1704.19C21.3425 1702.49 19.0896 1701.51 16.7935 1701.51C14.4953 1701.51 12.2423 1702.49 10.6166 1704.19C8.99088 1705.89 8.058 1708.25 8.058 1710.65Z" fill="white"/>
<path d="M657.417 999.777C657.417 1002.18 658.348 1004.54 659.974 1006.24C661.599 1007.94 663.853 1008.92 666.151 1008.92C668.447 1008.92 670.702 1007.94 672.328 1006.24C673.951 1004.54 674.884 1002.18 674.884 999.777C674.884 997.373 673.951 995.015 672.328 993.314C670.702 991.613 668.447 990.637 666.151 990.637C663.853 990.637 661.599 991.613 659.974 993.314C658.348 995.015 657.417 997.373 657.417 999.777Z" fill="white" fill-opacity="0.4"/>
<path d="M657.417 1094.14L657.417 1094.19C657.417 1099.25 661.339 1103.35 666.171 1103.35C671.005 1103.35 674.927 1099.25 674.927 1094.19L674.927 1094.14C674.927 1089.08 671.005 1084.98 666.171 1084.98C661.339 1085 657.417 1089.11 657.417 1094.14Z" fill="white" fill-opacity="0.4"/>
<path d="M657.417 1046.95L657.417 1046.99C657.417 1052.05 661.339 1056.16 666.171 1056.16C671.005 1056.16 674.927 1052.05 674.927 1046.99L674.927 1046.95C674.927 1041.89 671.005 1037.79 666.171 1037.79C661.339 1037.81 657.417 1041.89 657.417 1046.95Z" fill="white" fill-opacity="0.4"/>
<path d="M657.417 1141.38C657.417 1143.79 658.35 1146.14 659.974 1147.84C661.599 1149.54 663.855 1150.52 666.151 1150.52C668.449 1150.52 670.702 1149.54 672.328 1147.84C673.953 1146.14 674.884 1143.79 674.884 1141.38C674.884 1138.98 673.953 1136.62 672.328 1134.92C670.702 1133.22 668.449 1132.24 666.151 1132.24C663.855 1132.24 661.599 1133.22 659.974 1134.92C658.35 1136.6 657.417 1138.95 657.417 1141.38Z" fill="white" fill-opacity="0.4"/>
<path d="M621.485 999.777C621.485 1002.18 622.418 1004.54 624.044 1006.24C625.668 1007.94 627.923 1008.92 630.219 1008.92C632.517 1008.92 634.77 1007.94 636.396 1006.24C638.021 1004.54 638.952 1002.18 638.952 999.777C638.952 997.373 638.021 995.015 636.396 993.314C634.77 991.613 632.517 990.637 630.219 990.637C627.923 990.637 625.668 991.613 624.044 993.314C622.418 995.015 621.485 997.373 621.485 999.777Z" fill="white" fill-opacity="0.4"/>
<path d="M621.485 1094.14L621.485 1094.19C621.485 1099.25 625.409 1103.35 630.241 1103.35C635.073 1103.35 638.997 1099.25 638.997 1094.19L638.997 1094.14C638.997 1089.08 635.073 1084.98 630.241 1084.98C625.409 1085 621.485 1089.11 621.485 1094.14Z" fill="white" fill-opacity="0.4"/>
<path d="M621.485 1046.95L621.485 1046.99C621.485 1052.05 625.409 1056.16 630.241 1056.16C635.073 1056.16 638.997 1052.05 638.997 1046.99L638.997 1046.95C638.997 1041.89 635.073 1037.79 630.241 1037.79C625.409 1037.81 621.485 1041.89 621.485 1046.95Z" fill="white" fill-opacity="0.4"/>
<path d="M621.485 1141.38C621.485 1143.79 622.418 1146.14 624.042 1147.84C625.668 1149.54 627.923 1150.52 630.219 1150.52C632.517 1150.52 634.77 1149.54 636.396 1147.84C638.021 1146.14 638.952 1143.79 638.952 1141.38C638.952 1138.98 638.021 1136.62 636.396 1134.92C634.77 1133.22 632.517 1132.24 630.219 1132.24C627.923 1132.24 625.668 1133.22 624.042 1134.92C622.418 1136.6 621.485 1138.95 621.485 1141.38Z" fill="white" fill-opacity="0.4"/>
<path d="M585.556 999.777C585.556 1002.18 586.486 1004.54 588.112 1006.24C589.738 1007.94 591.991 1008.92 594.289 1008.92C596.585 1008.92 598.84 1007.94 600.464 1006.24C602.09 1004.54 603.022 1002.18 603.022 999.777C603.022 997.373 602.09 995.015 600.464 993.314C598.84 991.613 596.585 990.637 594.289 990.637C591.991 990.637 589.738 991.613 588.112 993.314C586.486 995.015 585.556 997.373 585.556 999.777Z" fill="white" fill-opacity="0.4"/>
<path d="M585.554 1094.14L585.554 1094.19C585.554 1099.25 589.477 1103.35 594.31 1103.35C599.142 1103.35 603.065 1099.25 603.065 1094.19L603.065 1094.14C603.065 1089.08 599.142 1084.98 594.31 1084.98C589.477 1085 585.554 1089.11 585.554 1094.14Z" fill="white" fill-opacity="0.4"/>
<path d="M585.554 1046.95L585.554 1046.99C585.554 1052.05 589.477 1056.16 594.31 1056.16C599.142 1056.16 603.065 1052.05 603.065 1046.99L603.065 1046.95C603.065 1041.89 599.142 1037.79 594.31 1037.79C589.477 1037.81 585.554 1041.89 585.554 1046.95Z" fill="white" fill-opacity="0.4"/>
<path d="M585.556 1141.38C585.556 1143.79 586.486 1146.14 588.112 1147.84C589.738 1149.54 591.991 1150.52 594.289 1150.52C596.585 1150.52 598.84 1149.54 600.464 1147.84C602.09 1146.14 603.022 1143.79 603.022 1141.38C603.022 1138.98 602.09 1136.62 600.464 1134.92C598.84 1133.22 596.585 1132.24 594.289 1132.24C591.991 1132.24 589.738 1133.22 588.112 1134.92C586.486 1136.6 585.556 1138.95 585.556 1141.38Z" fill="white" fill-opacity="0.4"/>
<path d="M549.624 999.777C549.624 1002.18 550.557 1004.54 552.18 1006.24C553.806 1007.94 556.061 1008.92 558.357 1008.92C560.655 1008.92 562.908 1007.94 564.534 1006.24C566.16 1004.54 567.091 1002.18 567.091 999.777C567.091 997.373 566.16 995.015 564.534 993.314C562.908 991.613 560.655 990.637 558.357 990.637C556.061 990.637 553.806 991.613 552.18 993.314C550.557 995.015 549.624 997.373 549.624 999.777Z" fill="white" fill-opacity="0.4"/>
<path d="M549.624 1094.14L549.624 1094.19C549.624 1099.25 553.546 1103.35 558.38 1103.35C563.212 1103.35 567.134 1099.25 567.134 1094.19L567.134 1094.14C567.134 1089.08 563.212 1084.98 558.38 1084.98C553.546 1085 549.624 1089.11 549.624 1094.14Z" fill="white" fill-opacity="0.4"/>
<path d="M549.624 1046.95L549.624 1046.99C549.624 1052.05 553.546 1056.16 558.38 1056.16C563.212 1056.16 567.134 1052.05 567.134 1046.99L567.134 1046.95C567.134 1041.89 563.212 1037.79 558.38 1037.79C553.546 1037.81 549.624 1041.89 549.624 1046.95Z" fill="white" fill-opacity="0.4"/>
<path d="M549.624 1141.38C549.624 1143.79 550.557 1146.14 552.18 1147.84C553.806 1149.54 556.061 1150.52 558.357 1150.52C560.655 1150.52 562.908 1149.54 564.534 1147.84C566.16 1146.14 567.091 1143.79 567.091 1141.38C567.091 1138.98 566.16 1136.62 564.534 1134.92C562.908 1133.22 560.655 1132.24 558.357 1132.24C556.061 1132.24 553.806 1133.22 552.18 1134.92C550.557 1136.6 549.624 1138.95 549.624 1141.38Z" fill="white" fill-opacity="0.4"/>
</g>
<g opacity="0.04">
<path d="M744.826 779.976C744.826 887.662 661.398 974.942 558.517 974.942L558.517 779.976L744.826 779.976Z" fill="#F1F1F0"/>
<path d="M558.495 585.01L558.495 779.976L744.804 779.976L744.804 585.01L558.495 585.01Z" fill="white" fill-opacity="0.4"/>
<path d="M744.826 585.01L744.826 779.976L558.495 585.01L744.826 585.01Z" fill="#100083" fill-opacity="0.4"/>
<path d="M744.826 390.021L744.826 584.986L558.495 584.986C558.495 477.324 641.923 390.021 744.826 390.021Z" fill="#100083"/>
<path d="M744.826 0.0864258L744.826 195.053L558.495 195.053C558.495 87.3908 641.923 0.0864119 744.826 0.0864258Z" fill="#100083" fill-opacity="0.4"/>
<path d="M745.029 193.734L745.029 388.699C642.125 388.699 558.72 301.419 558.72 193.734L745.029 193.734Z" fill="#100083" fill-opacity="0.4"/>
<path d="M744.826 72.6023L744.826 195.053L627.814 195.053C627.791 127.428 680.181 72.6023 744.826 72.6023Z" fill="#F1F1F0"/>
<path d="M744.826 195.053L744.826 317.505C680.204 317.505 627.814 262.677 627.814 195.053L744.826 195.053Z" fill="#100083"/>
<path d="M931.134 779.976C931.134 887.662 1014.54 974.944 1117.44 974.944L1117.44 779.976L931.134 779.976Z" fill="#100083"/>
<path d="M931.134 779.976L1117.44 779.976L1117.44 585.01C1014.54 585.01 931.134 672.29 931.134 779.976Z" fill="white" fill-opacity="0.4"/>
<path d="M1009.78 779.976C1009.78 842.195 1057.99 892.647 1117.44 892.647L1117.44 779.976L1009.78 779.976Z" fill="#F1F1F0"/>
<path d="M1009.78 779.976L1117.44 779.976L1117.44 667.307C1057.99 667.307 1009.78 717.756 1009.78 779.976Z" fill="#F9FBFC"/>
<path d="M931.134 585.01C1034.04 585.01 1117.44 497.728 1117.44 390.042C1014.54 390.02 931.134 477.324 931.134 585.01Z" fill="white"/>
<path d="M931.134 0.0864176L931.134 195.053L1117.44 195.053L1117.44 0.0864428L931.134 0.0864176Z" fill="white" fill-opacity="0.4"/>
<path d="M931.134 195.053C931.134 302.738 1014.54 390.02 1117.44 390.02L1117.44 195.053L931.134 195.053Z" fill="#100083"/>
<path d="M744.826 779.976C847.73 779.976 931.134 692.696 931.134 585.01C828.23 585.01 744.826 672.29 744.826 779.976Z" fill="#100083"/>
<path d="M744.826 390.02C744.826 497.704 828.23 584.986 931.134 584.986C931.134 477.324 847.708 390.021 744.826 390.02Z" fill="#100083" fill-opacity="0.4"/>
<path d="M744.826 195.052L744.826 390.018L931.134 390.018L931.134 195.053L744.826 195.052Z" fill="#F9FBFC"/>
<path d="M744.827 243.794C744.827 270.704 765.688 292.536 791.402 292.536C817.119 292.536 837.98 270.704 837.98 243.794C837.98 216.885 817.119 195.053 791.402 195.053C765.666 195.053 744.827 216.885 744.827 243.794Z" fill="#100083" fill-opacity="0.4"/>
<path d="M780.379 243.794C780.379 250.159 785.322 255.33 791.402 255.33C797.485 255.33 802.427 250.159 802.427 243.794C802.427 237.43 797.485 232.258 791.402 232.258C785.299 232.258 780.379 237.43 780.379 243.794Z" fill="#F9FBFC"/>
<path d="M744.827 341.278C744.827 368.188 765.688 390.018 791.402 390.018C817.119 390.018 837.98 368.188 837.98 341.278C837.98 314.369 817.119 292.536 791.402 292.536C765.666 292.536 744.827 314.369 744.827 341.278Z" fill="white"/>
<path d="M780.379 341.278C780.379 347.643 785.322 352.814 791.402 352.814C797.485 352.814 802.427 347.643 802.427 341.278C802.427 334.914 797.485 329.742 791.402 329.742C785.299 329.742 780.379 334.914 780.379 341.278Z" fill="#100083" fill-opacity="0.4"/>
<path d="M837.98 243.794C837.98 270.704 858.844 292.536 884.558 292.536C910.272 292.536 931.135 270.704 931.135 243.794C931.135 216.885 910.272 195.053 884.558 195.053C858.821 195.053 837.98 216.885 837.98 243.794Z" fill="white"/>
<path d="M873.533 243.794C873.533 250.159 878.475 255.33 884.558 255.33C890.639 255.33 895.581 250.159 895.581 243.794C895.581 237.43 890.639 232.258 884.558 232.258C878.475 232.258 873.533 237.43 873.533 243.794Z" fill="#100083" fill-opacity="0.4"/>
<path d="M837.98 341.278C837.98 368.188 858.844 390.02 884.558 390.02C910.272 390.02 931.135 368.188 931.135 341.278C931.135 314.369 910.272 292.536 884.558 292.536C858.821 292.536 837.98 314.369 837.98 341.278Z" fill="#100083"/>
<path d="M873.533 341.278C873.533 347.643 878.475 352.814 884.558 352.814C890.639 352.814 895.581 347.643 895.581 341.278C895.581 334.914 890.639 329.742 884.558 329.742C878.475 329.742 873.533 334.914 873.533 341.278Z" fill="#E9E5D9"/>
<path d="M744.826 0.0864176L744.826 195.053L931.134 195.053L931.134 0.0864428L744.826 0.0864176Z" fill="#100083"/>
<path d="M798.291 56.0586L798.291 139.104L877.647 139.104L877.647 56.0586L798.291 56.0586Z" fill="white"/>
<path d="M998.06 168.26C998.06 165.779 997.098 163.346 995.421 161.591C993.744 159.836 991.419 158.83 989.048 158.83C986.678 158.83 984.353 159.836 982.676 161.591C980.999 163.346 980.037 165.779 980.037 168.26C980.037 170.74 980.999 173.174 982.676 174.929C984.353 176.684 986.678 177.69 989.048 177.69C991.419 177.69 993.744 176.684 995.421 174.929C997.098 173.174 998.06 170.74 998.06 168.26Z" fill="white"/>
<path d="M998.06 70.8945L998.06 70.8477C998.06 65.6294 994.012 61.394 989.026 61.394C984.039 61.394 979.992 65.6294 979.992 70.8477L979.992 70.8945C979.992 76.1125 984.039 80.3479 989.026 80.3479C994.012 80.3246 998.06 76.1125 998.06 70.8945Z" fill="white"/>
<path d="M998.06 119.589L998.06 119.542C998.06 114.324 994.012 110.089 989.026 110.089C984.039 110.089 979.992 114.324 979.992 119.542L979.992 119.589C979.992 124.807 984.039 129.043 989.026 129.043C994.012 129.019 998.06 124.807 998.06 119.589Z" fill="white"/>
<path d="M998.06 22.1751C998.06 19.6948 997.098 17.2613 995.421 15.5064C993.744 13.7514 991.419 12.7451 989.048 12.7451C986.678 12.7451 984.353 13.7514 982.676 15.5064C980.999 17.2613 980.037 19.6948 980.037 22.1751C980.037 24.6557 980.999 27.0892 982.676 28.8441C984.353 30.5992 986.678 31.6052 989.048 31.6052C991.419 31.6052 993.744 30.5992 995.421 28.8441C997.098 27.0892 998.06 24.6557 998.06 22.1751Z" fill="white"/>
<path d="M960.986 168.26C960.986 165.779 960.025 163.346 958.348 161.591C956.671 159.836 954.345 158.83 951.975 158.83C949.605 158.83 947.279 159.836 945.602 161.591C943.925 163.346 942.964 165.779 942.964 168.26C942.964 170.74 943.925 173.174 945.602 174.929C947.279 176.684 949.605 177.69 951.975 177.69C954.345 177.69 956.671 176.684 958.348 174.929C960.025 173.174 960.986 170.74 960.986 168.26Z" fill="white"/>
<path d="M960.986 70.8945L960.986 70.8477C960.986 65.6294 956.939 61.394 951.952 61.394C946.966 61.394 942.918 65.6294 942.918 70.8477L942.918 70.8945C942.918 76.1125 946.966 80.3479 951.952 80.3479C956.961 80.3246 960.986 76.1125 960.986 70.8945Z" fill="white"/>
<path d="M960.986 119.589L960.986 119.542C960.986 114.324 956.939 110.089 951.952 110.089C946.966 110.089 942.918 114.324 942.918 119.542L942.918 119.589C942.918 124.807 946.966 129.043 951.952 129.043C956.961 129.019 960.986 124.807 960.986 119.589Z" fill="white"/>
<path d="M960.986 22.1751C960.986 19.6948 960.025 17.2613 958.348 15.5064C956.671 13.7514 954.345 12.7451 951.975 12.7451C949.605 12.7451 947.279 13.7514 945.602 15.5064C943.925 17.2613 942.964 19.6948 942.964 22.1751C942.964 24.6557 943.925 27.0892 945.602 28.8441C947.279 30.5992 949.605 31.6052 951.975 31.6052C954.345 31.6052 956.671 30.5992 958.348 28.8441C960.025 27.0892 960.986 24.6557 960.986 22.1751Z" fill="white"/>
<path d="M1035.13 168.26C1035.13 165.779 1034.17 163.346 1032.49 161.591C1030.82 159.836 1028.49 158.83 1026.12 158.83C1023.75 158.83 1021.43 159.836 1019.75 161.591C1018.07 163.346 1017.11 165.779 1017.11 168.26C1017.11 170.74 1018.07 173.174 1019.75 174.929C1021.43 176.684 1023.75 177.69 1026.12 177.69C1028.49 177.69 1030.82 176.684 1032.49 174.929C1034.17 173.174 1035.13 170.74 1035.13 168.26Z" fill="white"/>
<path d="M1035.13 70.8945L1035.13 70.8477C1035.13 65.6294 1031.09 61.394 1026.1 61.394C1021.11 61.394 1017.07 65.6294 1017.07 70.8477L1017.07 70.8945C1017.07 76.1125 1021.11 80.3479 1026.1 80.3479C1031.09 80.3246 1035.13 76.1125 1035.13 70.8945Z" fill="white"/>
<path d="M1035.13 119.589L1035.13 119.542C1035.13 114.324 1031.09 110.089 1026.1 110.089C1021.11 110.089 1017.07 114.324 1017.07 119.542L1017.07 119.589C1017.07 124.807 1021.11 129.043 1026.1 129.043C1031.09 129.019 1035.13 124.807 1035.13 119.589Z" fill="white"/>
<path d="M1035.13 22.1757C1035.13 19.6953 1034.17 17.2618 1032.5 15.5068C1030.82 13.7518 1028.49 12.7456 1026.12 12.7456C1023.75 12.7456 1021.43 13.7518 1019.75 15.5068C1018.07 17.2618 1017.11 19.6953 1017.11 22.1757C1017.11 24.656 1018.07 27.0896 1019.75 28.8447C1021.43 30.5996 1023.75 31.6058 1026.12 31.6058C1028.49 31.6058 1030.82 30.5996 1032.5 28.8447C1034.17 27.0896 1035.13 24.656 1035.13 22.1757Z" fill="white"/>
<path d="M1072.21 168.26C1072.21 165.779 1071.25 163.346 1069.57 161.591C1067.89 159.836 1065.57 158.83 1063.2 158.83C1060.83 158.83 1058.5 159.836 1056.82 161.591C1055.15 163.346 1054.18 165.779 1054.18 168.26C1054.18 170.74 1055.15 173.174 1056.82 174.929C1058.5 176.684 1060.83 177.69 1063.2 177.69C1065.57 177.69 1067.89 176.684 1069.57 174.929C1071.25 173.174 1072.21 170.74 1072.21 168.26Z" fill="white"/>
<path d="M1072.21 70.8945L1072.21 70.8477C1072.21 65.6294 1068.16 61.394 1063.17 61.394C1058.19 61.394 1054.14 65.6294 1054.14 70.8477L1054.14 70.8945C1054.14 76.1125 1058.19 80.3479 1063.17 80.3479C1068.16 80.3246 1072.21 76.1125 1072.21 70.8945Z" fill="white"/>
<path d="M1072.21 119.589L1072.21 119.542C1072.21 114.324 1068.16 110.089 1063.17 110.089C1058.19 110.089 1054.14 114.324 1054.14 119.542L1054.14 119.589C1054.14 124.807 1058.19 129.043 1063.17 129.043C1068.16 129.019 1072.21 124.807 1072.21 119.589Z" fill="white"/>
<path d="M1072.21 22.1757C1072.21 19.6953 1071.25 17.2618 1069.57 15.5068C1067.89 13.7518 1065.57 12.7456 1063.2 12.7456C1060.83 12.7456 1058.5 13.7518 1056.82 15.5068C1055.15 17.2618 1054.18 19.6953 1054.18 22.1757C1054.18 24.656 1055.15 27.0896 1056.82 28.8447C1058.5 30.5996 1060.83 31.6058 1063.2 31.6058C1065.57 31.6058 1067.89 30.5996 1069.57 28.8447C1071.25 27.0896 1072.21 24.656 1072.21 22.1757Z" fill="white"/>
<path d="M1109.28 168.26C1109.28 165.779 1108.32 163.346 1106.64 161.591C1104.97 159.836 1102.64 158.83 1100.27 158.83C1097.9 158.83 1095.57 159.836 1093.9 161.591C1092.22 163.346 1091.26 165.779 1091.26 168.26C1091.26 170.74 1092.22 173.174 1093.9 174.929C1095.57 176.684 1097.9 177.69 1100.27 177.69C1102.64 177.69 1104.97 176.684 1106.64 174.929C1108.32 173.174 1109.28 170.74 1109.28 168.26Z" fill="white"/>
<path d="M1109.28 70.8945L1109.28 70.8477C1109.28 65.6294 1105.23 61.394 1100.25 61.394C1095.26 61.394 1091.21 65.6294 1091.21 70.8477L1091.21 70.8945C1091.21 76.1125 1095.26 80.3479 1100.25 80.3479C1105.23 80.3246 1109.28 76.1125 1109.28 70.8945Z" fill="white"/>
<path d="M1109.28 119.589L1109.28 119.542C1109.28 114.324 1105.23 110.089 1100.25 110.089C1095.26 110.089 1091.21 114.324 1091.21 119.542L1091.21 119.589C1091.21 124.807 1095.26 129.043 1100.25 129.043C1105.23 129.019 1109.28 124.807 1109.28 119.589Z" fill="white"/>
<path d="M1109.28 22.1757C1109.28 19.6953 1108.32 17.2618 1106.64 15.5068C1104.97 13.7518 1102.64 12.7456 1100.27 12.7456C1097.9 12.7456 1095.57 13.7518 1093.9 15.5068C1092.22 17.2618 1091.26 19.6953 1091.26 22.1757C1091.26 24.656 1092.22 27.0896 1093.9 28.8447C1095.57 30.5996 1097.9 31.6058 1100.27 31.6058C1102.64 31.6058 1104.97 30.5996 1106.64 28.8447C1108.32 27.0896 1109.28 24.656 1109.28 22.1757Z" fill="white"/>
<path d="M439.268 755.664C439.268 753.184 438.307 750.749 436.63 748.995C434.953 747.24 432.628 746.234 430.256 746.234C427.886 746.234 425.561 747.24 423.884 748.995C422.207 750.749 421.246 753.184 421.246 755.664C421.246 758.143 422.207 760.578 423.884 762.333C425.561 764.087 427.886 765.093 430.256 765.093C432.628 765.093 434.953 764.087 436.63 762.333C438.307 760.578 439.268 758.143 439.268 755.664Z" fill="white" fill-opacity="0.4"/>
<path d="M439.268 658.298L439.268 658.251C439.268 653.032 435.221 648.797 430.235 648.797C425.248 648.797 421.201 653.032 421.201 658.251L421.201 658.298C421.201 663.517 425.248 667.751 430.235 667.751C435.221 667.727 439.268 663.493 439.268 658.298Z" fill="white" fill-opacity="0.4"/>
<path d="M439.268 706.993L439.268 706.945C439.268 701.727 435.221 697.492 430.235 697.492C425.248 697.492 421.201 701.727 421.201 706.945L421.201 706.993C421.201 712.212 425.248 716.446 430.235 716.446C435.221 716.422 439.268 712.212 439.268 706.993Z" fill="white" fill-opacity="0.4"/>
<path d="M439.268 609.556C439.268 607.076 438.307 604.641 436.63 602.887C434.953 601.132 432.628 600.126 430.256 600.126C427.886 600.126 425.561 601.132 423.884 602.887C422.207 604.641 421.246 607.076 421.246 609.556C421.246 612.035 422.207 614.47 423.884 616.225C425.561 617.979 427.886 618.985 430.256 618.985C432.628 618.985 434.953 617.979 436.63 616.225C438.307 614.494 439.268 612.059 439.268 609.556Z" fill="white" fill-opacity="0.4"/>
<path d="M476.342 755.664C476.342 753.184 475.38 750.749 473.703 748.995C472.026 747.24 469.701 746.234 467.332 746.234C464.96 746.234 462.635 747.24 460.958 748.995C459.281 750.749 458.319 753.184 458.319 755.664C458.319 758.143 459.281 760.578 460.958 762.333C462.635 764.087 464.96 765.093 467.332 765.093C469.701 765.093 472.026 764.087 473.703 762.333C475.38 760.578 476.342 758.143 476.342 755.664Z" fill="white" fill-opacity="0.4"/>
<path d="M476.342 658.298L476.342 658.251C476.342 653.032 472.295 648.797 467.309 648.797C462.321 648.797 458.274 653.032 458.274 658.251L458.274 658.298C458.274 663.517 462.321 667.751 467.309 667.751C472.295 667.727 476.342 663.493 476.342 658.298Z" fill="white" fill-opacity="0.4"/>
<path d="M476.342 706.993L476.342 706.945C476.342 701.727 472.295 697.492 467.309 697.492C462.321 697.492 458.274 701.727 458.274 706.945L458.274 706.993C458.274 712.212 462.321 716.446 467.309 716.446C472.295 716.422 476.342 712.212 476.342 706.993Z" fill="white" fill-opacity="0.4"/>
<path d="M476.342 609.556C476.342 607.076 475.38 604.641 473.703 602.887C472.026 601.132 469.701 600.126 467.332 600.126C464.962 600.126 462.635 601.132 460.958 602.887C459.281 604.641 458.319 607.076 458.319 609.556C458.319 612.035 459.281 614.47 460.958 616.225C462.635 617.979 464.962 618.985 467.332 618.985C469.701 618.985 472.026 617.979 473.703 616.225C475.38 614.494 476.342 612.059 476.342 609.556Z" fill="white" fill-opacity="0.4"/>
<path d="M513.415 755.664C513.415 753.182 512.454 750.749 510.777 748.995C509.1 747.24 506.775 746.234 504.405 746.234C502.033 746.234 499.709 747.24 498.032 748.995C496.355 750.749 495.393 753.182 495.393 755.664C495.393 758.143 496.355 760.578 498.032 762.333C499.709 764.087 502.033 765.093 504.405 765.093C506.775 765.093 509.1 764.087 510.777 762.333C512.454 760.578 513.415 758.143 513.415 755.664Z" fill="white" fill-opacity="0.4"/>
<path d="M513.415 658.298L513.415 658.251C513.415 653.032 509.369 648.797 504.383 648.797C499.395 648.797 495.348 653.032 495.348 658.251L495.348 658.298C495.348 663.517 499.395 667.751 504.383 667.751C509.369 667.727 513.415 663.493 513.415 658.298Z" fill="white" fill-opacity="0.4"/>
<path d="M513.415 706.993L513.415 706.945C513.415 701.727 509.369 697.492 504.383 697.492C499.395 697.492 495.348 701.727 495.348 706.945L495.348 706.993C495.348 712.212 499.395 716.446 504.383 716.446C509.369 716.422 513.415 712.212 513.415 706.993Z" fill="white" fill-opacity="0.4"/>
<path d="M513.415 609.556C513.415 607.076 512.454 604.641 510.777 602.887C509.1 601.132 506.775 600.126 504.405 600.126C502.033 600.126 499.709 601.132 498.032 602.887C496.355 604.641 495.393 607.076 495.393 609.556C495.393 612.035 496.355 614.47 498.032 616.225C499.709 617.979 502.033 618.985 504.405 618.985C506.775 618.985 509.1 617.979 510.777 616.225C512.454 614.494 513.415 612.059 513.415 609.556Z" fill="white" fill-opacity="0.4"/>
<path d="M550.489 755.664C550.489 753.182 549.528 750.749 547.851 748.995C546.174 747.24 543.849 746.234 541.479 746.234C539.107 746.234 536.782 747.24 535.105 748.995C533.428 750.749 532.467 753.182 532.467 755.664C532.467 758.143 533.428 760.578 535.105 762.333C536.782 764.087 539.107 765.093 541.479 765.093C543.849 765.093 546.174 764.087 547.851 762.333C549.528 760.578 550.489 758.143 550.489 755.664Z" fill="white" fill-opacity="0.4"/>
<path d="M550.489 658.298L550.489 658.251C550.489 653.032 546.442 648.797 541.456 648.797C536.468 648.797 532.422 653.032 532.422 658.251L532.422 658.298C532.422 663.517 536.468 667.751 541.456 667.751C546.442 667.727 550.489 663.493 550.489 658.298Z" fill="white" fill-opacity="0.4"/>
<path d="M550.489 706.993L550.489 706.945C550.489 701.727 546.442 697.492 541.456 697.492C536.468 697.492 532.422 701.727 532.422 706.945L532.422 706.993C532.422 712.212 536.468 716.446 541.456 716.446C546.442 716.422 550.489 712.212 550.489 706.993Z" fill="white" fill-opacity="0.4"/>
<path d="M550.489 609.556C550.489 607.076 549.528 604.641 547.851 602.887C546.174 601.132 543.849 600.126 541.479 600.126C539.107 600.126 536.782 601.132 535.105 602.887C533.428 604.641 532.467 607.076 532.467 609.556C532.467 612.035 533.428 614.47 535.105 616.225C536.782 617.979 539.107 618.985 541.479 618.985C543.849 618.985 546.174 617.979 547.851 616.225C549.528 614.494 550.489 612.059 550.489 609.556Z" fill="white" fill-opacity="0.4"/>
</g>
</g>
<defs>
<clipPath id="clip0_1006_47">
<rect width="1733.2" height="1117.29" fill="white" transform="translate(1117.44 0.0864258) rotate(90)"/>
</clipPath>
</defs>
</svg>
