<svg width="136" height="136" viewBox="0 0 136 136" fill="none" xmlns="http://www.w3.org/2000/svg">
<g filter="url(#filter0_d_2003_1711)">
<rect x="32" y="20" width="72" height="72" rx="20" fill="url(#paint0_linear_2003_1711)" shape-rendering="crispEdges"/>
<path opacity="0.2" d="M77.9826 55.3974L80.0801 52.7724C79.7972 51.7089 79.3739 50.6879 78.8214 49.7362L75.4839 49.3612C75.2172 49.0608 74.933 48.7765 74.6326 48.5099L74.2576 45.1712C73.3049 44.622 72.2834 44.2016 71.2201 43.9212L68.5951 46.0174C68.1938 45.9937 67.7914 45.9937 67.3901 46.0174L64.7651 43.9199C63.7051 44.2037 62.6874 44.627 61.7389 45.1787L61.3639 48.5162C61.0635 48.7828 60.7792 49.067 60.5126 49.3674L57.1739 49.7424C56.6246 50.6952 56.2043 51.7166 55.9239 52.7799L58.0201 55.4049C57.9964 55.8062 57.9964 56.2086 58.0201 56.6099L55.9226 59.2349C56.2055 60.2984 56.6288 61.3195 57.1814 62.2712L60.5189 62.6462C60.7855 62.9466 61.0697 63.2308 61.3701 63.4974L61.7451 66.8362C62.6978 67.3854 63.7193 67.8057 64.7826 68.0862L67.4076 65.9899C67.8089 66.0137 68.2113 66.0137 68.6126 65.9899L71.2376 68.0874C72.3011 67.8045 73.3222 67.3812 74.2739 66.8287L74.6489 63.4912C74.9492 63.2246 75.2335 62.9403 75.5001 62.6399L78.8389 62.2649C79.3881 61.3122 79.8084 60.2908 80.0889 59.2274L77.9926 56.6024C78.013 56.2009 78.0097 55.7985 77.9826 55.3974ZM68.0001 60.9999C67.0112 60.9999 66.0445 60.7067 65.2223 60.1573C64.4 59.6079 63.7591 58.827 63.3807 57.9133C63.0023 56.9997 62.9033 55.9944 63.0962 55.0245C63.2891 54.0546 63.7653 53.1637 64.4646 52.4644C65.1638 51.7651 66.0548 51.2889 67.0247 51.096C67.9946 50.9031 68.9999 51.0021 69.9135 51.3805C70.8272 51.759 71.608 52.3998 72.1575 53.2221C72.7069 54.0443 73.0001 55.011 73.0001 55.9999C73.0001 57.326 72.4733 58.5978 71.5356 59.5355C70.598 60.4731 69.3262 60.9999 68.0001 60.9999Z" fill="white"/>
<path d="M68.0001 50.0001C66.8134 50.0001 65.6533 50.352 64.6666 51.0112C63.6799 51.6705 62.9109 52.6076 62.4568 53.704C62.0027 54.8003 61.8838 56.0067 62.1153 57.1706C62.3469 58.3345 62.9183 59.4036 63.7574 60.2427C64.5965 61.0818 65.6656 61.6533 66.8295 61.8848C67.9934 62.1163 69.1998 61.9975 70.2962 61.5433C71.3925 61.0892 72.3296 60.3202 72.9889 59.3335C73.6482 58.3468 74.0001 57.1867 74.0001 56.0001C73.9984 54.4093 73.3657 52.8841 72.2409 51.7592C71.116 50.6344 69.5908 50.0017 68.0001 50.0001ZM68.0001 60.0001C67.2089 60.0001 66.4356 59.7655 65.7778 59.3259C65.12 58.8864 64.6073 58.2617 64.3045 57.5308C64.0018 56.7999 63.9226 55.9956 64.0769 55.2197C64.2313 54.4438 64.6122 53.731 65.1716 53.1716C65.731 52.6122 66.4438 52.2313 67.2197 52.0769C67.9956 51.9226 68.7999 52.0018 69.5308 52.3045C70.2617 52.6073 70.8864 53.12 71.3259 53.7778C71.7655 54.4356 72.0001 55.2089 72.0001 56.0001C72.0001 57.0609 71.5786 58.0783 70.8285 58.8285C70.0783 59.5786 69.0609 60.0001 68.0001 60.0001ZM79.0001 56.2701C79.0051 56.0901 79.0051 55.9101 79.0001 55.7301L80.8651 53.4001C80.9628 53.2777 81.0305 53.1341 81.0627 52.9808C81.0948 52.8276 81.0905 52.6689 81.0501 52.5176C80.7438 51.3685 80.2865 50.2651 79.6901 49.2363C79.6119 49.1017 79.5034 48.9872 79.3732 48.9019C79.243 48.8166 79.0947 48.7629 78.9401 48.7451L75.9751 48.4151C75.8517 48.2851 75.7267 48.1601 75.6001 48.0401L75.2501 45.0676C75.2321 44.9128 75.1782 44.7644 75.0926 44.6342C75.0071 44.504 74.8924 44.3956 74.7576 44.3176C73.7288 43.7216 72.6254 43.2651 71.4763 42.9601C71.325 42.9196 71.1663 42.9153 71.013 42.9474C70.8597 42.9796 70.7161 43.0473 70.5938 43.1451L68.2701 45.0001C68.0901 45.0001 67.9101 45.0001 67.7301 45.0001L65.4001 43.1388C65.2777 43.041 65.1341 42.9733 64.9808 42.9412C64.8276 42.9091 64.6689 42.9134 64.5176 42.9538C63.3685 43.2601 62.2651 43.7174 61.2363 44.3138C61.1017 44.392 60.9872 44.5005 60.9019 44.6307C60.8166 44.7609 60.7629 44.9092 60.7451 45.0638L60.4151 48.0338C60.2851 48.158 60.1601 48.283 60.0401 48.4088L57.0676 48.7501C56.9128 48.7681 56.7644 48.822 56.6342 48.9075C56.504 48.993 56.3956 49.1077 56.3176 49.2426C55.7217 50.2715 55.2648 51.3749 54.9588 52.5238C54.9186 52.6752 54.9144 52.834 54.9468 52.9872C54.9791 53.1405 55.0471 53.2841 55.1451 53.4063L57.0001 55.7301C57.0001 55.9101 57.0001 56.0901 57.0001 56.2701L55.1388 58.6001C55.041 58.7224 54.9733 58.866 54.9412 59.0193C54.9091 59.1726 54.9134 59.3312 54.9538 59.4826C55.2601 60.6316 55.7174 61.735 56.3138 62.7638C56.392 62.8984 56.5005 63.0129 56.6307 63.0982C56.7609 63.1835 56.9092 63.2372 57.0638 63.2551L60.0288 63.5851C60.153 63.7151 60.278 63.8401 60.4038 63.9601L60.7501 66.9326C60.7681 67.0873 60.822 67.2357 60.9075 67.3659C60.993 67.4961 61.1077 67.6045 61.2426 67.6826C62.2715 68.2784 63.3749 68.7353 64.5238 69.0413C64.6752 69.0816 64.834 69.0857 64.9872 69.0533C65.1405 69.021 65.2841 68.9531 65.4063 68.8551L67.7301 67.0001C67.9101 67.0051 68.0901 67.0051 68.2701 67.0001L70.6001 68.8651C70.7224 68.9628 70.866 69.0305 71.0193 69.0627C71.1726 69.0948 71.3312 69.0905 71.4826 69.0501C72.6318 68.7443 73.7352 68.287 74.7638 67.6901C74.8984 67.6119 75.0129 67.5034 75.0982 67.3732C75.1835 67.243 75.2372 67.0947 75.2551 66.9401L75.5851 63.9751C75.7151 63.8517 75.8401 63.7267 75.9601 63.6001L78.9326 63.2501C79.0873 63.2321 79.2357 63.1782 79.3659 63.0926C79.4961 63.0071 79.6045 62.8924 79.6826 62.7576C80.2784 61.7286 80.7353 60.6253 81.0413 59.4763C81.0816 59.3249 81.0857 59.1662 81.0533 59.0129C81.021 58.8596 80.9531 58.716 80.8551 58.5938L79.0001 56.2701ZM76.9876 55.4576C77.0088 55.8189 77.0088 56.1812 76.9876 56.5426C76.9727 56.79 77.0502 57.0341 77.2051 57.2276L78.9788 59.4438C78.7753 60.0906 78.5147 60.7181 78.2001 61.3188L75.3751 61.6388C75.129 61.6661 74.9019 61.7837 74.7376 61.9688C74.4969 62.2394 74.2407 62.4957 73.9701 62.7363C73.7849 62.9006 73.6674 63.1278 73.6401 63.3738L73.3263 66.1963C72.7257 66.5111 72.0982 66.7717 71.4513 66.9751L69.2338 65.2013C69.0564 65.0595 68.8359 64.9824 68.6088 64.9826H68.5488C68.1875 65.0038 67.8252 65.0038 67.4638 64.9826C67.2165 64.9684 66.9726 65.0458 66.7788 65.2001L64.5563 66.9751C63.9095 66.7715 63.282 66.5109 62.6813 66.1963L62.3613 63.3751C62.334 63.129 62.2164 62.9019 62.0313 62.7376C61.7607 62.4969 61.5044 62.2407 61.2638 61.9701C61.0995 61.7849 60.8723 61.6674 60.6263 61.6401L57.8038 61.3251C57.489 60.7244 57.2284 60.0969 57.0251 59.4501L58.7988 57.2326C58.9537 57.0391 59.0312 56.795 59.0163 56.5476C58.9951 56.1862 58.9951 55.8239 59.0163 55.4626C59.0312 55.2152 58.9537 54.971 58.7988 54.7776L57.0251 52.5563C57.2286 51.9095 57.4892 51.282 57.8038 50.6813L60.6251 50.3613C60.8711 50.334 61.0982 50.2164 61.2626 50.0313C61.5032 49.7607 61.7594 49.5044 62.0301 49.2638C62.2159 49.0994 62.334 48.8717 62.3613 48.6251L62.6751 45.8038C63.2757 45.489 63.9032 45.2284 64.5501 45.0251L66.7676 46.7988C66.961 46.9537 67.2052 47.0312 67.4526 47.0163C67.8139 46.9951 68.1762 46.9951 68.5376 47.0163C68.7849 47.0305 69.0287 46.9531 69.2226 46.7988L71.4438 45.0251C72.0906 45.2286 72.7181 45.4892 73.3188 45.8038L73.6388 48.6251C73.6661 48.8711 73.7837 49.0982 73.9688 49.2626C74.2394 49.5032 74.4957 49.7594 74.7363 50.0301C74.9006 50.2152 75.1278 50.3327 75.3738 50.3601L78.1963 50.6738C78.5111 51.2744 78.7717 51.9019 78.9751 52.5488L77.2013 54.7663C77.0449 54.9614 76.9673 55.2081 76.9838 55.4576H76.9876Z" fill="white"/>
</g>
<defs>
<filter id="filter0_d_2003_1711" x="0" y="0" width="136" height="136" filterUnits="userSpaceOnUse" color-interpolation-filters="sRGB">
<feFlood flood-opacity="0" result="BackgroundImageFix"/>
<feColorMatrix in="SourceAlpha" type="matrix" values="0 0 0 0 0 0 0 0 0 0 0 0 0 0 0 0 0 0 127 0" result="hardAlpha"/>
<feOffset dy="12"/>
<feGaussianBlur stdDeviation="16"/>
<feComposite in2="hardAlpha" operator="out"/>
<feColorMatrix type="matrix" values="0 0 0 0 0.0392157 0 0 0 0 0.545098 0 0 0 0 0.545098 0 0 0 0.35 0"/>
<feBlend mode="normal" in2="BackgroundImageFix" result="effect1_dropShadow_2003_1711"/>
<feBlend mode="normal" in="SourceGraphic" in2="effect1_dropShadow_2003_1711" result="shape"/>
</filter>
<linearGradient id="paint0_linear_2003_1711" x1="32" y1="20" x2="104" y2="92" gradientUnits="userSpaceOnUse">
<stop stop-color="#0A8B8B"/>
<stop offset="1" stop-color="#1AB4B4"/>
</linearGradient>
</defs>
</svg>
