<svg width="88" height="88" viewBox="0 0 88 88" fill="none" xmlns="http://www.w3.org/2000/svg">
<g filter="url(#filter0_d_2003_1939)">
<rect x="20" y="14" width="48" height="48" rx="12" fill="url(#paint0_linear_2003_1939)" shape-rendering="crispEdges"/>
<path opacity="0.2" d="M44.75 36.125C44.75 37.0892 44.4641 38.0317 43.9284 38.8334C43.3927 39.6351 42.6314 40.2599 41.7406 40.6289C40.8498 40.9979 39.8696 41.0944 38.9239 40.9063C37.9783 40.7182 37.1096 40.2539 36.4279 39.5721C35.7461 38.8904 35.2818 38.0217 35.0937 37.0761C34.9056 36.1304 35.0021 35.1502 35.3711 34.2594C35.7401 33.3686 36.3649 32.6073 37.1666 32.0716C37.9683 31.5359 38.9108 31.25 39.875 31.25C41.1679 31.25 42.4079 31.7636 43.3221 32.6779C44.2364 33.5921 44.75 34.8321 44.75 36.125Z" fill="white"/>
<path d="M42.9922 40.8053C43.9974 40.1361 44.7606 39.1612 45.1688 38.0248C45.5771 36.8883 45.6088 35.6506 45.2592 34.4947C44.9096 33.3389 44.1974 32.3262 43.2278 31.6064C42.2581 30.8867 41.0826 30.498 39.875 30.498C38.6675 30.498 37.492 30.8867 36.5223 31.6064C35.5527 32.3262 34.8404 33.3389 34.4909 34.4947C34.1413 35.6506 34.173 36.8883 34.5813 38.0248C34.9895 39.1612 35.7527 40.1361 36.7579 40.8053C34.9396 41.4755 33.3867 42.7156 32.331 44.3406C32.2755 44.4231 32.237 44.5158 32.2176 44.6133C32.1982 44.7108 32.1985 44.8111 32.2182 44.9085C32.238 45.0059 32.277 45.0984 32.3328 45.1807C32.3886 45.2629 32.4603 45.3332 32.5435 45.3875C32.6268 45.4418 32.72 45.479 32.8177 45.497C32.9155 45.5149 33.0159 45.5133 33.113 45.4921C33.2101 45.4709 33.302 45.4307 33.3834 45.3737C33.4649 45.3167 33.5341 45.244 33.5872 45.16C34.2682 44.1126 35.2001 43.2519 36.2981 42.6561C37.3962 42.0603 38.6257 41.7482 39.875 41.7482C41.1244 41.7482 42.3539 42.0603 43.452 42.6561C44.55 43.2519 45.4819 44.1126 46.1629 45.16C46.2729 45.3235 46.4428 45.4371 46.6359 45.4763C46.829 45.5156 47.0298 45.4772 47.1949 45.3695C47.3599 45.2619 47.476 45.0936 47.5179 44.9011C47.5599 44.7085 47.5244 44.5072 47.4191 44.3406C46.3634 42.7156 44.8105 41.4755 42.9922 40.8053ZM35.75 36.1253C35.75 35.3095 35.992 34.512 36.4452 33.8336C36.8985 33.1552 37.5427 32.6265 38.2965 32.3143C39.0502 32.0021 39.8796 31.9204 40.6798 32.0796C41.48 32.2388 42.215 32.6316 42.7919 33.2085C43.3688 33.7854 43.7616 34.5204 43.9208 35.3206C44.0799 36.1208 43.9983 36.9502 43.686 37.7039C43.3738 38.4576 42.8451 39.1019 42.1668 39.5551C41.4884 40.0084 40.6909 40.2503 39.875 40.2503C38.7814 40.2491 37.7329 39.8141 36.9596 39.0408C36.1863 38.2675 35.7513 37.219 35.75 36.1253ZM55.4507 45.3785C55.2841 45.4871 55.0812 45.5251 54.8865 45.4841C54.6919 45.4432 54.5215 45.3266 54.4129 45.16C53.7327 44.112 52.801 43.2509 51.7027 42.6554C50.6044 42.0598 49.3744 41.7487 48.125 41.7503C47.9261 41.7503 47.7354 41.6713 47.5947 41.5307C47.4541 41.39 47.375 41.1992 47.375 41.0003C47.375 40.8014 47.4541 40.6107 47.5947 40.47C47.7354 40.3293 47.9261 40.2503 48.125 40.2503C48.7325 40.2498 49.3324 40.115 49.8817 39.8557C50.4311 39.5965 50.9164 39.2191 51.303 38.7505C51.6896 38.2819 51.9679 37.7337 52.1181 37.1451C52.2683 36.5565 52.2866 35.942 52.1718 35.3455C52.0569 34.749 51.8117 34.1852 51.4537 33.6944C51.0958 33.2036 50.6338 32.798 50.1008 32.5064C49.5679 32.2149 48.9771 32.0447 48.3708 32.0079C47.7644 31.9711 47.1574 32.0687 46.5932 32.2938C46.5012 32.3335 46.4021 32.3545 46.3019 32.3553C46.2017 32.3562 46.1023 32.3369 46.0096 32.2987C45.917 32.2605 45.8329 32.2041 45.7624 32.1328C45.6919 32.0616 45.6364 31.9769 45.5992 31.8839C45.562 31.7908 45.5438 31.6912 45.5457 31.591C45.5476 31.4908 45.5696 31.392 45.6103 31.3004C45.6511 31.2089 45.7098 31.1264 45.7829 31.0579C45.8561 30.9894 45.9422 30.9362 46.0363 30.9016C47.3277 30.3866 48.764 30.368 50.0682 30.8496C51.3725 31.3311 52.4522 32.2785 53.099 33.5092C53.7459 34.7398 53.9141 36.1664 53.5713 37.5137C53.2284 38.861 52.3987 40.0336 51.2422 40.8053C53.0605 41.4755 54.6134 42.7156 55.6691 44.3406C55.7777 44.5072 55.8158 44.7102 55.7748 44.9048C55.7338 45.0994 55.6172 45.2698 55.4507 45.3785Z" fill="white"/>
</g>
<defs>
<filter id="filter0_d_2003_1939" x="0" y="0" width="88" height="88" filterUnits="userSpaceOnUse" color-interpolation-filters="sRGB">
<feFlood flood-opacity="0" result="BackgroundImageFix"/>
<feColorMatrix in="SourceAlpha" type="matrix" values="0 0 0 0 0 0 0 0 0 0 0 0 0 0 0 0 0 0 127 0" result="hardAlpha"/>
<feOffset dy="6"/>
<feGaussianBlur stdDeviation="10"/>
<feComposite in2="hardAlpha" operator="out"/>
<feColorMatrix type="matrix" values="0 0 0 0 0.0392157 0 0 0 0 0.545098 0 0 0 0 0.545098 0 0 0 0.3 0"/>
<feBlend mode="normal" in2="BackgroundImageFix" result="effect1_dropShadow_2003_1939"/>
<feBlend mode="normal" in="SourceGraphic" in2="effect1_dropShadow_2003_1939" result="shape"/>
</filter>
<linearGradient id="paint0_linear_2003_1939" x1="20" y1="14" x2="68" y2="62" gradientUnits="userSpaceOnUse">
<stop stop-color="#0A8B8B"/>
<stop offset="1" stop-color="#1AB4B4"/>
</linearGradient>
</defs>
</svg>
