<svg width="88" height="88" viewBox="0 0 88 88" fill="none" xmlns="http://www.w3.org/2000/svg">
<g filter="url(#filter0_d_2003_1985)">
<rect x="20" y="14" width="48" height="48" rx="12" fill="url(#paint0_linear_2003_1985)" shape-rendering="crispEdges"/>
<path opacity="0.2" d="M52.25 30.5H35.75C35.5511 30.5 35.3603 30.579 35.2197 30.7197C35.079 30.8603 35 31.0511 35 31.25V44.75C35 44.9489 35.079 45.1397 35.2197 45.2803C35.3603 45.421 35.5511 45.5 35.75 45.5H52.25C52.4489 45.5 52.6397 45.421 52.7803 45.2803C52.921 45.1397 53 44.9489 53 44.75V31.25C53 31.0511 52.921 30.8603 52.7803 30.7197C52.6397 30.579 52.4489 30.5 52.25 30.5ZM41 39.5C40.555 39.5 40.12 39.368 39.75 39.1208C39.38 38.8736 39.0916 38.5222 38.9213 38.111C38.751 37.6999 38.7064 37.2475 38.7932 36.811C38.88 36.3746 39.0943 35.9737 39.409 35.659C39.7237 35.3443 40.1246 35.13 40.561 35.0432C40.9975 34.9564 41.4499 35.001 41.861 35.1713C42.2722 35.3416 42.6236 35.63 42.8708 36C43.118 36.37 43.25 36.805 43.25 37.25C43.25 37.8467 43.0129 38.419 42.591 38.841C42.169 39.2629 41.5967 39.5 41 39.5Z" fill="white"/>
<path d="M50.75 36.5C50.75 36.6989 50.671 36.8897 50.5303 37.0303C50.3897 37.171 50.1989 37.25 50 37.25H46.25C46.0511 37.25 45.8603 37.171 45.7197 37.0303C45.579 36.8897 45.5 36.6989 45.5 36.5C45.5 36.3011 45.579 36.1103 45.7197 35.9697C45.8603 35.829 46.0511 35.75 46.25 35.75H50C50.1989 35.75 50.3897 35.829 50.5303 35.9697C50.671 36.1103 50.75 36.3011 50.75 36.5ZM50 38.75H46.25C46.0511 38.75 45.8603 38.829 45.7197 38.9697C45.579 39.1103 45.5 39.3011 45.5 39.5C45.5 39.6989 45.579 39.8897 45.7197 40.0303C45.8603 40.171 46.0511 40.25 46.25 40.25H50C50.1989 40.25 50.3897 40.171 50.5303 40.0303C50.671 39.8897 50.75 39.6989 50.75 39.5C50.75 39.3011 50.671 39.1103 50.5303 38.9697C50.3897 38.829 50.1989 38.75 50 38.75ZM53.75 31.25V44.75C53.75 45.1478 53.592 45.5294 53.3107 45.8107C53.0294 46.092 52.6478 46.25 52.25 46.25H35.75C35.3522 46.25 34.9706 46.092 34.6893 45.8107C34.408 45.5294 34.25 45.1478 34.25 44.75V31.25C34.25 30.8522 34.408 30.4706 34.6893 30.1893C34.9706 29.908 35.3522 29.75 35.75 29.75H52.25C52.6478 29.75 53.0294 29.908 53.3107 30.1893C53.592 30.4706 53.75 30.8522 53.75 31.25ZM52.25 44.75V31.25H35.75V44.75H52.25ZM44.7256 41.5625C44.7754 41.7552 44.7465 41.9598 44.6454 42.1312C44.5443 42.3026 44.3793 42.4268 44.1866 42.4766C43.9939 42.5263 43.7893 42.4974 43.6179 42.3963C43.4465 42.2952 43.3222 42.1302 43.2725 41.9375C43.0259 40.9756 42.0481 40.25 40.9991 40.25C39.95 40.25 38.9731 40.9756 38.7256 41.9375C38.6759 42.1302 38.5517 42.2952 38.3802 42.3963C38.2088 42.4974 38.0043 42.5263 37.8116 42.4766C37.6189 42.4268 37.4538 42.3026 37.3527 42.1312C37.2516 41.9598 37.2228 41.7552 37.2725 41.5625C37.5159 40.6566 38.0912 39.8755 38.8841 39.3744C38.4627 38.9555 38.1752 38.421 38.058 37.8386C37.9408 37.2562 37.9992 36.652 38.2257 36.1028C38.4523 35.5536 38.8368 35.084 39.3305 34.7536C39.8242 34.4232 40.405 34.2468 40.9991 34.2468C41.5932 34.2468 42.1739 34.4232 42.6676 34.7536C43.1614 35.084 43.5459 35.5536 43.7724 36.1028C43.9989 36.652 44.0573 37.2562 43.9401 37.8386C43.8229 38.421 43.5354 38.9555 43.1141 39.3744C43.9078 39.8748 44.4836 40.6562 44.7266 41.5625H44.7256ZM41 38.75C41.2967 38.75 41.5867 38.662 41.8334 38.4972C42.08 38.3324 42.2723 38.0981 42.3858 37.824C42.4994 37.5499 42.5291 37.2483 42.4712 36.9574C42.4133 36.6664 42.2704 36.3991 42.0607 36.1893C41.8509 35.9796 41.5836 35.8367 41.2926 35.7788C41.0017 35.7209 40.7001 35.7506 40.426 35.8642C40.1519 35.9777 39.9176 36.17 39.7528 36.4166C39.588 36.6633 39.5 36.9533 39.5 37.25C39.5 37.6478 39.658 38.0294 39.9393 38.3107C40.2206 38.592 40.6022 38.75 41 38.75Z" fill="white"/>
</g>
<defs>
<filter id="filter0_d_2003_1985" x="0" y="0" width="88" height="88" filterUnits="userSpaceOnUse" color-interpolation-filters="sRGB">
<feFlood flood-opacity="0" result="BackgroundImageFix"/>
<feColorMatrix in="SourceAlpha" type="matrix" values="0 0 0 0 0 0 0 0 0 0 0 0 0 0 0 0 0 0 127 0" result="hardAlpha"/>
<feOffset dy="6"/>
<feGaussianBlur stdDeviation="10"/>
<feComposite in2="hardAlpha" operator="out"/>
<feColorMatrix type="matrix" values="0 0 0 0 0.0392157 0 0 0 0 0.545098 0 0 0 0 0.545098 0 0 0 0.3 0"/>
<feBlend mode="normal" in2="BackgroundImageFix" result="effect1_dropShadow_2003_1985"/>
<feBlend mode="normal" in="SourceGraphic" in2="effect1_dropShadow_2003_1985" result="shape"/>
</filter>
<linearGradient id="paint0_linear_2003_1985" x1="20" y1="14" x2="68" y2="62" gradientUnits="userSpaceOnUse">
<stop stop-color="#EC4899"/>
<stop offset="1" stop-color="#F472B6"/>
</linearGradient>
</defs>
</svg>
