<svg width="88" height="88" viewBox="0 0 88 88" fill="none" xmlns="http://www.w3.org/2000/svg">
<g filter="url(#filter0_d_2003_2008)">
<rect x="20" y="14" width="48" height="48" rx="12" fill="url(#paint0_linear_2003_2008)" shape-rendering="crispEdges"/>
<path opacity="0.2" d="M49.25 42.5H53V44.75C53 44.9489 52.921 45.1397 52.7803 45.2803C52.6397 45.421 52.4489 45.5 52.25 45.5H50C49.8011 45.5 49.6103 45.421 49.4697 45.2803C49.329 45.1397 49.25 44.9489 49.25 44.75V42.5ZM35 44.75C35 44.9489 35.079 45.1397 35.2197 45.2803C35.3603 45.421 35.5511 45.5 35.75 45.5H38C38.1989 45.5 38.3897 45.421 38.5303 45.2803C38.671 45.1397 38.75 44.9489 38.75 44.75V42.5H35V44.75ZM50.1978 30.1953C50.1389 30.0628 50.0428 29.9501 49.9211 29.8711C49.7995 29.7921 49.6576 29.75 49.5125 29.75H38.4875C38.3424 29.75 38.2005 29.7921 38.0789 29.8711C37.9572 29.9501 37.8611 30.0628 37.8022 30.1953L35 36.5H53L50.1978 30.1953Z" fill="white"/>
<path d="M54.5 35.75H53.4875L50.8831 29.8906C50.7653 29.6255 50.5731 29.4003 50.3298 29.2422C50.0865 29.0841 49.8026 29 49.5125 29H38.4875C38.1974 29 37.9135 29.0841 37.6702 29.2422C37.4269 29.4003 37.2347 29.6255 37.1169 29.8906L34.5125 35.75H33.5C33.3011 35.75 33.1103 35.829 32.9697 35.9697C32.829 36.1103 32.75 36.3011 32.75 36.5C32.75 36.6989 32.829 36.8897 32.9697 37.0303C33.1103 37.171 33.3011 37.25 33.5 37.25H34.25V44.75C34.25 45.1478 34.408 45.5294 34.6893 45.8107C34.9706 46.092 35.3522 46.25 35.75 46.25H38C38.3978 46.25 38.7794 46.092 39.0607 45.8107C39.342 45.5294 39.5 45.1478 39.5 44.75V43.25H48.5V44.75C48.5 45.1478 48.658 45.5294 48.9393 45.8107C49.2206 46.092 49.6022 46.25 50 46.25H52.25C52.6478 46.25 53.0294 46.092 53.3107 45.8107C53.592 45.5294 53.75 45.1478 53.75 44.75V37.25H54.5C54.6989 37.25 54.8897 37.171 55.0303 37.0303C55.171 36.8897 55.25 36.6989 55.25 36.5C55.25 36.3011 55.171 36.1103 55.0303 35.9697C54.8897 35.829 54.6989 35.75 54.5 35.75ZM38.4875 30.5H49.5125L51.8459 35.75H36.1541L38.4875 30.5ZM38 44.75H35.75V43.25H38V44.75ZM50 44.75V43.25H52.25V44.75H50ZM52.25 41.75H35.75V37.25H52.25V41.75ZM37.25 39.5C37.25 39.3011 37.329 39.1103 37.4697 38.9697C37.6103 38.829 37.8011 38.75 38 38.75H39.5C39.6989 38.75 39.8897 38.829 40.0303 38.9697C40.171 39.1103 40.25 39.3011 40.25 39.5C40.25 39.6989 40.171 39.8897 40.0303 40.0303C39.8897 40.171 39.6989 40.25 39.5 40.25H38C37.8011 40.25 37.6103 40.171 37.4697 40.0303C37.329 39.8897 37.25 39.6989 37.25 39.5ZM47.75 39.5C47.75 39.3011 47.829 39.1103 47.9697 38.9697C48.1103 38.829 48.3011 38.75 48.5 38.75H50C50.1989 38.75 50.3897 38.829 50.5303 38.9697C50.671 39.1103 50.75 39.3011 50.75 39.5C50.75 39.6989 50.671 39.8897 50.5303 40.0303C50.3897 40.171 50.1989 40.25 50 40.25H48.5C48.3011 40.25 48.1103 40.171 47.9697 40.0303C47.829 39.8897 47.75 39.6989 47.75 39.5Z" fill="white"/>
</g>
<defs>
<filter id="filter0_d_2003_2008" x="0" y="0" width="88" height="88" filterUnits="userSpaceOnUse" color-interpolation-filters="sRGB">
<feFlood flood-opacity="0" result="BackgroundImageFix"/>
<feColorMatrix in="SourceAlpha" type="matrix" values="0 0 0 0 0 0 0 0 0 0 0 0 0 0 0 0 0 0 127 0" result="hardAlpha"/>
<feOffset dy="6"/>
<feGaussianBlur stdDeviation="10"/>
<feComposite in2="hardAlpha" operator="out"/>
<feColorMatrix type="matrix" values="0 0 0 0 0.0392157 0 0 0 0 0.545098 0 0 0 0 0.545098 0 0 0 0.3 0"/>
<feBlend mode="normal" in2="BackgroundImageFix" result="effect1_dropShadow_2003_2008"/>
<feBlend mode="normal" in="SourceGraphic" in2="effect1_dropShadow_2003_2008" result="shape"/>
</filter>
<linearGradient id="paint0_linear_2003_2008" x1="20" y1="14" x2="68" y2="62" gradientUnits="userSpaceOnUse">
<stop stop-color="#F59E0B"/>
<stop offset="1" stop-color="#FBBF24"/>
</linearGradient>
</defs>
</svg>
