<svg width="88" height="88" viewBox="0 0 88 88" fill="none" xmlns="http://www.w3.org/2000/svg">
<g filter="url(#filter0_d_2003_2031)">
<rect x="20" y="14" width="48" height="48" rx="12" fill="url(#paint0_linear_2003_2031)" shape-rendering="crispEdges"/>
<path opacity="0.2" d="M39.5 39.5V43.25C39.5 43.6478 39.342 44.0294 39.0607 44.3107C38.7794 44.592 38.3978 44.75 38 44.75H36.5C36.1022 44.75 35.7206 44.592 35.4393 44.3107C35.158 44.0294 35 43.6478 35 43.25V38H38C38.3978 38 38.7794 38.158 39.0607 38.4393C39.342 38.7206 39.5 39.1022 39.5 39.5ZM50 38C49.6022 38 49.2206 38.158 48.9393 38.4393C48.658 38.7206 48.5 39.1022 48.5 39.5V43.25C48.5 43.6478 48.658 44.0294 48.9393 44.3107C49.2206 44.592 49.6022 44.75 50 44.75H53V38H50Z" fill="white"/>
<path d="M50.9272 31.1242C49.5651 29.7541 47.8269 28.8192 45.933 28.438C44.039 28.0567 42.0745 28.2463 40.2884 28.9827C38.5023 29.7191 36.975 30.9691 35.9 32.5743C34.825 34.1796 34.2508 36.0678 34.25 37.9998V43.2498C34.25 43.8465 34.4871 44.4188 34.909 44.8408C35.331 45.2627 35.9033 45.4998 36.5 45.4998H38C38.5967 45.4998 39.169 45.2627 39.591 44.8408C40.0129 44.4188 40.25 43.8465 40.25 43.2498V39.4998C40.25 38.903 40.0129 38.3307 39.591 37.9088C39.169 37.4868 38.5967 37.2498 38 37.2498H35.7838C35.9284 35.686 36.5158 34.1958 37.4771 32.9539C38.4384 31.712 39.7338 30.7698 41.2114 30.2378C42.689 29.7058 44.2877 29.606 45.82 29.9501C47.3524 30.2942 48.7548 31.068 49.8631 32.1807C51.2177 33.5423 52.0509 35.3364 52.2172 37.2498H50C49.4033 37.2498 48.831 37.4868 48.409 37.9088C47.9871 38.3307 47.75 38.903 47.75 39.4998V43.2498C47.75 43.8465 47.9871 44.4188 48.409 44.8408C48.831 45.2627 49.4033 45.4998 50 45.4998H52.25C52.25 46.0965 52.0129 46.6688 51.591 47.0908C51.169 47.5127 50.5967 47.7498 50 47.7498H44.75C44.5511 47.7498 44.3603 47.8288 44.2197 47.9695C44.079 48.1101 44 48.3009 44 48.4998C44 48.6987 44.079 48.8895 44.2197 49.0301C44.3603 49.1708 44.5511 49.2498 44.75 49.2498H50C50.9946 49.2498 51.9484 48.8547 52.6517 48.1514C53.3549 47.4482 53.75 46.4943 53.75 45.4998V37.9998C53.7549 36.7244 53.5081 35.4606 53.0237 34.2807C52.5393 33.1009 51.8268 32.0282 50.9272 31.1242ZM38 38.7498C38.1989 38.7498 38.3897 38.8288 38.5303 38.9695C38.671 39.1101 38.75 39.3009 38.75 39.4998V43.2498C38.75 43.4487 38.671 43.6395 38.5303 43.7801C38.3897 43.9208 38.1989 43.9998 38 43.9998H36.5C36.3011 43.9998 36.1103 43.9208 35.9697 43.7801C35.829 43.6395 35.75 43.4487 35.75 43.2498V38.7498H38ZM50 43.9998C49.8011 43.9998 49.6103 43.9208 49.4697 43.7801C49.329 43.6395 49.25 43.4487 49.25 43.2498V39.4998C49.25 39.3009 49.329 39.1101 49.4697 38.9695C49.6103 38.8288 49.8011 38.7498 50 38.7498H52.25V43.9998H50Z" fill="white"/>
</g>
<defs>
<filter id="filter0_d_2003_2031" x="0" y="0" width="88" height="88" filterUnits="userSpaceOnUse" color-interpolation-filters="sRGB">
<feFlood flood-opacity="0" result="BackgroundImageFix"/>
<feColorMatrix in="SourceAlpha" type="matrix" values="0 0 0 0 0 0 0 0 0 0 0 0 0 0 0 0 0 0 127 0" result="hardAlpha"/>
<feOffset dy="6"/>
<feGaussianBlur stdDeviation="10"/>
<feComposite in2="hardAlpha" operator="out"/>
<feColorMatrix type="matrix" values="0 0 0 0 0.0392157 0 0 0 0 0.545098 0 0 0 0 0.545098 0 0 0 0.3 0"/>
<feBlend mode="normal" in2="BackgroundImageFix" result="effect1_dropShadow_2003_2031"/>
<feBlend mode="normal" in="SourceGraphic" in2="effect1_dropShadow_2003_2031" result="shape"/>
</filter>
<linearGradient id="paint0_linear_2003_2031" x1="20" y1="14" x2="68" y2="62" gradientUnits="userSpaceOnUse">
<stop stop-color="#10B981"/>
<stop offset="1" stop-color="#34D399"/>
</linearGradient>
</defs>
</svg>
