<svg width="88" height="88" viewBox="0 0 88 88" fill="none" xmlns="http://www.w3.org/2000/svg">
<g filter="url(#filter0_d_2003_2054)">
<rect x="20" y="14" width="48" height="48" rx="12" fill="url(#paint0_linear_2003_2054)" shape-rendering="crispEdges"/>
<path opacity="0.2" d="M53 32L51.86 38.2681C51.7972 38.6137 51.6151 38.9264 51.3454 39.1515C51.0758 39.3766 50.7357 39.4999 50.3844 39.5H38.6141L37.25 32H53Z" fill="white"/>
<path d="M53.5756 31.5191C53.5052 31.4348 53.4172 31.3671 53.3177 31.3206C53.2183 31.2741 53.1098 31.25 53 31.25H37.8763L37.3062 28.1159C37.2749 27.9431 37.1838 27.7868 37.049 27.6743C36.9141 27.5617 36.7441 27.5 36.5684 27.5H34.25C34.0511 27.5 33.8603 27.579 33.7197 27.7197C33.579 27.8603 33.5 28.0511 33.5 28.25C33.5 28.4489 33.579 28.6397 33.7197 28.7803C33.8603 28.921 34.0511 29 34.25 29H35.9375L38.3337 42.1522C38.4043 42.5422 38.5767 42.9067 38.8334 43.2087C38.4791 43.5397 38.2234 43.9623 38.0946 44.4298C37.9657 44.8972 37.9689 45.3912 38.1037 45.8569C38.2385 46.3226 38.4997 46.7419 38.8582 47.0683C39.2168 47.3947 39.6587 47.6154 40.135 47.7059C40.6113 47.7965 41.1034 47.7533 41.5567 47.5813C42.01 47.4092 42.4068 47.115 42.7031 46.7312C42.9994 46.3474 43.1836 45.889 43.2353 45.407C43.287 44.9249 43.2041 44.4379 42.9959 44H47.2541C47.0863 44.3513 46.9995 44.7357 47 45.125C47 45.6442 47.154 46.1517 47.4424 46.5834C47.7308 47.0151 48.1408 47.3515 48.6205 47.5502C49.1001 47.7489 49.6279 47.8008 50.1371 47.6996C50.6463 47.5983 51.114 47.3483 51.4812 46.9812C51.8483 46.614 52.0983 46.1463 52.1996 45.6371C52.3008 45.1279 52.2489 44.6001 52.0502 44.1205C51.8515 43.6408 51.5151 43.2308 51.0834 42.9424C50.6517 42.654 50.1442 42.5 49.625 42.5H40.5472C40.3715 42.5 40.2015 42.4383 40.0667 42.3257C39.9318 42.2132 39.8408 42.0569 39.8094 41.8841L39.5122 40.25H50.3872C50.9141 40.2499 51.4243 40.0649 51.8288 39.7272C52.2333 39.3896 52.5064 38.9206 52.6006 38.4022L53.7406 32.1341C53.7599 32.0257 53.7551 31.9145 53.7266 31.8082C53.6981 31.7019 53.6466 31.6032 53.5756 31.5191ZM41.75 45.125C41.75 45.3475 41.684 45.565 41.5604 45.75C41.4368 45.935 41.2611 46.0792 41.0555 46.1644C40.85 46.2495 40.6238 46.2718 40.4055 46.2284C40.1873 46.185 39.9868 46.0778 39.8295 45.9205C39.6722 45.7632 39.565 45.5627 39.5216 45.3445C39.4782 45.1262 39.5005 44.9 39.5856 44.6945C39.6708 44.4889 39.815 44.3132 40 44.1896C40.185 44.066 40.4025 44 40.625 44C40.9234 44 41.2095 44.1185 41.4205 44.3295C41.6315 44.5405 41.75 44.8266 41.75 45.125ZM50.75 45.125C50.75 45.3475 50.684 45.565 50.5604 45.75C50.4368 45.935 50.2611 46.0792 50.0555 46.1644C49.85 46.2495 49.6238 46.2718 49.4055 46.2284C49.1873 46.185 48.9868 46.0778 48.8295 45.9205C48.6722 45.7632 48.565 45.5627 48.5216 45.3445C48.4782 45.1262 48.5005 44.9 48.5856 44.6945C48.6708 44.4889 48.815 44.3132 49 44.1896C49.185 44.066 49.4025 44 49.625 44C49.9234 44 50.2095 44.1185 50.4205 44.3295C50.6315 44.5405 50.75 44.8266 50.75 45.125ZM51.125 38.1341C51.0935 38.3074 51.0021 38.464 50.8666 38.5766C50.7312 38.6893 50.5605 38.7506 50.3844 38.75H39.2394L38.1491 32.75H52.1009L51.125 38.1341Z" fill="white"/>
</g>
<defs>
<filter id="filter0_d_2003_2054" x="0" y="0" width="88" height="88" filterUnits="userSpaceOnUse" color-interpolation-filters="sRGB">
<feFlood flood-opacity="0" result="BackgroundImageFix"/>
<feColorMatrix in="SourceAlpha" type="matrix" values="0 0 0 0 0 0 0 0 0 0 0 0 0 0 0 0 0 0 127 0" result="hardAlpha"/>
<feOffset dy="6"/>
<feGaussianBlur stdDeviation="10"/>
<feComposite in2="hardAlpha" operator="out"/>
<feColorMatrix type="matrix" values="0 0 0 0 0.0392157 0 0 0 0 0.545098 0 0 0 0 0.545098 0 0 0 0.3 0"/>
<feBlend mode="normal" in2="BackgroundImageFix" result="effect1_dropShadow_2003_2054"/>
<feBlend mode="normal" in="SourceGraphic" in2="effect1_dropShadow_2003_2054" result="shape"/>
</filter>
<linearGradient id="paint0_linear_2003_2054" x1="20" y1="14" x2="68" y2="62" gradientUnits="userSpaceOnUse">
<stop stop-color="#8B5CF6"/>
<stop offset="1" stop-color="#A78BFA"/>
</linearGradient>
</defs>
</svg>
