<svg width="88" height="88" viewBox="0 0 88 88" fill="none" xmlns="http://www.w3.org/2000/svg">
<g filter="url(#filter0_d_2012_1732)">
<rect x="20" y="14" width="48" height="48" rx="12" fill="url(#paint0_linear_2012_1732)" shape-rendering="crispEdges"/>
<path opacity="0.2" d="M53 38C53 39.78 52.4722 41.5201 51.4832 43.0001C50.4943 44.4802 49.0887 45.6337 47.4442 46.3149C45.7996 46.9961 43.99 47.1743 42.2442 46.8271C40.4984 46.4798 38.8947 45.6226 37.636 44.364C36.3774 43.1053 35.5202 41.5016 35.1729 39.7558C34.8257 38.01 35.0039 36.2004 35.6851 34.5558C36.3663 32.9113 37.5198 31.5057 38.9999 30.5168C40.4799 29.5278 42.22 29 44 29C46.387 29 48.6761 29.9482 50.364 31.636C52.0518 33.3239 53 35.6131 53 38Z" fill="white"/>
<path d="M44 28.25C42.0716 28.25 40.1866 28.8218 38.5832 29.8932C36.9798 30.9645 35.7301 32.4873 34.9922 34.2688C34.2542 36.0504 34.0611 38.0108 34.4373 39.9021C34.8136 41.7934 35.7422 43.5307 37.1057 44.8943C38.4693 46.2579 40.2066 47.1865 42.0979 47.5627C43.9892 47.9389 45.9496 47.7458 47.7312 47.0078C49.5127 46.2699 51.0355 45.0202 52.1068 43.4168C53.1782 41.8134 53.75 39.9284 53.75 38C53.7473 35.415 52.7192 32.9366 50.8913 31.1087C49.0634 29.2808 46.585 28.2527 44 28.25ZM44 46.25C42.3683 46.25 40.7733 45.7661 39.4165 44.8596C38.0598 43.9531 37.0024 42.6646 36.378 41.1571C35.7536 39.6496 35.5902 37.9908 35.9085 36.3905C36.2269 34.7902 37.0126 33.3202 38.1664 32.1664C39.3202 31.0126 40.7902 30.2268 42.3905 29.9085C43.9909 29.5902 45.6497 29.7536 47.1571 30.378C48.6646 31.0024 49.9531 32.0598 50.8596 33.4165C51.7661 34.7733 52.25 36.3683 52.25 38C52.2475 40.1873 51.3775 42.2843 49.8309 43.8309C48.2843 45.3775 46.1873 46.2475 44 46.25ZM47.75 39.875C47.75 40.5712 47.4734 41.2389 46.9812 41.7312C46.4889 42.2234 45.8212 42.5 45.125 42.5H44.75V43.25C44.75 43.4489 44.671 43.6397 44.5303 43.7803C44.3897 43.921 44.1989 44 44 44C43.8011 44 43.6103 43.921 43.4697 43.7803C43.329 43.6397 43.25 43.4489 43.25 43.25V42.5H41.75C41.5511 42.5 41.3603 42.421 41.2197 42.2803C41.079 42.1397 41 41.9489 41 41.75C41 41.5511 41.079 41.3603 41.2197 41.2197C41.3603 41.079 41.5511 41 41.75 41H45.125C45.4234 41 45.7095 40.8815 45.9205 40.6705C46.1315 40.4595 46.25 40.1734 46.25 39.875C46.25 39.5766 46.1315 39.2905 45.9205 39.0795C45.7095 38.8685 45.4234 38.75 45.125 38.75H42.875C42.1788 38.75 41.5111 38.4734 41.0188 37.9812C40.5266 37.4889 40.25 36.8212 40.25 36.125C40.25 35.4288 40.5266 34.7611 41.0188 34.2688C41.5111 33.7766 42.1788 33.5 42.875 33.5H43.25V32.75C43.25 32.5511 43.329 32.3603 43.4697 32.2197C43.6103 32.079 43.8011 32 44 32C44.1989 32 44.3897 32.079 44.5303 32.2197C44.671 32.3603 44.75 32.5511 44.75 32.75V33.5H46.25C46.4489 33.5 46.6397 33.579 46.7803 33.7197C46.921 33.8603 47 34.0511 47 34.25C47 34.4489 46.921 34.6397 46.7803 34.7803C46.6397 34.921 46.4489 35 46.25 35H42.875C42.5766 35 42.2905 35.1185 42.0795 35.3295C41.8685 35.5405 41.75 35.8266 41.75 36.125C41.75 36.4234 41.8685 36.7095 42.0795 36.9205C42.2905 37.1315 42.5766 37.25 42.875 37.25H45.125C45.8212 37.25 46.4889 37.5266 46.9812 38.0188C47.4734 38.5111 47.75 39.1788 47.75 39.875Z" fill="white"/>
</g>
<defs>
<filter id="filter0_d_2012_1732" x="0" y="0" width="88" height="88" filterUnits="userSpaceOnUse" color-interpolation-filters="sRGB">
<feFlood flood-opacity="0" result="BackgroundImageFix"/>
<feColorMatrix in="SourceAlpha" type="matrix" values="0 0 0 0 0 0 0 0 0 0 0 0 0 0 0 0 0 0 127 0" result="hardAlpha"/>
<feOffset dy="6"/>
<feGaussianBlur stdDeviation="10"/>
<feComposite in2="hardAlpha" operator="out"/>
<feColorMatrix type="matrix" values="0 0 0 0 0.0392157 0 0 0 0 0.545098 0 0 0 0 0.545098 0 0 0 0.3 0"/>
<feBlend mode="normal" in2="BackgroundImageFix" result="effect1_dropShadow_2012_1732"/>
<feBlend mode="normal" in="SourceGraphic" in2="effect1_dropShadow_2012_1732" result="shape"/>
</filter>
<linearGradient id="paint0_linear_2012_1732" x1="20" y1="14" x2="68" y2="62" gradientUnits="userSpaceOnUse">
<stop stop-color="#8B5CF6"/>
<stop offset="1" stop-color="#A78BFA"/>
</linearGradient>
</defs>
</svg>
