<svg width="88" height="88" viewBox="0 0 88 88" fill="none" xmlns="http://www.w3.org/2000/svg">
<g filter="url(#filter0_d_2003_1778)">
<rect x="20" y="14" width="48" height="48" rx="12" fill="url(#paint0_linear_2003_1778)" shape-rendering="crispEdges"/>
<path opacity="0.2" d="M48.5 38C48.5 38.89 48.2361 39.76 47.7416 40.5001C47.2471 41.2401 46.5443 41.8169 45.7221 42.1575C44.8998 42.4981 43.995 42.5872 43.1221 42.4135C42.2492 42.2399 41.4474 41.8113 40.818 41.182C40.1887 40.5526 39.7601 39.7508 39.5865 38.8779C39.4128 38.005 39.5019 37.1002 39.8425 36.2779C40.1831 35.4557 40.7599 34.7529 41.4999 34.2584C42.24 33.7639 43.11 33.5 44 33.5C45.1935 33.5 46.3381 33.9741 47.182 34.818C48.0259 35.6619 48.5 36.8065 48.5 38Z" fill="white"/>
<path d="M52.8003 33.7956C53.841 35.9723 54.0386 38.4574 53.3549 40.7712C52.6712 43.085 51.1546 45.0635 49.0979 46.3249C47.0412 47.5862 44.5901 48.0411 42.2178 47.6016C39.8454 47.162 37.72 45.8594 36.2517 43.9449C34.7833 42.0305 34.0762 39.64 34.2667 37.2348C34.4572 34.8296 35.5319 32.5803 37.2834 30.9209C39.0348 29.2615 41.3388 28.3097 43.7508 28.2492C46.1627 28.1886 48.5116 29.0237 50.344 30.5931L52.4694 28.4669C52.6101 28.3262 52.801 28.2471 53 28.2471C53.199 28.2471 53.3899 28.3262 53.5306 28.4669C53.6713 28.6076 53.7504 28.7985 53.7504 28.9975C53.7504 29.1965 53.6713 29.3874 53.5306 29.5281L44.5306 38.5281C44.3899 38.6689 44.199 38.7479 44 38.7479C43.801 38.7479 43.6101 38.6689 43.4694 38.5281C43.3286 38.3874 43.2496 38.1965 43.2496 37.9975C43.2496 37.7985 43.3286 37.6076 43.4694 37.4669L46.0681 34.8681C45.3638 34.4024 44.5229 34.1879 43.6816 34.2595C42.8402 34.3311 42.0477 34.6845 41.4322 35.2626C40.8167 35.8407 40.4143 36.6095 40.2902 37.4448C40.1661 38.28 40.3275 39.1326 40.7483 39.8647C41.1691 40.5968 41.8246 41.1654 42.6088 41.4786C43.393 41.7917 44.2599 41.831 45.0692 41.5902C45.8785 41.3493 46.5828 40.8424 47.0682 40.1514C47.5535 39.4604 47.7914 38.6259 47.7434 37.7828C47.7379 37.6843 47.7518 37.5857 47.7844 37.4926C47.8169 37.3995 47.8675 37.3137 47.9333 37.2401C47.999 37.1666 48.0786 37.1067 48.1674 37.0639C48.2563 37.0211 48.3527 36.9962 48.4512 36.9906C48.6501 36.9795 48.8454 37.0477 48.9939 37.1805C49.0675 37.2462 49.1274 37.3258 49.1702 37.4147C49.213 37.5035 49.2379 37.6 49.2434 37.6985C49.3118 38.8917 48.971 40.0725 48.2773 41.0458C47.5837 42.0191 46.5786 42.7266 45.4284 43.0513C44.2782 43.376 43.0516 43.2986 41.9514 42.8317C40.8511 42.3649 39.9431 41.5366 39.3774 40.4838C38.8117 39.431 38.6221 38.2166 38.84 37.0415C39.058 35.8663 39.6704 34.8007 40.576 34.0208C41.4816 33.2408 42.6262 32.7932 43.8207 32.7519C45.0152 32.7107 46.188 33.0782 47.1453 33.7938L49.2781 31.661C47.7151 30.3633 45.7278 29.6888 43.6978 29.7671C41.6678 29.8454 39.7383 30.6709 38.2799 32.0851C36.8215 33.4994 35.937 35.4026 35.7963 37.4292C35.6557 39.4558 36.2687 41.4629 37.5177 43.0651C38.7667 44.6673 40.5636 45.7515 42.5633 46.1095C44.563 46.4675 46.6245 46.0741 48.3518 45.0049C50.0791 43.9356 51.3505 42.2658 51.9217 40.3163C52.4929 38.3667 52.3237 36.2749 51.4465 34.4425C51.3608 34.263 51.3498 34.0568 51.4161 33.8692C51.4824 33.6816 51.6205 33.528 51.8 33.4422C51.9795 33.3564 52.1857 33.3455 52.3733 33.4118C52.5609 33.478 52.7145 33.6161 52.8003 33.7956Z" fill="white"/>
</g>
<defs>
<filter id="filter0_d_2003_1778" x="0" y="0" width="88" height="88" filterUnits="userSpaceOnUse" color-interpolation-filters="sRGB">
<feFlood flood-opacity="0" result="BackgroundImageFix"/>
<feColorMatrix in="SourceAlpha" type="matrix" values="0 0 0 0 0 0 0 0 0 0 0 0 0 0 0 0 0 0 127 0" result="hardAlpha"/>
<feOffset dy="6"/>
<feGaussianBlur stdDeviation="10"/>
<feComposite in2="hardAlpha" operator="out"/>
<feColorMatrix type="matrix" values="0 0 0 0 0.0392157 0 0 0 0 0.545098 0 0 0 0 0.545098 0 0 0 0.3 0"/>
<feBlend mode="normal" in2="BackgroundImageFix" result="effect1_dropShadow_2003_1778"/>
<feBlend mode="normal" in="SourceGraphic" in2="effect1_dropShadow_2003_1778" result="shape"/>
</filter>
<linearGradient id="paint0_linear_2003_1778" x1="20" y1="14" x2="68" y2="62" gradientUnits="userSpaceOnUse">
<stop stop-color="#0A8B8B"/>
<stop offset="1" stop-color="#1AB4B4"/>
</linearGradient>
</defs>
</svg>
