<svg width="88" height="88" viewBox="0 0 88 88" fill="none" xmlns="http://www.w3.org/2000/svg">
<g filter="url(#filter0_d_2003_1847)">
<rect x="20" y="14" width="48" height="48" rx="12" fill="url(#paint0_linear_2003_1847)" shape-rendering="crispEdges"/>
<path opacity="0.2" d="M33.5 40.2503H36.5V45.5003H33.5C33.3011 45.5003 33.1103 45.4212 32.9697 45.2806C32.829 45.1399 32.75 44.9492 32.75 44.7503V41.0003C32.75 40.8013 32.829 40.6106 32.9697 40.4699C33.1103 40.3293 33.3011 40.2503 33.5 40.2503ZM50.0506 29.7503C49.3205 29.7417 48.6045 29.9512 47.9942 30.3521C47.3839 30.7529 46.9072 31.3268 46.625 32.0003C46.3428 31.3268 45.8661 30.7529 45.2558 30.3521C44.6455 29.9512 43.9295 29.7417 43.1994 29.7503C41.1566 29.7503 39.5 31.4668 39.5 33.5003C39.5 34.8653 40.1563 36.0981 41.0684 37.2503H45.125C45.6223 37.2503 46.0992 37.4478 46.4508 37.7994C46.8025 38.1511 47 38.628 47 39.1253C47 39.6225 46.8025 40.0994 46.4508 40.4511C46.0992 40.8027 45.6223 41.0003 45.125 41.0003H45.5L49.0419 40.1865C51.1081 38.6631 53.75 36.2406 53.75 33.5003C53.75 31.4668 52.0934 29.7503 50.0506 29.7503Z" fill="white"/>
<path d="M53.5934 39.2245C53.3482 39.0354 53.067 38.8983 52.7671 38.8215C52.4671 38.7446 52.1547 38.7295 51.8488 38.7773C53.6094 36.9998 54.5 35.2326 54.5 33.5001C54.5 31.0185 52.5041 29.0001 50.0506 29.0001C49.3996 28.996 48.7556 29.1345 48.1638 29.4057C47.5721 29.677 47.0468 30.0745 46.625 30.5704C46.2032 30.0745 45.6779 29.677 45.0862 29.4057C44.4944 29.1345 43.8504 28.996 43.1994 29.0001C40.7459 29.0001 38.75 31.0185 38.75 33.5001C38.75 34.5313 39.0537 35.5335 39.6931 36.5938C39.1695 36.7265 38.6916 36.9987 38.3103 37.3813L36.1897 39.5001H33.5C33.1022 39.5001 32.7206 39.6581 32.4393 39.9394C32.158 40.2207 32 40.6023 32 41.0001V44.7501C32 45.1479 32.158 45.5294 32.4393 45.8107C32.7206 46.0921 33.1022 46.2501 33.5 46.2501H43.25C43.3113 46.2501 43.3724 46.2426 43.4319 46.2276L49.4319 44.7276C49.4701 44.7185 49.5075 44.7059 49.5434 44.6901L53.1875 43.1395L53.2288 43.1207C53.579 42.9457 53.8789 42.6844 54.1002 42.3615C54.3215 42.0385 54.457 41.6646 54.4939 41.2748C54.5307 40.885 54.4678 40.4923 54.3109 40.1336C54.154 39.7749 53.9084 39.462 53.5972 39.2245H53.5934ZM43.1994 30.5001C43.7803 30.4916 44.3505 30.6565 44.8371 30.9738C45.3238 31.2911 45.7047 31.7464 45.9313 32.2813C45.9878 32.4189 46.0839 32.5366 46.2074 32.6194C46.3309 32.7022 46.4763 32.7464 46.625 32.7464C46.7737 32.7464 46.9191 32.7022 47.0426 32.6194C47.1661 32.5366 47.2622 32.4189 47.3187 32.2813C47.5453 31.7464 47.9262 31.2911 48.4129 30.9738C48.8995 30.6565 49.4697 30.4916 50.0506 30.5001C51.6491 30.5001 53 31.8735 53 33.5001C53 35.3292 51.5197 37.3982 48.7194 39.4907L47.6797 39.7298C47.7709 39.3443 47.7738 38.9431 47.6879 38.5564C47.6021 38.1696 47.4298 37.8073 47.1841 37.4966C46.9383 37.1859 46.6254 36.9348 46.2688 36.7622C45.9122 36.5897 45.5212 36.5 45.125 36.5001H41.4388C40.6297 35.4088 40.25 34.4488 40.25 33.5001C40.25 31.8735 41.6009 30.5001 43.1994 30.5001ZM33.5 41.0001H35.75V44.7501H33.5V41.0001ZM52.5716 41.7698L49.0091 43.2866L43.1562 44.7501H37.25V40.5604L39.3716 38.4398C39.5103 38.2999 39.6756 38.189 39.8576 38.1135C40.0396 38.038 40.2348 37.9995 40.4319 38.0001H45.125C45.4234 38.0001 45.7095 38.1186 45.9205 38.3296C46.1315 38.5406 46.25 38.8267 46.25 39.1251C46.25 39.4235 46.1315 39.7096 45.9205 39.9206C45.7095 40.1316 45.4234 40.2501 45.125 40.2501H42.5C42.3011 40.2501 42.1103 40.3291 41.9697 40.4698C41.829 40.6104 41.75 40.8012 41.75 41.0001C41.75 41.199 41.829 41.3898 41.9697 41.5304C42.1103 41.6711 42.3011 41.7501 42.5 41.7501H45.5C45.5565 41.7499 45.6127 41.7436 45.6678 41.7313L51.9491 40.2866L51.9781 40.2791C52.1699 40.2259 52.3745 40.2455 52.5527 40.3341C52.7309 40.4227 52.87 40.574 52.9433 40.759C53.0167 40.944 53.0189 41.1496 52.9498 41.3362C52.8806 41.5228 52.7449 41.6772 52.5687 41.7698H52.5716Z" fill="white"/>
</g>
<defs>
<filter id="filter0_d_2003_1847" x="0" y="0" width="88" height="88" filterUnits="userSpaceOnUse" color-interpolation-filters="sRGB">
<feFlood flood-opacity="0" result="BackgroundImageFix"/>
<feColorMatrix in="SourceAlpha" type="matrix" values="0 0 0 0 0 0 0 0 0 0 0 0 0 0 0 0 0 0 127 0" result="hardAlpha"/>
<feOffset dy="6"/>
<feGaussianBlur stdDeviation="10"/>
<feComposite in2="hardAlpha" operator="out"/>
<feColorMatrix type="matrix" values="0 0 0 0 0.0392157 0 0 0 0 0.545098 0 0 0 0 0.545098 0 0 0 0.3 0"/>
<feBlend mode="normal" in2="BackgroundImageFix" result="effect1_dropShadow_2003_1847"/>
<feBlend mode="normal" in="SourceGraphic" in2="effect1_dropShadow_2003_1847" result="shape"/>
</filter>
<linearGradient id="paint0_linear_2003_1847" x1="20" y1="14" x2="68" y2="62" gradientUnits="userSpaceOnUse">
<stop stop-color="#F59E0B"/>
<stop offset="1" stop-color="#FBBF24"/>
</linearGradient>
</defs>
</svg>
