<svg width="88" height="88" viewBox="0 0 88 88" fill="none" xmlns="http://www.w3.org/2000/svg">
<g filter="url(#filter0_d_2003_1870)">
<rect x="20" y="14" width="48" height="48" rx="12" fill="url(#paint0_linear_2003_1870)" shape-rendering="crispEdges"/>
<path opacity="0.2" d="M52.25 37.2506V46.2506H46.25V40.2506H41.75V46.2506H35.75V37.2506C35.7499 37.1521 35.7693 37.0545 35.8069 36.9635C35.8445 36.8724 35.8997 36.7897 35.9694 36.72L43.4694 29.22C43.539 29.1502 43.6217 29.0949 43.7128 29.0572C43.8038 29.0194 43.9014 29 44 29C44.0986 29 44.1962 29.0194 44.2872 29.0572C44.3783 29.0949 44.461 29.1502 44.5306 29.22L52.0306 36.72C52.1003 36.7897 52.1555 36.8724 52.1931 36.9635C52.2307 37.0545 52.2501 37.1521 52.25 37.2506Z" fill="white"/>
<path d="M52.5603 36.189L45.0603 28.689C44.779 28.4079 44.3977 28.25 44 28.25C43.6024 28.25 43.221 28.4079 42.9397 28.689L35.4397 36.189C35.2997 36.3279 35.1888 36.4933 35.1133 36.6755C35.0378 36.8577 34.9993 37.053 35 37.2502V46.2502C35 46.4492 35.079 46.6399 35.2197 46.7806C35.3603 46.9212 35.5511 47.0002 35.75 47.0002H41.75C41.9489 47.0002 42.1397 46.9212 42.2803 46.7806C42.421 46.6399 42.5 46.4492 42.5 46.2502V41.0002H45.5V46.2502C45.5 46.4492 45.579 46.6399 45.7197 46.7806C45.8603 46.9212 46.0511 47.0002 46.25 47.0002H52.25C52.4489 47.0002 52.6397 46.9212 52.7803 46.7806C52.921 46.6399 53 46.4492 53 46.2502V37.2502C53.0007 37.053 52.9622 36.8577 52.8867 36.6755C52.8112 36.4933 52.7003 36.3279 52.5603 36.189ZM51.5 45.5002H47V40.2502C47 40.0513 46.921 39.8606 46.7803 39.7199C46.6397 39.5793 46.4489 39.5002 46.25 39.5002H41.75C41.5511 39.5002 41.3603 39.5793 41.2197 39.7199C41.079 39.8606 41 40.0513 41 40.2502V45.5002H36.5V37.2502L44 29.7502L51.5 37.2502V45.5002Z" fill="white"/>
</g>
<defs>
<filter id="filter0_d_2003_1870" x="0" y="0" width="88" height="88" filterUnits="userSpaceOnUse" color-interpolation-filters="sRGB">
<feFlood flood-opacity="0" result="BackgroundImageFix"/>
<feColorMatrix in="SourceAlpha" type="matrix" values="0 0 0 0 0 0 0 0 0 0 0 0 0 0 0 0 0 0 127 0" result="hardAlpha"/>
<feOffset dy="6"/>
<feGaussianBlur stdDeviation="10"/>
<feComposite in2="hardAlpha" operator="out"/>
<feColorMatrix type="matrix" values="0 0 0 0 0.0392157 0 0 0 0 0.545098 0 0 0 0 0.545098 0 0 0 0.3 0"/>
<feBlend mode="normal" in2="BackgroundImageFix" result="effect1_dropShadow_2003_1870"/>
<feBlend mode="normal" in="SourceGraphic" in2="effect1_dropShadow_2003_1870" result="shape"/>
</filter>
<linearGradient id="paint0_linear_2003_1870" x1="20" y1="14" x2="68" y2="62" gradientUnits="userSpaceOnUse">
<stop stop-color="#10B981"/>
<stop offset="1" stop-color="#34D399"/>
</linearGradient>
</defs>
</svg>
