<svg width="152" height="152" viewBox="0 0 152 152" fill="none" xmlns="http://www.w3.org/2000/svg">
<g filter="url(#filter0_d_2002_1642)">
<rect x="32" y="20" width="88" height="88" rx="24" fill="url(#paint0_linear_2002_1642)" shape-rendering="crispEdges"/>
<path opacity="0.2" d="M77.125 50.4999V76.3749H63.625V58.0022C63.6249 57.817 63.6705 57.6345 63.7578 57.4711C63.8452 57.3078 63.9715 57.1685 64.1256 57.0657L75.3756 49.5661C75.5449 49.4532 75.7416 49.3883 75.9449 49.3783C76.1481 49.3683 76.3502 49.4137 76.5297 49.5095C76.7093 49.6053 76.8594 49.748 76.9642 49.9224C77.0691 50.0968 77.1246 50.2964 77.125 50.4999Z" fill="white"/>
<path d="M91.75 75.2495H89.5V59.4995C89.5 58.9028 89.2629 58.3305 88.841 57.9085C88.419 57.4866 87.8467 57.2495 87.25 57.2495H78.25V50.4995C78.2503 50.0921 78.1399 49.6922 77.9307 49.3426C77.7214 48.993 77.4212 48.7067 77.062 48.5144C76.7028 48.3221 76.2981 48.231 75.8911 48.2507C75.4842 48.2704 75.0902 48.4003 74.7513 48.6264L63.5012 56.1245C63.1926 56.3304 62.9397 56.6094 62.765 56.9367C62.5903 57.264 62.4993 57.6294 62.5 58.0004V75.2495H60.25C59.9516 75.2495 59.6655 75.368 59.4545 75.579C59.2435 75.79 59.125 76.0761 59.125 76.3745C59.125 76.6729 59.2435 76.959 59.4545 77.17C59.6655 77.381 59.9516 77.4995 60.25 77.4995H91.75C92.0484 77.4995 92.3345 77.381 92.5455 77.17C92.7565 76.959 92.875 76.6729 92.875 76.3745C92.875 76.0761 92.7565 75.79 92.5455 75.579C92.3345 75.368 92.0484 75.2495 91.75 75.2495ZM87.25 59.4995V75.2495H78.25V59.4995H87.25ZM64.75 58.0004L76 50.4995V75.2495H64.75V58.0004ZM73.75 61.7495V63.9995C73.75 64.2979 73.6315 64.584 73.4205 64.795C73.2095 65.006 72.9234 65.1245 72.625 65.1245C72.3266 65.1245 72.0405 65.006 71.8295 64.795C71.6185 64.584 71.5 64.2979 71.5 63.9995V61.7495C71.5 61.4511 71.6185 61.165 71.8295 60.954C72.0405 60.743 72.3266 60.6245 72.625 60.6245C72.9234 60.6245 73.2095 60.743 73.4205 60.954C73.6315 61.165 73.75 61.4511 73.75 61.7495ZM69.25 61.7495V63.9995C69.25 64.2979 69.1315 64.584 68.9205 64.795C68.7095 65.006 68.4234 65.1245 68.125 65.1245C67.8266 65.1245 67.5405 65.006 67.3295 64.795C67.1185 64.584 67 64.2979 67 63.9995V61.7495C67 61.4511 67.1185 61.165 67.3295 60.954C67.5405 60.743 67.8266 60.6245 68.125 60.6245C68.4234 60.6245 68.7095 60.743 68.9205 60.954C69.1315 61.165 69.25 61.4511 69.25 61.7495ZM69.25 69.6245V71.8745C69.25 72.1729 69.1315 72.459 68.9205 72.67C68.7095 72.881 68.4234 72.9995 68.125 72.9995C67.8266 72.9995 67.5405 72.881 67.3295 72.67C67.1185 72.459 67 72.1729 67 71.8745V69.6245C67 69.3261 67.1185 69.04 67.3295 68.829C67.5405 68.618 67.8266 68.4995 68.125 68.4995C68.4234 68.4995 68.7095 68.618 68.9205 68.829C69.1315 69.04 69.25 69.3261 69.25 69.6245ZM73.75 69.6245V71.8745C73.75 72.1729 73.6315 72.459 73.4205 72.67C73.2095 72.881 72.9234 72.9995 72.625 72.9995C72.3266 72.9995 72.0405 72.881 71.8295 72.67C71.6185 72.459 71.5 72.1729 71.5 71.8745V69.6245C71.5 69.3261 71.6185 69.04 71.8295 68.829C72.0405 68.618 72.3266 68.4995 72.625 68.4995C72.9234 68.4995 73.2095 68.618 73.4205 68.829C73.6315 69.04 73.75 69.3261 73.75 69.6245Z" fill="white"/>
</g>
<defs>
<filter id="filter0_d_2002_1642" x="0" y="0" width="152" height="152" filterUnits="userSpaceOnUse" color-interpolation-filters="sRGB">
<feFlood flood-opacity="0" result="BackgroundImageFix"/>
<feColorMatrix in="SourceAlpha" type="matrix" values="0 0 0 0 0 0 0 0 0 0 0 0 0 0 0 0 0 0 127 0" result="hardAlpha"/>
<feOffset dy="12"/>
<feGaussianBlur stdDeviation="16"/>
<feComposite in2="hardAlpha" operator="out"/>
<feColorMatrix type="matrix" values="0 0 0 0 0.0392157 0 0 0 0 0.545098 0 0 0 0 0.545098 0 0 0 0.35 0"/>
<feBlend mode="normal" in2="BackgroundImageFix" result="effect1_dropShadow_2002_1642"/>
<feBlend mode="normal" in="SourceGraphic" in2="effect1_dropShadow_2002_1642" result="shape"/>
</filter>
<linearGradient id="paint0_linear_2002_1642" x1="32" y1="20" x2="120" y2="108" gradientUnits="userSpaceOnUse">
<stop stop-color="#0A8B8B"/>
<stop offset="1" stop-color="#1AB4B4"/>
</linearGradient>
</defs>
</svg>
