<svg width="152" height="152" viewBox="0 0 152 152" fill="none" xmlns="http://www.w3.org/2000/svg">
<g filter="url(#filter0_d_2002_1655)">
<rect x="32" y="20" width="88" height="88" rx="24" fill="url(#paint0_linear_2002_1655)" shape-rendering="crispEdges"/>
<path opacity="0.2" d="M87.2303 63.3223L89.59 60.3692C89.2718 59.1728 88.7955 58.0241 88.1739 56.9534L84.4192 56.5316C84.1193 56.1936 83.7995 55.8738 83.4616 55.5739L83.0397 51.8178C81.9679 51.1999 80.8188 50.7271 79.6225 50.4116L76.6694 52.7698C76.2179 52.7431 75.7653 52.7431 75.3138 52.7698L72.3607 50.4102C71.1681 50.7294 70.0233 51.2056 68.9561 51.8262L68.5342 55.5809C68.1963 55.8809 67.8765 56.2007 67.5766 56.5386L63.8205 56.9605C63.2026 58.0323 62.7298 59.1814 62.4142 60.3777L64.7725 63.3308C64.7458 63.7823 64.7458 64.2349 64.7725 64.6864L62.4128 67.6395C62.7311 68.836 63.2073 69.9846 63.8289 71.0553L67.5836 71.4772C67.8836 71.8151 68.2033 72.1349 68.5413 72.4348L68.9632 76.1909C70.035 76.8088 71.1841 77.2817 72.3803 77.5972L75.3335 75.2389C75.7849 75.2656 76.2376 75.2656 76.6891 75.2389L79.6422 77.5986C80.8386 77.2803 81.9873 76.8041 83.058 76.1825L83.4799 72.4278C83.8178 72.1279 84.1376 71.8081 84.4375 71.4702L88.1936 71.0483C88.8115 69.9764 89.2844 68.8274 89.5999 67.6311L87.2416 64.678C87.2646 64.2263 87.2608 63.7736 87.2303 63.3223ZM76 69.6252C74.8875 69.6252 73.8 69.2953 72.8749 68.6772C71.9499 68.0591 71.2289 67.1806 70.8032 66.1528C70.3775 65.1249 70.2661 63.9939 70.4831 62.9028C70.7002 61.8116 71.2359 60.8094 72.0226 60.0227C72.8092 59.236 73.8115 58.7003 74.9026 58.4832C75.9938 58.2662 77.1248 58.3776 78.1526 58.8033C79.1805 59.2291 80.059 59.95 80.677 60.8751C81.2951 61.8001 81.625 62.8876 81.625 64.0002C81.625 65.492 81.0324 66.9227 79.9775 67.9776C78.9226 69.0325 77.4919 69.6252 76 69.6252Z" fill="white"/>
<path d="M75.9999 57.2503C74.6649 57.2503 73.3599 57.6462 72.2498 58.3879C71.1398 59.1296 70.2746 60.1838 69.7638 61.4172C69.2529 62.6506 69.1192 64.0078 69.3796 65.3172C69.6401 66.6265 70.283 67.8293 71.227 68.7733C72.171 69.7173 73.3737 70.3602 74.6831 70.6206C75.9925 70.8811 77.3497 70.7474 78.5831 70.2365C79.8165 69.7256 80.8707 68.8604 81.6124 67.7504C82.3541 66.6404 82.7499 65.3353 82.7499 64.0003C82.7481 62.2107 82.0363 60.4949 80.7709 59.2294C79.5054 57.9639 77.7896 57.2522 75.9999 57.2503ZM75.9999 68.5003C75.1099 68.5003 74.2399 68.2364 73.4999 67.7419C72.7599 67.2475 72.1831 66.5447 71.8425 65.7224C71.5019 64.9001 71.4128 63.9953 71.5864 63.1224C71.76 62.2495 72.1886 61.4477 72.818 60.8183C73.4473 60.189 74.2491 59.7604 75.122 59.5868C75.995 59.4131 76.8997 59.5023 77.722 59.8428C78.5443 60.1834 79.2471 60.7602 79.7416 61.5002C80.236 62.2403 80.4999 63.1103 80.4999 64.0003C80.4999 65.1938 80.0258 66.3384 79.1819 67.1823C78.338 68.0262 77.1934 68.5003 75.9999 68.5003ZM88.3749 64.3041C88.3806 64.1016 88.3806 63.8991 88.3749 63.6966L90.4731 61.0753C90.5831 60.9377 90.6592 60.7761 90.6954 60.6037C90.7315 60.4312 90.7267 60.2527 90.6812 60.0825C90.3366 58.7898 89.8221 57.5485 89.1512 56.3911C89.0633 56.2397 88.9412 56.1108 88.7947 56.0149C88.6482 55.919 88.4814 55.8585 88.3074 55.8384L84.9718 55.4672C84.8331 55.3209 84.6924 55.1803 84.5499 55.0453L84.1562 51.7012C84.1359 51.5272 84.0753 51.3602 83.9791 51.2137C83.8829 51.0673 83.7538 50.9453 83.6021 50.8575C82.4448 50.1871 81.2034 49.6735 79.9107 49.3303C79.7405 49.2848 79.562 49.28 79.3895 49.3161C79.2171 49.3523 79.0555 49.4284 78.9179 49.5384L76.3037 51.6253C76.1012 51.6253 75.8987 51.6253 75.6962 51.6253L73.0749 49.5314C72.9373 49.4214 72.7758 49.3452 72.6033 49.3091C72.4309 49.2729 72.2524 49.2778 72.0821 49.3233C70.7894 49.6678 69.5481 50.1823 68.3907 50.8533C68.2393 50.9412 68.1105 51.0633 68.0145 51.2097C67.9186 51.3562 67.8582 51.5231 67.8381 51.697L67.4668 55.0383C67.3206 55.178 67.1799 55.3186 67.0449 55.4602L63.7009 55.8441C63.5268 55.8643 63.3599 55.925 63.2134 56.0211C63.0669 56.1173 62.9449 56.2464 62.8571 56.3981C62.1868 57.5557 61.6728 58.797 61.3285 60.0895C61.2833 60.2599 61.2786 60.4384 61.315 60.6109C61.3514 60.7833 61.4278 60.9448 61.5381 61.0823L63.6249 63.6966C63.6249 63.8991 63.6249 64.1016 63.6249 64.3041L61.531 66.9253C61.421 67.0629 61.3449 67.2245 61.3087 67.3969C61.2726 67.5694 61.2774 67.7479 61.3229 67.9181C61.6675 69.2108 62.182 70.4521 62.8529 71.6095C62.9408 71.761 63.0629 71.8898 63.2094 71.9857C63.3559 72.0817 63.5227 72.1421 63.6967 72.1622L67.0323 72.5334C67.172 72.6797 67.3126 72.8203 67.4542 72.9553L67.8437 76.2994C67.8639 76.4734 67.9246 76.6404 68.0208 76.7869C68.117 76.9334 68.2461 77.0554 68.3978 77.1431C69.5553 77.8134 70.7966 78.3274 72.0892 78.6717C72.2595 78.717 72.4381 78.7216 72.6105 78.6852C72.783 78.6488 72.9445 78.5724 73.082 78.4622L75.6962 76.3753C75.8987 76.3809 76.1012 76.3809 76.3037 76.3753L78.9249 78.4734C79.0626 78.5834 79.2241 78.6596 79.3966 78.6957C79.569 78.7319 79.7475 78.727 79.9178 78.6816C81.2107 78.3376 82.452 77.8231 83.6092 77.1516C83.7606 77.0636 83.8894 76.9416 83.9853 76.7951C84.0813 76.6486 84.1417 76.4818 84.1618 76.3078L84.5331 72.9722C84.6793 72.8334 84.8199 72.6928 84.9549 72.5503L88.299 72.1566C88.4731 72.1363 88.64 72.0757 88.7865 71.9795C88.933 71.8833 89.055 71.7542 89.1428 71.6025C89.813 70.4449 90.3271 69.2037 90.6713 67.9111C90.7166 67.7408 90.7213 67.5622 90.6849 67.3897C90.6485 67.2173 90.5721 67.0558 90.4618 66.9183L88.3749 64.3041ZM86.1109 63.39C86.1348 63.7965 86.1348 64.2041 86.1109 64.6106C86.0941 64.8889 86.1813 65.1636 86.3556 65.3812L88.351 67.8745C88.1221 68.6022 87.8289 69.3081 87.4749 69.9839L84.2968 70.3439C84.02 70.3746 83.7645 70.5069 83.5796 70.7152C83.3089 71.0196 83.0206 71.3079 82.7162 71.5786C82.5079 71.7635 82.3757 72.019 82.3449 72.2958L81.992 75.4711C81.3163 75.8252 80.6103 76.1184 79.8826 76.3472L77.3879 74.3517C77.1883 74.1922 76.9403 74.1054 76.6848 74.1056H76.6173C76.2108 74.1295 75.8032 74.1295 75.3967 74.1056C75.1184 74.0897 74.8441 74.1768 74.626 74.3503L72.1257 76.3472C71.398 76.1182 70.6921 75.825 70.0163 75.4711L69.6563 72.2972C69.6256 72.0204 69.4933 71.7649 69.2851 71.58C68.9807 71.3093 68.6924 71.021 68.4217 70.7166C68.2368 70.5083 67.9812 70.376 67.7045 70.3453L64.5292 69.9909C64.1751 69.3152 63.8819 68.6093 63.6531 67.8816L65.6485 65.3869C65.8228 65.1692 65.91 64.8946 65.8932 64.6162C65.8693 64.2097 65.8693 63.8021 65.8932 63.3956C65.91 63.1173 65.8228 62.8427 65.6485 62.625L63.6531 60.1261C63.882 59.3984 64.1752 58.6925 64.5292 58.0167L67.7031 57.6567C67.9798 57.626 68.2354 57.4937 68.4203 57.2855C68.6909 56.981 68.9793 56.6927 69.2837 56.422C69.4928 56.237 69.6256 55.9809 69.6563 55.7034L70.0093 52.5295C70.685 52.1754 71.3909 51.8822 72.1187 51.6534L74.6134 53.6489C74.8311 53.8231 75.1057 53.9103 75.384 53.8936C75.7905 53.8697 76.1981 53.8697 76.6046 53.8936C76.8829 53.9095 77.1572 53.8224 77.3753 53.6489L79.8742 51.6534C80.6018 51.8824 81.3078 52.1756 81.9835 52.5295L82.3435 55.7034C82.3743 55.9802 82.5065 56.2357 82.7148 56.4206C83.0192 56.6913 83.3075 56.9796 83.5782 57.2841C83.7631 57.4923 84.0186 57.6246 84.2954 57.6553L87.4707 58.0083C87.8248 58.684 88.118 59.3899 88.3468 60.1177L86.3513 62.6123C86.1754 62.8318 86.0881 63.1093 86.1067 63.39H86.1109Z" fill="white"/>
</g>
<defs>
<filter id="filter0_d_2002_1655" x="0" y="0" width="152" height="152" filterUnits="userSpaceOnUse" color-interpolation-filters="sRGB">
<feFlood flood-opacity="0" result="BackgroundImageFix"/>
<feColorMatrix in="SourceAlpha" type="matrix" values="0 0 0 0 0 0 0 0 0 0 0 0 0 0 0 0 0 0 127 0" result="hardAlpha"/>
<feOffset dy="12"/>
<feGaussianBlur stdDeviation="16"/>
<feComposite in2="hardAlpha" operator="out"/>
<feColorMatrix type="matrix" values="0 0 0 0 0.0392157 0 0 0 0 0.545098 0 0 0 0 0.545098 0 0 0 0.35 0"/>
<feBlend mode="normal" in2="BackgroundImageFix" result="effect1_dropShadow_2002_1655"/>
<feBlend mode="normal" in="SourceGraphic" in2="effect1_dropShadow_2002_1655" result="shape"/>
</filter>
<linearGradient id="paint0_linear_2002_1655" x1="32" y1="20" x2="120" y2="108" gradientUnits="userSpaceOnUse">
<stop stop-color="#0A8B8B"/>
<stop offset="1" stop-color="#1AB4B4"/>
</linearGradient>
</defs>
</svg>
