<svg width="152" height="152" viewBox="0 0 152 152" fill="none" xmlns="http://www.w3.org/2000/svg">
<g filter="url(#filter0_d_2002_1668)">
<rect x="32" y="20" width="88" height="88" rx="24" fill="url(#paint0_linear_2002_1668)" shape-rendering="crispEdges"/>
<path opacity="0.2" d="M89.5 64C89.5 66.67 88.7082 69.2801 87.2248 71.5002C85.7414 73.7203 83.633 75.4506 81.1662 76.4724C78.6994 77.4942 75.985 77.7615 73.3663 77.2406C70.7475 76.7197 68.3421 75.434 66.4541 73.5459C64.5661 71.6579 63.2803 69.2525 62.7594 66.6337C62.2385 64.015 62.5058 61.3006 63.5276 58.8338C64.5494 56.367 66.2797 54.2586 68.4998 52.7752C70.7199 51.2918 73.33 50.5 76 50.5C79.5804 50.5 83.0142 51.9223 85.5459 54.4541C88.0777 56.9858 89.5 60.4196 89.5 64Z" fill="white"/>
<path d="M76 49.375C73.1075 49.375 70.2799 50.2327 67.8748 51.8398C65.4697 53.4468 63.5952 55.7309 62.4883 58.4033C61.3813 61.0756 61.0917 64.0162 61.656 66.8532C62.2203 69.6902 63.6132 72.2961 65.6586 74.3414C67.7039 76.3868 70.3098 77.7797 73.1468 78.344C75.9838 78.9083 78.9244 78.6187 81.5968 77.5117C84.2691 76.4048 86.5532 74.5303 88.1602 72.1252C89.7673 69.7201 90.625 66.8926 90.625 64C90.6209 60.1225 89.0788 56.4049 86.3369 53.6631C83.5951 50.9213 79.8775 49.3791 76 49.375ZM76 76.375C73.5525 76.375 71.1599 75.6492 69.1248 74.2894C67.0898 72.9297 65.5036 70.9969 64.567 68.7357C63.6304 66.4745 63.3853 63.9863 63.8628 61.5858C64.3403 59.1852 65.5189 56.9802 67.2496 55.2496C68.9802 53.5189 71.1852 52.3403 73.5858 51.8628C75.9863 51.3853 78.4745 51.6304 80.7357 52.567C82.997 53.5036 84.9297 55.0898 86.2894 57.1248C87.6492 59.1599 88.375 61.5525 88.375 64C88.3713 67.2809 87.0663 70.4264 84.7463 72.7463C82.4264 75.0663 79.2809 76.3713 76 76.375ZM81.625 66.8125C81.625 67.8568 81.2102 68.8583 80.4717 69.5967C79.7333 70.3352 78.7318 70.75 77.6875 70.75H77.125V71.875C77.125 72.1734 77.0065 72.4595 76.7955 72.6705C76.5845 72.8815 76.2984 73 76 73C75.7016 73 75.4155 72.8815 75.2045 72.6705C74.9935 72.4595 74.875 72.1734 74.875 71.875V70.75H72.625C72.3266 70.75 72.0405 70.6315 71.8295 70.4205C71.6185 70.2095 71.5 69.9234 71.5 69.625C71.5 69.3266 71.6185 69.0405 71.8295 68.8295C72.0405 68.6185 72.3266 68.5 72.625 68.5H77.6875C78.1351 68.5 78.5643 68.3222 78.8807 68.0057C79.1972 67.6893 79.375 67.2601 79.375 66.8125C79.375 66.3649 79.1972 65.9357 78.8807 65.6193C78.5643 65.3028 78.1351 65.125 77.6875 65.125H74.3125C73.2682 65.125 72.2667 64.7102 71.5283 63.9717C70.7898 63.2333 70.375 62.2318 70.375 61.1875C70.375 60.1432 70.7898 59.1417 71.5283 58.4033C72.2667 57.6648 73.2682 57.25 74.3125 57.25H74.875V56.125C74.875 55.8266 74.9935 55.5405 75.2045 55.3295C75.4155 55.1185 75.7016 55 76 55C76.2984 55 76.5845 55.1185 76.7955 55.3295C77.0065 55.5405 77.125 55.8266 77.125 56.125V57.25H79.375C79.6734 57.25 79.9595 57.3685 80.1705 57.5795C80.3815 57.7905 80.5 58.0766 80.5 58.375C80.5 58.6734 80.3815 58.9595 80.1705 59.1705C79.9595 59.3815 79.6734 59.5 79.375 59.5H74.3125C73.865 59.5 73.4357 59.6778 73.1193 59.9943C72.8028 60.3107 72.625 60.7399 72.625 61.1875C72.625 61.6351 72.8028 62.0643 73.1193 62.3807C73.4357 62.6972 73.865 62.875 74.3125 62.875H77.6875C78.7318 62.875 79.7333 63.2898 80.4717 64.0283C81.2102 64.7667 81.625 65.7682 81.625 66.8125Z" fill="white"/>
</g>
<defs>
<filter id="filter0_d_2002_1668" x="0" y="0" width="152" height="152" filterUnits="userSpaceOnUse" color-interpolation-filters="sRGB">
<feFlood flood-opacity="0" result="BackgroundImageFix"/>
<feColorMatrix in="SourceAlpha" type="matrix" values="0 0 0 0 0 0 0 0 0 0 0 0 0 0 0 0 0 0 127 0" result="hardAlpha"/>
<feOffset dy="12"/>
<feGaussianBlur stdDeviation="16"/>
<feComposite in2="hardAlpha" operator="out"/>
<feColorMatrix type="matrix" values="0 0 0 0 0.0392157 0 0 0 0 0.545098 0 0 0 0 0.545098 0 0 0 0.35 0"/>
<feBlend mode="normal" in2="BackgroundImageFix" result="effect1_dropShadow_2002_1668"/>
<feBlend mode="normal" in="SourceGraphic" in2="effect1_dropShadow_2002_1668" result="shape"/>
</filter>
<linearGradient id="paint0_linear_2002_1668" x1="32" y1="20" x2="120" y2="108" gradientUnits="userSpaceOnUse">
<stop stop-color="#0A8B8B"/>
<stop offset="1" stop-color="#1AB4B4"/>
</linearGradient>
</defs>
</svg>
