<svg width="152" height="152" viewBox="0 0 152 152" fill="none" xmlns="http://www.w3.org/2000/svg">
<g filter="url(#filter0_d_2002_1077)">
<rect x="32" y="20" width="88" height="88" rx="24" fill="url(#paint0_linear_2002_1077)" shape-rendering="crispEdges"/>
<path opacity="0.2" d="M88.375 53.875V61.75C88.375 75.25 76 78.625 76 78.625C76 78.625 63.625 75.25 63.625 61.75V53.875C63.625 53.5766 63.7435 53.2905 63.9545 53.0795C64.1655 52.8685 64.4516 52.75 64.75 52.75H87.25C87.5484 52.75 87.8345 52.8685 88.0455 53.0795C88.2565 53.2905 88.375 53.5766 88.375 53.875Z" fill="white"/>
<path d="M87.25 51.625H64.75C64.1533 51.625 63.581 51.8621 63.159 52.284C62.7371 52.706 62.5 53.2783 62.5 53.875V61.75C62.5 69.1637 66.0888 73.6567 69.0995 76.1205C72.3423 78.7727 75.5683 79.6727 75.7089 79.7106C75.9023 79.7632 76.1062 79.7632 76.2995 79.7106C76.4402 79.6727 79.6619 78.7727 82.9089 76.1205C85.9113 73.6567 89.5 69.1637 89.5 61.75V53.875C89.5 53.2783 89.2629 52.706 88.841 52.284C88.419 51.8621 87.8467 51.625 87.25 51.625ZM87.25 61.75C87.25 66.963 85.3291 71.1944 81.5406 74.3247C79.8915 75.6827 78.0159 76.7395 76 77.4466C74.0104 76.7518 72.1581 75.7138 70.5269 74.3795C66.6934 71.2436 64.75 66.9953 64.75 61.75V53.875H87.25V61.75ZM69.5791 65.9209C69.368 65.7098 69.2494 65.4235 69.2494 65.125C69.2494 64.8265 69.368 64.5402 69.5791 64.3291C69.7902 64.118 70.0765 63.9994 70.375 63.9994C70.6735 63.9994 70.9598 64.118 71.1709 64.3291L73.75 66.9095L80.8291 59.8291C80.9336 59.7245 81.0577 59.6416 81.1942 59.5851C81.3308 59.5285 81.4772 59.4994 81.625 59.4994C81.7728 59.4994 81.9192 59.5285 82.0558 59.5851C82.1923 59.6416 82.3164 59.7245 82.4209 59.8291C82.5255 59.9336 82.6084 60.0577 82.6649 60.1942C82.7215 60.3308 82.7506 60.4772 82.7506 60.625C82.7506 60.7728 82.7215 60.9192 82.6649 61.0558C82.6084 61.1923 82.5255 61.3164 82.4209 61.4209L74.5459 69.2959C74.4415 69.4005 74.3174 69.4835 74.1808 69.5401C74.0442 69.5967 73.8978 69.6259 73.75 69.6259C73.6022 69.6259 73.4558 69.5967 73.3192 69.5401C73.1826 69.4835 73.0585 69.4005 72.9541 69.2959L69.5791 65.9209Z" fill="white"/>
</g>
<defs>
<filter id="filter0_d_2002_1077" x="0" y="0" width="152" height="152" filterUnits="userSpaceOnUse" color-interpolation-filters="sRGB">
<feFlood flood-opacity="0" result="BackgroundImageFix"/>
<feColorMatrix in="SourceAlpha" type="matrix" values="0 0 0 0 0 0 0 0 0 0 0 0 0 0 0 0 0 0 127 0" result="hardAlpha"/>
<feOffset dy="12"/>
<feGaussianBlur stdDeviation="16"/>
<feComposite in2="hardAlpha" operator="out"/>
<feColorMatrix type="matrix" values="0 0 0 0 0.0392157 0 0 0 0 0.545098 0 0 0 0 0.545098 0 0 0 0.35 0"/>
<feBlend mode="normal" in2="BackgroundImageFix" result="effect1_dropShadow_2002_1077"/>
<feBlend mode="normal" in="SourceGraphic" in2="effect1_dropShadow_2002_1077" result="shape"/>
</filter>
<linearGradient id="paint0_linear_2002_1077" x1="32" y1="20" x2="120" y2="108" gradientUnits="userSpaceOnUse">
<stop stop-color="#0A8B8B"/>
<stop offset="1" stop-color="#1AB4B4"/>
</linearGradient>
</defs>
</svg>
