<svg width="152" height="152" viewBox="0 0 152 152" fill="none" xmlns="http://www.w3.org/2000/svg">
<g filter="url(#filter0_d_2002_908)">
<rect x="32" y="20" width="88" height="88" rx="24" fill="url(#paint0_linear_2002_908)" shape-rendering="crispEdges"/>
<path opacity="0.2" d="M89.5 59.5C89.4994 61.065 89.0907 62.6028 88.3143 63.9617C87.5378 65.3205 86.4205 66.4534 85.0725 67.2485C83.7244 68.0436 82.1924 68.4735 80.6275 68.4957C79.0627 68.5178 77.5191 68.1316 76.1491 67.375L68.2656 76.5156C67.6316 77.1496 66.7717 77.5058 65.875 77.5058C64.9783 77.5058 64.1184 77.1496 63.4844 76.5156C62.8503 75.8816 62.4941 75.0216 62.4941 74.125C62.4941 73.2283 62.8503 72.3684 63.4844 71.7343L72.625 63.8509C71.7257 62.2234 71.3525 60.3573 71.5568 58.509C71.7612 56.6608 72.533 54.9213 73.7661 53.5295C74.9993 52.1378 76.6332 51.1621 78.4434 50.7367C80.2535 50.3113 82.151 50.4571 83.875 51.1539L78.25 57.25L79.0459 60.954L82.75 61.75L88.8461 56.125C89.2796 57.1973 89.5016 58.3433 89.5 59.5Z" fill="white"/>
<path d="M89.8881 55.7032C89.8198 55.5345 89.7117 55.3849 89.573 55.2672C89.4342 55.1495 89.269 55.0672 89.0914 55.0274C88.9139 54.9876 88.7293 54.9914 88.5536 55.0386C88.3779 55.0857 88.2162 55.1748 88.0825 55.2982L82.4153 60.528L79.9923 60.0077L79.472 57.5847L84.7018 51.9175C84.8252 51.7838 84.9143 51.6221 84.9614 51.4464C85.0086 51.2707 85.0124 51.0861 84.9726 50.9086C84.9328 50.731 84.8505 50.5658 84.7328 50.4271C84.6151 50.2883 84.4655 50.1802 84.2968 50.1119C82.7597 49.4901 81.0934 49.2554 79.4443 49.4282C77.7952 49.6011 76.2138 50.1763 74.8391 51.1034C73.4643 52.0305 72.3383 53.281 71.5599 54.745C70.7815 56.2091 70.3746 57.8419 70.375 59.5C70.3731 60.9002 70.6604 62.2857 71.2187 63.5697L62.7517 70.8907C62.7306 70.9075 62.7109 70.9272 62.6912 70.9455C61.8472 71.7895 61.373 72.9343 61.373 74.1279C61.373 74.7189 61.4895 75.3041 61.7156 75.8501C61.9418 76.3962 62.2733 76.8923 62.6912 77.3102C63.1091 77.7281 63.6053 78.0596 64.1513 78.2858C64.6973 78.512 65.2825 78.6284 65.8736 78.6284C67.0672 78.6284 68.2119 78.1542 69.0559 77.3102C69.0742 77.2919 69.0939 77.2708 69.1107 77.2511L76.4303 68.7813C77.9721 69.4581 79.6584 69.7397 81.3366 69.6006C83.0147 69.4615 84.6316 68.906 86.0409 67.9845C87.4503 67.063 88.6075 65.8045 89.4079 64.3231C90.2084 62.8416 90.6267 61.1839 90.625 59.5C90.6272 58.1987 90.3769 56.9092 89.8881 55.7032ZM80.5 67.375C79.1684 67.3732 77.8588 67.0346 76.6932 66.3907C76.4674 66.2659 76.2056 66.2226 75.9516 66.2679C75.6977 66.3132 75.467 66.4444 75.2982 66.6396L67.4373 75.7436C67.0119 76.1478 66.4455 76.3698 65.8588 76.3623C65.2721 76.3547 64.7115 76.1183 64.2966 75.7034C63.8817 75.2885 63.6453 74.728 63.6378 74.1412C63.6302 73.5545 63.8522 72.9881 64.2564 72.5627L73.3534 64.7032C73.5489 64.5344 73.6803 64.3034 73.7257 64.0491C73.771 63.7949 73.7274 63.5327 73.6023 63.3068C72.8852 62.0097 72.5486 60.5366 72.6313 59.0568C72.7141 57.577 73.2127 56.1505 74.07 54.9415C74.9272 53.7324 76.1083 52.7898 77.4773 52.2221C78.8464 51.6543 80.3479 51.4844 81.8092 51.7319L77.4217 56.4865C77.2996 56.6189 77.2111 56.7787 77.1636 56.9524C77.1162 57.1262 77.1111 57.3088 77.1489 57.4849L77.9448 61.1875C77.9903 61.3993 78.096 61.5934 78.2492 61.7466C78.4024 61.8998 78.5965 62.0055 78.8082 62.051L82.5137 62.8469C82.6898 62.8847 82.8724 62.8796 83.0462 62.8322C83.2199 62.7847 83.3797 62.6962 83.5122 62.5741L88.2667 58.1866C88.4562 59.3158 88.3975 60.4728 88.0946 61.577C87.7917 62.6813 87.2519 63.7063 86.5127 64.5808C85.7736 65.4552 84.8528 66.1582 83.8144 66.6408C82.776 67.1233 81.645 67.3739 80.5 67.375Z" fill="white"/>
</g>
<defs>
<filter id="filter0_d_2002_908" x="0" y="0" width="152" height="152" filterUnits="userSpaceOnUse" color-interpolation-filters="sRGB">
<feFlood flood-opacity="0" result="BackgroundImageFix"/>
<feColorMatrix in="SourceAlpha" type="matrix" values="0 0 0 0 0 0 0 0 0 0 0 0 0 0 0 0 0 0 127 0" result="hardAlpha"/>
<feOffset dy="12"/>
<feGaussianBlur stdDeviation="16"/>
<feComposite in2="hardAlpha" operator="out"/>
<feColorMatrix type="matrix" values="0 0 0 0 0.0392157 0 0 0 0 0.545098 0 0 0 0 0.545098 0 0 0 0.35 0"/>
<feBlend mode="normal" in2="BackgroundImageFix" result="effect1_dropShadow_2002_908"/>
<feBlend mode="normal" in="SourceGraphic" in2="effect1_dropShadow_2002_908" result="shape"/>
</filter>
<linearGradient id="paint0_linear_2002_908" x1="32" y1="20" x2="120" y2="108" gradientUnits="userSpaceOnUse">
<stop stop-color="#0A8B8B"/>
<stop offset="1" stop-color="#1AB4B4"/>
</linearGradient>
</defs>
</svg>
