<svg width="152" height="152" viewBox="0 0 152 152" fill="none" xmlns="http://www.w3.org/2000/svg">
<g filter="url(#filter0_d_2002_1681)">
<rect x="32" y="20" width="88" height="88" rx="24" fill="url(#paint0_linear_2002_1681)" shape-rendering="crispEdges"/>
<path opacity="0.2" d="M89.5 63.999C89.5003 66.3699 88.8762 68.699 87.6906 70.7521C86.5049 72.8052 84.7995 74.5098 82.7458 75.6945C80.6922 76.8792 78.3627 77.5021 75.9919 77.5007C73.621 77.4993 71.2924 76.8735 69.2402 75.6864L63.9822 77.44C63.784 77.5061 63.5713 77.5157 63.3679 77.4677C63.1645 77.4197 62.9785 77.316 62.8308 77.1682C62.683 77.0205 62.5794 76.8345 62.5314 76.6311C62.4834 76.4278 62.493 76.2151 62.5591 76.0168L64.3127 70.7589C63.2761 68.966 62.666 66.9587 62.5294 64.8922C62.3928 62.8258 62.7335 60.7556 63.5251 58.8419C64.3166 56.9282 65.5379 55.2223 67.0943 53.8561C68.6507 52.49 70.5005 51.5002 72.5007 50.9634C74.5008 50.4266 76.5977 50.3571 78.629 50.7604C80.6603 51.1637 82.5716 52.0289 84.215 53.2891C85.8583 54.5493 87.1898 56.1707 88.1062 58.0279C89.0227 59.885 89.4996 61.9281 89.5 63.999Z" fill="white"/>
<path d="M76 49.375C73.475 49.3744 70.9929 50.0276 68.7953 51.2709C66.5977 52.5143 64.7594 54.3054 63.4593 56.47C62.1593 58.6345 61.4418 61.0988 61.3767 63.6229C61.3116 66.1471 61.9011 68.645 63.0878 70.8738L61.4917 75.662C61.3595 76.0585 61.3403 76.4839 61.4363 76.8906C61.5323 77.2974 61.7397 77.6693 62.0352 77.9648C62.3307 78.2603 62.7027 78.4677 63.1094 78.5637C63.5161 78.6597 63.9415 78.6405 64.338 78.5083L69.1263 76.9122C71.0877 77.9554 73.2609 78.5381 75.4812 78.616C77.7014 78.6939 79.9101 78.265 81.9398 77.3618C83.9695 76.4586 85.7668 75.1049 87.1952 73.4034C88.6236 71.7019 89.6456 69.6974 90.1836 67.542C90.7217 65.3865 90.7616 63.1368 90.3004 60.9637C89.8391 58.7905 88.8889 56.751 87.5217 54.9999C86.1546 53.2488 84.4065 51.8322 82.4101 50.8575C80.4138 49.8829 78.2216 49.3759 76 49.375ZM76 76.375C73.8245 76.3765 71.6872 75.8036 69.8041 74.7142C69.6332 74.6151 69.4392 74.5627 69.2416 74.5623C69.1206 74.5624 69.0004 74.5823 68.8858 74.6214L63.625 76.375L65.3786 71.1156C65.4292 70.9645 65.447 70.8044 65.431 70.6458C65.415 70.4873 65.3655 70.3339 65.2858 70.1959C63.9217 67.8375 63.374 65.0949 63.7277 62.3934C64.0814 59.692 65.3167 57.1828 67.242 55.2551C69.1673 53.3274 71.6749 52.0889 74.3759 51.7318C77.0769 51.3747 79.8203 51.9189 82.1804 53.28C84.5405 54.6411 86.3855 56.7431 87.4291 59.2597C88.4727 61.7764 88.6567 64.5672 87.9523 67.1991C87.248 69.8309 85.6949 72.1568 83.5338 73.8159C81.3727 75.475 78.7245 76.3746 76 76.375ZM81.625 61.75C81.625 62.0484 81.5065 62.3345 81.2955 62.5455C81.0845 62.7565 80.7984 62.875 80.5 62.875H71.5C71.2016 62.875 70.9155 62.7565 70.7045 62.5455C70.4935 62.3345 70.375 62.0484 70.375 61.75C70.375 61.4516 70.4935 61.1655 70.7045 60.9545C70.9155 60.7435 71.2016 60.625 71.5 60.625H80.5C80.7984 60.625 81.0845 60.7435 81.2955 60.9545C81.5065 61.1655 81.625 61.4516 81.625 61.75ZM81.625 66.25C81.625 66.5484 81.5065 66.8345 81.2955 67.0455C81.0845 67.2565 80.7984 67.375 80.5 67.375H71.5C71.2016 67.375 70.9155 67.2565 70.7045 67.0455C70.4935 66.8345 70.375 66.5484 70.375 66.25C70.375 65.9516 70.4935 65.6655 70.7045 65.4545C70.9155 65.2435 71.2016 65.125 71.5 65.125H80.5C80.7984 65.125 81.0845 65.2435 81.2955 65.4545C81.5065 65.6655 81.625 65.9516 81.625 66.25Z" fill="white"/>
</g>
<defs>
<filter id="filter0_d_2002_1681" x="0" y="0" width="152" height="152" filterUnits="userSpaceOnUse" color-interpolation-filters="sRGB">
<feFlood flood-opacity="0" result="BackgroundImageFix"/>
<feColorMatrix in="SourceAlpha" type="matrix" values="0 0 0 0 0 0 0 0 0 0 0 0 0 0 0 0 0 0 127 0" result="hardAlpha"/>
<feOffset dy="12"/>
<feGaussianBlur stdDeviation="16"/>
<feComposite in2="hardAlpha" operator="out"/>
<feColorMatrix type="matrix" values="0 0 0 0 0.0392157 0 0 0 0 0.545098 0 0 0 0 0.545098 0 0 0 0.35 0"/>
<feBlend mode="normal" in2="BackgroundImageFix" result="effect1_dropShadow_2002_1681"/>
<feBlend mode="normal" in="SourceGraphic" in2="effect1_dropShadow_2002_1681" result="shape"/>
</filter>
<linearGradient id="paint0_linear_2002_1681" x1="32" y1="20" x2="120" y2="108" gradientUnits="userSpaceOnUse">
<stop stop-color="#0A8B8B"/>
<stop offset="1" stop-color="#1AB4B4"/>
</linearGradient>
</defs>
</svg>
