<svg width="152" height="152" viewBox="0 0 152 152" fill="none" xmlns="http://www.w3.org/2000/svg">
<g filter="url(#filter0_d_2002_1463)">
<rect x="32" y="20" width="88" height="88" rx="24" fill="url(#paint0_linear_2002_1463)" shape-rendering="crispEdges"/>
<path opacity="0.2" d="M91.7501 64C91.7501 66.9837 90.5648 69.8452 88.455 71.9549C86.3452 74.0647 83.4837 75.25 80.5001 75.25H68.1251C67.0084 75.2486 65.9049 75.0098 64.8876 74.5494C63.8703 74.0889 62.9626 73.4174 62.2246 72.5794C61.4867 71.7414 60.9354 70.756 60.6073 69.6887C60.2793 68.6214 60.1819 67.4965 60.3218 66.3886C60.4616 65.2808 60.8355 64.2154 61.4185 63.2631C62.0016 62.3108 62.7805 61.4933 63.7036 60.865C64.6266 60.2367 65.6728 59.8119 66.7725 59.6187C67.8723 59.4256 69.0006 59.4685 70.0826 59.7447V59.7587C71.067 57.3441 72.8597 55.3464 75.1541 54.1072C77.4485 52.8681 80.1021 52.4645 82.6611 52.9654C85.2202 53.4663 87.5258 54.8407 89.1837 56.8534C90.8415 58.8662 91.7487 61.3924 91.7501 64Z" fill="white"/>
<path d="M83.0792 69.2959L80.5001 66.7155V75.25C80.5001 75.5484 80.3816 75.8345 80.1706 76.0455C79.9596 76.2565 79.6735 76.375 79.3751 76.375C79.0767 76.375 78.7906 76.2565 78.5796 76.0455C78.3686 75.8345 78.2501 75.5484 78.2501 75.25V66.7155L75.6711 69.2959C75.5665 69.4005 75.4424 69.4834 75.3059 69.5399C75.1693 69.5965 75.0229 69.6256 74.8751 69.6256C74.7273 69.6256 74.5809 69.5965 74.4444 69.5399C74.3078 69.4834 74.1837 69.4005 74.0792 69.2959C73.9747 69.1914 73.8917 69.0673 73.8352 68.9308C73.7786 68.7942 73.7495 68.6478 73.7495 68.5C73.7495 68.3522 73.7786 68.2058 73.8352 68.0692C73.8917 67.9327 73.9747 67.8086 74.0792 67.7041L78.5792 63.2041C78.6837 63.0995 78.8077 63.0165 78.9443 62.9599C79.0809 62.9033 79.2273 62.8741 79.3751 62.8741C79.523 62.8741 79.6694 62.9033 79.8059 62.9599C79.9425 63.0165 80.0666 63.0995 80.1711 63.2041L84.6711 67.7041C84.7756 67.8086 84.8585 67.9327 84.9151 68.0692C84.9716 68.2058 85.0007 68.3522 85.0007 68.5C85.0007 68.6478 84.9716 68.7942 84.9151 68.9308C84.8585 69.0673 84.7756 69.1914 84.6711 69.2959C84.5665 69.4005 84.4424 69.4834 84.3059 69.5399C84.1693 69.5965 84.0229 69.6256 83.8751 69.6256C83.7273 69.6256 83.5809 69.5965 83.4444 69.5399C83.3078 69.4834 83.1837 69.4005 83.0792 69.2959ZM80.5001 51.625C78.2017 51.6267 75.9491 52.268 73.9943 53.4769C72.0395 54.6859 70.4597 56.415 69.4315 58.4706C68.2074 58.2907 66.9594 58.3652 65.7653 58.6893C64.5713 59.0134 63.4569 59.5803 62.4917 60.3544C61.5266 61.1286 60.7315 62.0934 60.156 63.1887C59.5804 64.2839 59.2369 65.4861 59.1469 66.72C59.0569 67.954 59.2222 69.1933 59.6327 70.3605C60.0431 71.5277 60.6898 72.5977 61.5323 73.5038C62.3748 74.4098 63.3951 75.1324 64.5295 75.6264C65.6638 76.1205 66.8879 76.3753 68.1251 76.375H73.7501C74.0485 76.375 74.3346 76.2565 74.5456 76.0455C74.7566 75.8345 74.8751 75.5484 74.8751 75.25C74.8751 74.9516 74.7566 74.6655 74.5456 74.4545C74.3346 74.2435 74.0485 74.125 73.7501 74.125H68.1251C66.3349 74.125 64.618 73.4138 63.3521 72.148C62.0863 70.8821 61.3751 69.1652 61.3751 67.375C61.3751 65.5848 62.0863 63.8679 63.3521 62.602C64.618 61.3362 66.3349 60.625 68.1251 60.625C68.2798 60.625 68.4345 60.625 68.5878 60.6419C68.2802 61.7347 68.1246 62.8647 68.1251 64C68.1251 64.2984 68.2436 64.5845 68.4546 64.7955C68.6656 65.0065 68.9517 65.125 69.2501 65.125C69.5485 65.125 69.8346 65.0065 70.0456 64.7955C70.2566 64.5845 70.3751 64.2984 70.3751 64C70.3754 62.1746 70.8691 60.3833 71.8041 58.8155C72.739 57.2478 74.0804 55.9619 75.6863 55.0941C77.2921 54.2262 79.1028 53.8086 80.9265 53.8855C82.7503 53.9624 84.5193 54.5309 86.0464 55.5308C87.5736 56.5307 88.802 57.9248 89.6017 59.5657C90.4014 61.2066 90.7427 63.0331 90.5893 64.852C90.436 66.671 89.7938 68.4146 88.7307 69.8984C87.6676 71.3823 86.2231 72.5511 84.5501 73.2812C84.3126 73.3842 84.1178 73.566 83.9987 73.7959C83.8796 74.0258 83.8434 74.2897 83.8963 74.5432C83.9491 74.7966 84.0878 75.0241 84.2889 75.1872C84.49 75.3503 84.7412 75.439 85.0001 75.4384C85.1551 75.4383 85.3084 75.4057 85.4501 75.3428C88.0564 74.2059 90.1916 72.2062 91.4967 69.68C92.8018 67.1538 93.1972 64.2552 92.6163 61.4718C92.0353 58.6883 90.5136 56.1898 88.307 54.3965C86.1004 52.6032 83.3435 51.6245 80.5001 51.625Z" fill="white"/>
</g>
<defs>
<filter id="filter0_d_2002_1463" x="0" y="0" width="152" height="152" filterUnits="userSpaceOnUse" color-interpolation-filters="sRGB">
<feFlood flood-opacity="0" result="BackgroundImageFix"/>
<feColorMatrix in="SourceAlpha" type="matrix" values="0 0 0 0 0 0 0 0 0 0 0 0 0 0 0 0 0 0 127 0" result="hardAlpha"/>
<feOffset dy="12"/>
<feGaussianBlur stdDeviation="16"/>
<feComposite in2="hardAlpha" operator="out"/>
<feColorMatrix type="matrix" values="0 0 0 0 0.0392157 0 0 0 0 0.545098 0 0 0 0 0.545098 0 0 0 0.35 0"/>
<feBlend mode="normal" in2="BackgroundImageFix" result="effect1_dropShadow_2002_1463"/>
<feBlend mode="normal" in="SourceGraphic" in2="effect1_dropShadow_2002_1463" result="shape"/>
</filter>
<linearGradient id="paint0_linear_2002_1463" x1="32" y1="20" x2="120" y2="108" gradientUnits="userSpaceOnUse">
<stop stop-color="#0A8B8B"/>
<stop offset="1" stop-color="#1AB4B4"/>
</linearGradient>
</defs>
</svg>
