<svg width="152" height="152" viewBox="0 0 152 152" fill="none" xmlns="http://www.w3.org/2000/svg">
<g filter="url(#filter0_d_2002_1694)">
<rect x="32" y="20" width="88" height="88" rx="24" fill="url(#paint0_linear_2002_1694)" shape-rendering="crispEdges"/>
<path opacity="0.2" d="M88.375 64C88.375 66.4475 87.6492 68.8401 86.2894 70.8752C84.9297 72.9102 82.9969 74.4964 80.7357 75.433C78.4745 76.3696 75.9863 76.6147 73.5858 76.1372C71.1852 75.6597 68.9802 74.4811 67.2496 72.7504C65.5189 71.0198 64.3403 68.8148 63.8628 66.4142C63.3853 64.0137 63.6304 61.5255 64.567 59.2643C65.5036 57.0031 67.0898 55.0703 69.1248 53.7106C71.1599 52.3508 73.5525 51.625 76 51.625C79.2821 51.625 82.4297 52.9288 84.7505 55.2496C87.0712 57.5703 88.375 60.7179 88.375 64Z" fill="white"/>
<path d="M89.5 52.7508V59.5008C89.5 59.7991 89.3815 60.0853 89.1705 60.2963C88.9595 60.5072 88.6734 60.6258 88.375 60.6258H81.625C81.3266 60.6258 81.0405 60.5072 80.8295 60.2963C80.6185 60.0853 80.5 59.7991 80.5 59.5008C80.5 59.2024 80.6185 58.9163 80.8295 58.7053C81.0405 58.4943 81.3266 58.3758 81.625 58.3758H85.6595L83.6022 56.3184C81.5113 54.2181 78.6725 53.0331 75.7089 53.0236H75.6456C72.7068 53.0167 69.8834 54.167 67.7861 56.2256C67.5712 56.4262 67.2864 56.5347 66.9926 56.528C66.6988 56.5212 66.4192 56.3998 66.2138 56.1896C66.0084 55.9794 65.8934 55.6971 65.8934 55.4032C65.8934 55.1093 66.0085 54.827 66.2139 54.6169C68.7557 52.1326 72.1747 50.7509 75.7289 50.7717C79.2831 50.7925 82.6857 52.2141 85.1983 54.728L87.25 56.7853V52.7508C87.25 52.4524 87.3685 52.1663 87.5795 51.9553C87.7905 51.7443 88.0766 51.6258 88.375 51.6258C88.6734 51.6258 88.9595 51.7443 89.1705 51.9553C89.3815 52.1663 89.5 52.4524 89.5 52.7508ZM84.2139 71.7759C82.0959 73.8449 79.2476 74.9954 76.2868 74.978C73.326 74.9606 70.4914 73.7768 68.3978 71.6831L66.3405 69.6258H70.375C70.6734 69.6258 70.9595 69.5072 71.1705 69.2963C71.3815 69.0853 71.5 68.7991 71.5 68.5008C71.5 68.2024 71.3815 67.9163 71.1705 67.7053C70.9595 67.4943 70.6734 67.3758 70.375 67.3758H63.625C63.3266 67.3758 63.0405 67.4943 62.8295 67.7053C62.6185 67.9163 62.5 68.2024 62.5 68.5008V75.2508C62.5 75.5491 62.6185 75.8353 62.8295 76.0463C63.0405 76.2572 63.3266 76.3758 63.625 76.3758C63.9234 76.3758 64.2095 76.2572 64.4205 76.0463C64.6315 75.8353 64.75 75.5491 64.75 75.2508V71.2162L66.8073 73.2736C69.3164 75.7953 72.724 77.2176 76.2812 77.228H76.3558C79.8828 77.237 83.2713 75.8563 85.7875 73.3847C85.9929 73.1745 86.108 72.8923 86.108 72.5984C86.108 72.3044 85.993 72.0222 85.7876 71.812C85.5822 71.6018 85.3026 71.4803 85.0088 71.4736C84.715 71.4669 84.4302 71.5754 84.2153 71.7759H84.2139Z" fill="white"/>
</g>
<defs>
<filter id="filter0_d_2002_1694" x="0" y="0" width="152" height="152" filterUnits="userSpaceOnUse" color-interpolation-filters="sRGB">
<feFlood flood-opacity="0" result="BackgroundImageFix"/>
<feColorMatrix in="SourceAlpha" type="matrix" values="0 0 0 0 0 0 0 0 0 0 0 0 0 0 0 0 0 0 127 0" result="hardAlpha"/>
<feOffset dy="12"/>
<feGaussianBlur stdDeviation="16"/>
<feComposite in2="hardAlpha" operator="out"/>
<feColorMatrix type="matrix" values="0 0 0 0 0.0392157 0 0 0 0 0.545098 0 0 0 0 0.545098 0 0 0 0.35 0"/>
<feBlend mode="normal" in2="BackgroundImageFix" result="effect1_dropShadow_2002_1694"/>
<feBlend mode="normal" in="SourceGraphic" in2="effect1_dropShadow_2002_1694" result="shape"/>
</filter>
<linearGradient id="paint0_linear_2002_1694" x1="32" y1="20" x2="120" y2="108" gradientUnits="userSpaceOnUse">
<stop stop-color="#0A8B8B"/>
<stop offset="1" stop-color="#1AB4B4"/>
</linearGradient>
</defs>
</svg>
