<svg width="152" height="152" viewBox="0 0 152 152" fill="none" xmlns="http://www.w3.org/2000/svg">
<g filter="url(#filter0_d_2002_1448)">
<rect x="32" y="20" width="88" height="88" rx="24" fill="url(#paint0_linear_2002_1448)" shape-rendering="crispEdges"/>
<path opacity="0.2" d="M87.5228 62.023L74.0228 75.523C72.7534 76.7718 71.042 77.4685 69.2613 77.4613C67.4807 77.454 65.775 76.7434 64.5158 75.4843C63.2567 74.2252 62.5461 72.5195 62.5389 70.7388C62.5316 68.9581 63.2283 67.2467 64.4771 65.9774L77.9771 52.4774C79.2465 51.2285 80.9579 50.5319 82.7386 50.5391C84.5192 50.5464 86.2249 51.257 87.4841 52.5161C88.7432 53.7752 89.4538 55.4809 89.461 57.2616C89.4683 59.0423 88.7716 60.7537 87.5228 62.023Z" fill="white"/>
<path d="M81.296 58.7046C81.4006 58.8091 81.4836 58.9332 81.5402 59.0698C81.5968 59.2063 81.6259 59.3527 81.6259 59.5006C81.6259 59.6484 81.5968 59.7948 81.5402 59.9314C81.4836 60.0679 81.4006 60.192 81.296 60.2965L72.296 69.2965C72.1914 69.401 72.0674 69.4839 71.9308 69.5405C71.7942 69.5971 71.6479 69.6262 71.5 69.6262C71.3522 69.6262 71.2058 69.5971 71.0693 69.5405C70.9327 69.4839 70.8086 69.401 70.7041 69.2965C70.5996 69.192 70.5167 69.0679 70.4601 68.9313C70.4035 68.7948 70.3744 68.6484 70.3744 68.5006C70.3744 68.3527 70.4035 68.2064 70.4601 68.0698C70.5167 67.9332 70.5996 67.8092 70.7041 67.7046L79.7041 58.7046C79.8086 58.6 79.9327 58.5171 80.0692 58.4604C80.2058 58.4038 80.3522 58.3747 80.5 58.3747C80.6479 58.3747 80.7943 58.4038 80.9308 58.4604C81.0674 58.5171 81.1915 58.6 81.296 58.7046ZM88.3188 51.6818C87.5875 50.9505 86.7193 50.3703 85.7639 49.9745C84.8084 49.5787 83.7843 49.375 82.75 49.375C81.7158 49.375 80.6917 49.5787 79.7362 49.9745C78.7807 50.3703 77.9126 50.9505 77.1813 51.6818L72.9541 55.9076C72.743 56.1187 72.6244 56.405 72.6244 56.7035C72.6244 57.0021 72.743 57.2884 72.9541 57.4995C73.1652 57.7106 73.4515 57.8292 73.75 57.8292C74.0486 57.8292 74.3349 57.7106 74.546 57.4995L78.7732 53.2807C79.8319 52.2452 81.2563 51.669 82.7372 51.6772C84.2181 51.6854 85.6361 52.2772 86.6834 53.3243C87.7306 54.3714 88.3227 55.7892 88.3311 57.2701C88.3396 58.7511 87.7636 60.1755 86.7283 61.2345L82.4997 65.4617C82.2886 65.6726 82.17 65.9587 82.1698 66.2571C82.1697 66.5555 82.2881 66.8417 82.499 67.0528C82.7099 67.2639 82.9961 67.3826 83.2945 67.3827C83.5929 67.3829 83.8791 67.2644 84.0902 67.0535L88.3188 62.8193C89.0501 62.088 89.6303 61.2199 90.0261 60.2644C90.4219 59.3089 90.6256 58.2848 90.6256 57.2506C90.6256 56.2163 90.4219 55.1922 90.0261 54.2368C89.6303 53.2813 89.0501 52.4131 88.3188 51.6818ZM77.4541 70.5003L73.2269 74.7274C72.7067 75.2593 72.0862 75.6827 71.4012 75.9731C70.7162 76.2635 69.9805 76.4152 69.2365 76.4193C68.4925 76.4234 67.7551 76.2799 67.067 75.997C66.3789 75.7142 65.7537 75.2976 65.2277 74.7715C64.7017 74.2454 64.2852 73.6201 64.0025 72.932C63.7198 72.2438 63.5764 71.5064 63.5806 70.7624C63.5848 70.0184 63.7366 69.2827 64.0271 68.5978C64.3177 67.9129 64.7412 67.2924 65.2732 66.7723L69.4989 62.5465C69.71 62.3354 69.8286 62.0491 69.8286 61.7506C69.8286 61.452 69.71 61.1657 69.4989 60.9546C69.2878 60.7435 69.0015 60.6249 68.703 60.6249C68.4045 60.6249 68.1182 60.7435 67.9071 60.9546L63.6813 65.1818C62.2044 66.6587 61.3746 68.6619 61.3746 70.7506C61.3746 72.8393 62.2044 74.8424 63.6813 76.3193C65.1582 77.7962 67.1613 78.626 69.25 78.626C71.3387 78.626 73.3419 77.7962 74.8188 76.3193L79.046 72.0907C79.2569 71.8796 79.3753 71.5934 79.3752 71.295C79.375 70.9966 79.2564 70.7105 79.0453 70.4996C78.8342 70.2886 78.5479 70.1702 78.2495 70.1704C77.9511 70.1705 77.665 70.2892 77.4541 70.5003Z" fill="white"/>
</g>
<defs>
<filter id="filter0_d_2002_1448" x="0" y="0" width="152" height="152" filterUnits="userSpaceOnUse" color-interpolation-filters="sRGB">
<feFlood flood-opacity="0" result="BackgroundImageFix"/>
<feColorMatrix in="SourceAlpha" type="matrix" values="0 0 0 0 0 0 0 0 0 0 0 0 0 0 0 0 0 0 127 0" result="hardAlpha"/>
<feOffset dy="12"/>
<feGaussianBlur stdDeviation="16"/>
<feComposite in2="hardAlpha" operator="out"/>
<feColorMatrix type="matrix" values="0 0 0 0 0.0392157 0 0 0 0 0.545098 0 0 0 0 0.545098 0 0 0 0.35 0"/>
<feBlend mode="normal" in2="BackgroundImageFix" result="effect1_dropShadow_2002_1448"/>
<feBlend mode="normal" in="SourceGraphic" in2="effect1_dropShadow_2002_1448" result="shape"/>
</filter>
<linearGradient id="paint0_linear_2002_1448" x1="32" y1="20" x2="120" y2="108" gradientUnits="userSpaceOnUse">
<stop stop-color="#0A8B8B"/>
<stop offset="1" stop-color="#1AB4B4"/>
</linearGradient>
</defs>
</svg>
