<svg width="152" height="152" viewBox="0 0 152 152" fill="none" xmlns="http://www.w3.org/2000/svg">
<g filter="url(#filter0_d_7_4456)">
<rect x="40" y="28" width="72" height="72" rx="20" fill="url(#paint0_linear_7_4456)"/>
<rect x="40.5" y="28.5" width="71" height="71" rx="19.5" stroke="black" stroke-opacity="0.08"/>
<path opacity="0.2" d="M89 55V73H80C78.9391 73 77.9217 73.4214 77.1716 74.1716C76.4214 74.9217 76 75.9391 76 77V59C76 57.9391 76.4214 56.9217 77.1716 56.1716C77.9217 55.4214 78.9391 55 80 55H89Z" fill="white"/>
<path d="M89 54H80C79.2238 54 78.4582 54.1807 77.7639 54.5279C77.0697 54.875 76.4657 55.379 76 56C75.5343 55.379 74.9303 54.875 74.2361 54.5279C73.5418 54.1807 72.7762 54 72 54H63C62.7348 54 62.4804 54.1054 62.2929 54.2929C62.1054 54.4804 62 54.7348 62 55V73C62 73.2652 62.1054 73.5196 62.2929 73.7071C62.4804 73.8946 62.7348 74 63 74H72C72.7956 74 73.5587 74.3161 74.1213 74.8787C74.6839 75.4413 75 76.2044 75 77C75 77.2652 75.1054 77.5196 75.2929 77.7071C75.4804 77.8946 75.7348 78 76 78C76.2652 78 76.5196 77.8946 76.7071 77.7071C76.8946 77.5196 77 77.2652 77 77C77 76.2044 77.3161 75.4413 77.8787 74.8787C78.4413 74.3161 79.2044 74 80 74H89C89.2652 74 89.5196 73.8946 89.7071 73.7071C89.8946 73.5196 90 73.2652 90 73V55C90 54.7348 89.8946 54.4804 89.7071 54.2929C89.5196 54.1054 89.2652 54 89 54ZM72 72H64V56H72C72.7956 56 73.5587 56.3161 74.1213 56.8787C74.6839 57.4413 75 58.2044 75 59V73C74.1353 72.3493 73.0821 71.9983 72 72ZM88 72H80C78.9179 71.9983 77.8647 72.3493 77 73V59C77 58.2044 77.3161 57.4413 77.8787 56.8787C78.4413 56.3161 79.2044 56 80 56H88V72ZM80 59H85C85.2652 59 85.5196 59.1054 85.7071 59.2929C85.8946 59.4804 86 59.7348 86 60C86 60.2652 85.8946 60.5196 85.7071 60.7071C85.5196 60.8946 85.2652 61 85 61H80C79.7348 61 79.4804 60.8946 79.2929 60.7071C79.1054 60.5196 79 60.2652 79 60C79 59.7348 79.1054 59.4804 79.2929 59.2929C79.4804 59.1054 79.7348 59 80 59ZM86 64C86 64.2652 85.8946 64.5196 85.7071 64.7071C85.5196 64.8946 85.2652 65 85 65H80C79.7348 65 79.4804 64.8946 79.2929 64.7071C79.1054 64.5196 79 64.2652 79 64C79 63.7348 79.1054 63.4804 79.2929 63.2929C79.4804 63.1054 79.7348 63 80 63H85C85.2652 63 85.5196 63.1054 85.7071 63.2929C85.8946 63.4804 86 63.7348 86 64ZM86 68C86 68.2652 85.8946 68.5196 85.7071 68.7071C85.5196 68.8946 85.2652 69 85 69H80C79.7348 69 79.4804 68.8946 79.2929 68.7071C79.1054 68.5196 79 68.2652 79 68C79 67.7348 79.1054 67.4804 79.2929 67.2929C79.4804 67.1054 79.7348 67 80 67H85C85.2652 67 85.5196 67.1054 85.7071 67.2929C85.8946 67.4804 86 67.7348 86 68Z" fill="white"/>
</g>
<defs>
<filter id="filter0_d_7_4456" x="0" y="0" width="152" height="152" filterUnits="userSpaceOnUse" color-interpolation-filters="sRGB">
<feFlood flood-opacity="0" result="BackgroundImageFix"/>
<feColorMatrix in="SourceAlpha" type="matrix" values="0 0 0 0 0 0 0 0 0 0 0 0 0 0 0 0 0 0 127 0" result="hardAlpha"/>
<feOffset dy="12"/>
<feGaussianBlur stdDeviation="20"/>
<feComposite in2="hardAlpha" operator="out"/>
<feColorMatrix type="matrix" values="0 0 0 0 0.0392157 0 0 0 0 0.545098 0 0 0 0 0.545098 0 0 0 0.45 0"/>
<feBlend mode="normal" in2="BackgroundImageFix" result="effect1_dropShadow_7_4456"/>
<feBlend mode="normal" in="SourceGraphic" in2="effect1_dropShadow_7_4456" result="shape"/>
</filter>
<linearGradient id="paint0_linear_7_4456" x1="40" y1="28" x2="112" y2="100" gradientUnits="userSpaceOnUse">
<stop stop-color="#0A8B8B"/>
<stop offset="1" stop-color="#1AB4B4"/>
</linearGradient>
</defs>
</svg>
