<svg width="112" height="112" viewBox="0 0 112 112" fill="none" xmlns="http://www.w3.org/2000/svg">
<g filter="url(#filter0_d_7_3595)">
<rect x="24" y="16" width="64" height="64" rx="16" fill="url(#paint0_linear_7_3595)" shape-rendering="crispEdges"/>
<path opacity="0.2" d="M66.5 40.125V56.75L63 55L59.5 56.75L56 55L52.5 56.75L49 55L45.5 56.75V40.125C45.5 39.8929 45.5922 39.6704 45.7563 39.5063C45.9204 39.3422 46.1429 39.25 46.375 39.25H65.625C65.8571 39.25 66.0796 39.3422 66.2437 39.5063C66.4078 39.6704 66.5 39.8929 66.5 40.125Z" fill="white"/>
<path d="M49.875 45.375C49.875 45.1429 49.9672 44.9204 50.1313 44.7563C50.2954 44.5922 50.5179 44.5 50.75 44.5H61.25C61.4821 44.5 61.7046 44.5922 61.8687 44.7563C62.0328 44.9204 62.125 45.1429 62.125 45.375C62.125 45.6071 62.0328 45.8296 61.8687 45.9937C61.7046 46.1578 61.4821 46.25 61.25 46.25H50.75C50.5179 46.25 50.2954 46.1578 50.1313 45.9937C49.9672 45.8296 49.875 45.6071 49.875 45.375ZM50.75 49.75H61.25C61.4821 49.75 61.7046 49.6578 61.8687 49.4937C62.0328 49.3296 62.125 49.1071 62.125 48.875C62.125 48.6429 62.0328 48.4204 61.8687 48.2563C61.7046 48.0922 61.4821 48 61.25 48H50.75C50.5179 48 50.2954 48.0922 50.1313 48.2563C49.9672 48.4204 49.875 48.6429 49.875 48.875C49.875 49.1071 49.9672 49.3296 50.1313 49.4937C50.2954 49.6578 50.5179 49.75 50.75 49.75ZM67.375 40.125V56.75C67.3749 56.8991 67.3367 57.0458 67.264 57.176C67.1914 57.3062 67.0866 57.4157 66.9597 57.494C66.8328 57.5724 66.688 57.617 66.539 57.6237C66.39 57.6303 66.2418 57.5988 66.1084 57.532L63 55.9778L59.8916 57.532C59.77 57.5929 59.6359 57.6245 59.5 57.6245C59.3641 57.6245 59.23 57.5929 59.1084 57.532L56 55.9778L52.8916 57.532C52.77 57.5929 52.6359 57.6245 52.5 57.6245C52.3641 57.6245 52.23 57.5929 52.1084 57.532L49 55.9778L45.8916 57.532C45.7582 57.5988 45.61 57.6303 45.461 57.6237C45.312 57.617 45.1672 57.5724 45.0403 57.494C44.9134 57.4157 44.8086 57.3062 44.736 57.176C44.6633 57.0458 44.6251 56.8991 44.625 56.75V40.125C44.625 39.6609 44.8094 39.2158 45.1376 38.8876C45.4658 38.5594 45.9109 38.375 46.375 38.375H65.625C66.0891 38.375 66.5342 38.5594 66.8624 38.8876C67.1906 39.2158 67.375 39.6609 67.375 40.125ZM65.625 40.125H46.375V55.3347L48.6084 54.2169C48.73 54.156 48.8641 54.1244 49 54.1244C49.1359 54.1244 49.27 54.156 49.3916 54.2169L52.5 55.7722L55.6084 54.2169C55.73 54.156 55.8641 54.1244 56 54.1244C56.1359 54.1244 56.27 54.156 56.3916 54.2169L59.5 55.7722L62.6084 54.2169C62.73 54.156 62.8641 54.1244 63 54.1244C63.1359 54.1244 63.27 54.156 63.3916 54.2169L65.625 55.3347V40.125Z" fill="white"/>
</g>
<defs>
<filter id="filter0_d_7_3595" x="0" y="0" width="112" height="112" filterUnits="userSpaceOnUse" color-interpolation-filters="sRGB">
<feFlood flood-opacity="0" result="BackgroundImageFix"/>
<feColorMatrix in="SourceAlpha" type="matrix" values="0 0 0 0 0 0 0 0 0 0 0 0 0 0 0 0 0 0 127 0" result="hardAlpha"/>
<feOffset dy="8"/>
<feGaussianBlur stdDeviation="12"/>
<feComposite in2="hardAlpha" operator="out"/>
<feColorMatrix type="matrix" values="0 0 0 0 0 0 0 0 0 0 0 0 0 0 0 0 0 0 0.15 0"/>
<feBlend mode="normal" in2="BackgroundImageFix" result="effect1_dropShadow_7_3595"/>
<feBlend mode="normal" in="SourceGraphic" in2="effect1_dropShadow_7_3595" result="shape"/>
</filter>
<linearGradient id="paint0_linear_7_3595" x1="24" y1="16" x2="88" y2="80" gradientUnits="userSpaceOnUse">
<stop stop-color="#0A8B8B"/>
<stop offset="1" stop-color="#1AB4B4"/>
</linearGradient>
</defs>
</svg>
