<svg width="52" height="52" viewBox="0 0 52 52" fill="none" xmlns="http://www.w3.org/2000/svg">
<rect width="52" height="52" rx="26" fill="url(#paint0_linear_111_1556)"/>
<path opacity="0.2" d="M34 22C34 23.5823 33.5308 25.129 32.6518 26.4446C31.7727 27.7602 30.5233 28.7855 29.0615 29.391C27.5997 29.9965 25.9911 30.155 24.4393 29.8463C22.8874 29.5376 21.462 28.7757 20.3431 27.6569C19.2243 26.538 18.4624 25.1126 18.1537 23.5607C17.845 22.0089 18.0035 20.4003 18.609 18.9385C19.2145 17.4767 20.2398 16.2273 21.5554 15.3482C22.871 14.4692 24.4178 14 26 14C28.1217 14 30.1566 14.8429 31.6569 16.3431C33.1571 17.8434 34 19.8783 34 22Z" fill="white"/>
<path d="M38.8648 36.4995C36.9611 33.2082 34.0273 30.8482 30.6036 29.7295C32.2971 28.7213 33.6129 27.1851 34.3489 25.3567C35.0848 23.5284 35.2002 21.509 34.6774 19.6087C34.1546 17.7084 33.0224 16.0322 31.4548 14.8377C29.8872 13.6431 27.9708 12.9961 25.9999 12.9961C24.0289 12.9961 22.1125 13.6431 20.5449 14.8377C18.9773 16.0322 17.8451 17.7084 17.3223 19.6087C16.7995 21.509 16.9149 23.5284 17.6508 25.3567C18.3868 27.1851 19.7026 28.7213 21.3961 29.7295C17.9724 30.847 15.0386 33.207 13.1349 36.4995C13.065 36.6133 13.0187 36.74 12.9987 36.872C12.9786 37.004 12.9852 37.1387 13.018 37.2682C13.0508 37.3976 13.1093 37.5192 13.1898 37.6257C13.2704 37.7322 13.3715 37.8214 13.4871 37.8882C13.6028 37.955 13.7306 37.998 13.8631 38.0146C13.9956 38.0311 14.1301 38.021 14.2586 37.9848C14.3872 37.9486 14.5071 37.8869 14.6115 37.8036C14.7158 37.7202 14.8024 37.6168 14.8661 37.4995C17.2211 33.4295 21.3836 30.9995 25.9999 30.9995C30.6161 30.9995 34.7786 33.4295 37.1336 37.4995C37.1973 37.6168 37.2839 37.7202 37.3882 37.8036C37.4926 37.8869 37.6125 37.9486 37.7411 37.9848C37.8696 38.021 38.0041 38.0311 38.1366 38.0146C38.2691 37.998 38.3969 37.955 38.5126 37.8882C38.6282 37.8214 38.7293 37.7322 38.8099 37.6257C38.8904 37.5192 38.9489 37.3976 38.9817 37.2682C39.0145 37.1387 39.0211 37.004 39.001 36.872C38.981 36.74 38.9347 36.6133 38.8648 36.4995ZM18.9999 21.9995C18.9999 20.615 19.4104 19.2616 20.1796 18.1105C20.9487 16.9594 22.042 16.0622 23.3211 15.5323C24.6001 15.0025 26.0076 14.8639 27.3655 15.134C28.7234 15.4041 29.9706 16.0708 30.9496 17.0497C31.9286 18.0287 32.5953 19.276 32.8653 20.6339C33.1354 21.9917 32.9968 23.3992 32.467 24.6783C31.9372 25.9574 31.04 27.0506 29.8888 27.8198C28.7377 28.589 27.3843 28.9995 25.9999 28.9995C24.1439 28.9975 22.3646 28.2594 21.0523 26.9471C19.74 25.6347 19.0018 23.8554 18.9999 21.9995Z" fill="white"/>
<defs>
<linearGradient id="paint0_linear_111_1556" x1="0" y1="0" x2="52" y2="52" gradientUnits="userSpaceOnUse">
<stop stop-color="#0A8B8B"/>
<stop offset="1" stop-color="#1AB4B4"/>
</linearGradient>
</defs>
</svg>
