<svg width="152" height="152" viewBox="0 0 152 152" fill="none" xmlns="http://www.w3.org/2000/svg">
<g filter="url(#filter0_d_7_4451)">
<rect x="40" y="28" width="72" height="72" rx="20" fill="url(#paint0_linear_7_4451)"/>
<rect x="40.5" y="28.5" width="71" height="71" rx="19.5" stroke="black" stroke-opacity="0.08"/>
<path opacity="0.2" d="M88 57V73C88 73.2652 87.8946 73.5196 87.7071 73.7071C87.5196 73.8946 87.2652 74 87 74H65C64.7348 74 64.4804 73.8946 64.2929 73.7071C64.1054 73.5196 64 73.2652 64 73V57C64 56.7348 64.1054 56.4804 64.2929 56.2929C64.4804 56.1054 64.7348 56 65 56H87C87.2652 56 87.5196 56.1054 87.7071 56.2929C87.8946 56.4804 88 56.7348 88 57Z" fill="white"/>
<path d="M87 55H82V54C82 53.2044 81.6839 52.4413 81.1213 51.8787C80.5587 51.3161 79.7956 51 79 51H73C72.2044 51 71.4413 51.3161 70.8787 51.8787C70.3161 52.4413 70 53.2044 70 54V55H65C64.4696 55 63.9609 55.2107 63.5858 55.5858C63.2107 55.9609 63 56.4696 63 57V73C63 73.5304 63.2107 74.0391 63.5858 74.4142C63.9609 74.7893 64.4696 75 65 75H87C87.5304 75 88.0391 74.7893 88.4142 74.4142C88.7893 74.0391 89 73.5304 89 73V57C89 56.4696 88.7893 55.9609 88.4142 55.5858C88.0391 55.2107 87.5304 55 87 55ZM72 54C72 53.7348 72.1054 53.4804 72.2929 53.2929C72.4804 53.1054 72.7348 53 73 53H79C79.2652 53 79.5196 53.1054 79.7071 53.2929C79.8946 53.4804 80 53.7348 80 54V55H72V54ZM87 73H65V57H87V73ZM80 65C80 65.2652 79.8946 65.5196 79.7071 65.7071C79.5196 65.8946 79.2652 66 79 66H77V68C77 68.2652 76.8946 68.5196 76.7071 68.7071C76.5196 68.8946 76.2652 69 76 69C75.7348 69 75.4804 68.8946 75.2929 68.7071C75.1054 68.5196 75 68.2652 75 68V66H73C72.7348 66 72.4804 65.8946 72.2929 65.7071C72.1054 65.5196 72 65.2652 72 65C72 64.7348 72.1054 64.4804 72.2929 64.2929C72.4804 64.1054 72.7348 64 73 64H75V62C75 61.7348 75.1054 61.4804 75.2929 61.2929C75.4804 61.1054 75.7348 61 76 61C76.2652 61 76.5196 61.1054 76.7071 61.2929C76.8946 61.4804 77 61.7348 77 62V64H79C79.2652 64 79.5196 64.1054 79.7071 64.2929C79.8946 64.4804 80 64.7348 80 65Z" fill="white"/>
</g>
<defs>
<filter id="filter0_d_7_4451" x="0" y="0" width="152" height="152" filterUnits="userSpaceOnUse" color-interpolation-filters="sRGB">
<feFlood flood-opacity="0" result="BackgroundImageFix"/>
<feColorMatrix in="SourceAlpha" type="matrix" values="0 0 0 0 0 0 0 0 0 0 0 0 0 0 0 0 0 0 127 0" result="hardAlpha"/>
<feOffset dy="12"/>
<feGaussianBlur stdDeviation="20"/>
<feComposite in2="hardAlpha" operator="out"/>
<feColorMatrix type="matrix" values="0 0 0 0 0.0392157 0 0 0 0 0.545098 0 0 0 0 0.545098 0 0 0 0.45 0"/>
<feBlend mode="normal" in2="BackgroundImageFix" result="effect1_dropShadow_7_4451"/>
<feBlend mode="normal" in="SourceGraphic" in2="effect1_dropShadow_7_4451" result="shape"/>
</filter>
<linearGradient id="paint0_linear_7_4451" x1="40" y1="28" x2="112" y2="100" gradientUnits="userSpaceOnUse">
<stop stop-color="#0A8B8B"/>
<stop offset="1" stop-color="#1AB4B4"/>
</linearGradient>
</defs>
</svg>
