<svg width="112" height="112" viewBox="0 0 112 112" fill="none" xmlns="http://www.w3.org/2000/svg">
<g filter="url(#filter0_d_2002_1120)">
<rect x="24" y="16" width="64" height="64" rx="18" fill="url(#paint0_linear_2002_1120)" shape-rendering="crispEdges"/>
<path opacity="0.2" d="M63.875 39.25V46.1516C63.875 50.4937 60.4023 54.0922 56.0602 54.125C55.0209 54.1329 53.9904 53.9351 53.028 53.5429C52.0657 53.1507 51.1904 52.5719 50.4528 51.8398C49.7151 51.1078 49.1297 50.237 48.7302 49.2776C48.3306 48.3182 48.125 47.2892 48.125 46.25V39.25H63.875Z" fill="white"/>
<path d="M67.375 41H64.75V39.25C64.75 39.0179 64.6578 38.7954 64.4937 38.6313C64.3296 38.4672 64.1071 38.375 63.875 38.375H48.125C47.8929 38.375 47.6704 38.4672 47.5063 38.6313C47.3422 38.7954 47.25 39.0179 47.25 39.25V41H44.625C44.1609 41 43.7158 41.1844 43.3876 41.5126C43.0594 41.8408 42.875 42.2859 42.875 42.75V44.5C42.875 45.6603 43.3359 46.7731 44.1564 47.5936C44.5627 47.9998 45.045 48.3221 45.5758 48.542C46.1066 48.7618 46.6755 48.875 47.25 48.875H47.6492C48.1646 50.5084 49.1474 51.955 50.476 53.036C51.8046 54.117 53.4209 54.7849 55.125 54.9573V57.625H52.5C52.2679 57.625 52.0454 57.7172 51.8813 57.8813C51.7172 58.0454 51.625 58.2679 51.625 58.5C51.625 58.7321 51.7172 58.9546 51.8813 59.1187C52.0454 59.2828 52.2679 59.375 52.5 59.375H59.5C59.7321 59.375 59.9546 59.2828 60.1187 59.1187C60.2828 58.9546 60.375 58.7321 60.375 58.5C60.375 58.2679 60.2828 58.0454 60.1187 57.8813C59.9546 57.7172 59.7321 57.625 59.5 57.625H56.875V54.9541C60.3684 54.6008 63.2669 52.1497 64.3213 48.875H64.75C65.9103 48.875 67.0231 48.4141 67.8436 47.5936C68.6641 46.7731 69.125 45.6603 69.125 44.5V42.75C69.125 42.2859 68.9406 41.8408 68.6124 41.5126C68.2842 41.1844 67.8391 41 67.375 41ZM47.25 47.125C46.5538 47.125 45.8861 46.8484 45.3938 46.3562C44.9016 45.8639 44.625 45.1962 44.625 44.5V42.75H47.25V46.25C47.25 46.5417 47.2642 46.8333 47.2927 47.125H47.25ZM63 46.1516C63 50.0366 59.8281 53.2216 56 53.25C54.1435 53.25 52.363 52.5125 51.0503 51.1997C49.7375 49.887 49 48.1065 49 46.25V40.125H63V46.1516ZM67.375 44.5C67.375 45.1962 67.0984 45.8639 66.6062 46.3562C66.1139 46.8484 65.4462 47.125 64.75 47.125H64.6953C64.7312 46.8018 64.7495 46.4768 64.75 46.1516V42.75H67.375V44.5Z" fill="white"/>
</g>
<defs>
<filter id="filter0_d_2002_1120" x="0" y="0" width="112" height="112" filterUnits="userSpaceOnUse" color-interpolation-filters="sRGB">
<feFlood flood-opacity="0" result="BackgroundImageFix"/>
<feColorMatrix in="SourceAlpha" type="matrix" values="0 0 0 0 0 0 0 0 0 0 0 0 0 0 0 0 0 0 127 0" result="hardAlpha"/>
<feOffset dy="8"/>
<feGaussianBlur stdDeviation="12"/>
<feComposite in2="hardAlpha" operator="out"/>
<feColorMatrix type="matrix" values="0 0 0 0 0.0392157 0 0 0 0 0.545098 0 0 0 0 0.545098 0 0 0 0.3 0"/>
<feBlend mode="normal" in2="BackgroundImageFix" result="effect1_dropShadow_2002_1120"/>
<feBlend mode="normal" in="SourceGraphic" in2="effect1_dropShadow_2002_1120" result="shape"/>
</filter>
<linearGradient id="paint0_linear_2002_1120" x1="24" y1="16" x2="88" y2="80" gradientUnits="userSpaceOnUse">
<stop stop-color="#0A8B8B"/>
<stop offset="1" stop-color="#1AB4B4"/>
</linearGradient>
</defs>
</svg>
