<svg width="112" height="112" viewBox="0 0 112 112" fill="none" xmlns="http://www.w3.org/2000/svg">
<g filter="url(#filter0_d_2002_652)">
<rect x="24" y="16" width="64" height="64" rx="18" fill="url(#paint0_linear_2002_652)" shape-rendering="crispEdges"/>
<path opacity="0.2" d="M52.3698 55.0001L49.1487 57.4326C49.0327 57.5255 48.8949 57.5873 48.7484 57.6122C48.6019 57.6371 48.4514 57.6243 48.3112 57.5749C48.171 57.5255 48.0457 57.4413 47.9471 57.3301C47.8485 57.2189 47.7798 57.0844 47.7476 56.9393L46.3957 50.8548C46.3666 50.7241 46.3678 50.5886 46.3993 50.4585C46.4308 50.3284 46.4917 50.2073 46.5773 50.1045L49.8925 46.1309C49.7656 48.6837 50.389 51.6565 52.3698 55.0001ZM65.4226 50.1045L62.1075 46.1309C62.2398 48.6837 61.6109 51.6565 59.6301 55.0001L62.8512 57.4326C62.9672 57.5255 63.105 57.5873 63.2515 57.6122C63.398 57.6371 63.5485 57.6243 63.6887 57.5749C63.8289 57.5255 63.9542 57.4413 64.0528 57.3301C64.1514 57.2189 64.2201 57.0844 64.2523 56.9393L65.6042 50.8548C65.6333 50.7241 65.6321 50.5886 65.6006 50.4585C65.5691 50.3284 65.5082 50.2073 65.4226 50.1045Z" fill="white"/>
<path d="M58.625 58.4994C58.625 58.7315 58.5328 58.954 58.3687 59.1181C58.2046 59.2822 57.9821 59.3744 57.75 59.3744H54.25C54.0179 59.3744 53.7954 59.2822 53.6313 59.1181C53.4672 58.954 53.375 58.7315 53.375 58.4994C53.375 58.2673 53.4672 58.0448 53.6313 57.8807C53.7954 57.7166 54.0179 57.6244 54.25 57.6244H57.75C57.9821 57.6244 58.2046 57.7166 58.3687 57.8807C58.5328 58.0448 58.625 58.2673 58.625 58.4994ZM56 46.2494C56.2596 46.2494 56.5134 46.1724 56.7292 46.0282C56.945 45.884 57.1133 45.679 57.2126 45.4392C57.3119 45.1994 57.3379 44.9355 57.2873 44.6809C57.2366 44.4263 57.1116 44.1924 56.9281 44.0088C56.7445 43.8253 56.5107 43.7003 56.2561 43.6496C56.0015 43.599 55.7376 43.625 55.4977 43.7243C55.2579 43.8237 55.0529 43.9919 54.9087 44.2077C54.7645 44.4236 54.6875 44.6773 54.6875 44.9369C54.6875 45.285 54.8258 45.6188 55.0719 45.865C55.3181 46.1111 55.6519 46.2494 56 46.2494ZM66.4584 51.0433L65.1066 57.1278C65.0424 57.4168 64.9061 57.6847 64.7102 57.9066C64.5144 58.1285 64.2654 58.2972 63.9867 58.3967C63.708 58.4962 63.4085 58.5235 63.1164 58.4758C62.8243 58.4282 62.5491 58.3072 62.3164 58.1243L59.337 55.8744H52.6652L49.6836 58.1243C49.451 58.3072 49.1757 58.4282 48.8836 58.4758C48.5915 58.5235 48.292 58.4962 48.0133 58.3967C47.7346 58.2972 47.4857 58.1285 47.2898 57.9066C47.094 57.6847 46.9576 57.4168 46.8934 57.1278L45.5416 51.0433C45.4842 50.7822 45.4871 50.5115 45.55 50.2516C45.613 49.9918 45.7343 49.7497 45.9047 49.5438L49.0284 45.7966C49.1333 44.4195 49.4494 43.0667 49.9658 41.7858C51.3767 38.2486 53.9033 36.0294 54.9281 35.2397C55.2349 35.002 55.6119 34.873 56 34.873C56.3881 34.873 56.7651 35.002 57.0719 35.2397C58.0934 36.0294 60.6233 38.2486 62.0342 41.7858C62.5506 43.0667 62.8667 44.4195 62.9716 45.7966L66.0953 49.5438C66.2658 49.7497 66.3871 49.9918 66.45 50.2516C66.5129 50.5115 66.5158 50.7822 66.4584 51.0433ZM52.8752 54.1244H59.1249C61.4349 50.0185 61.8669 46.0875 60.4089 42.4344C59.1227 39.21 56.7099 37.1713 56 36.6244C55.288 37.1713 52.8752 39.21 51.5889 42.4344C50.1331 46.0875 50.5652 50.0185 52.8752 54.1244ZM51.2345 54.7643C50.0569 52.6242 49.3424 50.5209 49.0908 48.4544L47.25 50.6638L48.6019 56.7494L48.6216 56.7352L51.2345 54.7643ZM64.75 50.6638L62.9092 48.4544C62.6599 50.5165 61.9467 52.6198 60.7699 54.7643L63.3784 56.733L63.3981 56.7472L64.75 50.6638Z" fill="white"/>
</g>
<defs>
<filter id="filter0_d_2002_652" x="0" y="0" width="112" height="112" filterUnits="userSpaceOnUse" color-interpolation-filters="sRGB">
<feFlood flood-opacity="0" result="BackgroundImageFix"/>
<feColorMatrix in="SourceAlpha" type="matrix" values="0 0 0 0 0 0 0 0 0 0 0 0 0 0 0 0 0 0 127 0" result="hardAlpha"/>
<feOffset dy="8"/>
<feGaussianBlur stdDeviation="12"/>
<feComposite in2="hardAlpha" operator="out"/>
<feColorMatrix type="matrix" values="0 0 0 0 0.788235 0 0 0 0 0.635294 0 0 0 0 0.301961 0 0 0 0.3 0"/>
<feBlend mode="normal" in2="BackgroundImageFix" result="effect1_dropShadow_2002_652"/>
<feBlend mode="normal" in="SourceGraphic" in2="effect1_dropShadow_2002_652" result="shape"/>
</filter>
<linearGradient id="paint0_linear_2002_652" x1="24" y1="16" x2="88" y2="80" gradientUnits="userSpaceOnUse">
<stop stop-color="#C9A24D"/>
<stop offset="1" stop-color="#DDB866"/>
</linearGradient>
</defs>
</svg>
