<svg width="112" height="112" viewBox="0 0 112 112" fill="none" xmlns="http://www.w3.org/2000/svg">
<g filter="url(#filter0_d_2002_1633)">
<rect x="24" y="16" width="64" height="64" rx="18" fill="url(#paint0_linear_2002_1633)" shape-rendering="crispEdges"/>
<path opacity="0.2" d="M63.875 50.625L59.5 55L52.5 53.25L46.375 48.875L49.9494 41.7252L56 40.125L62.0506 41.7252L62.0813 41.875H57.75L52.7559 46.7192C52.6631 46.812 52.5923 46.9245 52.5489 47.0484C52.5054 47.1722 52.4904 47.3043 52.5049 47.4347C52.5193 47.5652 52.563 47.6907 52.6326 47.802C52.7022 47.9133 52.7959 48.0075 52.9069 48.0777C54.822 49.3016 57.4219 49.2173 59.5 47.125L63.875 50.625Z" fill="white"/>
<path d="M69.8141 45.8018L67.0229 40.2171C66.9201 40.0116 66.7777 39.8283 66.6041 39.6777C66.4304 39.5272 66.2288 39.4123 66.0107 39.3397C65.7927 39.2671 65.5624 39.2381 65.3332 39.2545C65.1039 39.2709 64.8801 39.3322 64.6746 39.4351L61.9544 40.7946L56.2243 39.2787C56.0773 39.2404 55.9229 39.2404 55.7759 39.2787L50.0457 40.7946L47.3255 39.4351C47.12 39.3322 46.8962 39.2709 46.667 39.2545C46.4377 39.2381 46.2075 39.2671 45.9894 39.3397C45.7714 39.4123 45.5697 39.5272 45.3961 39.6777C45.2224 39.8283 45.0801 40.0116 44.9773 40.2171L42.186 45.8007C42.0832 46.0063 42.0218 46.23 42.0054 46.4593C41.9891 46.6886 42.018 46.9188 42.0906 47.1368C42.1632 47.3549 42.2781 47.5565 42.4287 47.7302C42.5792 47.9039 42.7625 48.0462 42.968 48.149L45.9212 49.6267L51.9904 53.9612C52.0798 54.0248 52.1803 54.0712 52.2868 54.0979L59.2868 55.8479C59.4334 55.8847 59.587 55.8828 59.7327 55.8426C59.8784 55.8023 60.0111 55.725 60.118 55.6182L66.1413 49.5939L69.031 48.149C69.4459 47.9413 69.7613 47.5774 69.9079 47.1373C70.0546 46.6972 70.0204 46.2168 69.813 45.8018H69.8141ZM63.8105 49.4517L60.0469 46.4373C59.8783 46.3023 59.6658 46.2344 59.4501 46.2467C59.2344 46.259 59.031 46.3507 58.8788 46.504C56.9309 48.4662 54.7598 48.2179 53.3751 47.3429L58.1044 42.7492H61.5837L64.5598 48.7003L63.8105 49.4517ZM46.5424 40.9992L48.7813 42.117L45.9846 47.7006L43.7501 46.5839L46.5424 40.9992ZM59.2299 54.029L52.8741 52.4409L47.4929 48.5974L50.5554 42.4724L56.0001 41.0298L57.0719 41.3131L52.1501 46.0906L52.1413 46.1004C51.956 46.2857 51.8147 46.5102 51.7278 46.7574C51.6409 47.0046 51.6106 47.2681 51.6392 47.5286C51.6677 47.789 51.7544 48.0397 51.8928 48.2622C52.0312 48.4847 52.2178 48.6733 52.4388 48.814C54.6876 50.2501 57.4012 50.0171 59.5384 48.2671L62.5626 50.6964L59.2299 54.029ZM66.0112 47.6995L63.2199 42.1214L65.4577 40.9992L68.2501 46.5839L66.0112 47.6995ZM56.4135 57.8353C56.3662 58.0244 56.2572 58.1923 56.1036 58.3124C55.95 58.4324 55.7608 58.4978 55.5659 58.4981C55.494 58.498 55.4223 58.4892 55.3526 58.4718L50.7949 57.3321C50.6883 57.3058 50.5877 57.2594 50.4985 57.1954L47.6165 55.137C47.4393 54.9978 47.3226 54.7957 47.2907 54.5727C47.2587 54.3496 47.3141 54.1229 47.4452 53.9397C47.5763 53.7564 47.773 53.6308 47.9944 53.589C48.2158 53.5471 48.4448 53.5923 48.6337 53.7151L51.3801 55.6773L55.7813 56.7754C56.0064 56.8317 56.1999 56.9751 56.3193 57.1741C56.4387 57.373 56.4741 57.6113 56.4179 57.8364L56.4135 57.8353Z" fill="white"/>
</g>
<defs>
<filter id="filter0_d_2002_1633" x="0" y="0" width="112" height="112" filterUnits="userSpaceOnUse" color-interpolation-filters="sRGB">
<feFlood flood-opacity="0" result="BackgroundImageFix"/>
<feColorMatrix in="SourceAlpha" type="matrix" values="0 0 0 0 0 0 0 0 0 0 0 0 0 0 0 0 0 0 127 0" result="hardAlpha"/>
<feOffset dy="8"/>
<feGaussianBlur stdDeviation="12"/>
<feComposite in2="hardAlpha" operator="out"/>
<feColorMatrix type="matrix" values="0 0 0 0 0.0392157 0 0 0 0 0.545098 0 0 0 0 0.545098 0 0 0 0.3 0"/>
<feBlend mode="normal" in2="BackgroundImageFix" result="effect1_dropShadow_2002_1633"/>
<feBlend mode="normal" in="SourceGraphic" in2="effect1_dropShadow_2002_1633" result="shape"/>
</filter>
<linearGradient id="paint0_linear_2002_1633" x1="24" y1="16" x2="88" y2="80" gradientUnits="userSpaceOnUse">
<stop stop-color="#0A8B8B"/>
<stop offset="1" stop-color="#1AB4B4"/>
</linearGradient>
</defs>
</svg>
