<svg width="16" height="12" viewBox="0 0 16 12" fill="none" xmlns="http://www.w3.org/2000/svg">
<path d="M5.625 4.5C5.625 4.35082 5.68426 4.20774 5.78975 4.10225C5.89524 3.99676 6.03832 3.9375 6.1875 3.9375H11.8125C11.9617 3.9375 12.1048 3.99676 12.2102 4.10225C12.3157 4.20774 12.375 4.35082 12.375 4.5C12.375 4.64918 12.3157 4.79226 12.2102 4.89775C12.1048 5.00324 11.9617 5.0625 11.8125 5.0625H6.1875C6.03832 5.0625 5.89524 5.00324 5.78975 4.89775C5.68426 4.79226 5.625 4.64918 5.625 4.5ZM6.1875 7.3125H11.8125C11.9617 7.3125 12.1048 7.25324 12.2102 7.14775C12.3157 7.04226 12.375 6.89918 12.375 6.75C12.375 6.60082 12.3157 6.45774 12.2102 6.35225C12.1048 6.24676 11.9617 6.1875 11.8125 6.1875H6.1875C6.03832 6.1875 5.89524 6.24676 5.78975 6.35225C5.68426 6.45774 5.625 6.60082 5.625 6.75C5.625 6.89918 5.68426 7.04226 5.78975 7.14775C5.89524 7.25324 6.03832 7.3125 6.1875 7.3125ZM15.75 1.125V9.5625C15.75 10.0101 15.5722 10.4393 15.2557 10.7557C14.9393 11.0722 14.5101 11.25 14.0625 11.25H1.6875C1.24128 11.25 0.81323 11.0733 0.496983 10.7585C0.180737 10.4437 0.00204516 10.0164 0 9.57023V2.8125C0 2.66332 0.0592632 2.52024 0.164752 2.41475C0.270242 2.30926 0.413316 2.25 0.5625 2.25C0.711684 2.25 0.854758 2.30926 0.960248 2.41475C1.06574 2.52024 1.125 2.66332 1.125 2.8125V9.5625C1.125 9.71168 1.18426 9.85476 1.28975 9.96025C1.39524 10.0657 1.53832 10.125 1.6875 10.125C1.83668 10.125 1.97976 10.0657 2.08525 9.96025C2.19074 9.85476 2.25 9.71168 2.25 9.5625V1.125C2.25 0.826631 2.36853 0.540483 2.5795 0.329505C2.79048 0.118526 3.07663 0 3.375 0H14.625C14.9234 0 15.2095 0.118526 15.4205 0.329505C15.6315 0.540483 15.75 0.826631 15.75 1.125ZM14.625 1.125H3.375V9.5625C3.37528 9.75413 3.3427 9.94438 3.27867 10.125H14.0625C14.2117 10.125 14.3548 10.0657 14.4602 9.96025C14.5657 9.85476 14.625 9.71168 14.625 9.5625V1.125Z" fill="#1AB4B4"/>
</svg>
