<svg width="18" height="18" viewBox="0 0 18 18" fill="none" xmlns="http://www.w3.org/2000/svg">
<path opacity="0.2" d="M13.6981 10.6472L9.82459 12.0746L8.39724 15.9481C8.35782 16.0549 8.28661 16.1471 8.1932 16.2122C8.09979 16.2772 7.98867 16.3121 7.87482 16.3121C7.76097 16.3121 7.64986 16.2772 7.55645 16.2122C7.46304 16.1471 7.39182 16.0549 7.3524 15.9481L5.92506 12.0746L2.05154 10.6472C1.94473 10.6078 1.85258 10.5366 1.78749 10.4432C1.7224 10.3498 1.6875 10.2387 1.6875 10.1248C1.6875 10.011 1.7224 9.89986 1.78749 9.80645C1.85258 9.71304 1.94473 9.64182 2.05154 9.6024L5.92506 8.17506L7.3524 4.30154C7.39182 4.19473 7.46304 4.10258 7.55645 4.03749C7.64986 3.9724 7.76097 3.9375 7.87482 3.9375C7.98867 3.9375 8.09979 3.9724 8.1932 4.03749C8.28661 4.10258 8.35782 4.19473 8.39724 4.30154L9.82459 8.17506L13.6981 9.6024C13.8049 9.64182 13.8971 9.71304 13.9622 9.80645C14.0272 9.89986 14.0621 10.011 14.0621 10.1248C14.0621 10.2387 14.0272 10.3498 13.9622 10.4432C13.8971 10.5366 13.8049 10.6078 13.6981 10.6472Z" fill="#0A8B8B"/>
<path d="M13.8923 9.07453L10.2656 7.73437L8.92962 4.10484C8.8505 3.88992 8.70737 3.70443 8.51953 3.57341C8.33168 3.44239 8.10817 3.37214 7.87915 3.37214C7.65012 3.37214 7.42661 3.44239 7.23877 3.57341C7.05093 3.70443 6.90779 3.88992 6.82868 4.10484L5.4843 7.73437L1.85477 9.07031C1.63985 9.14942 1.45436 9.29256 1.32334 9.4804C1.19232 9.66825 1.12207 9.89176 1.12207 10.1208C1.12207 10.3498 1.19232 10.5733 1.32334 10.7612C1.45436 10.949 1.63985 11.0921 1.85477 11.1712L5.4843 12.5156L6.82024 16.1452C6.89935 16.3601 7.04249 16.5456 7.23033 16.6766C7.41817 16.8076 7.64169 16.8779 7.87071 16.8779C8.09973 16.8779 8.32324 16.8076 8.51109 16.6766C8.69893 16.5456 8.84207 16.3601 8.92118 16.1452L10.2656 12.5156L13.8951 11.1797C14.11 11.1006 14.2955 10.9574 14.4265 10.7696C14.5575 10.5818 14.6278 10.3582 14.6278 10.1292C14.6278 9.90019 14.5575 9.67668 14.4265 9.48884C14.2955 9.301 14.11 9.15786 13.8951 9.07875L13.8923 9.07453ZM9.63274 11.5467C9.55639 11.5749 9.48705 11.6192 9.42951 11.6768C9.37197 11.7343 9.3276 11.8036 9.29946 11.88L7.87493 15.7395L6.45321 11.8828C6.42512 11.8057 6.38047 11.7356 6.32241 11.6775C6.26434 11.6195 6.19427 11.5748 6.11712 11.5467L2.26048 10.125L6.11712 8.70328C6.19427 8.67519 6.26434 8.63054 6.32241 8.57248C6.38047 8.51441 6.42512 8.44434 6.45321 8.36719L7.87493 4.51055L9.29665 8.36719C9.32479 8.44354 9.36916 8.51288 9.4267 8.57042C9.48424 8.62796 9.55358 8.67233 9.62993 8.70047L13.4894 10.125L9.63274 11.5467ZM10.1249 2.8125C10.1249 2.66332 10.1842 2.52024 10.2897 2.41475C10.3952 2.30926 10.5382 2.25 10.6874 2.25H11.8124V1.125C11.8124 0.975816 11.8717 0.832742 11.9772 0.727252C12.0827 0.621763 12.2257 0.5625 12.3749 0.5625C12.5241 0.5625 12.6672 0.621763 12.7727 0.727252C12.8782 0.832742 12.9374 0.975816 12.9374 1.125V2.25H14.0624C14.2116 2.25 14.3547 2.30926 14.4602 2.41475C14.5657 2.52024 14.6249 2.66332 14.6249 2.8125C14.6249 2.96168 14.5657 3.10476 14.4602 3.21025C14.3547 3.31574 14.2116 3.375 14.0624 3.375H12.9374V4.5C12.9374 4.64918 12.8782 4.79226 12.7727 4.89775C12.6672 5.00324 12.5241 5.0625 12.3749 5.0625C12.2257 5.0625 12.0827 5.00324 11.9772 4.89775C11.8717 4.79226 11.8124 4.64918 11.8124 4.5V3.375H10.6874C10.5382 3.375 10.3952 3.31574 10.2897 3.21025C10.1842 3.10476 10.1249 2.96168 10.1249 2.8125ZM17.4374 6.1875C17.4374 6.33668 17.3782 6.47976 17.2727 6.58525C17.1672 6.69074 17.0241 6.75 16.8749 6.75H16.3124V7.3125C16.3124 7.46168 16.2532 7.60476 16.1477 7.71025C16.0422 7.81574 15.8991 7.875 15.7499 7.875C15.6007 7.875 15.4577 7.81574 15.3522 7.71025C15.2467 7.60476 15.1874 7.46168 15.1874 7.3125V6.75H14.6249C14.4757 6.75 14.3327 6.69074 14.2272 6.58525C14.1217 6.47976 14.0624 6.33668 14.0624 6.1875C14.0624 6.03832 14.1217 5.89524 14.2272 5.78975C14.3327 5.68426 14.4757 5.625 14.6249 5.625H15.1874V5.0625C15.1874 4.91332 15.2467 4.77024 15.3522 4.66475C15.4577 4.55926 15.6007 4.5 15.7499 4.5C15.8991 4.5 16.0422 4.55926 16.1477 4.66475C16.2532 4.77024 16.3124 4.91332 16.3124 5.0625V5.625H16.8749C17.0241 5.625 17.1672 5.68426 17.2727 5.78975C17.3782 5.89524 17.4374 6.03832 17.4374 6.1875Z" fill="#0A8B8B"/>
</svg>
